<svg xmlns="http://www.w3.org/2000/svg" viewBox="0 0 800 600"  xmlns:v="https://vecta.io/nano"><style><![CDATA[.H{fill:#202020}.I{fill:#fff}.J{fill:#ff8e02}]]></style><g fill="none" stroke="#ff8e02" stroke-width="4.109" stroke-linecap="round" stroke-miterlimit="10"><path d="M98.7 356.1l-.3 4.9"/><path d="M98.9,377.8c12.3,101.6,188.4,56.9,216.7-81.8" stroke-dasharray="10.0934,16.8223"/><path d="M317.1 287.7l.7-4.9"/></g><path d="M483 395.6l-24.7 54.3-35.1 30.1c-1.9 1.6-3.1 3.7-3.4 5.9l-1 6.4s-2.1 5.4 22.2 5.4l161.4.4c14.8-.9 51.7 1.8 42.7-8.9-1.7-2-2.3-4-5.1-6.9-11.9-12.4-32.4-30.6-32.4-30.6L574.9 395l-91.9.6z" class="I"/><path d="M483 395.6c-4.7 6-7.7 10.2-11.5 18.2l-8.6 18.9c-1.3 3-2.7 5.9-4.1 9l-2.1 4.6-.8 1.9-.3.3-1 .8-33.1 28.4a16.28 16.28 0 0 0-2.2 2.3c-.6.9-1.2 1.8-1.6 2.8-.2.5-.4 1-.5 1.6-.1.5-.2 1.2-.3 1.5-.3 1.6-.5 3.3-.8 4.9l-.1.6c-.1.4-.1.8-.2 1.2 0 .8.2 1.6.6 2.3.2.3.4.7.7 1s.6.6.9.8c.3.3.6.5.8.6s.5.3.7.4c1.7.9 3.2 1.2 4.8 1.6.8.2 1.5.3 2.3.4l2.2.3a136.45 136.45 0 0 0 8.7.6c2.9.1 5.7.1 8.4.1h8.2l31.5.2 53.6.4 36.3.1h18.3c1.6 0 3.5 0 5.9-.1 1.1 0 2.5-.1 3.7-.1 1.3-.1 2.6-.1 4-.1l20.9-.3c4.1-.2 8.4-.4 13.1-1.5 1.2-.3 2.4-.6 3.8-1.3a8 8 0 0 0 2.1-1.3c.9-.7 1.6-1.7 1.9-2.8s.2-2.3-.2-3.4c-.4-1-.8-1.7-1.3-2.3l-.6-.7c-.1-.2-.3-.4-.4-.6-.3-.4-.6-.9-.9-1.4-.6-1-1.4-2.2-2.3-3.3-.4-.5-.9-1.1-1.4-1.6-.4-.5-.9-.9-1.3-1.4l-5.5-5.5-11.6-11-12.3-11.3-1.4-1.3c.2.3-.4-.7-.7-1.2l-2.1-3.7-4.3-7.5-17.6-30.5-4.4-7.7-2.2-3.8-.9-1.5c-.4-.6-.7-1.3-1.1-1.9h-3.9l-68.3.4c-9.1 0-14.1 1-21.5 2.9 7.4 1.8 12.5 2.8 21.3 2.8l68.8-.4.3.4 2.2 3.8c1.5 2.5 2.9 5.1 4.4 7.7l17.6 30.5 4.3 7.5 2.1 3.7.5.9.4.6.3.5.4.4 1.7 1.5 12.3 11.2 11.5 10.9 6.7 6.7c.4.4.7.8 1.1 1.2.7.8 1.3 1.7 1.9 2.7a15.26 15.26 0 0 0 1.1 1.6l.6.9.5.7c.2.3.4.7.4.7-.1.1-.4.3-.8.5-.7.3-1.7.6-2.6.9-3.9.9-8.2 1.1-12.1 1.3-7.9.3-14.9.2-20.8.3-1.5 0-2.9.1-4.2.1-1.4.1-2.5.1-3.6.1-2.2.1-4.2.1-5.7.1h-18.1c-8.6 0-21-.1-36.3-.1l-53.6-.4-31.5-.2h-8.2c-2.8 0-5.6 0-8.3-.1-1.4 0-2.7-.1-4.1-.2s-2.7-.2-4.1-.4l-2-.3c-.6-.1-1.3-.2-1.9-.4-1.2-.3-2.5-.6-3.4-1.1-.2-.1-.5-.3-.4-.3h0l.1-.6c.3-1.6.5-3.2.8-4.9.1-.5.1-.6.2-.9s.2-.5.3-.8c.2-.5.5-1 .9-1.5s.8-.9 1.3-1.4l1.9-1.6 31.2-26.8 1-.8.6-.5.5-.4.2-.2.1-.3 1.2-2.7 14.8-32.5c3.6-7.9 4.8-12.9 6.2-20.4zm117.7 58.8c-7.4-1.9-12.4-3-21.3-3.1-1.5 0-3.9 0-9-.1l-36.7-.3-33.6-.4-13.2-.1c-8.9 0-13.9.9-21.3 2.7 7.4 1.9 12.4 3 21.3 3.1 2.2 0 6.4.1 13.2.2l33.6.3 45.7.5c8.9-.1 13.9-1.1 21.3-2.8z" class="H"/><path d="M327.1 127.4l413.2 1 2.1 167.1c-1.4 30.6 1.2 110.8-6.1 110.8l-264.4.2c-55.8-.3-147.5 3.3-148.9-5.2-2.2-12.4-.1-259.2 4.1-273.9z" class="I"/><path d="M327.1 127.4c8.1 2 13.5 3.1 23.2 3.2l386.9 1 .3 14.7 1.2 65.2.7 60.1v14c0 2.3 0 4.6-.1 6.8 0 1.1-.1 2.2-.1 3.3s-.1 2.3-.1 3.4c-.3 8.9-.3 17.5-.4 25.7l-.5 44.4-.8 18.3c-.2 2.8-.4 5.5-.7 8s-.7 4.9-1.2 6.8c-.1.2-.1.5-.2.7l-.1.4h-23.8l-354.8.3c-5.8-.2-11.6-.5-17.3-1-2.8-.3-5.7-.6-8.4-1.1-1.3-.2-2.7-.5-3.8-.9-.5-.1-1.2-.5-1-.4 0 .1 0-.4-.1-.6 0-.3 0-.7-.1-1l-.1-2.1-.3-13.1-.1-17.6.2-70 .9-68 .7-32.7.4-15.9.4-14.3.5-14.2c.2-4.8.1-8.6-.2-12.2-.4-3.7-1-7.1-1.2-11.2-.9 1.9-1.5 3.7-2.1 5.5-.5 1.8-1 3.5-1.4 5.3-.8 3.6-1.2 7.3-1.5 12.2l-.6 14.2-.4 14.3-.4 15.9-.7 32.7-.9 68-.2 70 .1 17.6.3 13.2.1 2.3c0 .4 0 .7.1 1.2l.2 1.5a1.93 1.93 0 0 0 .3 1c.1.3.2.7.4 1s.4.6.7.8c.2.3.5.5.8.7 1.4.9 2.1 1.1 2.9 1.4 1.7.6 3.2.9 4.7 1.2 3 .6 6 .9 9 1.1 5.9.5 11.8.8 17.6 1l379.5-.3c.3 0 .5 0 .8-.1s.5 0 .8-.1c.5-.1 1-.3 1.4-.7.8-.6 1.5-1.6 2-2.6.3-.6.3-.8.5-1.2.1-.3.2-.7.3-1 .7-2.6 1.1-5.1 1.4-7.8s.6-5.4.8-8.3c.4-5.7.6-11.9.8-18.5l.5-44.5.4-25.5c0-1.1.1-2.2.1-3.3s.1-2.3.1-3.4c.1-2.3.1-4.6.1-6.9.1-4.6 0-9.3 0-14.1l-.7-60.1-1.2-65.3-.4-19.2V125c-.1-.1-.3 0-.5-.1h-18.9c-11.4 0-23-.1-34.6-.1l-339.1-.8c-9.6.4-15.1 1.4-23.1 3.4z" class="H"/><path d="M722.5 395.5c-.4 2-203-3.8-219.5-3.8s-165.4 2.5-166.7-1.9-1.3-243.4.6-245.3c19.7-1.3 390-8.9 391.3-1.9s1.9 124.4 1.3 145.4c-.7 20.9-5.8 101.7-7 107.5z" fill="#f4e9c6"/><path d="M722.5 395.5c-.5.1-1-.1-1.5-.1l-1.4-.3-2.7-.6-5.3-.9c-3.6-.5-7.3-.8-12.2-.9-1.3 0-3.2 0-5.7-.1-1.2 0-2.5 0-3.9-.1l-23.7-.4-27.5-.6-120.8-2.8-16-.3-16 .2-32.1.3-64.1.2-31.6-.5-15.4-.8-2.7-.3c-.3 0-.7-.1-.6-.1l-.1-3.2c0-1.3-.1-2.6-.1-3.8l-.5-59.7.1-103.8.3-40.8.3-16.9.2-7.5c0-1.2.1-2.3.1-3.5v-.8c0-.1 0 0 0 0h0l8.5-.3 8.6-.2 11.2-.3 99.2-2 104.3-1.4 60.1-.4 63.1.4 16 .5 8 .4 3.9.3c.6.1 1.3.1 1.9.2l.9.1v.5l.2 3.9.2 8 .3 16.2.5 64.4v31.6l-.2 15.5a391.09 391.09 0 0 1-.6 15.3l-1.7 30-1.8 27.8-1 14.2c-.3 4.8-.3 8.6-.1 12.2l1.4 11.2c1.6-3.9 2.6-7.2 3.4-10.7s1.4-7.3 1.8-12.1l1-14.2 1.8-27.8 1.7-30.1.6-15.5.2-15.6v-31.7l-.5-64.5-.5-16.3-.2-8.1-.1-2.1v-1.5c0-.2 0-.3-.1-.6l-.7-3.4-.1-.4a.76.76 0 0 0-.2-.4c-.2-.2-.4-.5-.7-.6-.5-.4-1.1-.6-1.7-.8s-1.3-.3-2-.4l-1.1-.2c-.7-.1-1.4-.2-2.1-.2l-4.1-.3c-2.7-.2-5.4-.3-8.1-.4l-16.1-.5-63.2-.4-60.1.4-104.3 1.4-103 2.1c-.2 0-2.7.1-7.4.2-2.3.1-5.2.1-8.6.2-1.7.1-3.5.1-5.4.2-1 0-2 .1-3 .1s-2 .1-3 .1h-.8c-.2 0-.6 0-.6.2-.2.4-.4.7-.7 1.1l-.3.6c-.1.2-.2.4-.3.7-.1.5-.2 1-.2 1.6 0 .5-.1 1.1-.1 1.6v.9c0 1.2-.1 2.3-.1 3.6-.1 2.4-.1 4.9-.2 7.6l-.3 17-.4 40.9-.1 103.8.5 59.8c0 1.3.1 2.6.1 3.9l.1 2v1l.1 1.6c0 .6.1 1.3.3 1.8s.5 1 .9 1.4c.8.8 2.1 1.1 3.4 1.4.8.2.9.2 1.3.2l3 .3c5.3.5 10.5.7 15.8.8l31.7.5 64.2-.2 32.1-.3 16-.2c5.2 0 10.5.2 15.8.3l148.4 3.4 23.8.4h9.7c4.8 0 8.6-.2 12.2-.8 1.8-.3 3.5-.6 5.3-1 .9-.2 1.8-.4 2.8-.7.5-.1.9-.3 1.4-.4 0-.3.5-.4 1-.7z" class="H"/><path d="M639.1 341.9H309.9c-13 0-23.6-10.6-23.6-23.6V211.1c0-13 10.6-23.6 23.6-23.6h329.2c13 0 23.6 10.6 23.6 23.6v107.3c0 12.9-10.6 23.5-23.6 23.5z" fill="#483374"/><path d="M639.1 341.9c-6.6-1.6-11.1-2.5-19-2.6h-310c-.5 0-.9 0-1.4-.1-.5 0-.9 0-1.4-.1-3.6-.5-7.1-1.7-9.9-3.9-1.5-1-2.7-2.3-3.9-3.6-1.1-1.4-2.1-2.8-2.8-4.5-.4-.8-.7-1.6-1-2.4s-.5-1.7-.6-2.5c-.1-.9-.3-1.7-.3-2.6l-.1-1.3V216.4c0-2.7-.1-5.5.1-7.7.2-2.3.9-4.4 1.8-6.4s2.1-3.7 3.4-5.2 2.8-2.7 4.4-3.8c3.1-2 6.5-3 9.5-3.3.4 0 .8 0 1.1-.1h329.6c.5 0 1 0 1.5.1.5 0 1 0 1.4.1 1.9.2 3.8.8 5.5 1.5 1.7.8 3.4 1.7 4.9 3 3 2.4 5.4 5.6 6.6 9.2.4.9.6 1.8.8 2.7.1.5.2.9.2 1.4.1.5.2.9.2 1.4l.1 1.4v107.7l-.1 1.3c0 .4 0 .8-.1 1.3l-.2 1.3-.4 1.6c-1.3 4.5-3.8 7.6-5.1 8.9-.6.7-1.2 1.2-1.8 1.8l-1.8 1.5c-1.2.9-2.3 1.7-3.5 2.4-2 1.4-4.4 2.6-7.7 3.4 3.3.8 6.4.8 9.5 0 1.5-.4 3.1-1 4.7-1.9.8-.4 1.5-1 2.4-1.6.7-.6 1.6-1.3 2.3-2.1.4-.4.9-1 1.5-1.6.5-.7 1.2-1.5 1.7-2.4 1.2-1.8 2.4-4.3 3.2-7l.1-.5c.1-.5.3-1 .4-1.5.1-1 .4-2.1.4-3.2l.1-1.6V210.7l-.1-1.8c0-.6-.1-1.2-.2-1.8l-.3-1.8c-.3-1.2-.6-2.3-1-3.4-1.6-4.5-4.6-8.5-8.3-11.5-1.9-1.5-4-2.7-6.1-3.7-2.2-.9-4.5-1.6-6.9-1.8-.6-.1-1.2-.1-1.8-.2-.6 0-1.2-.1-1.8-.1H309.2c-.5 0-.9 0-1.4.1-3.8.3-8 1.6-11.9 4.1-1.9 1.3-3.8 2.8-5.5 4.7-1.6 1.9-3.2 4-4.2 6.5a25.54 25.54 0 0 0-2.2 8c-.3 3-.1 5.5-.2 8.2v102l.1 1.6c0 1.1.2 2.1.4 3.2s.5 2.1.8 3.1c.4 1 .7 2.1 1.2 3 .9 2 2.2 3.8 3.5 5.5 1.5 1.6 3 3.3 4.8 4.5 3.6 2.7 7.9 4.3 12.4 4.9 1.1.1 2.3.2 3.3.2h310c7.7.3 12.2-.6 18.8-2.3z" class="H"/><path d="M287.5 225.3c-23.9 2.1-38 18.9-38 41 0 17.9 13 42.4 43.5 41.4 33.5-1.1 41.4-23.3 40.7-45.9-.5-16.6-16.2-39.2-46.2-36.5z" class="J"/><path d="M287.5 225.3l-4.3-.4-4.1.1c-1.4.1-2.8.5-4.3.8-.8.2-1.5.5-2.3.8l-2.5 1-1.7.9c-.6.4-1.4.7-2.2 1.3l-2.6 1.7s-.1 0-.1.1l-.2.2-.5.4c-.3.3-.6.5-1 .8l-1.9 1.6-1.8 1.8c-.6.6-1.1 1.3-1.7 2-9.2 11-12.2 29.5-6.1 44.4 2.9 7.4 7.7 13.9 13.5 18.4 5.7 4.5 12.2 6.9 17.7 8s10.2 1 13.3.8c3.2-.2 4.9-.4 4.9-.4s.4-.1 1.3-.2c.8-.1 2.1-.3 3.6-.6 3.1-.7 7.6-1.9 12.6-4.7 4.9-2.8 10.1-7.6 13.5-14.1s5-14.2 5.3-22c.1-2 .1-3.9.1-5.9-.1-1-.2-2.1-.2-3.1-.1-1-.3-2-.5-3-.9-4-2.4-7.8-4.3-11.3-.5-.9-1.1-1.7-1.6-2.5-.3-.4-.5-.8-.8-1.2l-.9-1.2c-.6-.8-1.2-1.6-1.8-2.3-.7-.7-1.3-1.4-2-2.1-.6-.7-1.4-1.3-2.1-1.9s-1.4-1.3-2.2-1.8-1.5-1.1-2.3-1.6c-.4-.2-.7-.5-1.1-.8-.3-.2-.7-.4-1-.6-1.1-.6-2.1-1.2-3.1-1.7l-2.9-1.2c-.4-.2-.8-.4-1.3-.5-.4-.1-.8-.2-1.1-.3-.7-.2-1.3-.4-1.8-.5-1.8-.6-3.5-.7-5-.9s-3-.1-4.3 0c-2.8 0-5.3.9-8.2 1.7 3 .6 5.5 1 8 1.6 1.3.3 2.5.5 3.9.9s2.9.6 4.4 1.1c.4.1 1 .3 1.6.5.3.1.7.2 1 .3.4.1.7.3 1.1.4.8.3 1.6.7 2.5 1.1s1.8 1 2.8 1.5c.3.2.6.3.9.5.4.2.7.4 1 .7l2 1.4c.7.5 1.3 1.1 1.9 1.6.6.6 1.3 1.1 1.9 1.7s1.2 1.2 1.8 1.9c.6.6 1.1 1.3 1.6 2l.8 1c.3.3.5.7.7 1.1.5.7 1 1.5 1.4 2.2 1.7 3.1 3 6.5 3.8 10 .1.9.4 1.7.5 2.6s.2 1.7.2 2.6v5.5c-.3 7.3-1.8 14.4-4.8 20.1-2.9 5.7-7.4 9.8-11.7 12.3s-8.4 3.6-11.3 4.2c-1.4.3-2.6.5-3.3.6-.8.1-1.2.2-1.2.2s-1.6.2-4.6.4c-2.9.2-7.2.2-12.2-.7-4.9-1-10.6-3.1-15.7-7.1-5.1-3.9-9.4-9.7-12-16.4-5.5-13.4-2.7-30.1 5.4-39.7.5-.6.9-1.2 1.5-1.8l1.6-1.6c.5-.6 1.1-1 1.7-1.5l1.5-1.2c.8-.5 1.6-1.1 2.3-1.5.7-.5 1.4-.8 2-1.1s1.1-.6 1.5-.8c.7-.4 1.5-.7 2.2-1s1.3-.7 2-.9c1.3-.5 2.5-1.1 3.7-1.6 1.2-.4 2.4-1 3.6-1.5l4-1.6z" class="H"/><path d="M264.2 252.5c4.6-1.1 19.5-2.2 19.5-2.2 8.1 11.1 16.1 22 20.3 29.6-7.4 1.7-14.9 2.7-22.6 3.1-4.9-7.9-11.6-19.5-17.2-30.5z" class="I"/><path d="M264.2 252.5l8.2.5c2.6.1 5.4 0 8.9-.2.3 0 .6-.1 1.1-.1h.2l.1.1c.1.1.2.3.3.5.5.6 1 1.3 1.6 2.2 2.8 3.8 7.5 10.3 11.3 15.9l2.6 4c.4.6.8 1.2 1.1 1.8.2.4.5.7.7 1.1.1.2.1.1.1.1h0c-.6.1-1.4.3-2.3.4-.9.2-2 .3-3.1.5-2.3.4-4.9.7-7.6.9l-4.2.3h-.6c-.2-.3-.3-.5-.5-.8l-2.5-4.2-5.3-9.1c-3.5-6.2-6.1-9.3-10.1-13.9 1.4 5.9 2.6 9.9 6.1 16.1.9 1.5 2.5 4.5 5.3 9.2.4.7 1.5 2.5 2.6 4.3.6.9 1.2 1.9 1.7 2.8.1.1.2.3.3.4h.5l1.1-.1 1.7-.1 4.4-.3c2.9-.3 5.6-.6 7.9-1 1.2-.2 2.3-.4 3.2-.6 1-.2 1.9-.4 2.6-.5l4.3-1s.2 0 .5-.1c.2 0 .4-.1.6-.1.1 0 .2-.1.4-.1h.1s.1 0 0-.1c0-.1-.1-.1-.1-.2-.6-1.1-1.5-2.6-2.6-4.5-.1-.2-.3-.5-.4-.7l-.3-.6c-.2-.3-.3-.5-.5-.8-.4-.6-.7-1.2-1.1-1.8-.8-1.3-1.7-2.7-2.7-4.1-3.9-5.7-8.6-12.2-11.4-16.1l-1.6-2.2-.9-1.2c-.4-.5-.8-1.1-1.1-1.5-1.7.1-2.9.2-3.8.3-3.6.3-6.3.8-8.9 1.5-2.7 1-5.2 1.8-7.9 3.1z" class="H"/><path d="M318.5 218.1l19.8-1.2-34.4 63-10-15.5z" class="I"/><path d="M318.5 218.1c3 .6 5.5 1 8.2 1.2l4.2.2h3.4s.1-.1-.1.2l-28.8 52.7-1.6 3-3.1-4.7-3-4.7c-.3-.4-.6-.9-.9-1.4l-.2-.3.2-.4.9-1.7 9.9-18.6 4.9-9.3c3.3-6.3 4.5-10.2 6-16.2-4.1 4.5-6.7 7.7-10.1 14l-5 9.3-9.9 18.6c-.8 1.6-1.7 3.1-2.4 4.5.2.5.6 1 .9 1.5.3.4.5.8.7 1.1.3.5.6.9.9 1.4 1.2 1.8 2.2 3.3 3 4.7 2 3 3.3 5.1 4 6.2l2.1 3.2c.3.5.6 1 1 1.5l.2.4c.1 0 .1-.2.2-.3.1-.2.3-.5.4-.7l2.7-5c.9-1.6 1.5-2.8 2-3.7l1.1-2 27.7-50.7c.9-1.7 1.7-3.2 2.5-4.5.4-.7.7-1.3 1-1.9.2-.3.3-.6.5-.8l.1-.2.1-.1h-.5l-5.1.3c-.9.1-1.7.1-2.6.2-.4 0-.9.1-1.3.1l-2.3.3c-1.5.2-2.8.4-4.1.7-2.4.3-4.9 1-7.8 1.9zm52.7 45.7c6.7 1.7 11.3 2.6 19.4 2.6l210.8-.4c8.1-.1 12.6-1 19.3-2.7-6.7-1.7-11.3-2.6-19.4-2.6l-210.8.4c-8 .1-12.6 1-19.3 2.7zm1.5 21.2c6.7 1.6 11.3 2.5 19.4 2.5l212.4-1c8.1-.1 12.6-1 19.3-2.7-6.7-1.6-11.3-2.5-19.4-2.5l-212.4 1c-8 .1-12.6 1-19.3 2.7zm2.2 21.2c6.6 1.6 11.1 2.4 19 2.4l8-.1 31.7-.3 40.7-.3c7.9-.1 12.4-1 19-2.7-6.6-1.6-11.1-2.4-19-2.4l-11.7.1-68.7.7c-7.9 0-12.4.9-19 2.6z" class="H"/><path d="M607.8 238.9H383.3c-5.3 0-9.7-4.4-9.7-9.7v-6c0-5.3 4.4-9.7 9.7-9.7h224.5c5.3 0 9.7 4.4 9.7 9.7v6c0 5.4-4.3 9.7-9.7 9.7z" class="I"/><path d="M607.8 238.9c-6.1-1.5-10.2-2.3-17.4-2.4H382.6c-.3 0-.6-.1-.9-.1-1.1-.3-2.2-.8-3-1.5-1.7-1.4-2.7-3.5-2.7-5.5v-6.6c0-.2 0-.5.1-.7.2-1.8 1.1-3.3 2.2-4.3 1.1-1.1 2.5-1.7 3.7-1.9.3 0 .6-.1.9-.1h225.2c.7 0 1.4.2 2.1.4s1.3.6 1.9.9c.3.2.6.4.8.7.1.1.3.2.4.4l.1.1c1.2 1.4 1.8 3 1.8 4.4v6.6c0 .6-.1 1.2-.2 1.8a9.58 9.58 0 0 1-1.2 3.2c-1.2 2-2.9 3.8-6 4.6 3 .7 6.2-.1 8.6-2.2 1.2-1.1 2.2-2.5 2.8-4.2a12.66 12.66 0 0 0 .6-2.8c0-.6 0-.9.1-1.3v-5.7c-.1-2.3-1-5-3-7.2l-.8-.8c-.4-.4-.9-.8-1.3-1.1-1-.6-2-1.2-3.1-1.6-1.1-.3-2.3-.6-3.5-.6H382.7c-.5 0-1 .1-1.5.2-2 .4-4.3 1.4-6.1 3.1s-3.3 4.2-3.7 7.1c-.1.4-.1.7-.1 1.1v6.9c.1 3.3 1.7 6.8 4.5 9 1.4 1.1 3.1 2 5 2.4.5.1.9.2 1.4.2h208.3c7.1-.2 11.3-1 17.3-2.5z" class="H"/><path d="M614.3 326.9h-86.5c-3.3 0-5.9-2.7-5.9-5.9v-13.5c0-3.3 2.7-5.9 5.9-5.9h86.5c3.3 0 5.9 2.7 5.9 5.9V321c0 3.2-2.7 5.9-5.9 5.9z" class="J"/><path d="M614.3 326.9c-6.6-1.6-11.1-2.5-19-2.6h-67.8c-.2 0-.4-.1-.6-.1-.4-.1-.8-.3-1.1-.6-.6-.5-1.1-1.2-1.2-2 0-.2-.1-.4-.1-.6v-13.5c0-.7.1-1.1.4-1.6.5-.9 1.3-1.5 1.9-1.7.3-.1.7-.2.9-.2H615c1.4.3 2.4 1.6 2.5 2.7v4.3c0 2 .1 3.7.2 5.4.1.8.1 1.6.2 2.4 0 .4.1.8.1 1.1s.1.7.1 1c.2 1 0 2.1-.6 3.2-.4 1.3-1.5 2.4-3.2 2.8 1.7.4 3.5 0 4.9-1 1.5-1 2.5-2.7 2.8-4.6.1-.4.1-.8.2-1.2 0-.4.1-.8.1-1.1.1-.8.2-1.6.2-2.4.1-1.6.2-3.4.2-5.4v-4c0-.3 0-.7-.1-1a8.37 8.37 0 0 0-1.9-4.2c-1.1-1.3-2.6-2.3-4.5-2.8-.1 0-.4-.1-.6-.1-.3 0-.5-.1-.8-.1h-87.3c-.7 0-1.5.1-2.4.4-1.7.6-3.7 1.9-4.9 4.2-.6 1.1-.9 2.6-.9 3.9V321c0 .5.1 1 .1 1.5.4 1.9 1.5 3.8 3.1 5.1a10.62 10.62 0 0 0 2.8 1.5c.5.2 1 .3 1.6.3.3 0 .5 0 .8.1h67.6c7.9-.1 12.4-1 19-2.6z" class="H"/><path d="M228 148.3l-107.6-38.1c-3.6-1.3-7.7 2.2-7.9 6.6-1 21.3-5.2 75-22.5 114.3-19.3 43.7-37.8 76.4-49.4 92.6-2.3 3.2-1.7 7.5 1.3 8.9 25 11.8 78.7 37.3 99.5 52.1 2.7 1.9 6.4 1.1 9-1.9 20.4-23.6 77.5-112.7 83.4-225.2 0-4.4-2.3-8.1-5.8-9.3z" class="I"/><path d="M228 148.3c-5.3-3.5-9-5.7-16-8.2L121.3 108h-.1l-.2-.1-.8-.2c-2.3-.4-4.5.3-6.1 1.5s-2.8 2.9-3.5 4.7c-.4.9-.5 2-.6 2.9l-.1 2.2-.3 4.5-.7 9c-.5 6-1.1 12.1-1.8 18.1-1.4 12.1-3.4 24.1-5.9 35.8s-5.7 23.2-9.7 34c-2 5.4-4.2 10.6-6.6 15.8-2.3 5.2-4.6 10.2-7 15.1-9.3 19.7-18.6 37.4-27.3 52l-6.4 10.3c-1 1.6-2.1 3.2-3.1 4.7a41.94 41.94 0 0 1-1.5 2.2c-.3.4-.5.7-.7 1.1-.3.4-.5.6-.8 1.2-1.2 1.9-1.8 4.2-1.5 6.4.1 1.1.5 2.2 1.1 3.2s1.5 1.8 2.5 2.4l.6.3.5.2c.3.2.6.3 1 .5.6.3 1.3.6 1.9.9 1.2.6 2.4 1.1 3.5 1.7l13.8 6.6 13.7 6.7 36.3 18.5c7.5 4 15.6 8.5 23.8 13.8 1 .7 2 1.4 3 2 .5.4 1 .7 1.6 1.1.7.5 1.6.9 2.5 1.1 1.8.5 3.6.3 5.2-.3s3-1.6 4.1-2.8c.3-.3.5-.5.7-.8l.6-.8c.4-.5.9-1 1.3-1.6.8-1.1 1.7-2.1 2.5-3.2 1.7-2.1 3.3-4.3 4.9-6.6 12.8-18 24.5-38.7 34.8-60.8 10.3-22 19-45.4 25.4-68.7 3.2-11.7 5.9-23.3 8-34.7l1.5-8.5 1.3-8.4 1.1-8.3c.2-1.4.3-2.7.5-4.1l.3-3.4.6-6.6c.1-1.9.2-3.4.3-4.4.1-1.9.2-3.5.2-5.1V158c0-.4 0-.9-.1-1.3-.1-.8-.3-1.7-.6-2.4-.6-1.5-1.5-2.9-2.7-3.9-1.2-1.3-2.8-2-4.3-2.1 1.3.9 2.2 2 2.7 3.2a10.73 10.73 0 0 1 .9 3.4v1.8c0 .3-.1.6-.1.9-.1.4-.1.7-.2 1.1-.2 1.5-.4 3.2-.5 5-.1 1-.2 2.5-.3 4.4l-.6 6.5-.3 3.4c-.2 1.3-.3 2.7-.5 4-.4 2.7-.6 5.4-1 8.2l-1.2 8.3-1.5 8.4c-2.1 11.3-4.8 22.7-7.9 34.3-6.4 23-15 46.2-25.1 68-10.2 21.8-21.8 42.3-34.4 60l-4.8 6.4c-.8 1.1-1.6 2.1-2.4 3.1l-1.2 1.5-.6.7c-.2.2-.4.5-.6.7-1.3 1.5-3.2 2.1-4.5 1.8-.3-.1-.7-.2-1-.4-.5-.4-1-.7-1.6-1.1l-3.2-2.1c-8.4-5.4-16.6-9.9-24.1-13.9-15.1-8.1-27.7-14.3-36.4-18.6l-13.7-6.7-13.8-6.6-7.2-3.4c-.6-.3-1-.9-1.2-1.9-.1-1 .1-2.1.8-3.1.1-.2.4-.6.7-1l.8-1.1c.5-.7 1-1.5 1.6-2.2 1-1.5 2.1-3.1 3.1-4.8l6.5-10.5c8.8-14.7 18.1-32.6 27.5-52.4l7-15.2c2.3-5.2 4.7-10.5 6.7-16.1 4.1-11.1 7.3-22.8 9.9-34.7s4.5-24.1 6-36.3l1.9-18.3.7-9.1.3-4.5.1-2.3c.1-.6.1-1 .3-1.5.3-1 1-1.9 1.8-2.4.8-.6 1.6-.8 2.3-.7.1 0 .2.1.3.1h.2l.3.1 1.1.4 2.1.7 4.2 1.5 16.5 5.8 31.5 11.2 35 12.4c6.4 2.3 10.7 2.9 17.1 3.6z" class="H"/><path d="M217.5 161.9L131 127.4c-3.2-1.2-6.9 1.7-7.5 5.7-3.5 26.2-16.8 109-65.5 182.9-2 3-1.4 6.8 1.1 8.2 15.7 8.7 66.5 32.8 82.9 40.9 2.9 1.4 6.6 0 8.7-3.3 19-30 54.9-79.8 70.4-192.3.7-3.4-.8-6.5-3.6-7.6z" class="J"/><g class="H"><path d="M217.5 161.9c-5.2-3.8-8.8-6.1-15.7-9l-30.1-12.1-26.2-10.4-13.8-5.3c-.9-.3-1.9-.4-2.9-.4-.9.1-1.8.3-2.6.7a9.65 9.65 0 0 0-3.8 3.4c-.5.7-.8 1.5-1.1 2.3s-.4 1.7-.5 2.3c-.2 1.2-.3 2.5-.5 3.7-1.4 10-3.2 20-5.3 30-1 5-2.2 10-3.4 14.9-.6 2.5-1.3 4.9-1.9 7.4s-1.2 4.9-2 7.3c-5.4 19.5-11.9 38.2-18.9 55.1l-2.6 6.3c-.9 2.1-1.8 4-2.7 6l-2.7 5.9c-.4 1-.9 1.9-1.3 2.9-.5.9-.9 1.9-1.4 2.8l-5.4 10.7c-1.8 3.4-3.7 6.6-5.4 9.7-.9 1.5-1.7 3.1-2.6 4.5-.9 1.5-1.8 2.8-2.6 4.2l-4.8 7.7c-.4.6-.8 1.2-1.1 1.8l-.3.5-.9 1.8c-.6 1.7-.8 3.5-.4 5.2s1.5 3.4 3.1 4.3l.3.2.6.3c.2.1.5.3.7.4.5.3 1 .5 1.4.8l8.5 4.4 3 1.5 11.5 5.7 30.9 15 20.9 10.1c1.9.9 3.8 1.8 5.7 2.8a7.03 7.03 0 0 0 4.5.6c1.5-.2 2.9-.8 4-1.6 1.2-.8 2.2-1.8 2.9-3 .6-1 1.2-1.9 1.9-2.9l3.7-5.7c10-15.4 20.2-32.7 28.7-51.4 8.6-18.6 15.7-38.3 21.2-57.9 2.7-9.8 5.2-19.5 7.2-29 .5-2.4 1.1-4.7 1.6-7.1.4-2.4.9-4.7 1.3-7l1.3-6.9.9-5.1.2-1.1 1.7-10.9c.3-1.8.5-3.5.6-5 .1-.8.1-1.5.1-2.2s.1-1.4 0-2.3c-.1-1.7-.6-3.2-1.6-4.6-.8-1.1-2.3-2-3.9-2.3 1.3 1 1.9 2.2 2.2 3.4.2 1.2.1 2.3-.1 3.4-.2.6-.4 1.3-.5 1.9-.2.7-.4 1.4-.5 2.2-.3 1.5-.7 3.1-.9 5l-1.7 10.8-.2 1.1-.9 5.1c-.4 2.3-.9 4.5-1.3 6.8l-1.3 6.9c-.5 2.3-1 4.7-1.6 7-2 9.4-4.5 19-7.2 28.7-5.5 19.4-12.5 38.8-21 57.2-8.4 18.4-18.4 35.4-28.4 50.8l-3.7 5.7c-.6.9-1.2 1.8-1.8 2.8-.5.7-1 1.3-1.7 1.7-1.3.9-2.7 1.1-3.8.6-1.9-.9-3.8-1.8-5.6-2.8l-21-10.1-30.8-15-14.5-7.2-8.4-4.3c-.4-.2-.9-.5-1.4-.7-.2-.1-.5-.3-.7-.4l-.6-.3-.1-.1c-.4-.2-.7-.7-.9-1.4s-.1-1.6.2-2.4l.3-.6c.1-.2.3-.5.4-.7.4-.6.8-1.2 1.1-1.8l4.9-7.9 2.7-4.3c.8-1.5 1.7-3 2.6-4.6l5.5-9.8 5.5-10.8c.5-.9 1-1.9 1.4-2.8.4-1 .9-1.9 1.3-2.9l2.7-5.9 2.8-6.1 2.6-6.3c7.1-17 13.7-35.9 19.1-55.6l2-7.4 1.9-7.5 3.4-15.1c2.1-10.1 4-20.2 5.4-30.3.2-1.3.3-2.5.5-3.8.1-.7.1-1 .3-1.4.1-.4.3-.8.5-1.1.4-.7 1.1-1.3 1.7-1.6l.9-.3c.3 0 .6 0 .8.1l13.7 5.2 26.1 10.3 30.1 12.1c7.5 2.8 11.7 3.6 18 4.5z"/><path d="M117.4 160.5c5.1 3.9 8.7 6.3 15.5 9.2l7 3 26.2 11.1L190 194l10.2 4.3c6.9 2.9 11.1 3.8 17.4 4.8-5.1-3.9-8.7-6.3-15.5-9.2l-10.2-4.3-57.1-24.4c-6.8-2.8-11-3.6-17.4-4.7z"/></g><path d="M161 217.4l7.5-17.3c.6-1.6 2.2-2.5 3.4-1.9l38.4 16.5c1 .4 1.5 1.6 1.2 2.9l-3.6 15.7c-.4 1.8-2.6 1.4-4 .8l-40.9-16c-1-.6-2.5.7-2-.7z" class="I"/><path d="M161 217.4c3.9-5.1 6.4-8.7 9.4-15.5.2-.3.5-1.2.6-1.2l.2-.2c.5.2 1 .4 1.8.8l34.6 14.9c.6.2 1.1.5 1.6.7h0v.1l-3.5 15.2c-.1 0-.4-.1-.6-.2-.6-.3-1.4-.6-2.2-.9l-5-1.9-9.7-3.8-10.3-4c-5.8-2.2-9.7-3.1-14.6-3.9a3.21 3.21 0 0 0-1.7.2c-.2.1-.5.2-.6.3 0 0-.1 0-.1-.1.1-.2.1-.4.1-.5-.1.1-.1.2-.2.4v.3c0 .1.2.2.2.2.3.1.6.1.8.1.5 0 .8.1 1.1.4 4 2.8 7.5 4.8 13.3 7 1.7.7 5 2 10.3 4l9.7 3.8c1.7.7 3.4 1.3 5 1.9l2.3.9c.5.2.9.3 1.5.4.7.1 1.3.2 2 .1a3.98 3.98 0 0 0 2.1-.9c.6-.5 1-1.1 1.2-1.8.1-.4.2-.7.3-1.1 0-.2.1-.4.1-.6.1-.4.2-.7.2-1 .3-1.4.6-2.6.9-3.8l1.3-5.7a40.8 40.8 0 0 1 .8-3.3c0-.2.1-.3.1-.5s.1-.3.1-.4c.1-.3.1-.5.1-.5v-.6c0-.4-.1-1.1-.4-1.9s-.9-1.7-2-2.3c-.1-.1-.3-.1-.4-.2-.1 0-.2-.1-.3-.1-.1-.1-.3-.1-.5-.2-.3-.1-.6-.3-1-.4l-10.7-4.6-23.9-10.3c-.9-.4-1.5-.6-2-.8-1.5-.6-3-.3-4.1.2-1 .6-1.6 1.2-2 1.8s-.6 1.2-.7 1.4c-.1.3-.2.5-.3.7-2.9 6.9-3.8 11.1-4.9 17.4z" class="H"/><path d="M113.6 245l7.5-17.3c.6-1.6 2.2-2.5 3.4-1.9l60.7 27.8c1 .4 1.5 1.6 1.2 2.9l-3.6 15.7c-.4 1.8-2.6 1.4-4 .8l-63.2-27.3c-1-.6-2.5.6-2-.7z" class="I"/><path d="M113.6 245c3.9-5.1 6.4-8.7 9.4-15.5.1-.3.3-.6.4-1 .1-.1.1-.2.1-.2 0-.1.1-.1.1-.2.2-.1.1-.1.1-.1.1 0-.2-.1.4.2.4.2.9.4 1.4.6l58.6 26.9v.4c0 .2-.1.3-.1.4v.2l-3.3 14.4c-.1 0-.2-.1-.4-.1-.2-.1-.3-.1-.5-.2-.5-.2-1.1-.5-1.7-.7-1.2-.5-2.6-1.1-4.1-1.8-3.1-1.3-6.7-2.9-10.5-4.6l-32.9-14.2c-5.7-2.4-9.5-3.5-14.4-4.4-.6-.2-1.2 0-1.7.2-.2.1-.5.2-.6.3-.1 0-.1 0-.1-.1-.2-.3-.2-.4-.2-.5-.1.1-.1.2-.2.4v.3c0 .1.2.2.2.2.4.1.6.1.8.1.4 0 .8.1 1.1.4 3.9 2.9 7.4 5 13 7.5 1.7.7 4.9 2.1 10.1 4.4l22.7 9.8c3.8 1.7 7.5 3.2 10.5 4.5 1.5.7 2.9 1.3 4.1 1.8.6.3 1.2.5 1.7.7.2.1.6.3.9.4l.9.3c.9.2 1.9.2 2.7 0s1.6-.7 2.1-1.3.8-1.4 1-2.2l.3-1.2c.3-1.5.7-2.9.9-4.1a163.6 163.6 0 0 0 1.3-5.6l.8-3.6v-.2c0-.1 0-.2.1-.4 0-.1.1-.3.1-.4 0-.2.1-.4.1-.7 0-.1 0-.4-.1-1.2-.1-.7-.5-1.8-1.5-2.7-.5-.4-1.4-.8-1.6-.9l-1.2-.6c-.9-.4-1.9-.9-2.9-1.4l-54.1-24.8c-.5-.2-.9-.4-1.4-.6-.2-.1-.3-.2-.8-.4-.4-.2-.8-.2-1.2-.3-1.6-.1-3 .7-3.7 1.4-.8.7-1.2 1.5-1.5 2.1-.2.4-.3.8-.5 1.1-2.7 6.7-3.6 10.9-4.7 17.2z" class="H"/><path d="M105.3 266.8l3.4-6.7c.6-1.6 2.2-2.5 3.4-1.9l62.7 27.8c1 .4 1.5 1.6 1.2 2.9l-2.4 5.9c-.4 1.8-5.2-1-6.6-1.7 0 .1-56.6-24.5-61.7-26.3z" class="I"/><path d="M105.3 266.8l2.9-3.4c.4-.6.9-1.1 1.3-1.6l.6-.8c0-.1.1-.1.1-.2 0 0 0-.1.1-.1h0l.3-.3a.76.76 0 0 1 .4-.2h.2c.1 0 .1.1.1.1h0l.1.1.5.3 4.6 2.2 6.9 3.1 50.2 22.3v.2a.76.76 0 0 1-.2.4c-.2.6-.6 1.5-1.1 2.6-.1.3-.2.6-.4.9-.1.1-.1.3-.2.4h0c-.1 0-.1 0-.2-.1-.3-.1-.7-.3-1.1-.5-.5-.2-1-.5-1.6-.8-.2-.1-.3-.2-.5-.2l-.6-.3a4.67 4.67 0 0 1-1-.5c-2.9-1.2-6.4-2.8-10.4-4.5l-23.6-10.2-10.2-4.3c-6.6-2.8-10.9-3.8-17.2-4.6 5.2 3.7 8.7 6.1 15.6 9.1 1.7.7 4.9 2.1 10.1 4.4l34 14.7c.4.2.7.3 1 .4l.4.2c.1.1.3.1.4.2.6.3 1.2.6 1.7.8s1 .5 1.5.6c.1 0 .2.1.3.1.2.1.3.1.5.2.3.1.6.2.8.2 1 .2 1.9.2 2.7-.2s1.3-.9 1.6-1.7l1.1-2.7c.5-1.2.8-2 1.1-2.6.1-.2.1-.3.2-.4 0-.1.1-.2.1-.3s.1-.2.1-.3c.1-.4.1-.7.1-.9v-.9s0-.3-.2-.9-.5-1.4-1.4-2.2a3.04 3.04 0 0 0-.7-.5.76.76 0 0 0-.4-.2c-.1 0-.2-.1-.3-.1a4.67 4.67 0 0 1-1-.5l-2.5-1.1-14.4-6.4-32.1-14.2-6.9-3.1c-1.7-.7-3.2-1.4-4.7-1.9l-.5-.2-.4-.1-.5-.1c-.7-.2-1.4-.1-2 .1s-1.2.5-1.7.9c-.4.4-.8.8-1.1 1.3-.1.2-.2.5-.3.7 0 .1-.1.2-.1.4v.1l-.9 3c-.5 1.2-.9 2.6-1.2 4.1z" class="H"/><path d="M199.2 155.4c.6-1.6 21.2 9.4 21.2 9.4 1 .4-2 16-2 16l-24.7-7.5c-1-.4 5.5-17.9 5.5-17.9z" class="I"/><path d="M199.2 155.4c.2-.2.5 0 .7.1s.4.2.7.3c.4.3.8.5 1.2.8.8.5 1.6 1.1 2.3 1.7l4.5 3.2 4.9 3.1 2.8 1.6c.2.1.5.3.7.4l.4.2h.1v.4c0 .3-.1.7-.1 1l-.9 6.3c-.1.4-.2 1-.3 1.7 0 .1 0 .2-.1.4h0l-.7-.2-1.7-.5-14.1-4.3-1.7-.5-.4-.1h-.2s-.1 0-.1-.2c.1-.5.2-.9.2-1.4l.5-2.7c.5-3.5.9-7 1.3-11.3-2.4 3.5-4.3 6.6-6 9.9-.4.8-.8 1.7-1.2 2.6-.2.5-.4.9-.6 1.4-.3.8-.6 1.8-.7 2.7-.2 1-.1 1.8.3 2.6.1.2.2.4.3.5s.3.3.5.4c.4.3.6.6 1.2.7 1.4.5 3 .9 4.5 1.5l14.1 4.3c1.3.4 3.1.9 4.5 1.4 2.2.7 4 1.2 4 1.2s.1 0 .4.1c.1 0 .3.1.4.1.1-.1.1-.3.1-.5.2-.9.4-2 .6-3.3.2-1.2.5-2.5.7-3.7.1-.7.2-1.3.3-1.7.5-2.8.8-5 1-6.6 0-.4.1-.8.1-1.2v-1.5c0-1.2-.1-2.1-.4-2.8 0-.1-.1-.2-.2-.4 0-.1-.1-.1-.1-.2h0c-.1 0 .1-.1.1-.1h0l-.1-.1c-.2-.2-.3-.4-.6-.6-.4-.4-1-.6-1.5-.9-.4-.2-.7-.4-1.1-.6-.3-.1-.5-.2-.8-.4-1-.5-2-.9-3-1.3-1.9-.8-3.7-1.5-5.5-2-1.8-.6-3.6-1-5.5-1.4-.9-.2-1.9-.4-2.9-.5-.5-.1-1-.1-1.5-.2h-.8c-.1 0-.3 0-.4.1 0 .3-.1.4-.2.5zm-6.9 50.2c-1.8.4-2.9.8-3.4 2l-6 15.4c-.4 1.2.1 2.2 1.1 3.7 1.8-.4 2.9-.8 3.4-2l6-15.4c.4-1.2-.1-2.1-1.1-3.7zm-23.4 37.8c-1.8.4-2.9.8-3.4 2l-6 15.4c-.4 1.2.1 2.2 1.1 3.7 1.8-.4 2.9-.8 3.4-2l6-15.4c.5-1.1 0-2.1-1.1-3.7zm-23-9.1c-1.8.4-2.9.8-3.4 2l-6 15.4c-.4 1.2.1 2.2 1.1 3.7 1.8-.4 2.9-.8 3.4-2l6-15.4c.5-1.2-.1-2.2-1.1-3.7z" class="H"/><path d="M132.1 311.8l8.1-13.3c.9-1.2 2.5-1.9 3.6-1.4l32.8 15.6c.9.4 1.1 1.4.6 2.4l-6.5 12.5c-.7 1.4-2.7 1-3.9.4l-35.3-15.4c-.9-.4-.1.3.6-.8z" class="I"/><g class="H"><path d="M132.1 311.8c2.1-2 3.8-3.8 5.4-5.7l2.4-3.2 2.2-3.3c.1-.1.5-.4.8-.4.2.1.5.2.7.3l2.3 1.1 29.1 13.8-5.2 10-1 1.9s.1 0-.2 0c-.2 0-.5-.1-.8-.3l-1.2-.5-11.6-5.1-9.2-4c-3.1-1.3-5.6-2.2-8.1-2.9l-3.7-.9-2-.4c-.2 0-.3-.1-.5-.1l-.3-.1s0-.1-.2.3c0 0 .1.3 0 .3h0c.1 0 .1 0 .2-.1.6 0 .8-.4.9-.7-.3.2-.6.4-.9.4h-.1 0s-.1 0-.1.1c0-.1-.2.2 0 .4l.1.1.2.1c.1.1.3.2.4.3l1.6 1.2 3.1 2.1c2.1 1.3 4.5 2.6 7.6 3.9 1.5.7 4.5 2 9.2 4l9.1 4c.8.4 1.7.7 2.5 1.1l1.3.6c.5.2 1.1.5 1.8.6.6.1 1.6.2 2.4-.1.8-.2 1.6-.7 2.1-1.5.2-.3.5-.8.6-.9l.3-.6c.2-.4.4-.8.6-1.1 1.5-3 2.9-5.6 3.9-7.5l1.2-2.2c.1-.1.1-.3.2-.4.1-.2.2-.4.3-.5.1-.3.2-.4.2-.4l.1-.4c.1-.3.3-1.1-.1-2.4-.1-.1-.3-1-1.4-1.7a4.67 4.67 0 0 0-1-.5l-.6-.3c-.4-.2-.9-.4-1.5-.7-2.2-1-5.2-2.5-8.4-4l-18.6-8.8c-.9-.4-1.6-.8-2.3-1.1-.2-.1-.3-.2-.5-.2l-.2-.1c-.1-.1-.3-.1-.4-.2-.6-.2-1.2-.3-1.7-.2-1 .1-1.7.4-2.3.7s-1 .6-1.3 1c-.5.4-.9 1.2-1.1 1.4-.2.3-.4.7-.6 1-.4.7-.7 1.3-1 1.9-.6 1.2-1.2 2.4-1.7 3.6-1.4 2.2-2.1 4.5-3 7.3z"/><path d="M160.3 305.4c-1.6 0-2.6.2-3.1 1-.6.9-3.3 5.8-3.3 5.8l-3.3 5.8c-.5.9-.1 1.8.7 3.2 1.6 0 2.6-.2 3.1-1 .6-.9 3.3-5.8 3.3-5.8l3.3-5.8c.5-.9.1-1.7-.7-3.2zm-49.7-110.6c5.1 3.8 8.7 6.2 15.6 9.1l7 2.9 24.5 10.2 22.4 9.4 10.2 4.2c6.9 2.8 11.1 3.7 17.4 4.6-5.1-3.8-8.7-6.2-15.6-9.1l-10.2-4.3-53.9-22.4c-6.8-2.8-11-3.6-17.4-4.6z"/><path d="M75.4 285.5c4.9 4.1 8.3 6.7 15 10 1.1.6 3 1.5 6.8 3.3l56.2 27.4c6.7 3.2 10.9 4.3 17.1 5.7-4.9-4.1-8.3-6.7-15-10-1.7-.8-4.8-2.4-9.9-4.9l-46.3-22.6-6.8-3.3c-6.7-3.2-10.8-4.3-17.1-5.6zm20.3-48.9c5.1 3.9 8.7 6.3 15.5 9.2l7 3 26.2 11.1 23.9 10.2 10.2 4.3c6.9 2.9 11.1 3.8 17.4 4.8-5.1-3.9-8.7-6.3-15.5-9.2l-10.2-4.3-57.1-24.4c-6.9-2.8-11.1-3.7-17.4-4.7zm-8.4 22c5.1 3.9 8.6 6.4 15.4 9.4 1.2.5 3 1.3 6.9 3.1l47.9 21.1 10.1 4.4c6.8 3 11 3.9 17.3 5-5.1-3.9-8.6-6.4-15.4-9.4-1.7-.7-4.9-2.2-10.1-4.5l-22.9-10.1-25-11-6.9-3c-6.8-3-11-3.9-17.3-5z"/></g></svg>