<svg xmlns="http://www.w3.org/2000/svg" viewBox="0 0 800 600"  xmlns:v="https://vecta.io/nano"><path d="M400.4 202.6h-27.7a3.01 3.01 0 0 1-3-3v-92.2a3.01 3.01 0 0 1 3-3h27.7a3.01 3.01 0 0 1 3 3v92.2c.1 1.6-1.3 3-3 3z" fill="#483374"/><path d="M400.4 202.6c-7.8-1.9-13.1-3-22.4-3h-5.3v-92.2h27.7v74.5c0 4.7.3 8.3.8 11.8l.9 5.1.1.7c0 .2.1.3.1.5 0 .3 0 .7-.1 1-.1.6-.8 1.3-1.8 1.6a3.42 3.42 0 0 0 3-.8c.4-.4.8-.9 1-1.4.1-.3.2-.6.2-.8l.1-.7a43.39 43.39 0 0 0 .9-5.2c.5-3.5.8-7.1.8-11.8v-74.6c0-.3 0-.6-.1-.9-.3-2.3-2-4.2-4.1-4.8a4.53 4.53 0 0 0-1.6-.3h-28c-.2 0-.5 0-.8.1-1 .1-2.2.6-3.3 1.5-1 .9-1.8 2.3-2 3.9v93.5c0 .2 0 .4.1.5 0 .1 0 .2.1.3.3 1.4 1.1 2.5 2.1 3.4 1 .8 2.2 1.3 3.4 1.4h5.6c9.6-.3 14.9-1.4 22.6-3.3z" fill="#202020"/><circle cx="385.2" cy="107.5" r="45.2" fill="#ff8e02"/><path d="M430.5 107.5l.6-3.3.3-1.6c0-.5.1-1 .1-1.6.1-1 .1-2.1.1-3.1l-.3-3.1c-.1-.5-.1-1.1-.2-1.6l-.4-1.6-.9-3.3-1.4-3.4c-.2-.6-.6-1.2-.9-1.8s-.7-1.2-1.1-1.8l-.7-1.1-.9-1.3-2.4-3.1c-.5-.5-1-1.1-1.5-1.7s-1-1.2-1.7-1.8c-.5-.5-1.1-1-1.7-1.5l-1.9-1.6-2-1.5c-.3-.3-.7-.5-1-.8-.4-.2-.7-.5-1.1-.7-5.9-3.8-13.2-6.6-21-7.4s-16 .3-23.3 3.2c-.9.3-1.8.8-2.7 1.2s-1.8.8-2.6 1.3-1.7 1-2.5 1.5l-1.2.8c-.4.3-.8.6-1.2.8l-2.3 1.7c-.8.5-1.4 1.2-2.1 1.8s-1.4 1.2-2 1.9-1.2 1.3-1.8 2c-4.7 5.3-7.8 11.2-9.6 16.5-.5 1.3-.8 2.6-1.1 3.8-.2.6-.3 1.2-.5 1.8s-.2 1.2-.3 1.7c-.2 1.1-.3 2.1-.5 3.1-.1 1-.1 1.8-.2 2.6-.1 1.6-.2 2.8-.1 3.7 0 .8.1 1.3.1 1.3v.8c0 .5 0 1.3.1 2.2.1 1 .3 2.1.5 3.5.1.3.1.7.2 1.1s.2.7.3 1.1l.6 2.4c.1.4.2.9.4 1.3s.3.9.5 1.3c.3.9.7 1.8 1 2.8.4.9.9 1.9 1.4 2.9.2.5.5 1 .7 1.5l.9 1.5c.6 1 1.2 2.1 1.9 3 .7 1 1.5 2 2.2 3 1.7 1.9 3.4 3.9 5.5 5.7a50.45 50.45 0 0 0 14.5 8.9c5.4 2.1 11.4 3.4 17.3 3.4 11.8.1 23-4.2 30.3-10.2l1.3-1c.4-.3.8-.7 1.1-1 .7-.7 1.4-1.3 2.1-1.9l3.2-3.5c1.7-2.2 3-3.8 3.6-5.1.4-.6.7-1.2 1.1-1.8.3-.6.7-1.2.9-1.8.5-1.2 1-2.3 1.4-3.4s.6-2.2.9-3.3c.1-.5.3-1.1.4-1.6s.1-1.1.2-1.6l.3-3.1c0-1-.1-2.1-.1-3.1 0-.5-.1-1-.1-1.6l-.3-1.6c0-.6-.2-1.6-.4-2.8-.3 1.1-.6 2.1-.9 3.1-.2.5-.3 1-.4 1.5-.2.5-.4.9-.5 1.4-.4.9-.7 1.8-1 2.7l-1.2 2.6c-.2.4-.4.9-.5 1.3-.2.4-.4.9-.7 1.3-.4.9-.9 1.8-1.3 2.7l-1.5 2.8c-.2.5-.6 1-.9 1.5s-.6 1-1 1.5c-1.3 2-3.8 6.1-9.8 10.7-6.3 5.1-15.9 8.8-26 8.7-5 0-10.1-1.1-14.8-2.9s-8.9-4.5-12.4-7.6c-1.8-1.5-3.3-3.2-4.7-4.9a42.82 42.82 0 0 1-1.9-2.6c-.6-.8-1.1-1.8-1.6-2.6-.3-.4-.5-.8-.8-1.3-.2-.4-.4-.9-.6-1.3-.4-.9-.8-1.7-1.2-2.5l-.9-2.4c-.1-.4-.3-.8-.4-1.1-.1-.4-.2-.8-.3-1.1-.2-.7-.4-1.4-.5-2.1-.1-.3-.2-.6-.2-1 0-.3-.1-.6-.1-.9-.2-1.2-.3-2.2-.5-3-.1-.8-.1-1.5-.1-1.9v-.7s0-.4-.1-1.1 0-1.8.1-3.2c0-.7 0-1.4.1-2.3.1-.8.3-1.7.4-2.6.1-.5.1-1 .2-1.5s.3-1 .4-1.5c.3-1 .5-2.2 1-3.3 1.5-4.5 4.2-9.6 8.2-14.1.5-.6 1-1.1 1.6-1.7.5-.6 1.2-1.1 1.7-1.6.6-.5 1.1-1.1 1.8-1.6.6-.5 1.3-1 1.9-1.5.3-.2.6-.5 1-.7l1.1-.6c.7-.4 1.4-.9 2.1-1.3s1.5-.7 2.3-1.1 1.5-.8 2.3-1c6.3-2.5 13.3-3.5 20-2.7s12.9 3.1 18 6.4l.9.6c.3.2.6.4.9.7.6.4 1.2.9 1.7 1.3.6.4 1.1.9 1.6 1.4.5.4 1 .9 1.4 1.3.6.5 1 1 1.5 1.5s.9 1 1.3 1.4c.8.9 1.4 1.9 2 2.6.3.4.6.7.8 1.1s.4.7.6 1c.3.5.6 1 1 1.5l.9 1.5c.5 1 1 1.9 1.5 2.8.4.9.9 1.8 1.3 2.7.2.4.4.9.7 1.3.2.4.4.9.5 1.3.4.9.8 1.7 1.2 2.6.3.9.6 1.8 1 2.7.2.5.4.9.5 1.4.2.5.3 1 .4 1.5.2.8.6 1.8.9 2.9z" fill="#202020"/><path d="M348.3 83.3c6.3-.8 26.3-.2 26.3-.2 9.3 15.9 18.3 31.6 22.9 42.4-10.1 1.2-20.3 1.5-30.6.9-5.3-11.2-12.6-27.6-18.6-43.1z" fill="#fff"/><path d="M348.3 83.3l5.6 1 5.2.9c3.5.5 7.2.8 12 .9h1.7l.1.2c.1.2.2.4.4.6.5.9 1.1 1.9 1.8 3.1l12.8 22.8c1.1 2 2.1 3.9 2.9 5.7.4.9.8 1.7 1.2 2.5.3.6.5 1.1.7 1.5.1.3.1.2.1.2h0l-3.1.3-4.2.3c-3.1.2-6.6.2-10.3.2-1.9 0-3.8-.1-5.6-.2h-.6v-.1c-.2-.4-.4-.8-.5-1.2l-2.8-6-5.7-12.9c-3.9-8.6-6.9-13.1-11.7-19.8 1.1 8.1 2.1 13.6 5.8 22.4.9 2.2 2.7 6.3 5.7 13l2.8 6.1 1.9 4 .3.6h.7l1.4.1 2.3.1c2 .1 3.9.1 5.9.2a121.73 121.73 0 0 0 10.7-.2l4.4-.3c.7-.1 1.3-.1 1.8-.2.6-.1 1.2-.1 1.8-.2l5.9-.7s.2 0 .7-.1c.2 0 .5-.1.8-.1.2 0 .3 0 .5-.1h.2v-.1c0-.1-.1-.2-.1-.3-.7-1.5-1.7-3.9-2.8-6.4-.1-.3-.3-.6-.4-1-.1-.2-.1-.3-.2-.5l-.1-.3-.6-1.2c-.4-.8-.8-1.7-1.3-2.6l-3-5.8c-4.3-8.2-9.7-17.5-12.9-23l-1.8-3.1c-.4-.6-.7-1.2-1-1.7l-1.3-2.1c-2.3-.1-3.9-.1-5.1-.1-4.8-.1-8.5.2-12.1.7-1.8.3-3.5.6-5.3 1-1.8.7-3.6 1.2-5.6 1.9z" fill="#202020"/><path d="M425.7 45.1l26.6 1.2-54.8 79.1-11.2-22z" fill="#fff"/><path d="M425.7 45.1c3.9 1.2 7.2 2.1 10.7 2.7 1.8.3 3.6.6 5.5.8l3.1.3c.5 0 1 .1 1.5.1h0s.1-.1-.2.3l-44.1 63.8s-.4.5-1.7 2.5c-.6.9-1.5 2.1-2.6 3.8l-3.4-6.8c-1-1.9-2.1-4.1-3.4-6.7-.3-.6-.7-1.3-1-2l-.2-.4.4-.5c.5-.7 1-1.4 1.5-2.2l15.8-23.3 7.9-11.7c5.2-7.9 7.4-13 10.2-20.7-6.1 5.5-10 9.4-15.4 17.2l-23.7 35.1-3.9 5.7v.1l.1.1.1.3.3.5c.2.4.4.7.5 1.1.3.6.6 1.1.8 1.6.3.7.7 1.3 1 2l3.4 6.7 4.5 8.9 2.3 4.5c.4.7.7 1.4 1.1 2.1l.3.5c0 .1 0 0 .1 0l.3-.3.6-.9c1.6-2.4 3.1-4.5 4.4-6.3l4.9-7.2 44.1-63.7c1.5-2.1 2.8-4 3.9-5.7L457 45c.3-.4.5-.7.7-1.1l.2-.3.1-.1c.1-.1-.1 0-.1 0h-.6l-6.8-.3c-1.2 0-2.3-.1-3.5-.1h-4.9c-2 .1-3.8.2-5.6.4-3.4.2-6.8.8-10.8 1.6z" fill="#202020"/><path d="M409.7 537.2l-45.8-.3c-4.4 0-8.3-3.2-8.3-7.6 3.2-106.3-2.6-223.6 0-352.6a7.92 7.92 0 0 1 7.9-7.9h46.2a7.92 7.92 0 0 1 7.9 7.9c-2.9 113.6 1.3 229.8 0 352.6a7.92 7.92 0 0 1-7.9 7.9z" fill="#483374"/><path d="M409.7 537.2c-8.4-2.1-14.1-3.3-24.1-3.4-1.4 0-3.4 0-5.9-.1h-4.1c-2.4 0-4.9 0-7.3-.1h-4.2c-.9 0-1.8-.2-2.6-.7-.8-.4-1.4-1-1.9-1.7-.2-.3-.3-.7-.4-1.1 0-.2-.1-.4-.1-.6v-.9l.2-9c1.3-48.7.6-106.1-.1-161l-.7-145.9.3-26.2c0-1.9.1-3.8.1-5.6V176c.2-2 1.7-3.5 3.3-3.9.4-.1.8-.2 1.2-.2H410c1.1.1 2.1.5 2.9 1.3s1.3 2 1.4 3.1v3.1c0 1.1 0 2.1-.1 3.2l-.3 13.8-.6 66.9.4 79.1.7 82.8.2 40.1v19.3l-.1 17.9-.1 14.8c0 2.5.1 4.8.2 6.8.1 1 .1 2 .2 3 .1.5.1 1 .2 1.4l.1.6c0 .2.1.3.1.5.1 1.3-.2 2.8-1.1 4.1-.8 1.7-2.3 2.9-4.4 3.5 2.1.5 4.4.1 6.3-1.1s3.4-3.2 3.9-5.5c.1-.3.1-.6.2-.9l.1-.8c.1-.5.1-1 .2-1.4l.3-3c.2-2.1.3-4.3.3-6.8l.1-14.8.1-17.9v-19.3l-.2-40.2-.7-82.8-.4-79 .6-66.8.3-13.8c0-1.1 0-2.2.1-3.2v-3.3c-.1-3-1.4-5.7-3.3-7.7-1.9-1.9-4.6-3-7.1-3.2h-47.4c-.9 0-1.9.2-2.8.5-1.9.6-3.7 1.7-5.1 3.3s-2.5 3.7-2.8 6.1c-.1.3 0 .6-.1.9v4.7c0 1.8-.1 3.7-.1 5.6l-.3 26.3.7 146 .1 160.8-.2 9v1.4c0 .6.1 1.1.2 1.6.3 1.1.7 2.1 1.2 3 1.1 1.8 2.7 3.3 4.4 4.2 1.8 1 3.7 1.4 5.7 1.4h21.6c10-.2 15.7-1.3 24.1-3.3z" fill="#202020"/><path d="M615.5 302.7c-84.4 1.5-118.7 1.2-214.4 0-2.8 0-5.1-2.3-5.1-5.1v-94.3c0-2.8 2.3-5.1 5.1-5.1 83.1-1.7 117-1.5 214.4 0l36.1 46.4c1.3 1.6 1.3 3.9.2 5.6l-36.3 52.5z" fill="#ff8e02"/><path d="M615.5 302.7c-8.4-2-14.2-3-24.2-2.9l-36 .4c-37.3.4-81.3.1-123.5-.4l-30.9-.4c-.9-.1-1.7-.9-1.6-1.8V203c0-.1 0-.3.1-.4.1-.2.2-.5.4-.7.3-.4.8-.6 1.3-.6 2.5-.1 4.8-.1 6.9-.1l13.3-.3 18.4-.3 48.6-.5 69.3.4 39.4.5 10.1.2c1.7 0 3.4.1 5.1.1h1.7 0l.2.2 12.7 16.3 13.8 17.8 7 8.9 1.6 2.1c.2.2.3.5.3.8s-.1.6-.2.8l-1.6 2.3-14.6 21.2-6.3 9.2c-5.9 8.3-8.2 13.7-11.3 21.8 6.5-5.7 10.7-9.8 16.4-18 1.3-1.8 3.6-5.2 6.4-9.2l14.7-21.2 1.6-2.4c.9-1.3 1.4-2.9 1.3-4.5 0-1.6-.5-3.2-1.4-4.5-.3-.4-.4-.5-.5-.7l-.4-.6-.9-1.1-7-8.9-13.8-17.8-14.5-18.6c-.1-.1-.2-.4-.5-.4h-1.3l-3.4-.1c-1.7 0-3.4-.1-5.1-.1l-10.1-.2-39.4-.5-69.4-.3-48.7.5-18.4.3-13.3.2c-2.2 0-4.6.1-7.2.2-2.1.1-4.3 1.1-5.8 2.8-.8.9-1.3 1.9-1.7 3-.2.6-.3 1.2-.3 1.8v95.2c0 2 .8 4.1 2.2 5.7a8.76 8.76 0 0 0 5.5 2.7l31.4.4 123.6.5 30.1-.4c2.5 0 4.6-.1 5.9-.1 9.9-.3 15.6-1.5 24-3.7z" fill="#202020"/><path d="M156.4 258.4c84.4-1.5 118.7-1.2 214.4 0 2.8 0 5.1 2.3 5.1 5.1v94.3c0 2.8-2.3 5.1-5.1 5.1-83.1 1.7-117 1.5-214.4 0l-36.1-46.4c-1.3-1.6-1.3-3.9-.2-5.6l36.3-52.5z" fill="#ff8e02"/><path d="M156.4 258.4c8.4 2 14.2 3 24.2 2.9l36-.4 123.5.4 30.9.4c.9.1 1.7.9 1.6 1.8V358c0 .1 0 .3-.1.4-.1.2-.2.5-.4.6-.3.4-.8.6-1.3.6-2.5.1-4.8.1-6.9.1l-13.3.3-18.4.3-48.6.5c-20.2.1-43.8-.1-69.3-.4l-39.4-.5-10.1-.2c-1.7 0-3.4-.1-5.1-.1H158h0l-.2-.2-12.7-16.3-13.8-17.8-7-8.9-1.6-2.1c-.2-.2-.3-.5-.3-.8s.1-.6.2-.8l1.6-2.3 14.6-21.2 6.3-9.2c5.9-8.1 8.2-13.5 11.3-21.6-6.5 5.7-10.7 9.8-16.4 18-1.3 1.8-3.6 5.2-6.4 9.2l-14.7 21.2-1.6 2.4c-.9 1.3-1.4 2.9-1.3 4.5 0 1.6.5 3.2 1.4 4.5.3.4.4.5.5.7l.4.6.9 1.1 7 8.9 13.8 17.8 14.5 18.6c.1.1.2.4.5.4h1.3l3.4.1c1.7 0 3.4.1 5.1.1l10.1.2 39.4.5 69.4.3 48.7-.5 31.7-.5c2.2 0 4.6-.1 7.2-.2 2.1-.1 4.3-1.1 5.8-2.8.8-.9 1.3-1.9 1.7-3 .2-.6.3-1.2.3-1.8v-95.2c0-2-.8-4.1-2.2-5.7a8.76 8.76 0 0 0-5.5-2.7l-31.4-.4-123.6-.5-30.1.4c-2.5 0-4.6.1-5.9.1-10 .3-15.7 1.5-24 3.7z" fill="#202020"/><path d="M606.7 328H403.4c-4.1 0-7.4 3.3-7.4 7.4-1 30.1-1.1 59.6 0 88.4a5.34 5.34 0 0 0 5.3 5.3h205.3l35-44.9c1.2-1.6 1.3-3.8.2-5.4L606.7 328z" fill="#fff"/><path d="M606.7 328c-8.1-2-13.7-3.1-23.4-3.2H402.6c-.4 0-.9.1-1.3.2-.9.2-1.7.4-2.5.8-3.2 1.5-5.5 4.6-6 8-.1.4-.1.8-.1 1.2v1l-.1 1.8c0 1.2-.1 2.4-.1 3.5l-.3 14c-.4 18.3-.3 35.1 0 49.4l.3 10.2.3 9.3c.1 2.2 1.2 4.4 2.8 5.8s3.7 2.2 5.6 2.2c2.5 0 4.7.1 6.8.1l12.7.2 64 .7 66.4-.1 37.8-.5 9.7-.2c1.6 0 3.3-.1 4.9-.1l3.2-.1h1.4c.1 0 .1 0 .1-.1l.2-.2.4-.5 1.4-1.8 12.1-15.6 13.3-17.1 6.7-8.6 1.7-2.1.3-.4c.1-.2.2-.3.3-.5a4.67 4.67 0 0 0 .5-1c.3-.7.5-1.5.6-2.2.2-1.5-.2-3.1-.9-4.5-.1-.2-.2-.3-.3-.5l-.3-.4-.4-.6-.8-1.1-14.4-20.8-6.2-8.9c-5.4-7.8-9.4-11.8-15.7-17.3 3 7.8 5.2 13 10.7 21 1.2 1.8 3.5 5.1 6.2 8.9l14.4 20.8.8 1.1.4.6.1.1s0 .1.1.1c.1.2.2.5.2.8 0 .1-.1.3-.1.4s-.1.1-.1.2c0 0 0 .1-.1.1h0l-.1.1-1.7 2.1-6.7 8.6-13.3 17.1-12.1 15.6c-.2.2-.1.2-.1.2h0-1.6c-1.6 0-3.3.1-4.9.1l-9.7.2-37.7.5-66.3.2-63.9-.7-12.8-.2c-2 0-4.3-.1-6.8-.1-1 0-2.1-.8-2.1-2.1l-.3-9-.2-10.2c-.3-14.2-.4-31 0-49.2l.3-13.9c0-1.2.1-2.4.1-3.6l.1-1.8v-1.4c.2-1.3 1.1-2.6 2.4-3.2.3-.2.6-.2 1-.3.2 0 .3-.1.5-.1h180.3c9.3.1 14.8-1 23-3zm-194.3 18.5c10.4 2.5 17.5 3.9 29.9 3.9H455l38.3-.2 35.1-.1 18.5-.1c12.4-.1 19.5-1.5 29.9-4.2-10.4-2.5-17.5-3.9-29.9-3.9l-53.5.3-38.3.1-12.7.1c-12.6.1-19.7 1.5-30 4.1zm3.6 16.3c3.2 2.5 5.3 3.9 9 3.8 4 0 24.2-.5 24.2-.5l24.2-.5c3.7-.1 5.8-1.6 8.9-4.2-3.2-2.5-5.3-3.9-9-3.8-4 0-24.2.5-24.2.5l-24.2.5c-3.8.1-5.9 1.6-8.9 4.2zm-3.6 14.7c10.4 2.6 17.4 4 29.9 4h133.8c12.4-.1 19.5-1.5 29.9-4-10.4-2.6-17.4-4-29.9-4H442.3c-12.5 0-19.5 1.4-29.9 4zm3.6 16.3c10.4 2.6 17.4 4 29.9 4.1l12.7.1 99 .4h18.5c12.4 0 19.5-1.4 29.9-3.9-10.4-2.6-17.4-4-29.9-4.2-3.1 0-9 0-18.5-.1-16.9 0-47.3-.1-47.3-.1l-64.4-.2c-12.5 0-19.5 1.4-29.9 3.9zm0 17c10.4 2.6 17.4 4 29.9 4.2l12.7.1 43.9.1 40.2.2h18.5c12.4 0 19.5-1.4 29.9-3.9-10.4-2.6-17.4-4-29.9-4.2-3.1 0-9 0-18.5-.1-14.3 0-40.2-.1-40.2-.1l-43.9-.2h-12.7c-12.5 0-19.5 1.4-29.9 3.9zm6.4-159.3c11 2.6 18.5 4 31.7 4l13.4-.1 113-1.1c13.2-.2 20.6-1.7 31.6-4.6-11-2.6-18.5-4-31.7-4l-64.2.7-48.8.4-13.4.2c-13.1.1-20.6 1.7-31.6 4.5zm-262.6 60.3c11 2.6 18.5 4 31.7 4l13.4-.1 113-1.1c13.2-.2 20.6-1.7 31.6-4.6-11-2.6-18.5-4-31.7-4l-64.2.7-48.8.4-13.4.2c-13.2.1-20.6 1.7-31.6 4.5z" fill="#202020"/></svg>