<svg xmlns="http://www.w3.org/2000/svg" xmlns:xlink="http://www.w3.org/1999/xlink" viewBox="0 0 800 600" xmlns:v="https://vecta.io/nano"><style><![CDATA[.F{fill:#202020}.G{fill:#fff}]]></style><path d="M205.3 337.4l-23 59.9-32.7 33.2c-1.7 1.8-2.9 4-3.2 6.5l-1 7s-2 5.9 20.6 5.9l150.4.5c13.8-1 48.2 2 39.8-9.8-1.6-2.2-2.2-4.4-4.7-7.6-11.1-13.6-30.2-33.7-30.2-33.7l-30.5-62.4-85.5.5z" class="G"/><path d="M205.3 337.4c-4.4 6.3-7.2 10.7-10.5 19.1l-9 23.2-5.6 14.5-.5 1.2-1.9 1.9-14.9 15.1-14.7 14.9-.9.9c-.4.4-.7.8-1.1 1.2-.7.8-1.2 1.7-1.7 2.7s-.8 2-1 3c-.1.3-.1.5-.2.8l-.1.7-.2 1.2c-.2 1.6-.4 3.3-.7 4.8l-.1.7c-.1.4-.1.8 0 1.2.1.8.3 1.6.8 2.2.4.7 1 1.3 1.5 1.7.5.3 1 .7 1.4 1 1.6.9 3.1 1.4 4.6 1.8.7.2 1.5.3 2.2.5l2.2.3a125.78 125.78 0 0 0 8.5.6c2.8.1 5.4 0 8.1.1l7.9.1 29.8.2 49.8.4 33.1.1 13.3-.1c.9 0 2.1 0 3.8-.1 1.6 0 3.6 0 6.1-.2 1.2-.1 2.4-.1 3.7-.2s2.7-.1 4.2-.1c5.9-.1 13.2.1 21.6-.6 2.1-.2 4.3-.5 6.6-1 .6-.1 1.2-.3 1.8-.4.6-.2 1.2-.3 1.8-.6 1.2-.5 2.6-1.1 3.9-2.6.7-.7 1.2-1.7 1.5-2.9.1-.5.1-1.1.1-1.7 0-.5-.2-1-.3-1.5-.3-.8-.6-1.7-1-2.3l-.3-.5-.3-.4c-.1-.2-.3-.4-.4-.6-.5-.8-1-1.9-1.7-3.1-.6-1.1-1.4-2.3-2.2-3.4-1.6-2-3.2-3.9-4.9-5.9l-5.1-5.9-10.8-12-5.7-6.1c-1-1-1.9-2-2.9-3.1l-.7-.8-.3-.3-.8-1.7-7.6-15.5-15.4-31.5-3.8-7.8c-.6-1.3-1.3-2.6-1.9-3.9l-.9-1.9-.5-1c-.1-.1-.1-.4-.3-.5h-4.2l-17 .1-44.5.3c-9.1.8-14.2 1.8-21.7 3.7 7.5 1.8 12.6 2.8 21.6 2.8l61.5-.4h.6c.6 1.3 1.3 2.6 1.9 3.9l3.8 7.8 23 47 1.1 2.2c.1.3.4.6.6.8l.4.4.7.8c1 1 1.9 2 2.9 3.1 1.9 2 3.8 4.1 5.6 6.1l10.8 11.9c1.7 2 3.4 3.9 5.1 5.8l4.7 5.7c.7.9 1.2 1.7 1.8 2.7.5 1 1.1 2 1.8 3.2l.6.9c.1.2.2.3.2.3l.2.3c.1.2.2.3.3.5 0 .1.2.3.2.4s.1.2.1.2v.1l-.1.1c-.2.2-.9.7-1.7 1-.4.2-.9.3-1.3.4l-1.4.3c-1.9.4-3.9.7-5.9.8-7.9.7-15.1.5-21.2.6-1.5 0-3 .1-4.3.1-1.4.1-2.6.1-3.8.2l-5.9.2c-1.6 0-2.9 0-3.7.1h-13.3c-7.7 0-19-.1-33-.1l-49.7-.4-29.8-.3c-5.2 0-10.5-.1-15.8-.1-2.6 0-5.2-.2-7.8-.5l-1.9-.3c-.6-.1-1.2-.3-1.8-.4-.6-.2-1.2-.3-1.7-.5s-1-.4-1.4-.6c-.3-.1-.4-.3-.6-.4l-.1-.1v-.4c.2-1.6.4-3.2.7-4.8l.2-1.2.2-1c.1-.6.3-1.2.6-1.8s.6-1.1 1-1.6c.2-.2.4-.5.6-.7l.9-.9 32-32.4c.1-.2.3-.3.4-.5l.4-1.1.5-1.2 1.9-4.9 3.7-9.6 8.9-23.3c2.9-8.4 3.8-13.5 4.7-21.2zM315 402.2c-7.5-2-12.6-3-21.6-3.2-1.5 0-4-.1-9.1-.1l-31.4-.4-28.7-.4-13.3-.1c-9-.1-14.1.9-21.6 2.7 7.5 2 12.6 3 21.6 3.2 2.2 0 6.5.1 13.3.2l28.7.3 31.4.4 9.2.1c8.9 0 14-.9 21.5-2.7zM150 437c.2.4.4.9.7 1.3s.7.7 1.1 1c.8.6 1.7.9 2.5 1.3 1.7.7 3.3 1.1 5 1.5 3.4.7 6.9 1.1 11.4 1.2 1.5.1 4 .1 9.2.1l150.9 1.1c2.2 0 4.3-.1 6.1-.2.9-.1 1.8-.1 2.7-.2s1.9-.2 2.7-.5c.9-.2 1.8-.5 2.6-.8.9-.4 1.7-.8 2.6-1.5s1.6-1.7 1.6-2.8-.8-2-1.6-2.6c.4.9.5 1.7.2 2.3s-1 .9-1.5 1c-.6.1-1.3.2-2.1.2-.7 0-1.5 0-2.3-.1-.8 0-1.5-.1-2.3-.2l-2.7-.3-6.1-.3c-2.2 0-6.5-.1-13.3-.1l-137.5-1c-5.1 0-7.6 0-9.1-.1-4.5-.1-8 .1-11.2.3-1.6.1-3.2.3-4.9.4-.8 0-1.6.1-2.4 0-.4 0-.8-.1-1.2-.3-.3-.1-.7-.4-1.1-.7z" class="F"/><path d="M60 95.5l385 1 1.9 147.7c-1.3 28.5 1.1 103.2-5.7 103.2l-246.4.2c-52-.3-137.4 3.1-138.7-4.9-1.9-11.6 0-233.5 3.9-247.2z" class="G"/><path d="M60 95.5c7.5 1.9 12.6 2.9 21.6 3l359.4.9h1 0v1.1l.2 7.7 1.2 60 .7 55.2v12.8c0 2.1-.1 4.2-.1 6.2s-.2 4.2-.2 6.2l-.3 23.6-.4 40.8-.7 16.8c-.2 2.6-.4 5-.7 7.3s-.6 4.5-1.1 6.2c-.1.2-.1.4-.2.6l-.1.4h-22l-120.6.1-129.8.2-37.3.3c-12.7.1-25.6.1-38.7-.2-6.5-.2-13.1-.4-19.7-.9-3.3-.3-6.6-.6-9.6-1.2-.8-.2-1.5-.3-2.2-.5-.3-.1-.7-.2-1-.3s-.6-.3-.5-.2c0 0 0 .1 0 0-.1-.6-.1-1.5-.2-2.3-.3-6.6-.3-13.5-.4-20.3l-.1-20.7.8-96.9 1-49.4.3-12.2.3-9.6c0-.6 0-1.2.1-1.8l.4-11.3c.2-4.5.1-8-.2-11.3-.1-3.3-.7-6.5-.9-10.3-.9 1.7-1.4 3.5-2 5.1-.5 1.6-1 3.3-1.3 4.9-.7 3.3-1.2 6.8-1.4 11.4l-.5 11.3c0 .6 0 1.2-.1 1.9l-.3 9.7-.3 12.2-1 49.4-.8 97 .1 20.7.4 20.6c0 .9.1 1.7.2 2.8.1.4.1.8.2 1.2.2.4.2.8.5 1.1.4.7 1.1 1.3 1.8 1.7.8.5 1.2.7 1.7.9s1 .3 1.4.5c.9.3 1.8.5 2.7.7 3.5.7 6.9 1 10.3 1.3 6.8.6 13.4.8 20 .9 13.2.3 26.2.3 38.9.2l37.3-.3 129.7-.2 143.3-.1c1 0 1.9-.2 2.7-.9.8-.6 1.4-1.5 1.8-2.4.2-.5.3-.8.4-1.1l.3-.9c.7-2.4 1-4.7 1.3-7.2.3-2.4.5-5 .7-7.6.4-5.3.6-11 .8-17l.5-40.9.3-23.5c.1-2 .1-4.1.2-6.2s.1-4.2.1-6.4v-12.9l-.7-55.3-1.4-67.8c-.1-2.2-.1-4.5-.2-6.7-1.2-.1-2.6 0-3.9-.1h-18.6c-10.5 0-21.2-.1-31.8-.1l-311.9-.8c-8.8.1-13.9 1.1-21.4 2.9z" class="F"/><path d="M428.4 337.2c-.4 1.8-189.1-3.6-204.5-3.6S69.8 336 68.6 331.8s-1.2-218.8.6-220.5c18.4-1.2 363.4-8.3 364.6-1.8s1.8 107.9 1.2 127.5-5.4 94.9-6.6 100.2z" fill="#f4e9c6"/><path d="M428.4 337.2c-.4.1-.9-.1-1.4-.1l-1.3-.3-2.6-.5-4.9-.9c-3.3-.5-6.8-.8-11.3-.8-1.2 0-3 0-5.3-.1-1.1 0-2.4 0-3.7-.1l-21.8-.4-25.3-.5-125.5-2.9-14.7.1-29.5.3-58.9.2c-9.7 0-19.4-.1-29-.4-4.8-.1-9.6-.3-14.2-.5-2.3-.1-4.7-.3-6.9-.6l-.8-.1-.1-1.7c-.3-9.3-.3-18.6-.4-27.8l-.1-27 .1-95.3.3-37.5.3-15.5.2-6.9c0-1.1.1-2.1.1-3.2v-.8l7.7-.3 7.9-.2 10.4-.3 91.1-1.9 95.8-1.3 55.2-.4 58 .3 14.7.4 14.7.8c1.2.1 2.4.2 3.5.4l.4.1v.7l.1 1.8c.1 1.2.1 2.4.1 3.7l.4 14.8.6 59.1v29l-.2 14.3a332.29 332.29 0 0 1-.6 14.1l-1.5 27.6-1.6 25.5-.9 13.2c-.3 4.5-.3 8-.1 11.4.1 3.5.6 6.7 1 10.5 1.5-3.6 2.4-6.7 3.2-10s1.3-6.8 1.6-11.3l.9-13.2 1.6-25.5 1.5-27.6.6-14.2.2-14.4v-29.1l-.6-59.2-.4-14.9c0-1.2-.1-2.5-.2-3.8l-.1-1.9v-.5l-.2-.8-.3-1.6-.2-.8c-.1-.3 0-.5-.3-.7-.4-.4-.8-.8-1.3-1s-1.1-.4-1.7-.5c-.3-.1-.6-.1-.9-.2l-.5-.1c-1.3-.2-2.6-.3-3.9-.4-5.1-.4-10-.6-15-.8l-14.8-.4-58.1-.3-55.2.4-95.8 1.3-91.1 1.9-3.6.1c-.1 0-2.5.1-6.8.2-2.2.1-4.8.1-7.9.2-1.6 0-3.2.1-5 .2-.9 0-1.8.1-2.8.1-.9 0-1.9.1-2.8.1h-.7c-.2 0-.5 0-.6.2-.2.3-.4.7-.6 1l-.3.5c-.1.2-.2.4-.2.6-.1.5-.2.9-.2 1.5-.1.5-.1 1-.1 1.5v.9c0 1.1-.1 2.2-.1 3.3-.1 2.2-.1 4.5-.2 6.9l-.3 15.6L65 178l-.1 95.4.1 27 .4 27.9.1 1.8c.1 1.1 0 2.4.6 3.3.5.9 1.5 1.5 2.6 1.8.6.2 1.1.3 1.7.4l1 .2c2.5.3 4.9.5 7.3.6 4.8.3 9.6.4 14.4.5l29.1.4 59-.2 29.5-.3 14.6-.1 14.6.3 136.2 3.1 21.8.4h9c4.5 0 8-.2 11.4-.7 1.7-.2 3.3-.6 5-.9.8-.2 1.7-.4 2.6-.6.4-.1.9-.2 1.3-.4.3-.3.8-.4 1.2-.7z" class="F"/><path d="M373.2,299.4H123.6c-6.6,0-12-5.4-12-12V161.7c0-6.6,5.4-12,12-12h249.6c6.6,0,12,5.4,12,12v125.7    C385.2,294,379.8,299.4,373.2,299.4z" fill="#ff8e02"/><path d="M373.2 299.4c-7.5-1.9-12.6-2.9-21.6-2.9H122.8c-.3 0-.6-.1-.9-.1-2.4-.4-4.6-2-6-4.1-.7-1-1.1-2.2-1.3-3.4-.1-.3-.1-.6-.1-.9V160.9c0-.3.1-.7.1-1 .3-1.3.8-2.5 1.6-3.5 1.5-2 3.6-3.2 5.6-3.6.3 0 .5-.1.7-.1h247c1.6 0 3.6-.1 4.7.1 2.5.3 4.9 1.8 6.3 4 .7 1.1 1.2 2.3 1.4 3.6.1.3.1.6.1 1v127c0 .2 0 .4-.1.6 0 .4-.1.7-.2 1.1-.3 1.4-.8 2.7-1.5 3.9a12.31 12.31 0 0 1-2.8 3.3c-.9.8-2.4 1.6-4.2 2.1a11.71 11.71 0 0 0 10.6-2.7c1.5-1.3 2.7-3.1 3.5-5.2.2-.5.4-1.1.5-1.7.1-.3.1-.6.2-.9 0-.3.1-.6.1-.9.1-.7 0-1.1.1-1.7V161.1c0-.5-.1-1.1-.2-1.6-.3-2.1-1.1-4.1-2.3-5.9-2.3-3.6-6.2-6-10.4-6.6-1-.2-2.2-.2-3-.2h-249c-.4 0-.8 0-1.2.1s-.8.1-1.2.2c-3.3.6-6.8 2.5-9.3 5.8-1.2 1.6-2.1 3.6-2.6 5.8-.1.5-.2 1.1-.2 1.7v127.9c0 .5.1 1 .2 1.5.3 2 1.1 3.9 2.1 5.6 2.2 3.4 5.8 5.9 9.8 6.7.5.1 1 .2 1.5.2s1.1.1 1.5.1h227.8c8.9-.1 14-1.1 21.5-3z" class="F"/><circle cx="190" cy="227.3" r="40.8" class="G"/><path d="M230.7 227.3c-1.1 3.7-2.1 6.7-3.4 9.6-1.2 3-2.7 5.9-4.7 9.5-.3.5-.7 1.1-1.1 1.8-.5.7-1.1 1.4-1.7 2.3s-1.4 1.7-2.2 2.6l-.5.6c-.2.2-.4.5-.7.7-.5.4-1 .9-1.4 1.3-.9.9-2.1 1.7-3.2 2.5-4.5 3.3-10.2 5.6-16.4 6.5-1.5.3-3.1.3-4.7.4-.8.1-1.6 0-2.4-.1-.8 0-1.6-.1-2.4-.1l-2.3-.4-1.2-.2-1.1-.3-2.3-.6c-.8-.2-1.5-.5-2.2-.8-1.5-.5-2.9-1.2-4.3-1.9-.7-.3-1.3-.8-2-1.1-.6-.4-1.3-.8-1.9-1.2-.6-.5-1.2-.9-1.8-1.3-.3-.2-.6-.4-.9-.7l-.8-.7c-.5-.5-1.1-1-1.6-1.5s-1-1.1-1.5-1.6c-3.8-4.2-6.3-8.9-7.7-13-.4-1-.6-2.1-.9-3-.1-.5-.2-1-.4-1.4-.1-.5-.2-.9-.2-1.4-.1-.9-.3-1.7-.4-2.5s-.1-1.5-.1-2.1-.1-1.2-.1-1.7v-1.2c0-.7.1-1 .1-1v-.6c0-.4 0-1 .1-1.8s.3-1.7.4-2.8c.2-1.1.6-2.3.9-3.6.1-.7.5-1.3.7-2.1.3-.7.5-1.5.8-2.2.7-1.5 1.4-3.1 2.5-4.6 1.9-3.1 4.5-6.4 7.9-9.2 3.3-2.8 7.3-5.1 11.7-6.7s9.1-2.3 13.8-2.2 9.2 1.1 13.2 2.8 7.5 4 10.4 6.4c.6.5 1.2 1 1.7 1.5s1 1 1.4 1.5.9.9 1.2 1.4c.4.4.7.9 1 1.3.6.8 1.2 1.5 1.6 2.2.4.6.7 1.2 1 1.6a75.15 75.15 0 0 1 4.7 9.5c1.4 2.9 2.4 5.8 3.4 9.6.8-3.7 1.2-7.2.8-10.7-.3-3.5-1.5-7.2-3.9-11.4-.3-.5-.7-1.1-1.1-1.9s-1.1-1.5-1.8-2.5c-.4-.5-.7-1-1.1-1.5s-.9-1-1.4-1.6c-.5-.5-1-1.2-1.6-1.7-.6-.6-1.3-1.2-1.9-1.8-3.3-2.8-7.3-5.5-12-7.4-4.7-2-9.9-3.1-15.3-3.2s-10.9.7-15.9 2.5c-5.1 1.8-9.7 4.5-13.5 7.8-3.9 3.2-6.8 7-9.1 10.6-1.2 1.8-2 3.7-2.8 5.4a27.73 27.73 0 0 0-1 2.6c-.3.8-.6 1.6-.8 2.4-.4 1.6-.8 3-1 4.2-.2 1.3-.4 2.3-.5 3.2-.2.9-.1 1.6-.2 2v.7s0 .4-.1 1.2c0 .4-.1.9 0 1.4 0 .6.1 1.2.1 1.9s.1 1.5.1 2.4c.1.9.3 1.8.4 2.8.1.5.1 1 .3 1.6.1.5.3 1.1.4 1.6.3 1.1.5 2.3 1 3.5 1.6 4.8 4.5 10.2 8.9 15.1.6.6 1.1 1.2 1.7 1.8s1.2 1.1 1.9 1.7l.9.9c.3.3.7.5 1 .8.7.5 1.4 1 2.1 1.6.7.5 1.5.9 2.2 1.4.8.4 1.5 1 2.3 1.3 1.6.8 3.2 1.6 4.9 2.2l2.6.9 2.6.7 1.3.3 1.4.2 2.7.4c.9.1 1.8.1 2.7.2.9 0 1.8.1 2.7.1 1.8-.1 3.6-.1 5.4-.4 7.1-1 13.8-3.7 19-7.5 1.3-1 2.6-1.8 3.7-2.9.6-.5 1.1-1 1.7-1.5.3-.2.5-.5.8-.8.2-.2.4-.5.6-.7 1-1.1 1.9-2 2.6-3s1.4-1.8 1.9-2.6l1.3-2.1c2.4-4.2 3.5-7.9 3.9-11.4.4-3.7-.1-7.1-.9-10.8z" class="F"/><path d="M352.5 283.1h-75.1a12.04 12.04 0 0 1-12-12v-89a12.04 12.04 0 0 1 12-12h75.1a12.04 12.04 0 0 1 12 12v89a12.04 12.04 0 0 1-12 12z" class="G"/><path d="M352.5 283.1c-7.5-1.9-12.6-2.9-21.6-2.9h-53.5a9.6 9.6 0 0 1-3.3-.6 8.99 8.99 0 0 1-4.9-4.5c-.5-1-.8-2.1-.9-3.3v-90.4c0-.4.1-.7.2-1.1.3-1.4.9-2.7 1.7-3.7 1.6-2.1 3.8-3 5.5-3.4.2 0 .4-.1.7-.1h75.9c1.2 0 2.2.2 3.2.5 2 .7 3.9 2.3 4.9 4.2.5 1 .9 2.1 1 3.2.1 1 .1 2.6.1 4.1V272c0 .2 0 .4-.1.6 0 .4-.1.7-.2 1.1-.3 1.4-.8 2.7-1.5 3.9a12.31 12.31 0 0 1-2.8 3.3c-1 .9-2.5 1.7-4.4 2.2a11.71 11.71 0 0 0 10.6-2.7c1.5-1.3 2.7-3.1 3.5-5.2.2-.5.4-1.1.5-1.7.1-.3.1-.6.2-.9 0-.3.1-.6.1-.9.1-.7 0-1.1.1-1.7v-84.8c0-1.5.1-2.8-.1-4.8-.2-1.8-.8-3.6-1.7-5.2-1.8-3.2-4.7-5.7-8.1-6.9a15.81 15.81 0 0 0-5.2-.9h-75.5c-.3 0-.7 0-1 .1-.4.1-.7.1-1.1.2-2.9.5-6.5 2.2-9.1 5.5a14.91 14.91 0 0 0-2.8 6.1l-.3 1.8c0 .6-.1 1.3-.1 1.7v88.3c0 .4 0 .9.1 1.4.1 1.9.7 3.7 1.5 5.4 1.6 3.4 4.6 6 8 7.4 1.7.7 3.6 1 5.4 1H331c8.9-.3 14-1.3 21.5-3.2z" class="F"/><use xlink:href="#B" class="G"/><use xlink:href="#C" class="F"/><path d="M322.9 200.6c-4.4.3-8.5.3-12.7 0-2.2 0-4.3-1.2-4.3-2.9-.2-3.6-.2-6.8 0-9.6 0-1.6 1.8-3 4.1-3 4.3-.3 8.7-.4 13-.1 2.2 0 4.1 1.3 4.1 3 .7 3.3 0 5.3 0 9.6-.1 1.7-1.9 3-4.2 3z" class="G"/><path d="M322.9 200.6l-6.8-1.2-3.4-.5c-.6-.1-1.3-.1-1.9-.2l-1.7-.2a4.67 4.67 0 0 1-1-.5c-.1-.1-.2-.2-.2-.3l-.1-2.1v-4.2c0-.7 0-1.4.1-2v-1.2c0-.1.1-.3.4-.5.2-.2.5-.3.7-.4.4-.1.6-.2.6-.2-.2 0 1.6-.1 3.9-.2h7l2.5.1h.1c1.2 0 1.8.5 2 .8.1.1.1.2.1.2 0 .2 0 .4.1.5v.2c0 .1.1.3.1.4.2 1.3.2 2.4.2 3.6s0 2.4.2 3.6c0 .3.1.6.1.9l.1.4c0 .1.1.1.1.2.1.3 0 .7-.2 1-.8.8-1.7 1.5-3 1.8 1.2.3 2.6.2 3.8-.6.6-.4 1.1-1 1.4-1.8.1-.2.1-.4.1-.6l.1-.4c.1-.3.1-.5.2-.8l.6-3.4c.2-1.3.3-2.8 0-4.5 0-.1 0-.3-.1-.5 0-.1 0-.2-.1-.3 0-.7-.3-1.5-.8-2.2-1-1.4-2.8-2.5-5.2-2.5h.1c-.1 0-1.3-.1-2.6-.1-2-.1-4.9-.1-7.3 0l-4.3.3s-.1 0-.3.1c-.2 0-.5.1-1 .3s-1.1.4-1.7 1c-.6.5-1.5 1.4-1.8 3h0v.6c0-.1 0 .2 0-.2h0v.2c0 .2 0 .5-.1.8l-.1 2.2.1 4.5c0 .4 0 .8.1 1.2 0 .4 0 .8.1 1.2.1.6.3 1.2.5 1.6.3.5.6.8.8 1.1.6.5 1.1.8 1.5 1s.8.3 1.2.4c.9.3 2 .3 2.6.3h1.9c1.3 0 2.4-.1 3.6-.3 2.1-.2 4.3-.8 6.7-1.6z" class="F"/><use xlink:href="#D" class="G"/><path d="M349.9 200.3l-6.8-1.2-3.4-.5c-.6-.1-1.3-.1-1.9-.2l-1.7-.2a4.67 4.67 0 0 1-1-.5c-.1-.1-.2-.2-.2-.3l-.1-2.1v-4.2c0-.7 0-1.4.1-2v-1.2c0-.1.1-.3.4-.5.2-.2.5-.3.7-.4.4-.1.6-.2.6-.2-.2 0 1.6-.1 3.9-.2h7l2.5.1h.1c1.2 0 1.8.5 2 .8.1.1.1.2.1.2 0 .2 0 .4.1.5v.2c0 .1.1.3.1.4.2 1.3.2 2.4.2 3.6s0 2.4.2 3.6c0 .3.1.6.1.9l.1.4c0 .1.1.1.1.2.1.3 0 .7-.2 1-.9.8-1.8 1.5-3 1.8 1.2.3 2.6.2 3.8-.6.6-.4 1.1-1 1.4-1.8.1-.2.1-.4.1-.6l.1-.4c.1-.3.1-.5.2-.8l.6-3.4c.2-1.3.3-2.8 0-4.5 0-.1 0-.3-.1-.5 0-.1 0-.2-.1-.3 0-.7-.3-1.5-.8-2.2-1-1.4-2.8-2.5-5.2-2.5h.1c-.1 0-1.3-.1-2.6-.1-2-.1-4.9-.1-7.3 0l-4.3.3s-.1 0-.3.1c-.2 0-.5.1-1 .3s-1.1.4-1.7 1c-.6.5-1.5 1.4-1.8 3h0v.6c0-.1 0 .2 0-.2h0v.2c0 .2 0 .5-.1.8l-.1 2.2.1 4.5c0 .4 0 .8.1 1.2 0 .4 0 .8.1 1.2.1.6.3 1.2.5 1.6.3.5.6.8.8 1.1.6.5 1.1.8 1.5 1s.8.3 1.2.4c.9.3 2 .3 2.6.3h1.9c1.3 0 2.4-.1 3.6-.3 2.1-.2 4.2-.8 6.7-1.6z" class="F"/><use xlink:href="#E" class="G"/><path d="M337.1 208.5l6.8 1.2 3.4.5c.6.1 1.3.1 1.9.2l1.7.2a4.67 4.67 0 0 1 1 .5c.1.1.2.2.2.3l.1 2.1v4.2c0 .7 0 1.4-.1 2v1.2c0 .1-.1.3-.4.5-.2.2-.5.3-.7.4-.4.1-.6.2-.6.2.2 0-1.6.1-3.9.2h-7c-1.3 0-2.4-.1-2.5-.1h-.1c-1.2 0-1.8-.5-2-.8-.1-.1-.1-.2-.1-.2 0-.2 0-.4-.1-.5v-.2c0-.1-.1-.3-.1-.4-.2-1.3-.2-2.4-.2-3.6s0-2.4-.2-3.6c0-.3-.1-.6-.1-.9l-.1-.4c0-.1-.1-.1-.1-.2-.1-.3 0-.7.2-1 .8-.8 1.7-1.5 3-1.8-1.2-.3-2.6-.2-3.8.6-.6.4-1.1 1-1.4 1.8-.1.2-.1.4-.1.6l-.1.4c-.1.3-.1.5-.2.8l-.6 3.4c-.2 1.3-.3 2.8 0 4.5 0 .1 0 .3.1.5 0 .1 0 .2.1.3 0 .7.3 1.5.8 2.2 1 1.4 2.8 2.5 5.2 2.5h-.1l2.6.1c2 .1 4.9.1 7.3 0l4.3-.3s.1 0 .3-.1c.2 0 .5-.1 1-.3s1.1-.4 1.7-1c.6-.5 1.5-1.4 1.8-3h0v-.6c0 .1 0-.2 0 .2h0v-.2c0-.2 0-.5.1-.8l.1-2.2-.1-4.5c0-.4 0-.8-.1-1.2 0-.4 0-.8-.1-1.2-.1-.6-.3-1.2-.5-1.6-.3-.5-.6-.8-.8-1.1-.6-.5-1.1-.8-1.5-1s-.8-.3-1.2-.4c-.9-.3-2-.3-2.6-.3h-1.9c-1.3 0-2.4.1-3.6.3-2.2.2-4.3.8-6.7 1.6z" class="F"/><path d="M309 208.8c4.4-.3 8.5-.3 12.7 0 2.2 0 4.3 1.2 4.3 2.9.2 3.6.2 6.8 0 9.6 0 1.6-1.8 3-4.1 3-4.3.3-8.7.4-13 .1-2.2 0-4.1-1.3-4.1-3-.7-3.3 0-5.3 0-9.6.1-1.6 2-3 4.2-3z" class="G"/><path d="M309 208.8l6.8 1.2 3.4.5c.6.1 1.3.1 1.9.2l1.7.2a4.67 4.67 0 0 1 1 .5c.1.1.2.2.2.3l.1 2.1v4.2c0 .7 0 1.4-.1 2v1.2c0 .1-.1.3-.4.5-.2.2-.5.3-.7.4-.4.1-.6.2-.6.2.2 0-1.6.1-3.9.2h-7c-1.3 0-2.4-.1-2.5-.1h-.1c-1.2 0-1.8-.5-2-.8-.1-.1-.1-.2-.1-.2 0-.2 0-.4-.1-.5v-.2c0-.1-.1-.3-.1-.4-.2-1.3-.2-2.4-.2-3.6s0-2.4-.2-3.6c0-.3-.1-.6-.1-.9l-.1-.4c0-.1-.1-.1-.1-.2-.1-.3 0-.7.2-1 .8-.8 1.8-1.5 3-1.8-1.2-.3-2.6-.2-3.8.6-.6.4-1.1 1-1.4 1.8-.1.2-.1.4-.1.6l-.1.4c-.1.3-.1.5-.2.8l-.6 3.4c-.2 1.3-.3 2.8 0 4.5 0 .1 0 .3.1.5 0 .1 0 .2.1.3 0 .7.3 1.5.8 2.2 1 1.4 2.8 2.5 5.2 2.5h-.1l2.6.1c2 .1 4.9.1 7.3 0l4.3-.3s.1 0 .3-.1c.2 0 .5-.1 1-.3s1.1-.4 1.7-1c.6-.5 1.5-1.4 1.8-3h0v-.6c0 .1 0-.2 0 .2h0v-.2c0-.2 0-.5.1-.8l.1-2.2-.1-4.5c0-.4 0-.8-.1-1.2 0-.4 0-.8-.1-1.2-.1-.6-.3-1.2-.5-1.6-.3-.5-.6-.8-.8-1.1-.6-.5-1.1-.8-1.5-1s-.8-.3-1.2-.4c-.9-.3-2-.3-2.6-.3h-1.9c-1.3 0-2.4.1-3.6.3-2.1.3-4.2.8-6.7 1.6z" class="F"/><use xlink:href="#E" x="-55" y="0.6" class="G"/><path d="M282.1 209.1l6.8 1.2 3.4.5c.6.1 1.3.1 1.9.2l1.7.2a4.67 4.67 0 0 1 1 .5c.1.1.2.2.2.3l.1 2.1v4.2c0 .7 0 1.4-.1 2v1.2c0 .1-.1.3-.4.5-.2.2-.5.3-.7.4-.4.1-.6.2-.6.2.2 0-1.6.1-3.9.2h-7c-1.3 0-2.4-.1-2.5-.1h-.1c-1.2 0-1.8-.5-2-.8-.1-.1-.1-.2-.1-.2 0-.2 0-.4-.1-.5v-.2c0-.1-.1-.3-.1-.4-.2-1.3-.2-2.4-.2-3.6s0-2.4-.2-3.6c0-.3-.1-.6-.1-.9l-.1-.4c0-.1-.1-.1-.1-.2-.1-.3 0-.7.2-1 .8-.8 1.7-1.5 3-1.8-1.2-.3-2.6-.2-3.8.6-.6.4-1.1 1-1.4 1.8-.1.2-.1.4-.1.6l-.1.4c-.1.3-.1.5-.2.8l-.6 3.4c-.2 1.3-.3 2.8 0 4.5 0 .1 0 .3.1.5 0 .1 0 .2.1.3 0 .7.3 1.5.8 2.2 1 1.4 2.8 2.5 5.2 2.5h-.1l2.6.1c2 .1 4.9.1 7.3 0l4.3-.3s.1 0 .3-.1c.2 0 .5-.1 1-.3s1.1-.4 1.7-1c.6-.5 1.5-1.4 1.8-3h0v-.6c0 .1 0-.2 0 .2h0v-.2c0-.2 0-.5.1-.8l.1-2.2-.1-4.5c0-.4 0-.8-.1-1.2 0-.4 0-.8-.1-1.2-.1-.6-.3-1.2-.5-1.6-.3-.5-.6-.8-.8-1.1-.6-.5-1.1-.8-1.5-1s-.8-.3-1.2-.4c-.9-.3-2-.3-2.6-.3h-1.9c-1.3 0-2.4.1-3.6.3-2.2.3-4.3.8-6.7 1.6z" class="F"/><use xlink:href="#D" x="-55" y="45.5" class="G"/><use xlink:href="#F" class="F"/><use xlink:href="#G" class="G"/><use xlink:href="#H" class="F"/><use xlink:href="#B" x="55" y="44.2" class="G"/><path d="M349.9 245.2l-6.8-1.2-3.4-.5c-.6-.1-1.3-.1-1.9-.2l-1.7-.2a4.67 4.67 0 0 1-1-.5c-.1-.1-.2-.2-.2-.3l-.1-2.1V236c0-.7 0-1.4.1-2v-1.2c0-.1.1-.3.4-.5.2-.2.5-.3.7-.4.4-.1.6-.2.6-.2-.2 0 1.6-.1 3.9-.2h7l2.5.1h.1c1.2 0 1.8.5 2 .8.1.1.1.2.1.2 0 .2 0 .4.1.5v.2c0 .1.1.3.1.4.2 1.3.2 2.4.2 3.6s0 2.4.2 3.6c0 .3.1.6.1.9l.1.4c0 .1.1.1.1.2.1.3 0 .7-.2 1-.8.7-1.8 1.4-3 1.8 1.2.3 2.6.2 3.8-.6.6-.4 1.1-1 1.4-1.8.1-.2.1-.4.1-.6l.1-.4c.1-.3.1-.5.2-.8l.6-3.4c.2-1.3.3-2.8 0-4.5 0-.1 0-.3-.1-.5 0-.1 0-.2-.1-.3 0-.7-.3-1.5-.8-2.2-1-1.4-2.8-2.5-5.2-2.5h.1c-.1 0-1.3-.1-2.6-.1-2-.1-4.9-.1-7.3 0l-4.3.3s-.1 0-.3.1c-.2 0-.5.1-1 .3s-1.1.4-1.7 1c-.6.5-1.5 1.4-1.8 3h0v.6c0-.1 0 .2 0-.2h0v.2c0 .2 0 .5-.1.8l-.1 2.2.1 4.5c0 .4 0 .8.1 1.2 0 .4 0 .8.1 1.2.1.6.3 1.2.5 1.6.3.5.6.8.8 1.1.6.5 1.1.8 1.5 1s.8.3 1.2.4c.9.3 2 .3 2.6.3h1.9c1.3 0 2.4-.1 3.6-.3 2.1-.3 4.2-.8 6.7-1.6z" class="F"/><use xlink:href="#D" x="-55" y="67" class="G"/><use xlink:href="#F" y="21.5" class="F"/><use xlink:href="#G" y="21.5" class="G"/><use xlink:href="#H" y="21.5" class="F"/><use xlink:href="#B" x="55" y="65.7" class="G"/><g class="F"><use xlink:href="#C" x="55" y="65.7"/><path d="M160.5 212.1c2.7 2.2 4.6 3.5 8.1 4l5.9.8 11.2 28.5-1.7 2.5c-1.9 3-2.2 5.2-2.3 8.7 3.2-1.4 5.2-2.5 7.2-5.5.6-.8 1.6-2.3 3.4-5.1l-7.4-18.7-6.3-16-9.3-1.2c-3.5-.2-5.6.5-8.8 2zm55 31.8c-2.7-2.2-4.6-3.5-8.1-4l-5.9-.8-5-12.7-6.2-15.8 1.7-2.5c1.9-3 2.2-5.2 2.3-8.7-3.2 1.4-5.2 2.5-7.2 5.5-.6.8-1.6 2.3-3.4 5.1l7.4 18.7 6.3 16 9.3 1.2c3.5.2 5.6-.6 8.8-2z"/></g><path d="M390.3 373.6l3.5 98.5c0 5.1 3.8 9.4 8.8 10 22.4 3 81.1 5.3 140.5 2.4 74.3-3.6 184.6 0 188.8-9.6s12-116.9 5.4-130.7-24-43.8-31.8-46.8c-11.4-.6-245.2-2.4-245.2-2.4l-70 78.6z" fill="#483374"/><g class="F"><path d="M390.3 373.6c-1.6 7.6-2.4 12.7-2.2 21.7l1.2 34.1 1.5 42c0 .8 0 1.9.2 3 .4 2.2 1.3 4.3 2.7 6s3.3 3.1 5.3 3.9c1 .4 2.2.7 3.2.8l2.6.3c7 .8 14.1 1.3 21.2 1.8 28.5 1.7 57.9 2 86.9 1.4l21.6-.7 21.2-.9 41.1-1 73.2-1.1 30.1-1.1c9.1-.5 17.3-1.2 24.5-2.5 1.8-.4 3.6-.8 5.3-1.4.5-.2.9-.4 1.4-.6l.7-.4c.3-.2.5-.3.8-.5.5-.5 1.1-1 1.5-1.7.1-.2.2-.3.3-.5l.2-.4.2-.7c.2-.5.2-.8.3-1.2s.2-.8.3-1.1c.1-.7.3-1.4.4-2.1l.6-3.7c.7-4.6 1-7.9 1.3-9.7 1.2-11 1.9-19.5 2.4-26l1-14.2.7-12.5c.2-3.5.4-8.6.6-15.2s.4-14.6.2-23.9c-.1-4.7-.3-9.6-1-15-.2-1.4-.4-2.7-.8-4.2-.1-.4-.2-.7-.3-1.1l-.4-1.2-.3-1-.2-.5-.5-.9c-1.2-2.5-2.5-5-3.9-7.6-2.7-5.1-5.8-10.3-9.1-15.7-3.3-5.3-6.9-10.8-11.2-16.2-1.1-1.3-2.3-2.7-3.6-4-.7-.6-1.4-1.3-2.2-1.9-.4-.3-.8-.6-1.3-.9-.3-.2-.4-.3-.9-.5s-.8-.5-1.2-.4c-1.9 0-3.7-.1-5.6-.1-1.7 0-3.5-.1-5.2-.1l-21.6-.3-93.7-.9-98.1-.8c-4 0-8.1-.1-12.1-.1H459l-.2.3-.5.6-2 2.2-15.7 17.6-29.4 32.9-8.8 9.9c-5.9 6.7-8.5 11.2-12.1 18 6.4-4.4 10.5-7.5 16.6-14.2l8.8-9.9 46.1-51.6h7.8l110.2.9L695 300c1.8 0 3.5.1 5.2.1 1.6 0 3.2.1 4.7.1-.3-.1.4.2.9.6s1.1.9 1.6 1.4c1.1 1.1 2.1 2.3 3.1 3.5 4 5 7.5 10.3 10.8 15.5a316.81 316.81 0 0 1 8.9 15.4l3.8 7.4.4.9.2.4.1.3.3.7c.1.2.1.6.2.8.3 1.1.5 2.4.7 3.6.6 4.9.8 9.8.9 14.4.2 9.1 0 17.1-.2 23.6l-.6 15.1-.3 5.3s0 .8-.4 7.1l-1 14.2c-.5 6.5-1.2 14.9-2.4 25.8l-1.2 9.5-.6 3.5c-.1.6-.2 1.2-.4 1.9-.1.3-.1.6-.2.9s-.1.7-.2.9l-.1.3v.1s-.1.1-.2.1l-.3.2c-.2.1-.5.2-.8.4-1.2.5-2.8.8-4.4 1.2-6.6 1.3-14.7 1.9-23.7 2.4s-19 .8-29.9 1.1l-73.1 1.1-41.2 1-21.3.9-21.5.7c-28.8.6-58.1.3-86.4-1.4-7.1-.4-14.1-1-20.9-1.7l-2.6-.3c-.7-.1-1.2-.2-1.8-.5-1.1-.5-2.2-1.2-2.9-2.2-.8-.9-1.3-2.1-1.5-3.3-.2-1-.2-3-.2-4.7l-2.6-73.5c-.3-8.7-1.5-13.7-3.6-21.2z"/><path d="M507.2 338.9c7.5 1.9 12.6 2.9 21.6 2.9H673l13.9-.1c9.2-.2 18-.2 25.2.6 6.7.6 10.6 1.7 12.6 2.2 2 .6 3.8 1.2 5.3 1.8 1.5.7 2.9 1.3 4.1 2.1s2.4 1.7 3.3 2.9c1 1.2 1.8 2.7 2.4 4.6.4-1.9.3-3.8-.1-5.6-.5-1.8-1.4-3.5-2.6-5s-2.8-2.7-4.5-3.8c-1.8-1.1-3.8-1.9-6.1-2.6s-6.6-1.8-13.7-2.5c-7.6-.8-16.7-.8-25.9-.6l-13.9.1H528.9c-9.1.1-14.2 1.1-21.7 3zm-66 118.9c7.6 1.7 12.7 2.6 21.7 2.4l108.3-2.5 90.7-1.9 13.3-.2c9-.1 14-1.2 21.6-3-7.5-2-12.6-2.9-21.6-2.9-2.2 0-6.5.1-13.4.2l-90.8 2-108.3 2.5c-8.9.2-14 1.3-21.5 3.4zm16.2-76.9c7.5 1.9 12.6 2.9 21.6 2.9h210.2c.5 0 .9 0 1.3-.1.9-.1 1.7-.4 2.6-.7 1.6-.7 3-1.7 4.1-3 1-1.3 1.8-2.8 2.1-4.3.7-3 0-6.1-1.5-8.3a10.66 10.66 0 0 0-5.8-4.2c-1-.3-2.1-.4-3.1-.4H457.3c-1.2 0-2.3.2-3.1.5-3 .9-5.1 3.1-6.1 5.4s-1 4.8-.3 6.8 2.1 3.7 3.8 4.6c1.8.9 3.9 1.2 5.8.8-1.9-.5-3.2-1.6-4.1-2.7-.8-1.2-1.2-2.5-1.2-3.7s.3-2.4 1-3.4 1.7-1.9 3-2.3c.4-.1.8-.2 1.4-.2h231.6c.5 0 .9 0 1.4.2.9.3 1.9.9 2.6 1.9a4.28 4.28 0 0 1 .6 3.7c-.2.7-.5 1.3-.9 1.9-.5.6-1.1 1-1.8 1.3-.4.1-.7.3-1.1.3-.2 0-.4 0-.6.1H479.1c-9.1 0-14.2 1-21.7 2.9z"/></g><path d="M457.4 325.8l229-1.6c6 0 10.8-2.7 10.4-6.9-.5-4.7-5.8-6.9-18.2-6.7H457.4a7.6 7.6 0 0 0-7.6 7.6h0a7.6 7.6 0 0 0 7.6 7.6z"/><path d="M457.4 325.8c7.5 1.8 12.6 2.8 21.6 2.8l208.5-1.4c1.5-.1 3-.3 4.5-.7s2.9-1 4.2-2c1.3-.9 2.5-2.3 3.1-4.1.3-.9.4-1.8.4-2.6 0-.4 0-.8-.1-1.2s-.1-.8-.3-1.2c-.4-1.5-1.4-2.9-2.5-3.8s-2.1-1.5-3.1-1.9c-.5-.2-1-.4-1.5-.5-.5-.2-.9-.3-1.4-.4-1.8-.4-3.3-.6-4.6-.8-1.3-.1-2.4-.2-3.3-.2H457.2c-1.2 0-2.3.2-3.1.5-3 .9-5.1 3.1-6.1 5.4s-1 4.8-.3 6.8 2.1 3.7 3.8 4.6c1.9.9 4 1.2 5.9.7-1.9-.5-3.2-1.6-4.1-2.7-.8-1.2-1.2-2.5-1.2-3.7s.3-2.4 1-3.4 1.7-1.9 3-2.3c.4-.1.8-.2 1.4-.2h225.3c1.6.1 4 .2 6.7.8 1.3.3 2.7.8 3.5 1.5.4.3.6.7.7 1.1.1.5.2 1 0 1.4-.1.4-.5.8-1.1 1.3-.6.4-1.4.8-2.4 1.1s-2 .4-3.1.5h-4l-83.7.6-120.6.8c-8.8.2-13.9 1.3-21.4 3.2zM716.8 360c-2.3-1.9-3.9-2.9-6.7-2.9-1.1 0-1.5 0-2.3-.4-.7-.5-1.3-1.4-1.1-2.4.1-1 .8-1.7 1.4-2 .3-.1.6-.2.8-.2h8c1 0 1.9.7 2.2 1.5s.2 1.5.1 1.8l-.6 1.9c-.2.7-.6 1.7-1.8 2.7 1.2.9 2.7 1.3 4.2.9 1.4-.4 2.9-1.5 3.7-3.5a8.63 8.63 0 0 0-.1-6.2c-.6-1.3-1.5-2.6-2.8-3.5s-2.9-1.5-4.5-1.6h-8.2s-.4 0-1 .1-1.6.3-2.6.7c-1 .5-2.1 1.3-3 2.4s-1.6 2.6-1.8 4.2a8.4 8.4 0 0 0 .8 4.7c.7 1.4 1.8 2.6 2.9 3.4 1.2.8 2.4 1.2 3.5 1.3.3 0 .5 0 .8.1h1.2c3.1-.1 4.6-1.1 6.9-3z" class="F"/><path d="M492.8 259.6c19-28.8 27.9-34.2 27.9-34.2l99.5.5 72.2.6c3 0 4.8 3.3 3.4 5.9-10.7 18.8-25.1 37.1-31.4 88l-196.9 2.4 25.3-63.2z" class="G"/><path d="M664.4 320.4c1.5-3.6 2.6-6.6 3.6-9.8 1.1-3.2 1.8-6.6 2.8-10.9.3-1.2.6-3 1.1-5.1l.9-3.5.6-2.4c.2-.9.5-1.8.7-2.6l1.6-5.5a142.94 142.94 0 0 1 9.4-23.2c3.9-7.8 8.8-15.5 13.3-23.4.4-.8.8-1.8.9-2.7.1-1 0-2-.3-2.9-.6-1.8-2-3.4-3.8-4.1-.5-.2-.9-.3-1.4-.4-.2-.1-.5-.1-.7-.1h-5.5c-4.3 0-8.5-.1-12.6-.1l-42.7-.4-68.5-.4c-9 0-18.1-.1-27-.1-4.5 0-8.8 0-13.1-.1H520c-.2.1-.4.3-.7.4l-1.2.9-.7.6c-.4.4-.9.7-1.3 1.1-.8.7-1.6 1.5-2.3 2.2-.4.4-.7.8-1.1 1.1-.3.3-.6.7-.9 1-4.1 4.5-7.1 8.4-8.6 10.4-5.5 7.3-7.5 12.1-10.2 19.4 5.7-5.2 9.4-8.8 14.8-15.8 1.5-1.9 4.4-5.7 8.3-9.9l1.9-1.9c.7-.7 1.4-1.4 2.1-2l1.1-.9.6-.5s-.1 0 .2 0h1.6l13.1.1 27.1.1 68.5.4 20.8.2 34.4.3h5.2c.1 0 .1 0 .2.1.2.1.5.3.5.6a.78.78 0 0 1-.1.8c-4.4 7.7-9.4 15.5-13.4 23.6-4.1 8.1-7.3 16.4-9.7 24.1-.7 1.9-1.1 3.8-1.7 5.7-.3.9-.5 1.8-.8 2.7l-.6 2.4-.9 3.7c-.5 2.2-.9 4.1-1.1 5.3-1 4.5-1.2 8-1.3 11.4-.1 3 .2 6.3.6 10.1z" class="F"/><path d="M414.1 267.4l127.8-79.9c4.2-2.6 9.8-.2 10.6 4.8 3.9 23.8 15.9 82.9 42.2 121.5 29.2 42.8 56.2 73.4 72.6 87.6 3.2 2.8 3 7.9-.4 10.5-29.3 21.9-92.2 69.1-116 92.9-3 3-7.8 3.4-11.3 1-28.2-19.8-109.8-100.9-131.2-225.9-.8-5 1.5-9.9 5.7-12.5z" class="G"/><path d="M414.1 267.4c7.4-2.4 12.2-4.2 19.9-9l37.1-23.1 68.2-42.6 3.3-2.1.6-.4c.2-.1.4-.2.5-.3.9-.5 1.9-.7 2.9-.4 1 .2 1.9.9 2.4 1.7.3.4.5.9.6 1.4 0 .1.1.4.1.6l.1.7.2 1.3c1.2 7 2.6 14.1 4.1 21.1 3.1 14 6.8 27.9 11.2 41.5 4.5 13.5 9.7 26.7 16 39 3.1 6.2 6.6 12.1 10.3 17.7 3.7 5.5 7.5 10.9 11.2 16.1 15 20.8 29.8 39.2 43.3 54 3.4 3.7 6.7 7.2 9.9 10.4l2.4 2.4c.8.8 1.6 1.5 2.4 2.3.8.7 1.6 1.5 2.4 2.2.4.4.8.7 1.2 1l.6.5.5.5c.8.8 1.2 1.9 1.1 2.9-.1 1.1-.6 2-1.3 2.7l-.3.3-.5.4c-.3.3-.7.5-1 .8-.7.5-1.3 1-1.9 1.5-1.3.9-2.5 1.8-3.6 2.7l-14.3 10.7-14.2 10.8-37.7 29.3c-7.8 6.2-16.2 13.1-25 20.6l-6.7 5.8-6.7 6.1c-1.1 1.1-2.2 2.2-3.4 3.2l-.8.8-.7.6c-.4.3-.8.6-1.3.8-.9.4-2 .6-3 .5-1.1-.1-2-.5-3-1.2-5-3.6-10-7.7-14.9-12.1s-9.6-9-14.3-13.9-9.3-9.9-13.8-15.2-8.9-10.7-13.1-16.2c-17.1-22.3-32.1-46.9-43.9-72.2-5.9-12.6-11.1-25.4-15.4-38-2.1-6.3-4.1-12.6-5.9-18.8-.9-3.1-1.7-6.2-2.5-9.3l-1.2-4.6c-.2-.8-.4-1.5-.5-2.3l-.3-1.5-1.7-7.7-1-5.2c-.4-2.2-.9-4.1-1.3-5.9-.3-1-.4-1.5-.5-2.3-.1-.7-.2-1.4-.1-2.1 0-1.4.3-2.8.8-4.3.3-1.4 1.2-2.8 2.5-4.2-3.7 1.2-6.5 4.1-7.7 7.8-.3.9-.5 1.9-.6 3-.1 1 0 2.2.1 3.1.2 1.9.5 3.9.9 6.1.2 1.2.5 3 1 5.3l1.7 7.8.3 1.6c.2.8.3 1.6.5 2.3l1.2 4.7 2.5 9.4a379.98 379.98 0 0 0 6 19.1c4.4 12.8 9.6 25.8 15.6 38.6 12 25.6 27.2 50.6 44.6 73.2 4.3 5.7 8.8 11.1 13.4 16.5 4.6 5.3 9.2 10.5 14 15.4s9.7 9.7 14.6 14.2c5 4.5 10.1 8.7 15.4 12.5.8.5 1.8 1.1 2.7 1.5 1 .4 2 .6 3.1.7 2.1.2 4.2-.2 6.1-1.1.9-.4 1.8-1 2.6-1.7l.6-.5 1.2-1.2c1.1-1.1 2.2-2.1 3.3-3.2a179.21 179.21 0 0 1 6.6-6l6.6-5.7c8.7-7.5 17.1-14.3 24.9-20.5L633 441l14.2-10.8 14.2-10.7c1.1-.9 2.3-1.8 3.6-2.7.6-.5 1.3-1 1.9-1.5.3-.2.7-.5 1-.8l.5-.4.1-.1.2-.1.4-.3c1.9-1.6 3.2-4 3.4-6.7.2-2.6-.8-5.5-2.9-7.5l-.4-.4-.3-.2-.6-.5c-.4-.3-.7-.7-1.1-1-.8-.7-1.5-1.4-2.3-2.1s-1.5-1.5-2.3-2.2c-.8-.8-1.6-1.5-2.3-2.3-3.2-3.1-6.4-6.6-9.8-10.2-13.3-14.6-28-32.8-42.9-53.4l-11.1-15.9c-3.6-5.4-7-11.1-10-17.1-6.1-12-11.2-24.9-15.6-38.2s-8-27.1-11.1-40.9c-1.5-6.9-2.9-13.9-4.1-20.8l-.2-1.3-.1-.7c0-.2-.1-.4-.1-.7-.2-1.2-.7-2.4-1.4-3.5-1.4-2.1-3.6-3.7-6-4.3s-5.1-.2-7.3 1.1c-.3.2-.5.3-.7.4l-.6.4-3.3 2.1-105.2 65.8c-7.5 4.7-11.3 8.3-16.7 13.9z" class="F"/><path d="M428.7 279.2L531 210.7c3.8-2.4 8.8-.5 9.9 3.9 7.6 28.4 34.5 117.4 103.8 184.2 2.8 2.7 2.6 7.2-.3 9.7-18.3 15.2-77.8 59.8-97.1 74.6-3.4 2.6-8.2 2.3-11.2-.7-27.2-27.5-77.8-71.4-111.1-193.2-1-3.8.5-7.8 3.7-10z" fill="#ff8e02"/><g class="F"><path d="M428.7 279.2c7.3-2.7 12-4.7 19.5-9.7l31.5-21.3 27.1-18.2 21.6-14.2 3.7-2.4.5-.3.3-.2.6-.3c.4-.1.8-.2 1.2-.2.8 0 1.6.3 2.3.8.3.3.6.5.8.9.1.2.2.4.3.5l.1.3.1.2.1.3 2.4 8.6 3.9 12.9 1.4 4.3c1.9 5.7 4 11.3 6 17 2.2 5.6 4.3 11.2 6.7 16.6 2.3 5.5 4.8 10.9 7.2 16.2 1.2 2.7 2.6 5.3 3.8 7.9l3.9 7.7 4.1 7.5a67.04 67.04 0 0 1 2 3.7c.7 1.2 1.3 2.5 2.1 3.7l4.2 7.1c1.4 2.3 2.7 4.7 4.2 7l4.4 6.7 2.1 3.3 2.2 3.2 8.7 12.2 8.8 11.1c.7.9 1.4 1.8 2.1 2.6l2.2 2.5 4.2 4.8 4.1 4.6c.3.4.7.8 1 1.1.3.4.7.7 1 1.1.7.7 1.4 1.4 2 2.1l7.6 7.7c.6.6 1.2 1.2 1.7 1.8l.5.5c.1.2.3.4.4.5.4.8.5 1.6.3 2.4a3.99 3.99 0 0 1-1.1 1.9l-2.8 2.3-8.6 6.9-3 2.4-11.8 9.1-31.7 24.2-33.5 25.3c-1 .8-2 1.6-3.1 2.3l-1.5 1.2-.8.6c-.1.1-.3.2-.4.3l-.3.2c-1.4 1-3.3 1.2-5 .6-.4-.1-.8-.3-1.2-.6-.2-.1-.4-.3-.5-.4-.2-.2-.3-.2-.6-.5l-8.7-8.7c-2-1.9-3.9-3.9-5.9-5.9-1-1-2-2-2.9-3-1-1-1.9-2-2.9-3.1-7.7-8.3-15.4-17-22.4-26.3l-2.7-3.5-2.6-3.6-5.1-7.2-7.2-11.1-2.3-3.8-4.5-7.6c-1.5-2.6-2.8-5.2-4.2-7.8l-4.1-7.8-3.8-7.9c-1.2-2.6-2.6-5.2-3.7-7.9s-2.3-5.3-3.4-7.9l-3.4-7.9-3-7.9c-2-5.2-4.1-10.4-5.7-15.5l-4.9-14.5-3.8-12.6c-.6-2.1-1.3-4-1.9-5.8-.3-.9-.7-1.7-1-2.5-.2-.4-.3-.8-.5-1.2l-.2-.5c-.1-.1-.1-.3-.2-.5-.4-1.2-.6-2.6-.4-4.1.5-1.2 1.1-2.8 2.4-4.3-3.7 1.4-6.2 5.1-6 9.2 0 .3 0 .5.1.8 0 .3.1.5.1.7.1.4.1.8.2 1.3.2.9.3 1.7.5 2.7.4 1.8.9 3.8 1.5 6l3.8 12.8 4.9 14.7c1.7 5.2 3.8 10.4 5.8 15.7l3.1 8 3.4 8c1.1 2.7 2.3 5.4 3.5 8.1s2.5 5.3 3.8 8l3.9 8 4.2 7.9 4.3 7.9 6.9 11.7 2.4 3.8 4.9 7.6c1.7 2.5 3.5 4.9 5.2 7.4l2.6 3.7 2.7 3.6c7.2 9.6 15 18.4 22.8 26.8 1 1 2 2.1 2.9 3.1l3 3 5.9 6 9.6 9.6a4.44 4.44 0 0 0 1.1.8c.8.5 1.6.9 2.4 1.2 1.7.6 3.5.8 5.3.6s3.5-.8 4.9-1.8l.5-.4 1.2-.9 1.5-1.2c1-.8 2-1.6 3.1-2.3l11.9-9 21.6-16.3 31.7-24.2 11.8-9.2s1.1-.8 3.1-2.4l8.7-6.9c.5-.4.9-.8 1.4-1.2.2-.2.5-.4.7-.6l.4-.3.4-.4c1.4-1.3 2.6-3.1 3-5.1.5-2 .2-4.3-.9-6.3-.3-.5-.6-1-.9-1.4l-1.1-1.1c-.6-.6-1.1-1.2-1.7-1.7l-7.4-7.6-3-3c-.3-.4-.6-.7-1-1.1l-4-4.6c-1.4-1.6-2.8-3.1-4.2-4.8l-2.2-2.5c-.7-.8-1.4-1.7-2.1-2.6l-8.6-10.9-8.6-12-1.1-1.6-1-1.6-2.1-3.2-4.3-6.6c-1.5-2.2-2.8-4.5-4.2-6.9l-4.2-7c-.7-1.2-1.4-2.4-2-3.6-.7-1.2-1.3-2.4-2-3.7-1.3-2.5-2.7-4.9-4-7.4s-2.5-5.1-3.8-7.6c-1.3-2.6-2.6-5.1-3.8-7.8-2.4-5.3-4.9-10.5-7.1-16-2.4-5.4-4.5-10.9-6.6-16.4l-6-16.8-1.4-4.2-2.6-8.4-1.2-4.3-2.4-8.5-.1-.3-.1-.4-.3-.8c-.2-.5-.4-1-.7-1.4-.5-.9-1.3-1.7-2.1-2.4-1.7-1.3-3.8-2.1-5.9-2.1-1.1 0-2.1.2-3.1.5l-1.5.6-.7.4-.5.3-3.7 2.4-7.3 4.8-14.3 9.5-27.2 18.2-31.5 21.3c-7.4 4.7-11.1 8.4-16.2 14.1z"/><path d="M551.9 243.4c-7.2 2.8-12 4.9-19.4 10-1.2.9-3.3 2.3-7.5 5.2l-64.2 44.8-10.9 7.7c-7.3 5.2-10.9 8.9-16 14.8 7.2-2.8 12-4.9 19.4-10 1.8-1.3 5.3-3.7 11-7.6l64.1-44.8 7.5-5.3c7.3-5.2 10.9-9 16-14.8z"/></g><path d="M505.3 322.6l-11.5-17c-.9-1.6-3-2.1-4.5-1l-45.2 31.8c-1.2.8-1.6 2.3-1.1 3.7l6.4 16.5c.7 1.9 3.3.7 5-.5l48.4-32.1c1.3-1 3.3-.1 2.5-1.4z" class="G"/><path d="M505.3 322.6c-2.5-6.9-4.5-11.6-9-18.6l.1.2c-.3-.5-.7-1.1-1.3-1.6s-1.3-.9-2.3-1.2a5.59 5.59 0 0 0-3.6.1 4.67 4.67 0 0 0-1 .5c-.2.1-.3.2-.5.3l-.3.2c-.3.2-.7.5-1.1.8-.8.6-1.7 1.2-2.8 1.9l-27.3 19.2L444 333c-.4.3-.8.5-1.1.8-.2.1-.4.3-.6.4-.3.2-.6.5-.9.8-1 1.1-1.5 2.4-1.6 3.4s0 1.9.2 2.4a4.71 4.71 0 0 1 .2.5v.1s.5 1.2 1.6 4.2l2.3 5.8 1.6 4c.1.4.3.7.4 1.1.1.3.3.7.4 1 .1.4.4.7.5 1.1.4.6 1 1.2 1.8 1.6s1.6.5 2.5.4c.7-.1 1.5-.3 2.4-.6l.6-.3c.1-.1.3-.1.4-.2.3-.2.5-.3.8-.5l2.8-1.9 19.8-13.1 11.1-7.4c6.2-4.2 9.8-7.4 13.9-11.7.2-.3.6-.6 1.2-.8.3-.1.6-.2.9-.4.1 0 .2-.1.2-.2.1-.1 0-.2 0-.3.1-.4 0-.5-.1-.6 0 .2.1.3.1.4s-.1.1-.2.1c-.2 0-.5-.1-.8-.1-.6-.1-1.4-.1-2 .2-5.6 2.1-10 4.2-16.3 8.3-1.9 1.2-5.4 3.6-11.2 7.4L455.1 352c-1 .6-1.9 1.2-2.7 1.8a1.38 1.38 0 0 0-.4.3c-.1 0-.1.1-.2.1h0l-5.9-15.2-.1-.2v-.1c.2-.1.3-.2.5-.3.4-.2.7-.5 1.1-.8l12.2-8.6 27.3-19.2c1.1-.7 2-1.4 2.8-1.9.4-.3.8-.5 1.1-.8l.2-.2h.3l.1.2c4.8 7 8.4 10.5 13.9 15.5z" class="F"/><path d="M567.2 337.5l-11.5-17c-.9-1.6-3-2.1-4.5-1L480 371.6c-1.2.8-1.6 2.3-1.1 3.7l6.4 16.5c.7 1.9 3.3.7 5-.5l74.4-52.5c1.3-.9 3.3.1 2.5-1.3z" class="G"/><path d="M567.2 337.5c-2.5-6.9-4.5-11.6-9-18.6l.1.2c-.3-.5-.7-1.1-1.3-1.6-.9-.8-2.3-1.5-4-1.4a5.44 5.44 0 0 0-2.7.7c-.2.1-.4.3-.6.4a1.38 1.38 0 0 1-.4.3c-.2.2-.4.3-.7.5l-9.1 6.6-28.6 20.9-25.9 19c-1.7 1.3-3.3 2.4-4.7 3.4-.7.5-1.3 1-1.9 1.4l-.3.3c-.1.1-.3.2-.4.3-.2.2-.5.5-.7.8-.4.5-.7 1.1-.9 1.6-.4 1.1-.4 2.2-.2 3.1 0 .2.1.4.2.6 0 .1.1.2.1.3l.1.2c.1.2.1.4.2.5.2.6.4.9.4.9s.3.7 1.3 3.5c.5 1.4 1.2 3.2 2.2 5.7.5 1.2 1 2.7 1.7 4.2.1.3.2.5.3.8.2.4.3.8.5 1.2.4.8 1 1.4 1.7 1.9.8.4 1.7.6 2.6.6.9-.1 1.9-.4 2.9-.8.2-.1.4-.2.5-.3.2-.1.3-.2.5-.3.3-.2.7-.4 1-.7l1.9-1.3 4.9-3.4 42-29.5 10.9-7.7c6.1-4.3 9.6-7.7 13.6-12.1.2-.3.6-.6 1.2-.8.3-.1.6-.2.9-.4.1 0 .2-.1.2-.2.1-.1 0-.2 0-.3l-.5-.5c0 .2.1.3.1.4s-.1.1-.2.1c-.2 0-.5-.1-.9-.1-.6-.1-1.4-.1-2 .3-5.5 2.3-9.8 4.5-16 8.7l-52.9 37.3c-1.9 1.3-3.5 2.5-4.9 3.5-.7.5-1.3.9-1.9 1.3-.2.2-.4.3-.6.4-.1.1-.2.1-.3.1s-.1.1-.2.1l-5.4-13.8s-.1-.3-.4-.9c-.1-.2-.1-.3-.2-.5v-.1-.1l.1-.1c.6-.4 1.2-.9 1.9-1.4l4.7-3.4 63.7-46.5c.2-.2.5-.3.7-.5l.3-.2h.3l.1.2c4.9 6.7 8.5 10.2 14 15.2z" class="F"/><path d="M580.3 359.3l-5-6.4c-.9-1.6-3-2.1-4.5-1L497 404.8c-1.2.8-1.6 2.3-1.1 3.7l3.7 5.8c.7 1.9 6.3-3 8-4.2-.2.1 66.6-47.1 72.7-50.8z" class="G"/><path d="M580.3 359.3l-2.3-4.9-1.2-2.3c0-.1-.1-.2-.1-.3v-.2c-.2-.3-.3-.6-.6-.8a5.09 5.09 0 0 0-1.6-1.3c-1.3-.6-2.9-.7-4.3-.1-.2.1-.4.2-.5.3l-.4.3-.6.3c-.4.2-.8.5-1.2.7l-5.1 3.4-63 45.1-3 2.1c-.2.2-.4.3-.6.5-.1.1-.2.1-.3.2s-.3.2-.4.3c-.7.6-1.2 1.2-1.6 1.9-.7 1.3-.8 2.6-.7 3.4s.2 1.2.2 1.2 0 .1.2.5c.1.2.3.5.5.8.1.2.3.4.4.7l1.6 2.6c.1.1.2.3.3.5l.1.2c.1.2.2.3.3.5s.2.3.3.5l.3.6c.1.2.2.4.4.5.1.1.3.3.4.5l1 .6s.8.2 1.3.2c.9 0 1.9-.3 2.9-.8l61.1-43.1c7.4-5.1 10.9-8.9 16.2-14.6-7.3 2.6-12.1 4.7-19.5 9.8-1.8 1.3-5.3 3.7-11 7.6l-42.7 30.1c-.4.3-.9.6-1.3.9a18.39 18.39 0 0 1-1.2.9c-.7.6-1.3 1-1.9 1.4-1 .8-2 1.4-1.7 1.2h0c-.2-.2-.3-.5-.4-.7-.7-1.2-1.2-2-1.6-2.6-.2-.3-.3-.5-.4-.7h0v-.1c.3-.2.7-.5 1.1-.8.9-.6 1.9-1.4 3-2.1l63-45.1c1.8-1.3 3.4-2.5 4.8-3.7.4-.3.7-.6 1-.9l.5-.4.1-.1v-.1c.1-.2.3-.3.6-.3.1 0 .3 0 .5.1.1 0 .2.1.2.1h0l.3.3c.1.1.2.1.2.2.6.6 1.3 1.1 1.9 1.6l4.5 3.4z" class="F"/><path d="M450.4 265.6c-.9-1.6-25 17.9-25 17.9-1.2.8 4.5 17.4 4.5 17.4l29.5-16.9c1.2-.9-9-18.4-9-18.4z" class="G"/><g class="F"><path d="M450.4 265.6c-.1-.2-.3-.2-.5-.2s-.3 0-.5.1c-.3.1-.6.1-.9.2l-1.8.6c-1.2.4-2.2.9-3.3 1.3-2.1.9-4.1 1.9-6.1 3-4 2.2-7.9 4.8-12.6 8.6-.3.2-.6.5-1.7 1.4-.8.6-1.3 1.5-1.5 2.7-.1.6-.1 1.3 0 2 0 .4.1.8.2 1.2 0 .2.1.4.1.6 0 .1 0 .2.1.4.4 1.9 1 4.1 1.9 7.1.2.6.4 1.4.7 2.3l1.5 4.5c1.2 3.3 1.9 6.6 2.5 5.2 0 0 2.1-1.2 4.9-2.7 1.8-1.1 4.1-2.3 5.7-3.2l15.4-8.9c1.3-.8 2.5-1.5 3.7-2.2l.9-.6c.6-.3 1.1-.7 1.6-1s1.1-.6 1.4-1.1l.5-.6c.2-.2.2-.4.3-.6.8-1.9-.2-4.1-1.2-6-.1-.3-.2-.4-.3-.5l-.2-.4-.5-.8c-.3-.5-.6-1-1-1.5-2.8-4-5.7-7.2-9.3-10.9 1.4 5 2.6 9.1 4 13.3.2.5.3 1 .5 1.6l.3.8.1.4c0 .1.1.3.1.3-.1.2-.1.3-.2.4h-.3c-.3.1-.5.3-.8.4-1.2.6-2.4 1.3-3.7 2.1l-15.5 8.9c-1 .6-3.5 2-2.8 1.6h0l-.1-.2c-.1-.2-.1-.4-.2-.6-.3-.8-.5-1.6-.7-2.2-.9-2.8-1.4-4.9-1.8-6.5 0-.1 0-.2-.1-.3h0l.2-.2c4.6-3.7 8.1-6.9 11.2-10.1 1.6-1.6 3-3.2 4.6-4.9.8-.8 1.5-1.7 2.4-2.5.4-.4.8-.9 1.3-1.3.2-.2.4-.4.7-.6s.5-.5.8-.4z"/><use xlink:href="#I"/><path d="M498.9 354.7c-1 2-1.4 3.2-.8 4.4.7 1.3 4.7 7.7 4.7 7.7l4.7 7.7c.8 1.2 2 1.3 4.2 1.3 1-2 1.5-3.2.8-4.4-.7-1.3-4.7-7.7-4.7-7.7l-4.7-7.7c-.7-1.2-2-1.3-4.2-1.3z"/><use xlink:href="#I" x="60.8" y="16.5"/></g><path d="M552.9 419.3l-11.7-12.2c-1.2-1.1-3.4-1.3-4.6-.3l-38.5 28.9c-1 .7-1.2 1.9-.4 2.9l9.6 11.9c1.1 1.4 3.4.2 4.8-.9l41.5-29.4c1.1-.9.3.1-.7-.9z" class="G"/><g class="F"><path d="M552.9 419.3c-1.7-3.1-3.2-5.6-5-8.1l-2.9-3.8c-.5-.7-1.1-1.3-1.7-2-1.2-1.3-2.8-1.9-4.5-1.9-.6 0-1.2 0-2 .3-.4.1-.8.3-1.3.6-.1.1-.2.2-.3.2l-.2.1a1.38 1.38 0 0 1-.4.3l-4.3 3.2-32.3 24.2c-.3.2-.6.5-.9.7a6.73 6.73 0 0 0-1.5 1.4c-.7 1-.9 2.1-.9 2.9 0 .9.3 1.5.5 1.9s.4.6.4.6c-.1 0 .7.9 1 1.3l2 2.5 3 3.8 1.8 2.2c.3.4.6.8 1 1.2l.5.6c.3.3.6.8 1 1.1.8.7 1.9 1 2.9 1a4.53 4.53 0 0 0 1.6-.3c.3-.1.5-.1.7-.2s.4-.2.5-.2c.7-.3 1.3-.7 1.9-1.1.5-.3.9-.7 1.4-1l5.7-4 10.4-7.4 9.9-7c3.3-2.4 5.8-4.4 8-6.5 1.1-1.1 2.1-2.1 3.2-3.3.5-.6 1-1.2 1.6-1.8.1-.2.3-.3.4-.5l.3-.3c0-.1 0 .1.1-.2 0-.4-.2-.4-.2-.4h-.2c-.1 0-.1 0-.2.1-.2.1-.6 0-1-.2.2.4.6.7 1.2.8h.1v-.4l-.3-.3h-.1l-.9.3c-.8.3-1.5.6-2.2.9-1.4.6-2.8 1.3-4.2 1.9-2.7 1.4-5.5 3.1-8.9 5.4l-9.9 7-10.4 7.4-5.7 4c-.5.3-.9.7-1.4 1-.3.3-.7.5-1 .6-.1 0-.2.1-.2.1-.1 0-.2.1-.1 0h0l-8.8-10.9 33.2-24.8 4.3-3.2c.1-.1.3-.2.4-.3l.2-.1h.1c.1 0 .2-.1.4-.1.4 0 .7.2.8.2.7.6 1.3 1.3 1.9 1.8 1.3 1.1 2.5 2.2 3.7 3.1 2.3 2.1 4.8 3.7 7.8 5.6z"/><path d="M517.3 421.7c-.6 1.8-.9 2.9-.2 3.8l9.6 10.8c.8.8 1.9.7 3.8.2.6-1.8.9-2.9.2-3.8l-9.6-10.8c-.8-.7-1.9-.6-3.8-.2zm47.3-141.9c-7.2 2.7-12 4.8-19.4 9.9l-7.5 5.2-71.5 49.3c-7.4 5.1-11 8.9-16.1 14.7 7.2-2.7 12-4.8 19.4-9.9 1.8-1.3 5.3-3.7 11-7.6l60.5-41.7 7.5-5.2c7.3-5.2 10.9-8.9 16.1-14.7z"/><path d="M619.4 370.2c-7.1 3.1-11.8 5.4-18.9 10.8l-7.3 5.5-69.8 53.3c-7.1 5.5-10.6 9.4-15.4 15.4 7.1-3.1 11.8-5.4 18.9-10.8 1.8-1.3 5.2-3.9 10.6-8.1l66.5-50.8c7.1-5.4 10.6-9.3 15.4-15.3zm-31.1-48.3c-7.2 2.8-12 4.9-19.4 10-1.2.9-3.3 2.3-7.5 5.2l-64.2 44.8-10.9 7.7c-7.3 5.2-10.9 8.9-16 14.8 7.2-2.8 12-4.9 19.4-10 1.8-1.3 5.3-3.7 11-7.6l64.1-44.8 7.5-5.3c7.3-5.2 10.9-8.9 16-14.8zm13.1 22c-7.2 2.8-11.9 5-19.3 10.2-1.2.9-3.3 2.3-7.5 5.3l-32.1 22.9-29.4 20.9-10.9 7.8c-7.3 5.3-10.9 9-15.9 14.9 7.2-2.8 11.9-5 19.3-10.2l10.9-7.7 29.3-21 39.5-28.2c7.5-5.3 11.1-9.1 16.1-14.9z"/></g><defs ><path id="B" d="M294.9 201c-4.4.3-8.5.3-12.7 0-2.2 0-4.3-1.2-4.3-2.9-.2-3.6-.2-6.8 0-9.6 0-1.6 1.8-3 4.1-3 4.3-.3 8.7-.4 13-.1 2.2 0 4.1 1.3 4.1 3 .7 3.3 0 5.3 0 9.6-.2 1.6-2 2.9-4.2 3z"/><path id="C" d="M294.9 201l-6.8-1.2-3.4-.5c-.6-.1-1.3-.1-1.9-.2l-1.7-.2a4.67 4.67 0 0 1-1-.5c-.1-.1-.2-.2-.2-.3l-.1-2.1v-4.2c0-.7 0-1.4.1-2v-1.2c0-.1.1-.3.4-.5.2-.2.5-.3.7-.4.4-.1.6-.2.6-.2-.2 0 1.6-.1 3.9-.2h7l2.5.1h.1c1.2 0 1.8.5 2 .8.1.1.1.2.1.2 0 .2 0 .4.1.5v.2c0 .1.1.3.1.4.2 1.3.2 2.4.2 3.6s0 2.4.2 3.6c0 .3.1.6.1.9l.1.4c0 .1.1.1.1.2.1.3 0 .7-.2 1-.8.7-1.8 1.4-3 1.8 1.2.3 2.6.2 3.8-.6.6-.4 1.1-1 1.4-1.8.1-.2.1-.4.1-.6l.1-.4c.1-.3.1-.5.2-.8l.6-3.4c.2-1.3.3-2.8 0-4.5 0-.1 0-.3-.1-.5 0-.1 0-.2-.1-.3 0-.7-.3-1.5-.8-2.2-1-1.4-2.8-2.5-5.2-2.5h.1c-.1 0-1.3-.1-2.6-.1-2-.1-4.9-.1-7.3 0l-4.3.3s-.1 0-.3.1c-.2 0-.5.1-1 .3s-1.1.4-1.7 1c-.6.5-1.5 1.4-1.8 3h0v.6c0-.1 0 .2 0-.2h0v.2c0 .2 0 .5-.1.8l-.1 2.2.1 4.5c0 .4 0 .8.1 1.2 0 .4 0 .8.1 1.2.1.6.3 1.2.5 1.6.3.5.6.8.8 1.1.6.5 1.1.8 1.5 1s.8.3 1.2.4c.9.3 2 .3 2.6.3h1.9c1.3 0 2.4-.1 3.6-.3 2.1-.3 4.2-.8 6.7-1.6z"/><path id="D" d="M349.9 200.3c-4.4.3-8.5.3-12.7 0-2.2 0-4.3-1.2-4.3-2.9-.2-3.6-.2-6.8 0-9.6 0-1.6 1.8-3 4.1-3 4.3-.3 8.7-.4 13-.1 2.2 0 4.1 1.3 4.1 3 .7 3.3 0 5.3 0 9.6-.2 1.6-2 3-4.2 3z"/><path id="E" d="M337.1 208.5c4.4-.3 8.5-.3 12.7 0 2.2 0 4.3 1.2 4.3 2.9.2 3.6.2 6.8 0 9.6 0 1.6-1.8 3-4.1 3-4.3.3-8.7.4-13 .1-2.2 0-4.1-1.3-4.1-3-.7-3.3 0-5.3 0-9.6.1-1.6 1.9-3 4.2-3z"/><path id="F" d="M294.9 245.8l-6.8-1.2-3.4-.5c-.6-.1-1.3-.1-1.9-.2l-1.7-.2a4.67 4.67 0 0 1-1-.5c-.1-.1-.2-.2-.2-.3l-.1-2.1v-4.2c0-.7 0-1.4.1-2v-1.2c0-.1.1-.3.4-.5.2-.2.5-.3.7-.4.4-.1.6-.2.6-.2-.2 0 1.6-.1 3.9-.2h7l2.5.1h.1c1.2 0 1.8.5 2 .8.1.1.1.2.1.2 0 .2 0 .4.1.5v.2c0 .1.1.3.1.4.2 1.3.2 2.4.2 3.6s0 2.4.2 3.6c0 .3.1.6.1.9l.1.4c0 .1.1.1.1.2.1.3 0 .7-.2 1-.8.8-1.8 1.5-3 1.8 1.2.3 2.6.2 3.8-.6.6-.4 1.1-1 1.4-1.8.1-.2.1-.4.1-.6l.1-.4c.1-.3.1-.5.2-.8l.6-3.4c.2-1.3.3-2.8 0-4.5 0-.1 0-.3-.1-.5 0-.1 0-.2-.1-.3 0-.7-.3-1.5-.8-2.2-1-1.4-2.8-2.5-5.2-2.5h.1c-.1 0-1.3-.1-2.6-.1-2-.1-4.9-.1-7.3 0l-4.3.3s-.1 0-.3.1c-.2 0-.5.1-1 .3s-1.1.4-1.7 1c-.6.5-1.5 1.4-1.8 3h0v.6c0-.1 0 .2 0-.2h0v.2c0 .2 0 .5-.1.8l-.1 2.2.1 4.5c0 .4 0 .8.1 1.2 0 .4 0 .8.1 1.2.1.6.3 1.2.5 1.6.3.5.6.8.8 1.1.6.5 1.1.8 1.5 1s.8.3 1.2.4c.9.3 2 .3 2.6.3h1.9c1.3 0 2.4-.1 3.6-.3 2.1-.3 4.2-.8 6.7-1.6z"/><path id="G" d="M322.9 245.5c-4.4.3-8.5.3-12.7 0-2.2 0-4.3-1.2-4.3-2.9-.2-3.6-.2-6.8 0-9.6 0-1.6 1.8-3 4.1-3 4.3-.3 8.7-.4 13-.1 2.2 0 4.1 1.3 4.1 3 .7 3.3 0 5.3 0 9.6-.1 1.6-1.9 3-4.2 3z"/><path id="H" d="M322.9 245.5l-6.8-1.2-3.4-.5c-.6-.1-1.3-.1-1.9-.2l-1.7-.2a4.67 4.67 0 0 1-1-.5c-.1-.1-.2-.2-.2-.3l-.1-2.1v-4.2c0-.7 0-1.4.1-2v-1.2c0-.1.1-.3.4-.5.2-.2.5-.3.7-.4.4-.1.6-.2.6-.2-.2 0 1.6-.1 3.9-.2h7l2.5.1h.1c1.2 0 1.8.5 2 .8.1.1.1.2.1.2 0 .2 0 .4.1.5v.2c0 .1.1.3.1.4.2 1.3.2 2.4.2 3.6s0 2.4.2 3.6c0 .3.1.6.1.9l.1.4c0 .1.1.1.1.2.1.3 0 .7-.2 1-.8.8-1.7 1.5-3 1.8 1.2.3 2.6.2 3.8-.6.6-.4 1.1-1 1.4-1.8.1-.2.1-.4.1-.6l.1-.4c.1-.3.1-.5.2-.8l.6-3.4c.2-1.3.3-2.8 0-4.5 0-.1 0-.3-.1-.5 0-.1 0-.2-.1-.3 0-.7-.3-1.5-.8-2.2-1-1.4-2.8-2.5-5.2-2.5h.1c-.1 0-1.3-.1-2.6-.1-2-.1-4.9-.1-7.3 0l-4.3.3s-.1 0-.3.1c-.2 0-.5.1-1 .3s-1.1.4-1.7 1c-.6.5-1.5 1.4-1.8 3h0v.6c0-.1 0 .2 0-.2h0v.2c0 .2 0 .5-.1.8l-.1 2.2.1 4.5c0 .4 0 .8.1 1.2 0 .4 0 .8.1 1.2.1.6.3 1.2.5 1.6.3.5.6.8.8 1.1.6.5 1.1.8 1.5 1s.8.3 1.2.4c.9.3 2 .3 2.6.3h1.9c1.3 0 2.4-.1 3.6-.3 2.1-.3 4.3-.8 6.7-1.6z"/><path id="I" d="M465.3 319.9c-1 2-1.4 3.2-.8 4.4.7 1.3 4.7 7.7 4.7 7.7l4.7 7.7c.8 1.2 2 1.3 4.2 1.3 1-2 1.4-3.2.8-4.4-.7-1.3-4.7-7.7-4.7-7.7l-4.7-7.7c-.7-1.1-2-1.3-4.2-1.3z"/></defs></svg>