<svg xmlns="http://www.w3.org/2000/svg" xmlns:xlink="http://www.w3.org/1999/xlink" viewBox="0 0 800 600" xmlns:v="https://vecta.io/nano"><style><![CDATA[.G{fill:#202020}.H{fill:#ff8e02}]]></style><g fill="none" stroke="#ff8e02" stroke-width="5" stroke-linecap="round" stroke-miterlimit="10"><path d="M342.9 413.6l-5.6-2.2"/><path d="M318.7 404c-129.9-52.1-226.3-96.4-230-201.6-5-141.9 212-212.1 296.9-83.5 55.8 84.5 8.1 201 129.9 275.1 199.2 121.1 262-98.5 156.1-118.3" stroke-dasharray="11.9992,19.9987"/><path d="M661.6 274.4l-6-.2"/></g><path d="M300.6 500s1.3 23.1 2.7 35.9a6.48 6.48 0 0 0 6.8 5.7l141-11.9c22.7-2.9 99.4-4.9 115.8-7.2" fill="#f4e9c6"/><path d="M300.6 500c-1.4 7.4-2 12.3-1.5 21l.4 5.1.3 3.6c.1 1.6.3 3.3.5 5 0 .5.1.9.1 1.4.1.6.2 1.3.4 1.9.4 1.3 1.1 2.5 2.1 3.5 1.8 2 4.8 3.1 7.5 2.9 2-.2 3.9-.3 6-.5l12.4-1 90.4-7.1 5.4-.5c3.4-.3 8.4-.7 14.3-1.4l15-1.7c1.8-.2 3.6-.4 5.5-.5l24.4-1.6 25.6-1.3 24-1.2 12.8-.7c4.3-.3 7.7-.7 10.9-1.5 3.2-.7 6.2-1.7 9.7-3-3.7-.5-6.8-.9-10-1.1s-6.6-.3-11-.1l-62.4 3.1-24.5 1.6c-1.9.2-3.8.3-5.7.6l-5.4.6-9.6 1.1-14.2 1.4-5.3.5-19.6 1.6-83.1 6.5c-2 .2-4 .3-6 .5-1.2.1-2.2-.3-2.9-1.1-.4-.4-.6-.8-.8-1.3-.1-.2-.1-.5-.2-.8 0-.4-.1-.9-.1-1.3-.2-1.7-.3-3.4-.5-5l-.3-3.6-.4-5.1c-.7-8.6-2-13.4-4.2-20.5z" class="G"/><path d="M168.9 484.3l145.7-82.5c-.2-1.7 2.4-86.2 3.2-112.8.1-3.2 3.9-5 6.4-2.9 83.2 64 174.9 136.2 295.8 241.6l-299.7-25.5c-32.1-.3-150.1-11.8-151.4-17.9z" fill="#f4e9c6"/><path d="M168.9 484.3c7.2-1.9 12-3.5 19.6-7.6l7.6-4.2 60-33.4 32.9-18.6 16.7-9.6c2.8-1.6 5.5-3.3 8.3-5.1l.5-.3.6-.4c.6-.5 1.3-.9 1.7-1.6 0-.1.1-.2.1-.3v-.1c-.1-.1.1 0 .1-.1l.1-.6c0-.4.2-.7.2-1.1v-1.6l.1-4.8 2.7-92.4.3-9.2.1-2.3v-2c0-.4.3-.7.8-.9.2-.1.4 0 .6 0 0 0 .1 0 .1.1 0 0 .1 0 .2.1l.3.3.5.3 3.6 2.8c2.4 1.9 4.8 3.7 7.2 5.5l14.2 11 103.2 81.5 73.1 60.1 27.8 23.4 15.8 13.5 26.6 22.8 16.9 14.6h0-.1c-.7-.1-1.4-.1-2.1-.2l-115.8-10.6-76.5-6.7-41.9-3.5-21.5-1.7-10.8-.8-10.9-.7c-3.6-.3-7.3-.3-11-.5L310 499c-7.2-.3-14.4-.8-21.6-1.4l-42.7-3.8-41.1-4.7-5.8-.8-9.6-1.4a104.24 104.24 0 0 0-10.8-1.2l-4.8-.3c-.8-.1-1.6-.1-2.4-.2-.4-.1-.8-.1-1.2-.2-.4-.2-.9-.3-1.1-.7 0 .5.5.9.8 1.2.4.3.7.6 1.1.8.7.5 1.5.9 2.3 1.3 1.5.8 3 1.4 4.5 2 3.1 1.2 6.5 2 10.8 2.8l9.7 1.5c1.9.3 3.8.5 5.9.8 13.4 1.8 27.2 3.3 41.3 4.8l42.9 3.8 21.8 1.4c3.6.2 7.3.3 11 .4 3.6.2 7.1.2 10.8.5l10.8.7 10.8.8 21.4 1.7 41.9 3.5 76.4 6.7 129.8 11.9c1.3.1 2.6.2 3.9.4l1 .1h.8l-.1-.1c-.5-.4-1-.8-1.4-1.3-1.9-1.7-3.8-3.3-5.7-4.9l-23-19.9-42.5-36.4-27.8-23.4-73.1-60.2-103.3-81.6-14.2-11-7.2-5.5-3.6-2.8-.5-.3-.3-.2-.4-.3c-.2-.2-.5-.3-.8-.5s-.6-.3-.9-.4c-1.3-.4-2.6-.4-3.9-.1a7.21 7.21 0 0 0-3.3 2.1c-.9 1-1.4 2.3-1.6 3.6-.1.8-.1 1-.1 1.4v1.1l-.1 2.3-.9 27.6-2.2 78.9v.8l-.8.6c-2.6 1.7-5.4 3.3-8.1 4.9l-16.6 9.6-32.9 18.6-67.6 37.6c-7.5 4.3-11.3 7.6-16.8 12.7z" class="G"/><path d="M342.9 413.6c-2.8.3-64.9 34.9-87.2 47.4-2.5 1.4-1.8 5.2 1.1 5.6L582.3 510 343.2 353l-.3 60.6z" fill="#fff"/><use xlink:href="#B" class="G"/><path d="M343.1 357.1l35.3 19.8-.8 45.6-35.3-11.7zm62.3 36.9l17 11.2-1 33-16.2-5.2zm67.2 44.8l10.3 4.8-1.3 22.4-10.1-4.1z" class="H"/><g class="G"><path d="M370.4 474.5c3.3-.4 5.4-.8 8-2.9 2.8-2.2 16.7-13.7 16.7-13.7l16.7-13.7c2.5-2.1 3.4-4.1 4.4-7.2-3.3.4-5.4.8-8 2.9-2.8 2.2-16.7 13.7-16.7 13.7l-16.7 13.7c-2.6 2.1-3.4 4.1-4.4 7.2zm8.5-48.4c1.8-2.4 2.7-4 2.7-6.7 0-3-.4-18.1-.4-18.1l-.4-18.1c-.1-2.8-1.1-4.3-3-6.6-1.8 2.4-2.7 4-2.7 6.7 0 3 .4 18.1.4 18.1l.4 18.1c.2 2.8 1.2 4.4 3 6.6zm27.1 6.2c1.8-1.9 2.7-3.1 2.7-5.3l-.4-28.4c-.1-2.2-1.1-3.4-2.9-5.2-1.8 1.9-2.7 3.1-2.7 5.3l.4 28.4c.1 2.2 1.1 3.4 2.9 5.2zm16 5.3c1.8-1.6 2.7-2.8 2.7-4.7 0-2.1-.2-12.6-.2-12.6l-.2-12.6c-.1-1.9-1.1-3-2.9-4.6-1.8 1.6-2.7 2.8-2.7 4.7 0 2.1.2 12.6.2 12.6l.2 12.6c0 1.9 1 3 2.9 4.6zm26.4 10.9c1.8-1.3 2.8-2.2 2.8-3.8 0-1.7-.2-10.2-.2-10.2l-.2-10.2c-.1-1.6-1.1-2.4-2.9-3.7-1.8 1.3-2.8 2.2-2.8 3.8 0 1.7.2 10.2.2 10.2l.2 10.2c.1 1.6 1.1 2.5 2.9 3.7z"/><use xlink:href="#C"/><use xlink:href="#C" x="9.7" y="3.8"/><path d="M417.2 475.9c2.6.2 4.2.1 6-1.3 1.9-1.5 11.3-9.5 11.3-9.5l11.3-9.5c1.7-1.5 2.1-3.1 2.3-5.7-2.6-.2-4.2-.1-6 1.3-1.9 1.5-11.3 9.5-11.3 9.5l-11.3 9.5c-1.6 1.5-2 3.1-2.3 5.7zm-68.3-35c1.3 2.4 2.3 3.8 4.6 4.7l30.2 10.8c2.3.8 4 .3 6.5-.7-1.3-2.4-2.3-3.8-4.6-4.7l-30.2-10.8c-2.3-.7-4-.3-6.5.7z"/><path d="M425.6 466.2c1.3 2.4 2.3 3.8 4.6 4.7l30.2 10.8c2.3.8 4 .3 6.5-.7-1.3-2.4-2.3-3.8-4.6-4.7l-30.2-10.8c-2.3-.7-3.9-.3-6.5.7z"/></g><path d="M474.1 462.4l20.7 8.6-25.8 23.5s-30-2.8-28.8-3.6l33.9-28.5z" class="H"/><g class="G"><path d="M474.1 462.4c4 3 6.8 4.8 12.1 7 .9.4 2.2.9 5.1 2.1l-18 16.5c-1.7 1.5-3.2 3-4.7 4.3l-.3.2h0-.1c-.2 0-.4 0-.7-.1-.9-.1-1.7-.2-2.4-.2l-4.7-.5s-2.5-.3-6.9-.7c-2.2-.2-4.9-.5-8-.9-.4-.1-.8-.1-1.2-.2h-.2 0c.3-.3.7-.6 1-.8l19.3-16.3c4.7-3.8 6.8-6.4 9.7-10.4-4.5 2.2-7.4 3.8-11.8 7.5l-6.6 5.5-12.8 10.8c-1.1 1-2.3 1.9-3.4 2.9-.2.2-.4.3-.6.4l-.6.8v1.2c0 .1.1.2.1.3.2.3.5.7 1.1 1s1.5.4 2.3.5c.4.1.8.1 1.2.2.3 0 .7.1 1 .1.4.1.8.1 1.2.2 3.1.4 5.8.7 8 .9l6.9.7 4.7.5c.7.1 1.5.2 2.4.2.6.1 1.3.1 1.9.2.5.2.8-.3 1.2-.6.3-.2.5-.5.8-.7l27-24.7h-.1l-.4-.1c-.2-.1-.5-.2-.7-.3-.5-.2-.9-.4-1.3-.5-.8-.3-1.6-.7-2.4-1l-5.7-2.4c-5.2-2.2-8.5-2.9-13.4-3.6z"/><path d="M467 495.7c2.6-.1 4.1-.3 5.7-1.8 1.7-1.7 10-10.3 10-10.3l10-10.3c1.5-1.6 1.7-3.2 1.7-5.8-2.6.1-4.1.3-5.7 1.8l-20 20.6c-1.5 1.7-1.7 3.3-1.7 5.8zm-23.8-5c2.7 0 4.3-.2 6-1.7l22.2-20.4c1.7-1.6 2-3.2 2.2-5.9-2.7 0-4.3.2-6 1.7l-22.2 20.4c-1.6 1.7-1.9 3.3-2.2 5.9z"/></g><path d="M343.6 411.7l30.2 10.3-69.3 49.5-44.2-5.8c-2.1-.3-2.7-3.1-.9-4.2l85-50.3z" class="H"/><path d="M343.6 411.7c6.3 4.1 10.6 6.6 18.8 9.4 1 .3 2.4.8 4.1 1.4.3.1.7.2 1.1.4h0l-62.7 44.7c-.3.2-.6.5-.9.7l-.3.3s.1 0-.3 0c-1.1-.1-1.9-.3-2.5-.3l-14.9-2-23.9-3.1 66.4-39.4c7.1-4.3 10.9-7.5 15.9-12.4h0l-.3-.4c-.1.2-.3.4-.5.7.3-.1.6-.3.9-.4l-.3-.4c-6.7 2-11.3 3.8-18.5 7.9l-51.8 30.7-9.7 5.8a93.99 93.99 0 0 0-3.8 2.3c-.8.4-1.5.9-2.1 1.3-1 .6-1.7 1.3-2.1 2a4.86 4.86 0 0 0-.6 3.7c.3 1.2 1 2.3 1.9 3 .5.4 1 .6 1.6.8s1.3.2 2 .3l2.1.3c2.5.3 4.7.6 6.7.9l9.3 1.2 6.1.8 14.9 2c.5.1 1.4.2 2.5.3.5.1 1 .1 1.5.2.3 0 .6.1.9.1.3-.1.5-.4.8-.5.7-.5 1.5-1.1 2.3-1.7l9.7-6.9 62-44.3h-.1l-.2-.1-.5-.2-2.7-.9c-1.2-.4-2.3-.8-3.4-1.2-1.6-.6-3.2-1.1-4.6-1.6l-4.1-1.4c-8.3-2.7-13.2-3.4-20.7-4z" class="G"/><path d="M414.7 437.6l31.1 12.9-38.8 35.4s-45.2-4.3-43.3-5.4l51-42.9z" class="H"/><g class="G"><path d="M414.7 437.6c6 4.4 10.2 7.2 18.2 10.6 1.3.5 3.4 1.4 7.7 3.2l-27.1 24.8-7 6.4-.4.4h0-.1c-.3 0-.7-.1-1-.1l-3.6-.3-7.1-.7-10.3-1.1-12-1.4c-.6-.1-1.2-.2-1.8-.2h-.3 0c.5-.4 1-.8 1.5-1.3l19.3-16.2 9.8-8.3c6.7-5.8 9.9-9.7 14.2-15.8-6.7 3.3-11.1 5.7-17.8 11.3-1.6 1.4-4.8 4-9.9 8.3l-19.3 16.3c-1.7 1.5-3.4 2.9-5.1 4.3-.3.2-.5.5-.8.7l-.2.2c0 .1-.1.1-.1.2l-.2.3c-.1.2-.3.4-.4.6v1.3a.9.9 0 0 0 .1.5c.1.2.1.3.2.4.3.5.7 1.1 1.6 1.5s2.2.6 3.4.8l1.8.3c.5.1 1 .1 1.5.2.6.1 1.2.2 1.8.2l12.1 1.4 10.4 1.1 7.1.7c1.1.1 2.3.2 3.6.4l2.9.3c.8.3 1.2-.5 1.7-.9.4-.4.8-.7 1.2-1.1l7-6.4 33.7-30.8c.1 0 0-.1 0-.1l-.1-.1c-.2-.1-.4-.1-.5-.2-.4-.1-.7-.3-1-.4-.7-.3-1.3-.6-2-.8a65.84 65.84 0 0 1-3.6-1.5l-8.6-3.5c-8.1-3.4-13.1-4.4-20.5-5.5z"/><path d="M311.5 401.1c6.3 4 10.6 6.6 18.9 9.4l19.4 6.6c16.1 5.5 35.1 11.6 52.9 18.6 17.9 6.8 34.8 13.7 47.2 18.9 6.2 2.6 11.3 4.9 14.7 6.5l5.4 2.6s.5.2 1.5.7c.9.4 2.3 1.1 4.1 1.9l14.8 6.7 109.5 48.6c7.9 3.5 12.8 4.7 20.1 6.1-5.8-4.7-9.9-7.7-17.8-11.3-2.1-1-6.4-2.9-11.7-5.3l-51.2-22.7-46.6-20.6-14.7-6.6c-1.7-.8-3.1-1.4-4-1.9-.9-.4-1.4-.7-1.4-.7l-5.5-2.7c-3.6-1.7-8.7-3.9-14.9-6.6-12.5-5.3-29.5-12.2-47.4-19-17.9-7-37-13.1-53.1-18.7l-19.5-6.6c-8.3-2.7-13.3-3.3-20.7-3.9z"/><use xlink:href="#B"/></g><path d="M154.5 172.4h39.2c4.3 0 7.8 3.5 7.8 7.7l1.7 135c.1 10.7 8.8 19.3 19.4 19.5l3.7.1c13.2.2 24.1-10.4 24.2-23.6l1.1-133.6c0-4.3 3.5-7.8 7.8-7.8H299c4.4 0 7.9 3.6 7.8 8 .9 54.9 0 108.6-2.8 160.9-.4 22.3-18.6 40.2-40.9 40.2h-70.5c-23.7 0-43.1-19-43.4-42.7l-2.5-155.7c-.1-4.4 3.4-8 7.8-8z" class="H"/><path d="M154.5 172.4c10 2.5 16.8 3.8 28.8 3.9h10.6c.2 0 .4 0 .7.1h.1l.2.1.3.1c.4.1.7.3 1 .6.6.5 1.1 1.2 1.3 2 .1.2.1.4.1.6v3.3c0 1.7 0 3.3.1 5l.3 20.7 1.2 105.7v1.6c0 .6.1 1.2.1 1.8.3 2.4 1 4.7 2 6.9s2.4 4.2 3.9 6c1.6 1.8 3.5 3.3 5.6 4.6 2.1 1.2 4.3 2.2 6.7 2.7.6.2 1.2.2 1.8.3s1.2.2 1.8.2l.9.1h5.5c.6 0 1.2 0 1.8-.1l1.7-.2 1.7-.3 1.7-.4 1.7-.6c.6-.2 1.1-.4 1.6-.7l1.6-.7 1.5-.9c1-.6 1.9-1.3 2.9-2 1.8-1.5 3.5-3.1 4.9-5 2.9-3.7 4.7-8.2 5.4-12.8l.2-1.8.1-1.7v-9l1-125.3c0-.4.2-.8.3-1.2.3-.8 1-1.4 1.7-1.8.4-.2.7-.3 1.1-.4.2 0 .4-.1.6-.1h40.4c1.3.2 2.5 1.1 3 2.3l.3.9c0 .2.1.3 0 .5v.7c0 1.2 0 2.5.1 3.7l.1 7 .2 23.3v20.1l-.2 20.1-1.4 53.7-.8 17.5-.5 9.3-.3 4.8-.3 4.5c-.7 5.9-2.8 11.7-6.3 16.8-3.6 5-8.5 9.5-14.4 12.2-2.9 1.5-6.1 2.4-9.3 3-.8.1-1.6.2-2.5.4-.8.1-1.7.1-2.5.2-1.6.1-3.6.1-5.4.1h-66.9l-2.7-.1c-.5 0-.9 0-1.4-.1l-1.3-.2c-.9-.2-1.8-.2-2.7-.4-1.8-.5-3.5-.8-5.2-1.5-1.7-.5-3.4-1.4-5-2.2-.8-.4-1.6-.9-2.4-1.4l-1.2-.7-1.1-.8c-3-2.1-5.6-4.7-7.9-7.6-.5-.7-1.1-1.4-1.7-2.2l-1.4-2.3c-.5-.8-.9-1.6-1.3-2.4s-.9-1.6-1.1-2.5l-1-2.6c-.3-.9-.5-1.8-.7-2.6l-.4-1.3-.2-1.4c-.1-.9-.3-1.8-.4-2.7l-.2-2.7c0-.5-.1-.9-.1-1.4v-1.5c0-2-.1-4-.1-6l-.4-23.9-1.4-89.9-.3-17.7c-.1-6-.6-10.7-1.3-15.1l-.1-.8-.1-.7c-.1-.4-.1-.8-.1-1.2 0-.8.2-1.6.5-2.5.8-1.7 2.4-3.4 4.9-4-2.5-.6-5.4.1-7.4 1.9-1 .9-1.9 2.1-2.4 3.4a8.3 8.3 0 0 0-.6 2.1l-.3 1.8c-.6 4.5-.9 9.2-.8 15.2 0 3.2.1 9.7.3 17.7l1.8 113.8c.1 4 0 7.9.4 12.4.1 1.1.3 2.2.5 3.2l.3 1.6.4 1.6c.3 1.1.5 2.1.9 3.2l1.2 3.1c.4 1 .9 2 1.4 3s.9 2 1.6 2.9l1.7 2.8c.6.9 1.3 1.8 2 2.6 2.7 3.4 5.9 6.5 9.5 9l1.3 1 1.4.9c.9.6 1.9 1.2 2.8 1.7 2 .9 3.9 1.9 6 2.6 2 .8 4.2 1.3 6.3 1.8 1.1.2 2.1.3 3.2.5l1.6.2c.5.1 1.1.1 1.6.1l3.3.2h66.9c1.9 0 3.7 0 5.8-.1 1-.1 2-.1 3-.2 1-.2 2-.3 3-.5 3.9-.8 7.8-1.9 11.3-3.7 7.2-3.3 13.1-8.7 17.4-14.8 4.2-6.2 6.9-13.3 7.7-20.4.1-.9.1-1.7.2-2.6.1-.8.1-1.7.2-2.5.1-1.6.2-3.2.2-4.7l.5-9.3.8-17.6 1.4-53.9.2-20.1v-20.1l-.2-23.3-.1-7c0-1.2 0-2.4-.1-3.6v-1.1c0-.4-.1-.9-.1-1.4-.2-.9-.4-1.8-.8-2.7-1.5-3.5-4.9-6.3-8.9-6.9-.5-.1-1-.1-1.5-.1H259c-.6 0-1.2.1-1.8.2-1.2.2-2.3.7-3.4 1.3-2.1 1.2-3.9 3-4.9 5.3-.5 1.1-.9 2.3-1 3.6 0 .3 0 .6-.1.9v2l-.1 10.2-1 113v9l-.1 1.3v.6l-.1.6c-.5 3.3-1.8 6.5-3.8 9.2-1 1.4-2.2 2.5-3.5 3.6-.7.5-1.3 1-2.1 1.4-.4.2-.7.4-1.1.6l-1.1.5c-.4.2-.8.3-1.2.5l-1.2.4-1.2.3c-.4.1-.8.2-1.2.2l-1.2.2c-.4.1-.8 0-1.3.1-.4 0-.8.1-1.3 0H222c-.4 0-.8 0-1.2-.1s-.8-.1-1.2-.2c-1.6-.3-3.1-1-4.5-1.8s-2.6-1.8-3.7-3-2-2.5-2.6-4-1.1-3-1.3-4.6c-.1-.4-.1-.8-.1-1.2v-4.3l-.1-11.9-1.4-111.5c0-1.7 0-3.3-.1-5V181c0-.3 0-1.1-.1-1.6-.1-.6-.2-1.2-.4-1.8-.7-2.4-2.1-4.5-4-6-.9-.8-2-1.3-3.1-1.8-.3-.1-.6-.2-.8-.3l-.7-.2-.2-.1c-.7-.1-1.3-.2-1.9-.2h-10.9c-12.4-.5-19.2.9-29.2 3.4z" class="G"/><path d="M621.9 169.3l-55.7.2c-27.5.1-49.7 22.5-49.5 50-2 35.5-1.6 75 .9 117.9.2 27.3 22.4 49.3 49.7 49.3h54.6c27.4 0 49.6-22.2 49.7-49.6 3.3-45.2 3-69.3.2-118.1 0-27.4-22.4-49.7-49.9-49.7zm-8.8 176.6l-32.3-.4c-7.3-.1-13.2-6-13.2-13.2-1.1-36.6-1.4-71.1-1.1-103.8-.1-7.4 5.9-13.5 13.4-13.5H614c7.4 0 13.4 6 13.4 13.5l-.7 104.2c-.2 7.3-6.2 13.3-13.6 13.2z" class="H"/><path d="M613.1 345.9c-10-2.6-16.8-4-28.8-4.2h-4.6c-.5-.1-1-.1-1.5-.3a11.03 11.03 0 0 1-3.1-1.5l-.3-.2c-.1-.1-.3-.2-.4-.3-.3-.2-.5-.5-.7-.7a6.57 6.57 0 0 1-1.2-1.7c-.7-1.3-1.1-2.7-1.1-4.2l-1.1-56.2-.1-27.6.1-12.4v-8.8l.1-.5c0-.3.1-.6.2-.9.5-2.3 1.9-4.2 3.5-5.3.4-.3.8-.5 1.2-.8.4-.2.8-.4 1.2-.5.8-.3 1.5-.4 2.2-.5.3-.1.7 0 1-.1h34.8c.3 0 .7 0 1 .1.3 0 .7.1 1 .2 2.7.7 5.2 2.8 6.3 5.7.1.4.3.7.3 1.1.1.4.2.8.2 1.1.1.4 0 .8.1 1.2v8.5l-.6 88c0 1.5 0 2.9.1 4.3 0 .7 0 1.3.1 2v1.9c.1.9 0 1.8-.1 2.7-.2.9-.4 1.7-.7 2.5-.6 1.7-1.7 3.2-3.1 4.6-1.6 1-3.5 2.1-6 2.8 5 1.3 10.5-.5 13.9-4.7.9-1 1.6-2.3 2.2-3.6.5-1.4 1-2.8 1.1-4.4l.1-.6v-.5c0-.3 0-.6.1-1 0-.6.1-1.3.1-2 .1-1.4.1-2.8.1-4.3l.6-94.9v-1.7c0-.7 0-1.4-.1-2.1s-.2-1.4-.4-2.1l-.6-2c-2-5.3-6.6-9.1-11.5-10.4-.6-.2-1.2-.3-1.8-.4s-1.2-.2-1.8-.2h-35.4c-.6 0-1.1 0-1.8.1-2.5.3-5.5 1.2-8.3 3.4-2.8 2.1-5.4 5.4-6.4 9.7l-.3 1.6-.1.8v3.7c0 1.8 0 3.7-.1 5.7l-.1 12.4.1 27.7 1.1 56.4c.1 2.7.9 5.4 2.1 7.7.7 1.1 1.4 2.2 2.2 3.2.4.5.9.9 1.3 1.3.2.2.5.4.7.6l.5.4a15.92 15.92 0 0 0 5.7 2.8c.9.3 1.9.4 2.7.5.4 0 .9.1 1.3.1h4.1c11.8.4 18.6-.8 28.7-3.2zm8.8-176.6c-10-2.5-16.8-3.8-28.8-3.8h-27c-1.2.1-2.3.1-3.5.2-.6 0-1.2.1-1.8.1l-5.4.9-3.5.9c-.6.2-1.2.3-1.8.5l-1.7.6c-1.2.4-2.3.8-3.5 1.3l-3.4 1.6-.8.4-2.4 1.5c-1.1.7-2.2 1.3-3.2 2.1s-2.1 1.5-3.1 2.3l-2.9 2.6c-1 .8-1.8 1.9-2.7 2.8l-1.3 1.5c-.4.5-.8 1-1.2 1.6-.8 1.1-1.6 2.1-2.3 3.2l-2.1 3.4c-2.5 4.7-4.5 9.8-5.6 15.1-.3 1.3-.4 2.7-.6 4l-.3 2-.1 2-.4 7.7a383.56 383.56 0 0 0-.6 15.3c-.3 10.3-.4 20.5-.4 30.7.1 20.3.7 40.2 1.7 58.5l.8 13.6c0 .6.1 1.2.2 1.7l.6 3.4.1.9.2.8c.6 2.2 1.1 4.4 2 6.5 1.4 4.2 3.6 8 5.9 11.5.6.9 1.2 1.7 1.8 2.5s1.2 1.7 1.9 2.4 1.3 1.5 2 2.2c.3.4.7.7 1 1.1.4.3.7.7 1.1 1 5.6 5.3 11.8 8.8 17.6 11 2.9 1.2 5.7 1.8 8.3 2.4 2.6.4 5 .9 7.2.9 1.1.1 2.1.1 3.1.2h54.7l5.5-.3c1.9-.3 3.8-.5 5.7-.9 7.8-1.7 16-5.3 23.3-11.4 3.6-3.1 7-6.8 10-11 2.8-4.3 5.2-9.2 6.9-14.5.3-1.3.7-2.7 1.1-4.1.3-1.4.5-2.8.7-4.2.3-1.4.3-2.9.4-4.3 0-.7.1-1.5.1-2.2 0-.6.1-1.2.1-1.8l1.1-17.2c.8-14.2 1.5-32.4 1-52.3-.2-9.9-.6-20.2-1.1-30.7l-1-19.7-.1-2.1c0-.7-.2-1.4-.3-2.1-.2-1.4-.4-2.8-.7-4.2s-.7-2.7-1-4.1c-1.6-5.4-4.1-10.4-7.1-14.9-.7-.9-1.3-1.8-2-2.7-.4-.5-.7-1-1.1-1.4-.8-.9-1.5-1.7-2.3-2.5-.4-.4-.7-.8-1.1-1.2s-.8-.7-1.2-1c-.8-.7-1.5-1.3-2.2-2-.7-.6-1.4-1.1-2-1.6s-1.2-.9-1.8-1.3c-.3-.2-.5-.4-.8-.6s-.5-.3-.7-.4c-5.4-3.6-10.4-5-15.1-5.7l-3.5-.3c-1.2 0-2.3.1-3.5.1-.6 0-1.2.1-1.8.1l-1.8.3c-1 .7-2.2.9-3.5 1.1 1.2.4 2.4.7 3.6 1 .6.2 1.1.3 1.7.5.5.2 1.1.4 1.6.6 1 .4 2 .7 3 1.1a36.91 36.91 0 0 0 2.9 1.3c3.8 1.8 7.8 3.6 12.4 6.7.2.1.4.2.6.4s.4.3.7.5c.5.3 1 .7 1.5 1.1s1.2.8 1.7 1.4c.6.5 1.2 1.1 1.8 1.7.3.3.7.6 1 .9s.6.7.9 1c.6.7 1.3 1.4 1.9 2.1l.9 1.2 1.7 2.3c2.6 3.9 4.6 8.2 6 12.7l.9 3.5c.3 1.2.4 2.4.6 3.5.1.6.2 1.2.2 1.8l.1 1.8.2 3.8.8 15.7 1.1 30.4c.4 19.6-.2 37.6-1 51.7h0l-1.1 17-.1 1v1.3c0 .6-.1 1.3-.1 1.9-.1 1.3-.1 2.5-.3 3.7s-.3 2.4-.6 3.6l-.9 3.5c-1.4 4.5-3.4 8.7-5.9 12.4-2.5 3.6-5.4 6.8-8.5 9.4-6.3 5.2-13.3 8.3-19.9 9.8l-4.9.8c-1.6.1-3.2.2-4.7.2h-54.6c-.8 0-1.7-.1-2.7-.1-1.9 0-3.9-.5-6.2-.8-2.2-.6-4.6-1.1-7.1-2.1-4.9-1.9-10.2-4.9-15-9.4-.3-.3-.6-.6-.9-.8l-.9-.9c-.6-.6-1.1-1.2-1.7-1.9-.6-.6-1.1-1.3-1.6-2s-1.1-1.4-1.6-2.1c-1.9-3-3.8-6.2-5-9.8-.7-1.8-1.2-3.7-1.7-5.5l-.2-.7-.1-.7-.4-3c-.1-.5-.2-1-.2-1.5l-.7-13.2c-.9-18.2-1.6-37.9-1.6-58.1l.4-30.4.6-15.3.4-7.5.1-1.8c0-.6.2-1.2.2-1.7.2-1.1.3-2.3.5-3.4.9-4.5 2.6-8.9 4.8-12.9l1.7-2.9c.6-.9 1.3-1.8 2-2.7.3-.4.6-.9 1-1.3l1.1-1.2c.8-.8 1.4-1.7 2.3-2.4.8-.8 1.6-1.5 2.4-2.2.9-.7 1.8-1.3 2.6-2s1.8-1.2 2.7-1.8l1.4-.9 1.4-.8 2.9-1.4c1-.4 2-.8 3-1.1l1.5-.6c.5-.2 1-.3 1.5-.4 1-.3 2-.5 3-.8 1-.2 2-.3 3-.5l1.5-.2 1.5-.1c1-.1 2-.1 3-.2h27c12.1-.3 18.9-1.6 28.9-4.2z" class="G"/><path d="M439.4 169.3l-55.7.2c-27.5.1-49.7 22.5-49.5 50l.7 151.2c-.1 4.4 3.5 8 7.8 8h36.5c4.3 0 7.8-3.5 7.8-7.8l-1.1-47.5h53.3c27.4 0 49.6-22.2 49.7-49.6l.2-54.8c.2-27.4-22.1-49.7-49.7-49.7zm4.7 100c0 7.4-6.1 13.4-13.5 13.3l-32.3-.4c-7.3-.1-13.2-6-13.2-13.2l-1.1-40.5c-.1-7.4 5.9-13.5 13.4-13.5h34.1c7.4 0 13.4 6 13.4 13.5l-.8 40.8z" class="H"/><path d="M444.1 269.3c-.7 2.5-1.9 4.4-3.3 5.9-1.4 1.4-3 2.4-4.7 3-.8.3-1.7.5-2.6.7-.9.1-1.8.2-2.7.1h-.9c-.3 0-.6 0-1-.1-.6 0-1.3-.1-2-.1l-4.3-.1c-2 0-5.3-.1-12.2-.2-2.8 0-6.1-.1-9.7-.1H398c-.3 0-.7 0-1-.1s-.7-.1-1-.2c-1.3-.3-2.6-.9-3.8-1.8-1.1-.9-2.1-2.1-2.7-3.4-.3-.7-.5-1.4-.7-2.1 0-.4-.1-.7-.2-1.1 0-.4-.1-.7-.1-1.3l-.8-33.1-.2-6.3v-1.8s0-.1.1-.4c0-.2.1-.6.2-1 .2-.9.7-2.1 1.7-3.4s2.5-2.5 4.6-3.2c.5-.1 1-.3 1.6-.3.3-.1.6-.1.9-.1h34.5c1.4 0 2.6.3 3.8.8 2.3 1 4.1 2.9 4.9 4.9.2.4.3.7.4 1.1s.2.7.3 1.1c0 .4.1.7.1 1.1v1.2c0 1.9-.1 3.5-.1 5 0 2.9-.1 5.1-.1 6.6.2 11.9 1.4 18.7 3.7 28.7 2.7-10 4.1-16.8 4.4-28.7l.1-6.6c0-1.5.1-3.1.1-5v-1.7c0-.6-.1-1.3-.2-2s-.3-1.3-.5-2-.4-1.4-.8-2c-1.6-3.6-4.7-7.1-9-8.9-2.1-.9-4.5-1.4-6.9-1.4h-34.9c-.5 0-1 0-1.5.1-1 .1-2 .4-2.9.7-3.8 1.2-6.6 3.5-8.4 5.8s-2.6 4.6-3.1 6.2c-.2.8-.3 1.4-.4 1.8s-.1.6-.1.6-.1.3-.1.8-.1 1.4 0 2.1c0 1.5.1 3.6.2 6.3l.8 33.1c0 .5 0 1.2.1 1.9 0 .7.2 1.3.3 2 .3 1.3.7 2.6 1.3 3.8 1.2 2.4 2.8 4.6 4.9 6.2s4.4 2.7 6.9 3.3l1.8.3c.6.1 1.2.1 1.8.1h2.7l9.7.1 12.2.1h4.3c.7 0 1.3 0 2-.1h2.1c1.6-.1 3-.5 4.4-1 1.3-.6 2.6-1.2 3.6-2.1 4.4-3.3 6.3-8.7 5.1-13.8zm-4.7-100c-10-2.5-16.8-3.8-28.8-3.8h-27c-1.2.1-2.3.1-3.5.2-.6 0-1.2.1-1.8.1l-5.4.9-3.5.9c-.6.2-1.2.3-1.8.5l-1.7.6c-1.2.4-2.3.8-3.5 1.3-1.1.5-2.2 1.1-3.4 1.6l-.8.4-2.4 1.5c-1.1.7-2.2 1.3-3.2 2.1s-2.1 1.5-3.1 2.3l-2.9 2.6c-1 .8-1.8 1.9-2.7 2.8l-1.3 1.5c-.4.5-.8 1-1.2 1.6-.8 1.1-1.6 2.1-2.3 3.2L337 193c-2.5 4.7-4.5 9.8-5.6 15.1-.3 1.3-.4 2.7-.6 4l-.3 2-.2 4c0 .7-.1 1.4 0 2v3.8l.1 15.3.1 30.6.5 101.9c0 .3.1.7.1 1 .5 2.8 1.9 5.2 4 7 2 1.7 4.6 2.7 7.2 2.8h38.2c.5 0 .9-.1 1.3-.2 1.6-.3 2.7-.9 3.5-1.3.7-.4 1.1-.7 1.1-.7s.2-.2.7-.6 1.3-1.1 2.1-2.4c.8-1.2 1.8-3.1 2-5.7v-3.2c0-1.1-.1-2.2-.1-3.5l-.5-21.5-.4-16.1H440c.7 0 1.5-.1 2.3-.1s1.5-.1 2.3-.1 1.5-.2 2.3-.3c3.1-.4 6.3-1.2 9.4-2.1 6.3-2 12.6-5.4 18.1-10.2 5.5-4.7 10.2-10.7 13.6-17.7 3.3-6.9 5.2-14.8 5.3-22.8l.2-44.9v-11.3c0-1-.1-2-.1-3 0-.5 0-1-.1-1.5l-.2-1.5c-.3-2-.5-3.9-1.1-5.8-.2-1-.5-1.9-.7-2.8-.3-.9-.7-1.8-1-2.8-.3-.9-.6-1.8-1-2.7s-.8-1.7-1.3-2.6c-.8-1.8-1.8-3.4-2.8-5l-.7-1.2-1.6-2.2c-.5-.7-1-1.3-1.5-1.9s-1.1-1.2-1.6-1.7c-1-1.1-2-2.2-3.1-3.1l-2.9-2.6c-1-.7-1.8-1.4-2.6-1.9-.8-.6-1.4-1.1-2.1-1.4-5.4-3.6-10.4-5-15.1-5.7l-3.5-.3c-1.2 0-2.3.1-3.5.1-.6 0-1.2.1-1.8.1l-1.8.3c-1.5.3-2.7.5-4 .7 1.2.4 2.4.7 3.6 1 .6.2 1.1.3 1.7.5.5.2 1.1.4 1.6.6 1 .4 2 .7 3 1.1a36.91 36.91 0 0 0 2.9 1.3c3.8 1.8 7.8 3.6 12.4 6.7.5.3 1.1.7 1.7 1.2.7.5 1.4 1 2.2 1.7l2.5 2.2c.9.8 1.7 1.7 2.6 2.7.4.5.9 1 1.4 1.5.4.5.8 1.1 1.2 1.7l.7.9.7 1 .6 1c.8 1.4 1.7 2.7 2.4 4.3.4.7.7 1.5 1.1 2.2l.9 2.3c.3.8.6 1.6.8 2.3l.6 2.4c.5 1.6.7 3.3.9 5l.2 1.3c0 .4 0 .8.1 1.3l.1 2.5c.1.8.1 1.8 0 2.7v8.4l-.2 44.9c-.1 6.8-1.6 13.5-4.5 19.4-2.8 5.9-6.9 11.1-11.6 15.1s-10 6.9-15.4 8.7c-2.7.8-5.4 1.5-8 1.8l-2 .3c-.7 0-1.3.1-2 .1-.6 0-1.3.1-1.9.1H382v1.6c0 .8 0 1.5.1 2.3 0 1.4.1 2.9.1 4.3l.4 15.9.5 21.5c0 1.3.1 2.5.1 3.5v2.5c-.1.8-.4 1.5-.7 1.9s-.6.6-.7.8c-.2.1-.2.2-.2.2s-.1.1-.4.2a4.03 4.03 0 0 1-1.2.4c-.1 0-.3 0-.4.1h-36.9c-.9 0-1.7-.4-2.4-.9-.7-.6-1.2-1.4-1.3-2.3v-5l-.1-12-.1-26.2-.3-58.3-.1-30.6-.1-15.3v-5.6l.1-1.8.1-1.7c0-.6.2-1.2.2-1.7.2-1.1.3-2.3.5-3.4.9-4.5 2.6-8.9 4.8-12.9.6-1 1.2-1.9 1.7-2.9.6-.9 1.3-1.8 2-2.7.3-.4.6-.9 1-1.3l1.1-1.2c.8-.8 1.4-1.7 2.3-2.4.8-.8 1.6-1.5 2.4-2.2.9-.7 1.8-1.3 2.6-2s1.8-1.2 2.7-1.8l1.4-.9 1.4-.8 2.9-1.4c1-.4 2-.8 3-1.1l1.5-.6c.5-.2 1-.3 1.5-.4 1-.3 2-.5 3-.8 1-.2 2-.3 3-.5l1.5-.2 1.5-.1c1-.1 2-.1 3-.2h27c12.1-.3 18.9-1.6 28.9-4.2z" class="G"/><defs ><path id="B" d="M342.9 413.6c-1 0-1.8.3-2.7.4l-2.5.6-4.7 1.4c-3.1 1.1-6.2 2.5-10.1 4.5-1 .6-2.6 1.4-4.5 2.4-1 .5-2 1.1-3.2 1.7l-27.4 15.1-32.8 18.2-.5.3-.2.1c-.1 0-.3.2-.4.3-.6.4-1.2.9-1.6 1.5-1.8 2.6-1.2 6.1 1.3 8 .6.5 1.3.8 2 1l.5.1h.4l.6.1 6.9.9 287.8 38.4s1.1.1 7.6 1l18.7 2.5 10.6 1.4c.9.1 1.9.3 2.9.4.5.1 1 .1 1.5.2l.7.1.4.1h.1l-.1-.1-.2-.1-5.3-3.5-19.9-13.1-228.4-149.9v18.2l-.1 15.9v10.9c-.1 8.8.8 13.7 2.6 21 1.8-7.2 2.8-12.2 2.9-20.9l.1-10.9.1-15.9v-7.7l11.1 7.3 54.6 35.8 157.4 103.3c.5.3.9.6 1.4.9h0l-10.2-1.4-7.6-1-295.6-39.5v-.1l.1-.1.2-.1.5-.3 2-1.1 30.8-17.1 27.4-15.1 3.1-1.7 4.5-2.4c3.8-2.1 6.7-3.9 9.3-5.8 1.3-1 2.6-1.9 3.8-3 .6-.5 1.3-1 2-1.6.6-.6 1.3-1.2 2.1-1.6z"/><path id="C" d="M473 459.3c1.8-1 2.8-1.6 2.8-2.8.1-1.3 0-7.5 0-7.5v-7.5c0-1.2-1-1.8-2.8-2.8-1.8 1-2.8 1.6-2.8 2.8-.1 1.3 0 7.5 0 7.5v7.5c0 1.1 1 1.8 2.8 2.8z"/></defs></svg>