<svg xmlns="http://www.w3.org/2000/svg" xmlns:xlink="http://www.w3.org/1999/xlink" viewBox="0 0 800 600" xmlns:v="https://vecta.io/nano"><style><![CDATA[.E{fill:#202020}.F{fill:#fff}.G{fill:#483374}.H{fill:#ff8e02}]]></style><path d="M93 242.7c-1.6-3.5 0-7.7 3.6-9.1l79.8-33.6c15.6-7.3 68-29.6 84.6-35.7l68.9-26.6c10.3 23.6 41.9 109.7 56.9 146.9l58.3 145.1-114.6 43.5-61.3 22.7c-20.1 7.1-48.1 20.2-52.9 21.5-15.4-39.1-66.7-152.2-78.5-179.8-10.5-24.1-34.3-72.5-44.8-94.9z" class="F"/><path d="M93 242.7c-.4-2 .2-3.8 1.1-5s2.1-1.8 3.3-2.1a95.43 95.43 0 0 0 11.5-3.8l5.5-2.3 6.2-2.6 43.6-18.2 11.3-4.9 5.6-2.6 5.6-2.5c7.5-3.4 15.2-6.7 22.8-9.9l45.9-19.1c3.8-1.5 7.5-2.9 11.4-4.3l33.3-12.7 20.9-8.1c1.7-.7 3.4-1.3 5-2 .7-.3 1.5-.6 2.2-.9h0c.3.6.5 1.2.8 1.8.6 1.6 1.3 3.2 1.9 4.7l24.1 62.4 21.5 56.3 19.6 49.1 16.9 41.4 23.2 58 4.8 12.3c.3-.1-.7.3-1 .4-.9.3-1.3.5-1.3.5l-110.5 41.9-10.6 3.9-45.3 16.8c-16 5.6-32.3 12.7-48.8 19.8l-3.1 1.3-2.5 1-.5-1.3c-1.7-4.3-3.5-8.5-5.3-12.8l-11-25.6-62.2-140.9c-1.8-4.2-3.7-8.3-5.5-12.3l-11.2-23.9-10.5-22-6.1-12.7c-4.1-8.3-7.4-12.7-12.6-19.1 1.6 8.1 3 13.5 7.1 22.1l16.6 34.6 11.1 23.8 5.5 12.2 5.4 12.5 56.8 128.4 10.9 25.6c1.8 4.2 3.5 8.5 5.2 12.7l.8 1.9c.4 1.1.8 2.1 1.3 3.1l.7 1.5c0 .2.1.3.3.1l.4-.1.8-.3c1.1-.3 2.1-.7 3.2-1.1l.8-.3.4-.1.2-.1.8-.3 1.6-.7 3.1-1.3c16.6-7.1 32.6-14.1 48.5-19.6l55.9-20.7 10.2-3.9 108.5-41.1c.1 0 0-.1 0-.1l-.1-.2-.1-.3c-.1-.2-.2-.4-.3-.7-.2-.5-.4-.9-.5-1.4l-1.2-3.1c-.4-1.1-.9-2.3-1.4-3.6l-3.5-8.9-23.2-58.1-16.9-41.5-19.6-49-21.5-56.3-11.6-30.6-12.5-32c-.6-1.6-1.3-3.2-2-4.8-.4-1-.8-2-1.3-3-.3-.8-.7-1.6-1-2.4l-.5-1.2-.3-.6-.1-.3c0-.1 0-.1-.1-.1l-.2.1-4.9 2.1c-.9.4-1.8.7-2.7 1.1l-5 2-20.9 8.1-21.9 8.4-11.3 4.3-11.5 4.4-46.1 19.1-22.9 10c-1.9.9-3.8 1.7-5.7 2.5l-5.6 2.6c-3.7 1.7-7.4 3.3-11.2 4.9l-49.7 20.8c-2.3 1-4.2 1.8-5.5 2.3-4.4 1.8-7.8 3.5-10.9 5.4-2.1 1.2-3.5 3.1-4 5.3-.2 2.1.3 4.3 1.6 5.9z" class="E"/><path d="M113.1 243.3l4.6 7.8c30.9-13.7 63.3-26.9 96.9-39.6 1.6-.6 2.3-2.4 1.5-3.9l-4.2-8.4c-32.4 12.9-65 26.7-97.9 41.4-1 .5-1.4 1.8-.9 2.7z" class="G"/><path d="M113.1 243.3l1.4 4.5c.2.7.5 1.4.8 2.1l.1.3.1.1.1.2c.1.3.3.6.4.9.3.6.6 1.3 1 1.9l4.2-1.6 3.1-1.3 13.5-5.8 36.6-15.2 33.4-13.2 6-2.3c.4-.2.9-.3 1.3-.5l.2-.1.3-.1c.2-.1.3-.2.5-.3.3-.2.6-.4.9-.7 1.1-1 1.5-2.3 1.5-3.5 0-.6-.1-1.2-.3-1.7 0-.1-.1-.2-.1-.4l-.1-.3c-.1-.1-.1-.2-.2-.4-.2-.5-.4-.9-.6-1.2l-.5-1s-.1-.2-.8-1.5l-1.7-3.5c-.3-.7-.7-1.4-1.1-2.2l-.1-.1v-.1h-.1l-.3.1-.6.3c-.4.2-.9.4-1.4.5l-3.7 1.5c-3.1 1.2-23.8 9.5-45.6 18.8l-16.3 7-13.1 5.7-7.5 3.3c-2.9 1.3-5.1 2.5-7.1 3.8-1 .6-2 1.3-3 2-.2.2-.5.3-.8.6s-.5.6-.6 1c-.5 1.1-.3 2 .2 2.4-.2-.7 0-1.3.4-1.6.2-.2.4-.3.6-.3.3-.1.5-.1.8-.2 1.2-.3 2.3-.5 3.5-.8 2.3-.6 4.7-1.5 7.6-2.8l7.5-3.3 13-5.7 16.3-7 45.6-18.8 2.6-1c.6 1.1 1 1.9 1.2 2.5l.8 1.5s.2.3.5 1c.2.3.4.7.6 1.2.1.1.1.2.2.4 0 .1 0 .1.1.1v.3c0 .2-.1.4-.2.5l-.1.1h-.1l-.2.1c-.4.2-.9.3-1.3.5-1.8.7-3.8 1.5-6.1 2.3l-33.5 13.2-36.7 15.2-10.1 4.4c-1.5.6-2.7 1.2-3.5 1.5l-3 1.4c-.2.1-.5.2-.7.3l-.2.1h-.1c0 .1-.1.1-.2.2h-.2s-.1 0-.1-.1h0l-.3-.3c-.5-.6-1-1.1-1.4-1.7-1-.8-2.1-1.9-3.3-3.2z" class="E"/><path d="M122.5 263.5l11.6 20.4 159.7-67.1-9.3-23.1c-60.4 23.1-98.2 41.1-159.9 66.7-1.8.9-2.9 2.2-2.1 3.1z" class="G"/><path d="M122.5 263.5c2 7.2 3.6 11.9 7.9 19.5.6 1 1.2 2.2 2.1 3.6l.3.6.2.3.3-.1c.4-.2.9-.4 1.3-.5.9-.4 1.9-.8 2.9-1.2l16.9-7 64.6-26.6 58.5-24.4 10.5-4.6c1.6-.7 3-1.4 4.4-2 .5-.2 1-.5 1.4-.7.6-.3 1.2-.7 1.7-1 .5-.4.8-.8 1-1.3 0-.1.1-.3.1-.4v-1.8c-.1-.3-.3-.5-.4-.8-.2-.5-.4-1-.5-1.5-.2-.5-.4-1-.6-1.4-.3-.9-.6-1.6-.9-2.2-.5-1.2-.7-1.8-.7-1.8s-.2-.6-1.5-3.8c-.6-1.6-1.6-3.9-2.8-7-.4-1-.8-2-1.3-3.1-.4-.9-.7-1.9-1.1-2.8-.1-.2-.2-.5-.3-.7s-.1-.7-.5-.4l-1.5.6-8.8 3.4-28.4 11.3-50.8 21.3-57.6 24.7c-4 1.7-7 3.2-9.8 4.9-1.4.8-2.7 1.7-4.1 2.7-.6.4-1.5 1-2.1 1.7-.3.4-.6.8-.7 1.3-.3.4-.1 1 .3 1.2-.2-.4-.1-.8.2-1.1.2-.3.6-.5.9-.6.7-.3 1.4-.4 2.2-.5 1.6-.3 3.2-.6 4.8-1 3.2-.8 6.4-1.9 10.4-3.5l9.8-4.1 20.3-8.7 27.5-11.9 50.7-21.3 28.3-11.2 5.4-2.1c.3.7.6 1.4.8 2l2.8 7 1.5 3.8 2.2 5.5c-.2.1-.3.2-.5.2-1.3.6-2.7 1.3-4.2 1.9-3.1 1.4-6.6 2.9-10.4 4.5l-58.5 24.4-64.6 26.6-16.8 7-.1-.2c-4.2-7.5-7.5-11.3-12.7-16.7z" class="E"/><path d="M138 295l70.5-28.4c6.3-2.1 8.6-4.6 21.4-8.5C242.6 254.3 336 216 338 215.2c3.2 6.2 4.8 10.4 7.4 16.3 2.5 5.6 32.5 83.2 34.5 87.3s28.4 71.6 30.2 75.2 10.4 28 11 29.3c-19.4 4.9-100.4 35.9-105.7 38l-89.6 35.1c-3-6.6-6.8-12.9-9.1-21.1s-21.3-53.9-27.3-65.3-15-34.1-17.6-39.9l-11-25.3c-2.1-5.5-8.9-18-9.7-20.8-.8-2.9-13.1-29-13.1-29z" class="H"/><path d="M138 295c5.4-.8 9.1-1.5 15-3.9l39-15.8 9.1-3.6 6.9-2.7 1.1-.4 1.3-.4c3.4-1.2 6.4-2.9 9.4-4.2s6.2-2.5 9.5-3.5a98.21 98.21 0 0 0 5-1.7l5-1.8 9.9-3.8 20.1-7.9 40.7-16.4 20.4-8.3 5.1-2.1 1.3-.5.3-.1c1.6 3.1 3 6.5 4.5 9.8.7 1.7 1.4 3.3 2.2 5 .7 1.6 1.3 3.3 2 5 1.3 3.4 2.6 6.7 4 10l7.8 19.8 14.9 38.1 3.6 9.1a149.37 149.37 0 0 0 1.9 4.5l.9 2.1c.3.7.6 1.4.9 2.2l6.8 17 12.3 31 5.5 13.6 2.6 6.3c.4 1 .8 2 1.3 3.1.2.5.4.9.6 1.4s.4.9.6 1.4c3 7.6 5.3 14.4 7.4 19.9l1.4 3.9c.1.2.2.5.3.7h0c-.5.1-1 .3-1.5.4-1 .3-1.8.5-2.5.8-1.5.5-2.7.8-3.4 1.1-.8.3-1.2.4-1.2.4s-.1 0-7 2.3c-.6.2-7.2 2.4-18.4 6.5l-46.1 17-14.9 5.6-7.8 3-8.1 3.2-34.4 13.8-37.4 14.7-4.8 1.8c-1.3.5-2.5.9-3.8 1.4h0s0 .1 0-.1l-1.2-2.4-2.3-4.7c-1.5-3.1-2.9-6.3-3.9-9.5-.3-.8-.5-1.6-.8-2.5l-.9-2.7c-.6-1.7-1.2-3.4-1.9-5.1-5.1-13.4-10.7-26.7-16.4-40-1.4-3.3-2.9-6.6-4.4-9.9-.7-1.6-1.5-3.3-2.3-4.9l-2.4-4.8c-3.2-6.3-6-12.9-8.8-19.4l-8.3-19.4-8.3-18.8c-.7-1.6-1.3-3.1-1.9-4.6l-1-2.4c-.3-.8-.7-1.6-1-2.4-1.4-3.1-2.9-6.1-4.4-9l-2.1-4.4c-.3-.7-.7-1.4-1-2.1-.2-.3-.3-.7-.4-1l-.4-1.1c-.6-1.7-1.3-3.1-1.9-4.6-.2-.6-.5-1.1-.7-1.6l-3.8-8.4c-3.1-5.8-5.3-8.8-8.8-13 1.1 5.4 1.9 9 4.6 14.8l3.8 8.4c.2.5.5 1.1.7 1.6.6 1.4 1.3 2.9 1.8 4.3l.2.4.2.7c.2.4.3.8.5 1.2.3.8.7 1.5 1 2.3.7 1.5 1.4 3 2.2 4.4 1.5 2.9 2.9 5.9 4.3 8.9.3.7.7 1.5 1 2.2l.4 1.1.5 1.2c.6 1.6 1.3 3.2 1.9 4.7l8.4 18.9c2.8 6.3 5.4 12.8 8.2 19.3s5.6 13.1 8.9 19.6c.8 1.7 1.6 3.2 2.4 4.8s1.5 3.2 2.3 4.8c1.5 3.2 2.9 6.5 4.4 9.8 5.7 13.2 11.3 26.5 16.4 39.8l1.8 5c.3.8.5 1.6.8 2.4.3.9.5 1.8.8 2.6 1.2 3.5 2.6 6.8 4.1 10l2.3 4.7 2.2 4.6.3.6.1.3c0 .1.1.1.2.1l2.6-.8c.4-.1.9-.3 1.1-.3l1.3-.4 2.5-.9 4.9-1.8 37.4-14.7 42.5-17 7.8-3 14.8-5.6 46-17 18.4-6.4 7-2.3s.4-.1 1.2-.4c.8-.2 1.9-.6 3.4-1.1.7-.2 1.6-.5 2.5-.8l4.6-1.3c.3-.1.5-.2.8-.2l.4-.1c0-.1-.1-.3-.1-.4a12.2 12.2 0 0 0-.7-1.7c-.2-.6-.5-1.2-.7-1.8-.1-.4-.3-.7-.4-1.1-.4-1.2-.9-2.5-1.4-3.9l-7.4-20-.6-1.5c-.2-.5-.5-1.1-.7-1.5-.4-.8-.8-1.9-1.2-2.9l-2.5-6.3-5.5-13.6-19.1-48.1c-.3-.7-.6-1.5-.9-2.2-.3-.8-.6-1.5-1-2.3-.6-1.3-1.2-2.9-1.8-4.3l-3.6-9.1-22.7-57.9-4-10.1c-.7-1.7-1.3-3.4-2.1-5.1-.7-1.7-1.4-3.3-2.2-5a150.42 150.42 0 0 0-4.6-10.1l-1.2-2.5-.3-.6-.2-.3-.3.1-1.3.5-3.5 1.4-5.1 2.1-20.4 8.3-40.7 16.4-20 7.9-9.9 3.8-4.9 1.8c-1.6.6-3.2 1.1-4.9 1.6-3.4 1-6.7 2.2-9.9 3.6s-6.2 3-9.2 4.1c-.8.3-1.6.6-2.4.8l-2.4.9-4.6 1.8-9.1 3.6-35.5 14.4-3.5 1.4c-5.9 3.1-9 5.1-13.4 8.4z" class="E"/><g class="F"><path d="M215.5 431.3l19.5 46.9 180.3-65c-5.4-15.4-12.7-33.4-20.7-52.3l-179.1 70.4zm-21.4-16.1l4.8 13.5c62.8-30 126.2-55.6 191.4-78.3-1-2.6-2.3-6-4.8-11.9-65.4 22.9-129.2 48.5-191.4 76.7zm-15.5-34.7l4.4 11.9c62.8-30 128.1-55.9 193.4-78.6-1-2.6-2.3-4.8-4.8-10.8-65.5 22.9-130.9 49.2-193 77.5z"/><path d="M169.1 330.2l19.3 45c62.8-30 117.8-49.7 183-72.4l-18.2-46.5c-65.5 22.9-122 45.6-184.1 73.9z"/></g><g class="E"><path d="M151 323.4c5.4-.8 9.1-1.5 15-3.8l170.5-69.3c5.9-2.4 9-4.5 13.4-7.7-5.4.8-9.1 1.5-15 3.8l-170.5 69.3c-5.9 2.4-9 4.5-13.4 7.7zm26.3 58.4c5.4-1.1 8.9-2 14.7-4.7l12.4-5.8 31.4-14 28.7-12.1c3.8-1.6 7-2.8 9.2-3.7l3.4-1.4s19.8-8 41.8-16.1l16.6-6.1 15.6-5.6 8.9-3.1c6-2.1 9.2-3.9 13.8-6.9-5.5.5-9.1.9-15.2 3-1.6.6-4.9 1.7-8.9 3.1L334 314l-16.6 6.1-41.9 16.2-3.4 1.4-9.2 3.7-28.8 12.1-31.5 14.1-12.4 5.8c-5.7 2.6-8.7 4.9-12.9 8.4zm2.7 11.4c5.4-1.1 8.9-2 14.7-4.7l12.4-5.8 31.4-14 28.7-12.1c3.8-1.6 7-2.8 9.2-3.7l3.4-1.4s19.8-8 41.8-16.1l16.6-6.1 15.6-5.6 8.9-3.1c6-2.1 9.2-3.9 13.8-6.9-5.5.5-9.1.9-15.2 3-1.6.6-4.9 1.7-8.9 3.1l-15.7 5.6-16.6 6.1-41.9 16.2-3.4 1.4-9.2 3.7-28.8 12.1-31.5 14.1-12.4 5.8c-5.8 2.6-8.7 4.9-12.9 8.4zm13.7 23.2c5.4-1.1 8.9-2 14.7-4.7 2.3-1 6.8-3.1 12.3-5.7l30.9-13.8 28.3-11.9 9-3.7c2.2-.9 3.4-1.3 3.4-1.3l41.1-15.8 16.4-6 15.4-5.4 8.9-3.1c6-2.1 9.2-3.9 13.8-6.9-5.5.5-9.1.9-15.2 3-1.6.6-4.9 1.7-8.9 3.1l-15.4 5.5-16.4 6-41.2 15.8s-1.2.5-3.4 1.3l-9 3.7-28.4 11.9-31 13.8-12.3 5.7c-5.8 2.8-8.8 5-13 8.5z"/><path d="M198.3 428.9c5.4-1.1 8.9-2 14.7-4.7l12.3-5.7 31.1-13.9 28.4-12 9.1-3.7 3.4-1.4 41.4-16c5.4-2.1 11-4 16.4-6l15.5-5.5 8.9-3.1c6-2.1 9.2-3.9 13.8-6.9-5.5.5-9.1.9-15.2 3-1.6.6-4.9 1.7-8.9 3.1l-15.5 5.5-16.5 6.1-41.5 16.1-3.4 1.4-9.1 3.7-28.5 12.1c-10.7 4.6-21.8 9.6-31.1 14l-12.3 5.8c-5.8 2.4-8.8 4.6-13 8.1zm4.5 8.1c5.4-.9 9-1.6 14.9-4l43.5-18.4 28.2-11.8 12.3-5.1 40.8-16.1 16.2-6.1 7.9-2.9 7.4-2.7 8.8-3.1c6-2.1 9.2-4 13.8-7-5.5.5-9.1 1-15.2 3-1.6.6-4.9 1.7-8.9 3.1l-7.4 2.7c-2.6.9-5.2 1.9-7.9 2.9l-16.2 6.1-40.9 16.2-12.3 5-28.2 11.8-43.5 18.4c-5.9 2.7-8.9 4.7-13.3 8zm18.1 47c5.4-.9 9-1.7 14.9-4.1 2.3-.9 6.9-2.8 12.5-5.2l31.3-12.3 15.5-5.8 13.2-4.8 25.2-8.8 29-9.8 40.8-13.6c6-2.1 9.2-3.9 13.9-6.9-5.5.4-9.1.9-15.2 2.9l-40.8 13.6-29 9.8-25.2 8.8-13.2 4.8-15.5 5.8c-10.8 4-22 8.5-31.4 12.3l-12.5 5.2c-6.1 2.6-9.1 4.8-13.5 8.1zm134.2-227.4c-5.4.7-9.1 1.4-15 3.6-.8.3-2 .8-3.5 1.3-.7.3-1.6.6-2.5.9l-4 1.5-4.4 1.6c-12.1 4.2-26.2 9.7-39.6 15l-19.3 7.7-16.3 6.7-15.5 6.4-51 20.7c-3.3 1.4-6.7 2.7-10.1 4.1-2.2.9-4.3 1.8-6.5 2.6l-.6.3-.3.1c0 .1.1.2.1.3l.5 1.3.9 2.4c.3.9.7 1.7 1 2.6.7 1.7 1.5 3.4 2.4 5l.7 1.2.3.6.3.5c.4.7.7 1.5 1.1 2.3l2.1 4.6c.6 1.5 1.2 2.9 1.9 4.3.8 1.9 1.5 3.7 2.1 5.2s1 2.7 1.4 3.5c2.4 6 4.6 9 7.9 13.3-.9-5.4-1.8-9-4.1-14.9-.3-.8-.8-2-1.3-3.5l-2.1-5.3-1.9-4.4c-.7-1.5-1.4-3.1-2.1-4.7-.4-.8-.7-1.6-1.2-2.4l-.6-1.2-.6-1.1c-.8-1.5-1.5-3-2.2-4.6-.3-.8-.7-1.6-1-2.4l-.1-.1 1.1-.5 2.5-1 10.1-4.1 35.6-14.4 31-12.6 16.3-6.7c6-2.5 12.6-5.1 19.3-7.7l39.5-14.9c1.5-.6 3-1.1 4.4-1.6s2.7-1 4-1.5c.9-.3 1.7-.7 2.5-.9 1.5-.6 2.7-1 3.5-1.4 5.7-2.5 8.8-4.5 13.3-7.7z"/><use xlink:href="#B"/><path d="M337 229.2c-5.5.6-9.1 1.2-15.1 3.4l-40.5 15-25.8 9.7-22.4 8.8-11.7 4.7c-2.2.9-4.4 1.8-6.8 2.9-2.2 1-4.5 2-6.9 3l-14.5 5.6c-2.4 1-4.8 1.9-7.1 2.8-1.1.5-2.3.9-3.4 1.4-.6.2-1.1.5-1.6.7s-1 .4-1.5.7l-8.6 3.8c-5.9 2.6-8.9 4.7-13.2 8 5.4-.9 9-1.7 14.9-4.2l8.6-3.7c.5-.2 1-.4 1.5-.7.5-.2 1.1-.5 1.6-.7 1.1-.5 2.2-.9 3.4-1.4l7-2.8 14.6-5.7c2.4-1 4.8-2 7.1-3.1 2.2-1 4.5-1.9 6.6-2.8l11.7-4.7 11.1-4.4 11.2-4.4c6.8-2.7 16-6.1 25.7-9.7l40.5-15c5.9-2.2 9.1-4.1 13.6-7.2zm2.6 9.2c-5.5.6-9.1 1.2-15.1 3.4l-40.5 15-25.8 9.7-22.4 8.8-11.7 4.7c-2.2.9-4.4 1.8-6.8 2.9-2.2 1-4.5 2-6.9 3l-14.5 5.6c-2.4 1-4.8 1.9-7.1 2.8-1.1.5-2.3.9-3.4 1.4-.6.2-1.1.5-1.6.7s-1 .4-1.5.7l-8.6 3.8c-5.9 2.6-8.9 4.7-13.2 8 5.4-.9 9-1.7 14.9-4.2l8.6-3.7c.5-.2 1-.4 1.5-.7.5-.2 1.1-.5 1.6-.7 1.1-.5 2.2-.9 3.4-1.4l7-2.8 14.6-5.7c2.4-1 4.8-2 7.1-3.1 2.2-1 4.5-1.9 6.6-2.8l11.7-4.7 11.1-4.4 11.2-4.4c6.8-2.7 16-6.1 25.7-9.7l40.5-15c5.9-2.2 9-4.1 13.6-7.2zm23.1 41.5c-5.4.7-9.1 1.4-15 3.6l-91.8 35.8-12.2 5c-2.3 1-4.6 2.1-6.9 3.2l-7.2 3.4-14.8 6.8c-2.4 1.1-4.9 2.1-7.2 3.1l-6.8 2.9-8.6 3.7c-5.9 2.5-8.9 4.6-13.3 7.9 5.4-.9 9-1.6 14.9-4.1l8.6-3.7c2.2-.9 4.4-1.9 6.8-2.9l7.3-3.1 14.9-6.8c2.4-1.2 4.9-2.3 7.2-3.4l6.8-3.2c4.4-1.9 8.6-3.6 12.1-5l11.6-4.6 11.7-4.5c3.5-1.4 7.7-3 12.3-4.7l14.5-5.7 41.7-16.3c5.8-2.3 8.9-4.2 13.4-7.4z"/><use xlink:href="#B" x="9.1" y="21.5"/><path d="M401.3 372.7c-5.5.6-9.1 1.1-15.1 3.2L308 404l-11.3 4.2-11.9 4.6-13.7 6.1-14.4 6.1-7 2.8-6.6 2.6-8.7 3.5c-5.9 2.4-9 4.4-13.5 7.6 5.4-.7 9.1-1.4 15-3.7l8.7-3.4 13.7-5.5 14.5-6.2 13.7-6.1c4.2-1.8 8.3-3.3 11.7-4.6l11.3-4.2 78.2-28.1c5.9-2.1 9.1-4 13.6-7zm5.4 12.3c-5.5.5-9.1 1-15.2 3l-55.9 19-12.1 4.5-11.5 4.3-11.4 4.4-12 4.8c-1.1.5-2.2.9-3.3 1.4s-2.3.9-3.5 1.4l-7.3 2.7-15 5.5c-2.5.9-4.9 1.9-7.2 2.8l-15.4 6.2c-5.9 2.4-9 4.4-13.5 7.6 5.4-.7 9.1-1.4 15-3.7l8.7-3.4c2.1-.8 4.4-1.7 6.7-2.7l7.2-2.7 22.2-8.2c1.2-.5 2.4-.9 3.5-1.4s2.3-1 3.4-1.4a317.88 317.88 0 0 1 11.9-4.7l11.4-4.4 11.4-4.3 12-4.4 14.4-4.9 41.5-14.2c6.2-2.4 9.4-4.2 14-7.2zm5.5 13.4c-5.5.3-9.2.6-15.3 2.4l-12.4 3.7-29.4 8.9c-5 1.6-9.9 3-14.5 4.7l-12 4.4-22.8 8.6c-3.5 1.3-7.5 2.9-11.9 4.7-4.3 1.9-9 3.6-14 5.4l-14.9 5.4-13.9 5.4-8.7 3.5c-5.9 2.4-9 4.4-13.5 7.6 5.4-.7 9.1-1.4 15-3.7l8.7-3.4 6.7-2.6 7.1-2.7 14.8-5.4c4.9-1.8 9.8-3.6 14.2-5.5 4.3-1.8 8.4-3.4 11.8-4.7l11.3-4.3 11.4-4.3 12-4.4c4.4-1.6 9.3-3 14.3-4.6l41.7-12.7c6.3-1.9 9.5-3.6 14.3-6.4z"/><use xlink:href="#C"/><use xlink:href="#C" x="107.8" y="-44.1"/><use xlink:href="#D"/><path d="M295.4 317.3c-1 1-1.6 1.6-1.4 2.3s1.5 3.9 1.5 3.9l1.5 3.9c.3.6 1.1.7 2.5.7 1.1-1 1.6-1.5 1.4-2.2s-1.5-4-1.5-4l-1.5-4c-.3-.5-1-.6-2.5-.6z"/><use xlink:href="#D" x="-46.6" y="33"/><use xlink:href="#D" x="-4.7" y="15.7"/><use xlink:href="#E"/><use xlink:href="#F"/><use xlink:href="#D" x="13.8" y="50"/><use xlink:href="#F" x="94.1" y="-39.7"/><use xlink:href="#E" x="-55.8" y="90.8"/><path d="M266.5 449.3c-1 1.1-1.6 1.7-1.3 2.5l3.4 10.2c.3.8 1.1 1 2.6 1.2 1-1.1 1.6-1.8 1.3-2.6l-3.4-10c-.3-.9-1.2-1.1-2.6-1.3zm33.7-12.8c-1 1.1-1.6 1.7-1.3 2.5l3.4 10.2c.3.8 1.1 1 2.6 1.2 1-1.1 1.6-1.8 1.3-2.6l-3.4-10c-.3-.9-1.1-1.1-2.6-1.3zm37.3-13.8c-1 1.1-1.6 1.7-1.3 2.5l3.4 10.2c.3.8 1.1 1 2.6 1.2 1-1.1 1.6-1.8 1.3-2.6l-3.4-10c-.3-.8-1.1-1.1-2.6-1.3zm37.8-11.8c-1 1.1-1.6 1.7-1.3 2.5l3.4 10.2c.3.8 1.1 1 2.6 1.2 1-1.1 1.6-1.8 1.3-2.6l-3.4-10c-.2-.8-1.1-1-2.6-1.3z"/><use xlink:href="#E" x="-42.1" y="85.3"/><use xlink:href="#D" x="100.6" y="43.3"/><use xlink:href="#F" x="76.5" y="6.7"/><path d="M215.9 431.4c.8 5.4 1.5 9 3.9 14.9l2.5 6c.2.4.6 1.4.6 1.4s.1.4.3.7l3.8 9.3c2.4 5.9 4.5 8.9 7.6 13.5-.6-5.5-1.4-9.1-3.7-15-.6-1.4-2.3-5.5-3.8-9.3-.2-.4-.3-.7-.3-.7s-.4-1-.6-1.4l-2.5-6c-2.5-5.9-4.6-9-7.8-13.4z"/></g><path d="M140.1 190.1c-1.1-3.7 1.2-7.6 5-8.4l84.2-20.3c16.6-4.7 71.8-18.3 89.3-21.7l72.3-15.2c6.4 25 23.8 115 32.5 154.2l34.2 152.6-120.1 24.5-64.1 12.5c-21 3.8-50.7 12.2-55.7 12.7-8.9-41.1-41.4-160.9-48.6-190.1-6.5-25.4-22.3-77-29-100.8z" class="F"/><path d="M140.1 190.1c-.1-2.1.8-3.7 1.9-4.7s2.4-1.5 3.6-1.5c3.5-.3 7.3-.9 11.9-1.9l5.8-1.3c2-.5 4.2-1 6.5-1.5l45.9-11 11.9-3.1c2-.5 4-1.1 6-1.6s4-1.1 6-1.6l24.1-6.1 48.4-11.4c4-.9 7.9-1.6 11.9-2.4l11.8-2.4 23-4.8 22-4.7 5.3-1.2c.8-.2 1.6-.4 2.3-.5h0c.2.6.3 1.3.5 1.9.4 1.7.8 3.3 1.1 5l13.8 65.5 12.2 59 11.5 51.6 10 43.6 13.6 61 2.7 13c.3-.1-.7.1-1.1.2l-1.4.3-126.9 25.8-47.4 9.3c-16.7 3-33.9 7.3-51.3 11.7-1.1.3-2.2.5-3.3.8l-2.6.6-.3-1.4-3.1-13.4-6.7-27.1-28.4-109.1-7-26.7-3.4-13.2c-1.1-4.4-2.3-8.7-3.5-13l-7.2-25.3-6.8-23.4-4-13.5c-2.7-9.5-5.2-14.3-9.3-21.5.3 8.2.8 13.8 3.4 22.9.7 2.5 2.2 7.5 4 13.5l6.8 23.3 7.2 25.3L165 288l3.4 13.2 7 26.8 28.4 109.1 6.7 27 3.1 13.3.4 2c.3 1.1.5 2.3.8 3.3l.4 1.6c0 .2.1.3.2.2l.4-.1.8-.1 3.3-.6 1.2-.3.2-.1.8-.2 1.7-.4c1.1-.3 2.2-.5 3.3-.8 17.5-4.3 34.5-8.6 51-11.6l47.5-9.3 11.1-2.2 10.7-2.2 20.2-4.1 93.4-19c.1 0 0-.1 0-.1v-.2l-.1-.3c0-.2-.1-.5-.1-.7l-.3-1.5c-.2-1-.4-2.1-.7-3.2-.2-1.1-.5-2.4-.8-3.7l-2-9.3-13.6-61.1-10-43.6-11.5-51.5-18.7-91-7.2-33.6-1.2-5c-.3-1-.5-2.1-.8-3.1-.2-.8-.4-1.7-.6-2.6l-.3-1.3-.3-.9c0-.1 0-.1-.1-.1h-.2l-5.2 1.3-2.9.6-5.3 1.2-21.9 4.7-23 4.8-11.8 2.4-12 2.5c-16.1 3.5-32.3 7.5-48.5 11.5l-24.2 6.2c-2 .5-4 1.1-6 1.6s-4 1.1-5.9 1.6l-11.8 3-45.8 11-6.5 1.5-5.8 1.4c-4.7 1.1-8.2 2.2-11.6 3.6-2.2.8-4 2.5-4.7 4.6-.7 1.8-.6 4.1.5 5.9z" class="E"/><path d="M159.8 194l3.3 8.5c32.7-8.6 66.7-16.4 102-23.6 1.6-.3 2.6-2 2.1-3.6l-2.8-8.9c-34 7.5-68.5 15.9-103.3 25.1-1.1.2-1.7 1.4-1.3 2.5z" class="G"/><path d="M159.8 194l.7 4.7.4 2.2.1.3v.1l.1.2.3 1 .6 2.1 4.4-.9 3.3-.8c2.6-.7 7.9-2 14.3-3.6l38.5-9.1 35.1-7.6 6.3-1.3 1.4-.3h.2l.3-.1c.2 0 .4-.1.5-.2a4.67 4.67 0 0 0 1-.5c1.2-.8 1.9-2.1 2.1-3.2.1-.6.1-1.2 0-1.7 0-.1-.1-.3-.1-.4s-.1-.2-.1-.3-.1-.3-.1-.4c-.2-.5-.3-.9-.4-1.3l-.3-1.1s-.1-.2-.5-1.6c-.3-.8-.6-2-1.2-3.7-.2-.7-.5-1.5-.7-2.3v-.3h-.1l-.3.1c-.2 0-.4.1-.7.2l-1.4.3c-1.2.3-2.5.5-3.9.9-3.3.7-25.1 5.6-48.1 11.2l-17.2 4.3-13.8 3.5-7.9 2.1c-3.1.8-5.5 1.6-7.7 2.6l-3.2 1.5c-.3.1-.5.2-.9.5-.3.2-.6.6-.8.9-.7.6-.6 1.4-.2 2-.1-.7.2-1.3.6-1.5.2-.1.4-.2.6-.2h.8c1.2-.1 2.4-.1 3.6-.3 2.4-.3 4.8-.7 7.9-1.5L195 185l17.2-4.3 48-11.2c1-.2 1.9-.4 2.7-.6h0c.4 1.2.6 2.1.8 2.7.4 1.4.5 1.6.5 1.6a38.08 38.08 0 0 0 .3 1.1c.1.3.2.8.4 1.3 0 .1.1.3.1.4v.4a.55.55 0 0 1-.3.5l-.1.1h-.4c-.4.1-.9.2-1.4.3l-6.3 1.3-35.2 7.6-38.6 9.1L172 198l-3.7.9c-1.2.3-2.2.6-3.2.9-.2.1-.5.2-.7.2l-.2.1h-.1c0 .1-.1.1-.2.2 0 0-.1 0-.2-.1l-.2-.2-.1-.2c-.4-.6-.8-1.3-1.2-1.9-.5-1.3-1.4-2.5-2.4-3.9z" class="E"/><path d="M165.9 215.4l8.2 22 168.4-40.6-5.5-24.3c-63.3 13.1-103.5 24.8-168.6 40.2-1.9.5-3.2 1.7-2.5 2.7z" class="G"/><path d="M165.9 215.4c.8 7.4 1.6 12.4 4.6 20.5a134.25 134.25 0 0 0 1.5 3.9c.1.2.2.4.2.6l.1.3.3-.1c.4-.1.9-.2 1.4-.3 1-.2 2-.5 3-.7l17.8-4.2 68-15.9 61.7-14.7 11.1-2.8c1.6-.4 3.2-.9 4.6-1.3.5-.2 1-.3 1.5-.5.7-.2 1.3-.4 1.8-.7s.9-.7 1.2-1.1c.1-.1.2-.2.2-.3v-.4c0-.3.1-.5.1-.7s.1-.5.1-.7c-.1-.3-.2-.6-.3-.8l-.6-3c-.2-.9-.4-1.7-.5-2.3-.3-1.2-.4-1.9-.4-1.9s-.1-.6-.9-4l-1.7-7.4c-.2-1-.5-2.1-.7-3.3-.2-1-.4-1.9-.7-3-.1-.3-.1-.5-.2-.8-.1-.2 0-.7-.4-.5l-1.6.3c-2.7.6-5.8 1.2-9.2 1.9l-29.8 6.6c-15.1 3.4-34.1 8-53.5 12.9l-50.5 12.6-10.3 2.5c-4.2 1-7.4 2.1-10.5 3.3-1.5.6-3 1.3-4.5 2-.7.3-1.6.7-2.4 1.4a2.73 2.73 0 0 0-.9 1.2c-.1.5 0 1.1.4 1.4-.1-.5 0-.8.3-1.1.3-.2.6-.4 1-.5.7-.2 1.4-.1 2.3-.2 1.7 0 3.2-.1 4.9-.3 3.2-.3 6.6-.8 10.8-1.8l10.4-2.5 21.4-5.3 29.1-7.3 53.4-12.9 29.8-6.6c2.1-.4 4-.8 5.6-1.2h0c.2.8.3 1.5.5 2.1l1.7 7.4.9 4 1.3 5.7c-.2.1-.3.1-.5.2-1.3.4-2.9.8-4.5 1.2-3.2.9-6.9 1.8-11 2.8l-61.6 14.7-68 15.9-17.7 4.2c0-.1 0-.1-.1-.2-3.2-7.9-5.8-12.1-10-18.3z" class="E"/><path d="M176.1 248.9l74.1-16.7c6.6-1 9.3-3.2 22.5-4.9 13.2-1.8 111.5-24.5 113.6-25 2.1 6.7 3.1 11 4.7 17.2 1.5 5.9 18.7 87.3 20 91.7s16.5 75.2 17.8 79.1c1.2 3.9 5.7 29.3 6.1 30.6-19.9 1.7-104.9 19.3-110.4 20.5l-94.1 20.2c-1.9-7-4.6-13.8-5.6-22.3s-12.4-56.7-16.4-68.8-9.3-36-11-42.2c-2.4-8.9-5.6-21-6.8-26.8s-5.9-19.2-6.2-22.1c-.3-2.7-8.3-30.5-8.3-30.5z" class="H"/><path d="M176.1 248.9c5.5.1 9.2 0 15.4-1.4l41-9.3 9.5-2.1c1.6-.3 3.2-.7 4.8-1 .8-.2 1.6-.4 2.4-.5l1.2-.2 1.3-.2c3.5-.7 6.8-1.8 10-2.6s6.5-1.4 9.9-1.9c1.7-.2 3.5-.5 5.2-.8s3.5-.7 5.2-1l10.4-2.2 21.1-4.6 42.8-9.6 21.5-4.9 5.4-1.2 1.3-.3.3-.1c1 3.4 2 6.9 2.8 10.4.4 1.8.9 3.5 1.3 5.3l1.2 5.2 2.3 10.6 4.5 20.8 8.6 40 2.1 9.5c.4 1.6.7 3.1 1.1 4.8l.6 2.2c.2.8.4 1.5.5 2.3l4 17.9 7.2 32.5 3.2 14.3 1.5 6.6c.3 1.1.5 2.1.8 3.3.1.5.3 1 .4 1.4l.3 1.5 4.1 20.8c.3 1.4.5 2.8.8 4.1 0 .3.1.5.1.8h0c-.5.1-1 .1-1.5.2-1 .1-1.8.3-2.6.4l-3.6.5c-.8.1-1.2.2-1.2.2s-.1 0-7.3 1.2c-.6.1-7.5 1.2-19.2 3.4l-48.2 9.4-23.8 4.9-44.7 10-39.2 8.5c-1.7.3-3.4.7-5.1 1-1.3.2-2.7.5-4 .7h0s0 .1 0-.1l-.8-2.5-1.5-5a87.21 87.21 0 0 1-2.4-10.1c-.1-.8-.2-1.7-.4-2.5-.1-.9-.3-1.9-.4-2.8-.3-1.8-.7-3.6-1-5.3-2.9-14-6.3-28.1-9.8-42.1l-2.8-10.5-1.5-5.2-1.6-5.2c-2.1-6.7-3.8-13.7-5.5-20.5l-5-20.5-5.2-19.9c-.4-1.6-.8-3.3-1.1-4.9l-.3-1.2-.3-1.3c-.2-.8-.4-1.7-.7-2.5-.9-3.3-1.9-6.4-2.9-9.6l-1.4-4.7-.6-2.3c-.1-.4-.2-.7-.2-1.1l-.2-1.2-1.2-4.8c-.2-.6-.3-1.2-.5-1.7l-2.4-8.9c-1.6-6.3-3.3-9.6-6-14.4.2 5.5.5 9.2 2.2 15.3.4 1.6 1.3 4.9 2.4 8.9.2.6.3 1.1.5 1.7a97.44 97.44 0 0 1 1.1 4.5l.1.5.1.8c.1.5.2.9.3 1.3.2.8.4 1.6.7 2.4l1.4 4.7c1 3.1 2 6.3 2.8 9.5l.9 3.6.3 1.3 1.2 5c1.6 6.6 3.4 13.3 5.2 20 1.8 6.6 3.3 13.5 5 20.4s3.5 13.8 5.6 20.8c.6 1.8 1.1 3.4 1.6 5.1l1.5 5.1 2.7 10.4c3.5 13.9 6.9 28 9.8 41.9.4 1.7.7 3.5 1 5.2.2.9.3 1.7.4 2.5.1.9.2 1.8.4 2.7.6 3.6 1.5 7.2 2.5 10.6l1.5 5.1.7 2.5.7 2.4.3.9c0 .2.1.1.2.1l2.6-.2c.4 0 1-.1 1.1-.1l1.3-.2c.9-.2 1.7-.3 2.6-.5 1.7-.3 3.4-.7 5.1-1l39.3-8.5 36.2-8.1c2.9-.6 5.7-1.3 8.4-1.9l8.2-1.7 15.6-3.2 48.2-9.4 19.2-3.4 7.2-1.2s.4-.1 1.2-.2 2-.3 3.5-.5c.8-.1 1.6-.3 2.6-.3 1.4-.2 3-.3 4.7-.5.3 0 .6-.1.9-.1h.4c0-.1 0-.3-.1-.4-.1-.6-.3-1.2-.4-1.8s-.3-1.2-.4-1.8c-.1-.4-.1-.8-.2-1.1-.2-1.3-.5-2.6-.8-4.1l-4.1-21c-.1-.5-.2-1-.4-1.6-.1-.5-.3-1.2-.4-1.6-.2-.9-.5-2-.7-3l-1.5-6.6-3.2-14.3-11.2-50.4c-.2-.8-.4-1.5-.5-2.3l-.6-2.4c-.4-1.4-.7-3-1.1-4.6l-2.1-9.5-15.4-71.4-1.2-5.4c-.4-1.8-.9-3.5-1.3-5.3-.9-3.6-1.8-7.1-2.9-10.7l-.8-2.6-.2-.7-.1-.3-.3.1-1.3.3-3.7.9-5.4 1.2-21.5 4.9-42.8 9.6-21 4.6-10.4 2.2c-1.7.3-3.4.7-5.1 1s-3.3.6-5.1.8c-3.5.5-7 1.1-10.4 2s-6.6 2-9.7 2.6c-.8.1-1.6.3-2.5.4-.9.2-1.7.3-2.5.5-1.6.3-3.3.7-4.9 1l-9.6 2.1-37.4 8.5-3.7.9c-6.2 1.1-9.6 2.6-14.5 5.1z" class="E"/><path d="M230.7 395.9l11.7 49.4 188.4-35.2c-2.9-16.1-7.2-35-12-55l-188.1 40.8zm-18.5-19.3l2.6 14.1c66.8-19.5 133.5-34.6 201.5-46.5-.5-2.7-1.3-6.3-2.9-12.5-68.3 12-135.4 27-201.2 44.9zm-9.8-36.8l2.4 12.4c66.8-19.5 135.4-34.6 203.5-46.5-.5-2.7-1.5-5.1-3-11.4-68.2 12.1-137 27.6-202.9 45.5zm-1.3-51.2l11.8 47.5c66.8-19.5 124.2-30.2 192.3-42.1-.5-2.7-9-42.5-10.5-48.8-68.3 12.2-127.7 25.5-193.6 43.4z" class="F"/><g class="E"><path d="M184.3 279c5.5.1 9.2 0 15.4-1.4l179.4-41c6.2-1.4 9.6-3 14.5-5.4-5.5-.1-9.2 0-15.4 1.4l-179.4 41c-6.2 1.5-9.6 3-14.5 5.4zm16.7 61.9c5.5-.2 9.1-.6 15.3-2.3l13.1-3.7 33.2-8.8 30.3-7.4 9.6-2.2 3.6-.8s20.8-4.7 43.8-9.2c5.7-1.2 11.6-2.2 17.4-3.3l16.3-3 9.2-1.6c6.3-1.1 9.7-2.4 14.7-4.6-5.5-.4-9.2-.5-15.5.5l-9.3 1.6-16.4 3-17.4 3.4-43.9 9.2-3.6.8-9.7 2.2-30.4 7.4-33.3 8.8-13.2 3.7c-5.8 1.8-9.1 3.5-13.8 6.3zm.7 11.7c5.5-.2 9.1-.6 15.3-2.3l13.1-3.7 33.2-8.8 30.3-7.4 9.6-2.2 3.6-.8s20.8-4.7 43.8-9.2c5.7-1.2 11.6-2.2 17.4-3.3l16.3-3 9.2-1.6c6.3-1.1 9.7-2.4 14.7-4.6-5.5-.4-9.2-.5-15.5.5l-9.3 1.6-16.4 3-17.4 3.4-43.9 9.2-3.6.8-9.7 2.2-30.4 7.4-33.3 8.8-13.2 3.7c-5.8 1.8-9 3.5-13.8 6.3zm9.8 25.1c5.5-.2 9.1-.6 15.3-2.3l13-3.7 32.7-8.6 29.8-7.2 9.5-2.2 3.6-.8s20.5-4.6 43.1-9l17.1-3.3 16.1-2.9 9.2-1.6c6.3-1.1 9.7-2.4 14.8-4.6-5.5-.4-9.2-.5-15.5.5l-9.3 1.6-16.1 2.9-17.1 3.3-43.2 9-3.6.8-9.5 2.2-29.9 7.2-32.8 8.7-13.1 3.7c-6 1.8-9.3 3.5-14.1 6.3z"/><path d="M214.1 390.8c5.5-.2 9.2-.6 15.3-2.3l13.1-3.7c9.9-2.8 21.6-5.9 32.9-8.8l30-7.3 9.5-2.2 3.6-.8s20.6-4.7 43.4-9.1c5.7-1.2 11.5-2.2 17.2-3.3l16.2-3 9.2-1.6c6.3-1.1 9.7-2.4 14.7-4.6-5.5-.4-9.2-.5-15.5.5l-9.3 1.6-16.2 3-17.2 3.3-43.5 9.2-3.6.8-9.6 2.2-30.1 7.3-33 8.8-13.1 3.7c-6 1.8-9.3 3.5-14 6.3zm3.1 8.7c5.5 0 9.2-.1 15.4-1.6l45.9-11.2 29.7-7.1 13-3 42.9-9.3 17-3.4 8.3-1.6 7.7-1.4 9.2-1.7c6.3-1.1 9.7-2.4 14.7-4.6-5.5-.4-9.2-.5-15.5.6l-9.3 1.7c-2.5.5-5.1 1-7.7 1.4l-8.3 1.6-17 3.4-42.9 9.4-13 3-29.8 7.1-45.9 11.2c-6.2 1.4-9.5 3-14.4 5.5zm10.4 49.3c5.5 0 9.2-.2 15.4-1.7l13.1-3.1c9.9-2.3 21.6-4.9 32.9-7.1 5.6-1.2 11.1-2.2 16.2-3.2l13.8-2.6 13.1-2.4 13.1-2.3 30.2-5 42.4-6.9c6.3-1.1 9.7-2.4 14.8-4.5-5.5-.4-9.2-.6-15.5.4l-42.5 6.9-30.2 5-13.1 2.3-13.1 2.4-13.8 2.6-16.3 3.2-33 7.1-13.2 3.1c-6.1 1.6-9.5 3.2-14.3 5.8zm168.9-202.9c-5.5-.2-9.2-.1-15.4 1.2-.8.2-2.1.4-3.7.8-.8.2-1.6.3-2.6.5-1.3.3-2.7.5-4.1.8l-4.6.9c-12.6 2.2-27.4 5.4-41.5 8.4l-20.3 4.5-49.7 11.6-48 10.9c-2.3.5-4.6 1-6.8 1.6l-.7.2-.3.1v.3l.3 1.3.5 2.5.6 2.7c.4 1.8.9 3.6 1.5 5.3l.5 1.3.2.6.2.5c.2.8.5 1.6.7 2.4.5 1.6.9 3.3 1.3 4.9s.8 3.1 1.1 4.6c.5 2 .9 3.9 1.2 5.4.3 1.6.6 2.8.8 3.7 1.4 6.3 3 9.6 5.7 14.4-.1-5.5-.3-9.2-1.6-15.3-.2-.8-.4-2.1-.8-3.7-.3-1.6-.8-3.5-1.3-5.5-.4-1.5-.8-3.1-1.1-4.6-.4-1.6-.8-3.3-1.3-5-.2-.8-.5-1.7-.8-2.6l-.2-.7-.6-1.8c-.6-1.6-1-3.2-1.4-4.9-.2-.8-.4-1.7-.6-2.6v-.1h-.1l1.2-.3 2.7-.6 48.1-10.9 49.7-11.6c6.3-1.5 13.2-3 20.3-4.5l41.4-8.4 4.6-.9c1.4-.3 2.8-.6 4.2-.8.9-.2 1.8-.4 2.6-.5 1.6-.3 2.8-.6 3.7-.8 6.1-1.4 9.5-2.9 14.4-5.3z"/><path d="M398.9 257.7c-5.5-.2-9.2-.1-15.4 1.2l-84.1 17.9-12.2 2.7c-3.7.8-8.1 1.8-12.9 3-2.5.6-4.9 1.4-7.4 2.1l-7.6 2.2-15.7 4.3c-2.6.7-5.1 1.3-7.6 1.9l-7.2 1.8-9.1 2.3c-6.2 1.6-9.5 3.1-14.4 5.7 5.5 0 9.2-.2 15.4-1.6l9.1-2.2 7.2-1.8 7.7-1.9 15.8-4.3c2.6-.8 5.2-1.5 7.7-2.2s4.9-1.5 7.2-2c4.7-1.2 9.1-2.1 12.8-3l12.2-2.7 12.2-2.6 12.9-2.7 15.2-3.3 43.8-9.4c6-1.6 9.4-3 14.4-5.4zm-15.8-41.8c-5.5-.3-9.2-.3-15.4.9l-42.4 8.3-27 5.4-11.7 2.5-11.7 2.6-12.3 2.8c-2.3.5-4.6 1.1-7.1 1.8-2.4.7-4.8 1.3-7.3 1.8l-15.3 3.2c-2.5.6-5 1.1-7.4 1.6-1.2.3-2.4.6-3.6.8-.6.1-1.2.3-1.7.4s-1.1.3-1.6.4l-9.1 2.3c-6.2 1.6-9.5 3.2-14.3 5.8 5.5 0 9.2-.2 15.4-1.8 1.7-.4 5-1.3 9.1-2.3.5-.1 1.1-.3 1.6-.4.6-.1 1.1-.3 1.7-.4 1.2-.3 2.3-.5 3.5-.8l7.4-1.6 15.3-3.2c2.5-.6 5.1-1.2 7.5-1.9 2.3-.6 4.7-1.2 7-1.7 4.5-1.1 8.7-2 12.3-2.8l11.7-2.6 11.7-2.5c7.1-1.6 16.8-3.4 27-5.4l42.3-8.3c6-1.2 9.4-2.6 14.4-4.9zm1 9.5c-5.5-.3-9.2-.3-15.4.9l-42.4 8.3-27 5.4-11.7 2.5-11.7 2.6-12.3 2.8c-2.3.5-4.6 1.1-7.1 1.8-2.4.7-4.8 1.3-7.3 1.8l-15.3 3.2c-2.5.6-5 1.1-7.4 1.6-1.2.3-2.4.6-3.6.8-.6.1-1.2.3-1.7.4s-1.1.3-1.6.4l-9.1 2.3c-6.2 1.6-9.5 3.2-14.3 5.8 5.5 0 9.2-.2 15.4-1.8 1.7-.4 5-1.3 9.1-2.3.5-.1 1.1-.3 1.6-.4.6-.1 1.1-.3 1.7-.4 1.2-.3 2.3-.5 3.5-.8l7.4-1.6 15.3-3.2c2.5-.6 5.1-1.2 7.5-1.9 2.3-.6 4.7-1.2 7-1.7 4.5-1.1 8.7-2 12.3-2.8l11.7-2.6 11.7-2.5c7.1-1.6 16.8-3.4 27-5.4l42.3-8.3c6.1-1.2 9.5-2.6 14.4-4.9z"/><use xlink:href="#G"/><use xlink:href="#G" x="4.1" y="10.2"/><path d="M423.5 367.9c-5.5-.3-9.2-.4-15.4.8l-81.7 15.2-11.9 2.3c-3.6.7-7.8 1.5-12.5 2.6l-14.5 3.8c-5 1.3-10.2 2.6-15.2 3.7l-7.4 1.7-16.1 3.5c-6.2 1.4-9.6 2.9-14.5 5.3 5.5.2 9.2.1 15.4-1.3 1.7-.4 5.1-1.1 9.2-2l14.4-3.2 15.3-3.8 14.5-3.8c4.5-1.1 8.7-1.9 12.3-2.6l11.8-2.3 81.7-15.2c6.2-1 9.6-2.4 14.6-4.7zm3.4 13c-5.5-.4-9.2-.5-15.5.5l-43.3 7.3-15 2.6-12.6 2.5-12 2.4-12 2.5-12.6 2.8-3.5.9c-1.2.3-2.4.5-3.6.8l-7.6 1.5-15.6 3c-2.6.5-5.1 1.1-7.6 1.6l-7 1.5-9.2 2c-6.2 1.4-9.6 2.9-14.5 5.3 5.5.2 9.2.1 15.4-1.3 1.7-.4 5.1-1.1 9.2-2l14.5-3.1 15.6-3 7.7-1.5c1.3-.3 2.5-.5 3.7-.8l3.6-.9 12.5-2.8 12-2.5 12-2.4 12.6-2.4 15-2.5 43.2-7.3c6.1-1.2 9.5-2.5 14.6-4.7zm3.2 14.1c-5.5-.6-9.1-.9-15.5-.1l-12.8 1.7-30.5 4.1c-5.2.7-10.3 1.4-15 2.3l-12.6 2.5-11.9 2.4-11.9 2.5c-3.6.8-7.9 1.6-12.5 2.8s-9.5 2.1-14.7 3.1l-15.6 3c-2.6.5-5.1 1.1-7.5 1.6l-7 1.5-9.2 2c-6.2 1.4-9.6 2.9-14.5 5.3 5.5.2 9.2.1 15.4-1.3 1.7-.4 5.1-1.1 9.2-2l14.5-3.1 15.5-3c5.1-1 10.3-2 14.9-3.2a268.44 268.44 0 0 1 12.4-2.7l11.9-2.5 11.9-2.4 12.5-2.4c4.5-.9 9.7-1.5 14.8-2.2l43.2-5.8c6.4-.9 9.9-2.1 15-4.1zM247.4 292.3c-1 1.4-1.5 2.3-1.2 3.6l1.2 4.7.9 3.6.8 3.6.8 4.6c.2 1.3 1 1.8 2.3 2.9 1.3-1.1 2-2.1 1.8-3.4l-.8-4.9-.8-3.7-.9-3.7-1.2-4.7c-.4-1.4-1.3-1.9-2.9-2.6zM360.9 266c-1 1.4-1.5 2.3-1.2 3.6l1.2 4.7.9 3.6.8 3.6.8 4.6c.2 1.3 1 1.8 2.3 2.9 1.3-1.1 2-2.1 1.8-3.4l-.8-4.9-.8-3.7-.9-3.7-1.2-4.7c-.5-1.3-1.3-1.8-2.9-2.6z"/><use xlink:href="#H"/><use xlink:href="#I"/><use xlink:href="#I" x="-85.7" y="33.2"/><use xlink:href="#I" x="-41.6" y="22.9"/><use xlink:href="#I" x="17.8" y="8.7"/><use xlink:href="#I" x="-74.4" y="71.3"/><use xlink:href="#I" x="-28.9" y="59.7"/><path d="M352.8 343.5c-1.2.8-1.8 1.4-1.7 2 .1.7.8 4.1.8 4.1l.8 4.1c.2.6.9.8 2.4 1.1 1.2-.8 1.8-1.3 1.7-1.9-.1-.7-.9-4.2-.9-4.2l-.9-4.2c-.1-.6-.8-.8-2.2-1z"/><use xlink:href="#H" x="-17.3" y="81.2"/><path d="M278.1 421.8c-1.2.9-1.8 1.4-1.7 2.3s.9 5.3.9 5.3l.9 5.3c.2.8 1 1.1 2.4 1.6 1.2-.9 1.8-1.5 1.7-2.3-.1-.9-.9-5.3-.9-5.3l-.9-5.3c-.2-.7-1-1.1-2.4-1.6zm35.3-7.2c-1.2.9-1.8 1.4-1.7 2.3s.9 5.3.9 5.3l.9 5.3c.2.8 1 1.1 2.4 1.6 1.2-.9 1.8-1.5 1.7-2.3-.1-.9-.9-5.3-.9-5.3l-.9-5.3c-.2-.7-.9-1.1-2.4-1.6z"/><use xlink:href="#J"/><use xlink:href="#J" x="39.2" y="-5.5"/><use xlink:href="#I" x="-37.4" y="86.1"/><path d="M385.8 363.3c-1.2.8-1.8 1.4-1.7 2 .1.7.8 4.1.8 4.1l.8 4.1c.2.6.9.8 2.4 1.1 1.2-.8 1.8-1.3 1.7-1.9-.1-.7-.9-4.2-.9-4.2l-.9-4.2c0-.6-.8-.7-2.2-1z"/><use xlink:href="#I" y="90.2"/><path d="M231 396.1c-.1 5.5.1 9.2 1.5 15.4.2 1.1.6 2.8 1.5 6.3.1.4.4 1.5.4 1.5l.2.8 2.3 9.8c1.4 6.2 3 9.5 5.3 14.5.2-5.5.1-9.2-1.3-15.4-.3-1.5-1.3-5.8-2.3-9.8l-.2-.8s-.2-1.1-.3-1.5c-.8-3.6-1.2-5.3-1.5-6.3-1.5-6.3-3.1-9.6-5.6-14.5z"/></g><path d="M209.4 142.4c-.3-3.9 2.6-7.2 6.5-7.3l86.5-3.8c17.2-1.5 74-4.1 91.8-4.1l73.8-1c1.5 25.7 1.2 117.4 2.3 157.5l4.2 156.3-122.6 1c-17.7-.1-44 .3-65.3 0s-52.1 2.2-57.1 1.8c-.9-42.1-9.7-165.9-11.2-195.9-1.2-26.2-6.8-79.9-8.9-104.5z" class="F"/><path d="M209.4 142.4c.3-2 1.5-3.5 2.7-4.3 1.3-.8 2.6-1 3.8-.8 3.5.4 7.3.5 12.1.4 1.4 0 3.4-.1 6-.2 2.1-.1 4.3-.2 6.7-.2l47.2-2 12.3-.7c2-.2 4.1-.3 6.2-.5l6.2-.4 24.9-1.4 49.7-1.9c4.1-.1 8.1-.1 12.2-.1l12.1-.1 23.5-.3 22.5-.4c1.8 0 3.6-.1 5.4-.1.8 0 1.6 0 2.4-.1h0c0 .7.1 1.3.1 2 .1 1.7.1 3.4.2 5.1l.9 66.9.6 60.3c.2 18.9.9 36.6 1.4 52.9l1.4 44.7 1.6 62.5.2 13.2c.3 0-.7 0-1.1 0h-1.4l-86.6.7-31.5.3h-59.6c-17-.3-34.7.7-52.6 1.6-1.1 0-2.2.1-3.4.1l-2.7.1v-1.4l-.5-13.8-1.4-27.8-10.3-167.3-2.2-26.3-2.2-24.2-1.3-14c-1.2-9.4-2.8-14.7-5.5-22.5-1.3 8.1-1.9 13.6-1 23.2.2 2.6.7 7.7 1.3 14l2.2 24.2 2.2 26.2.9 13.4.8 13.6 8.6 140.1 1.4 27.8.5 13.7.1 2c0 1.1.1 2.3.1 3.4l.1 1.7c0 .2 0 .3.2.2h1.2c1.1.1 2.2 0 3.4.1h2.3l1.7-.1c1.1 0 2.3-.1 3.4-.1 18.1-.9 35.5-1.9 52.3-1.6h59.7l10.9-.1 20.6-.2 95.4-.8c.1 0 .1-.1.1-.1v-6.1c0-1.2 0-2.4-.1-3.8 0-2.7-.1-5.9-.2-9.5l-1.6-62.5-1.4-44.7-1.3-52.8-.6-60.2-.3-32.7-.6-34.4c-.1-1.7-.1-3.4-.2-5.2 0-1.1-.1-2.2-.1-3.2 0-.9-.1-1.7-.1-2.6l-.1-1.3v-1c0-.1 0-.1-.1-.1h-.2l-5.3.3c-1 0-2 .1-2.9.1-1.8 0-3.6.1-5.4.1l-22.4.4-23.5.3-24.3.2-49.8 1.9-25 1.4c-2.1.1-4.1.3-6.2.4l-6.2.5c-4.1.3-8.1.5-12.2.7l-53.8 2.3-5.9.2c-4.8.2-8.5.6-12.1 1.3-2.4.4-4.4 1.7-5.5 3.6-1.3 1.6-1.6 3.9-1 5.8z" class="E"/><path d="M228.1 150l1.6 8.9c33.7-2.1 68.6-3.2 104.6-3.5 1.7 0 3-1.5 2.8-3.1l-1-9.3c-34.8.8-70.2 2.4-106.2 4.8-1.2 0-2 1.1-1.8 2.2z" class="G"/><path d="M228.1 150l-.2 4.7v2.8c0 .3.1.7.1 1 .1.7.2 1.4.2 2.2h4.5l3.3-.1c2.7-.1 8.1-.4 14.7-.8l39.6-1.6 35.9-.7c2.4 0 4.6 0 6.5-.1h1.9c.2 0 .4 0 .6-.1.4-.1.7-.2 1.1-.3 1.3-.6 2.2-1.7 2.7-2.8.2-.6.3-1.1.3-1.6v-1.1c-.1-.5-.1-1-.1-1.3-.1-.7-.1-1.1-.1-1.1s0-.2-.2-1.7l-.4-3.9-.3-2.4v-.3h-2.6c-1.2 0-2.5.1-4 .1l-49.3 1.8-17.7.9-14.2.8-8.2.5c-3.2.2-5.7.6-8 1.1-1.2.2-2.3.5-3.5.9-.3.1-.6.1-1 .3s-.7.4-1 .7c-.8.6-.9 1.5-.6 2.1.1-.7.5-1.2.9-1.4.2-.1.5-.1.7-.1.3 0 .5.1.8.1 1.2.2 2.4.3 3.6.4 2.4.2 4.9.2 8.1.1l8.2-.5 14.2-.8 17.7-.9 49.2-1.8c1 0 2-.1 2.8-.1h0c.1 1.3.2 2.1.3 2.8.2 1.5.2 1.7.2 1.7s0 .4.1 1.1c0 .4.1.8.1 1.3v.8a.78.78 0 0 1-.4.4h-2c-1.9 0-4.1 0-6.5.1l-36 .7-39.7 1.6-11 .6c-1.6.1-2.9.2-3.8.2l-3.3.3c-.3 0-.5.1-.8.1h-.3l-.2.2s-.1-.1-.2-.1l-.1-.1v-.1l-.1-.3c-.2-.7-.5-1.4-.8-2.1-.4-1.3-1-2.7-1.7-4.2z" class="E"/><path d="M229.9 172.2l3.8 23.2 173.1-7.4-.7-24.9c-64.6.7-106.4 4.4-173.1 7-2.1.1-3.5 1-3.1 2.1z" class="G"/><path d="M229.9 172.2c-.6 7.4-.8 12.4.6 21l.7 4.1c0 .2.1.4.1.6l.1.3h.3c.5 0 .9 0 1.4-.1 1 0 2-.1 3.1-.1l18.3-.7 69.8-2.5 63.4-2.6 11.4-.7c1.7-.1 3.3-.2 4.8-.4.5-.1 1.1-.1 1.6-.2.7-.1 1.4-.2 1.9-.4.6-.2 1-.5 1.4-.8.1-.1.2-.2.2-.3l.1-.4c.1-.2.2-.5.2-.7.1-.2.1-.5.2-.7 0-.3-.1-.6-.1-.9v-3.1c0-.9-.1-1.7-.1-2.4 0-1.3-.1-2-.1-2s0-.6-.1-4.1c0-1.7-.1-4.2-.2-7.6 0-1-.1-2.1-.1-3.3 0-1-.1-2-.1-3v-.8c0-.2.1-.7-.3-.5h-1.7l-9.4.1c-3.7 0-15.1.2-30.6.7l-55 2.4-62.5 3.1c-4.3.2-7.7.6-10.9 1.2-1.6.3-3.1.7-4.7 1.1-.7.2-1.8.4-2.6.9-.4.2-.8.6-1.1 1-.2.8-.3 1.4 0 1.8-.1-.5.2-.8.5-1s.7-.2 1.1-.3c.8 0 1.4.1 2.3.3 1.6.3 3.2.5 4.8.7 3.2.3 6.6.5 11 .3l10.7-.5 22.1-1.1 29.9-1.6 54.9-2.4 30.5-.7c2.1 0 4.1-.1 5.8-.1h0c0 .8 0 1.5.1 2.2l.2 7.6.1 4.1.2 5.9c-.2 0-.4 0-.5.1l-4.6.4-11.3.6-63.3 2.6-69.8 2.5-18.2.7v-.2c-1.8-8.6-3.5-13.3-6.5-20.1z" class="E"/><path d="M233.5 207l76-2.1c6.6.3 9.7-1.3 23-.5s114.1-2.6 116.3-2.7c.8 6.9.9 11.4 1.3 17.8.4 6.1 1.6 89.3 2 93.8s1.8 77 2.2 81 0 29.9.1 31.3c-19.8-2.1-106.7-1.2-112.3-1.1l-96.2 1.8c-.6-7.3-1.9-14.5-1.2-23s-1.3-58-2.9-70.7-2.2-37.2-2.7-43.5c-.7-9.2-1.5-21.7-1.5-27.6-.1-5.9-2.1-20-1.9-22.9.3-2.8-2.2-31.6-2.2-31.6z" class="H"/><path d="M233.5 207c5.4 1.1 9 1.7 15.4 1.6l42.1-1.3 9.8-.2c1.6 0 3.3-.1 4.9-.1h5c3.6 0 7-.5 10.3-.7a85.08 85.08 0 0 1 10.1 0c1.7.1 3.5.1 5.3.2h5.3l10.6-.1 21.6-.4 43.9-1.2 22-.7 5.5-.2h1.7c.4 3.5.6 7.1.8 10.8l.3 5.4c.1 1.7.1 3.6.2 5.4l1.4 73 .2 9.8c.1 1.6.1 3.2.2 4.9 0 .8.1 1.5.1 2.3s.1 1.6.1 2.3l.5 18.3.8 33.3.4 14.7.2 6.8c0 1.1.1 2.2.2 3.4 0 .5.1 1 .1 1.5s0 1 .1 1.5v26.2c-.5 0-1-.1-1.5-.1-1-.1-1.9-.1-2.6-.2-1.6-.1-2.8-.1-3.6-.2h-1.2s-.1 0-7.4-.2c-.6 0-7.6-.2-19.5-.3l-49.1-.1-15.9.1-8.4.1-8.7.2-37.1 1-40.1.8h-5.2c-1.3 0-2.7 0-4-.1h0s0 .1 0-.1l-.3-2.6c-.2-1.7-.4-3.5-.5-5.2-.3-3.5-.5-6.9-.4-10.3 0-.9.1-1.7.1-2.6s.1-1.9.1-2.8v-5.4c-.2-14.3-.8-28.8-1.5-43.2l-.7-10.8c-.1-1.8-.3-3.6-.4-5.4l-.6-5.4c-.8-7-1.1-14.1-1.5-21.2l-1-21.1-1.3-20.5c-.1-1.7-.1-3.4-.2-5v-2.5c0-.9-.1-1.7-.2-2.6l-1-10c-.2-1.6-.3-3.2-.5-4.8-.1-.8-.1-1.6-.2-2.4v-2.3c0-1.8-.1-3.3-.2-5 0-.6-.1-1.2-.1-1.8l-.7-9.2c-.9-6.5-1.9-10.1-3.7-15.3-.9 5.4-1.3 9.1-.8 15.4.1 1.7.4 5.1.7 9.2 0 .6.1 1.2.1 1.8.1 1.6.2 3.2.2 4.7v2.6c0 .9.1 1.7.2 2.5.2 1.6.3 3.3.5 4.9l1 9.8c.1.8.1 1.6.2 2.4v2.5c0 1.7.1 3.4.2 5.1.3 6.8.8 13.7 1.3 20.7l1 21c.4 7.1.7 14.2 1.5 21.5l.6 5.3c.2 1.8.3 3.5.4 5.3.3 3.6.5 7.1.7 10.7.8 14.3 1.4 28.8 1.5 43v5.3c0 .9-.1 1.7-.1 2.5-.1.9-.1 1.8-.2 2.8-.1 3.7.1 7.3.4 10.9.2 1.8.4 3.5.5 5.3l.3 2.6.2 2.5.1.6v.3c0 .1.1.1.2.1l2.6.2c.4 0 1 .1 1.1.1h9.1l40.2-.8 37.1-1 8.6-.2 8.4-.1 15.9-.1h49.1l19.5.3 7.3.2h1.2c.8 0 2 .1 3.5.2.8 0 1.6.1 2.6.2 1.4.1 3 .2 4.7.4.3 0 .6 0 .9.1h.4v-9.5c0-5.9.2-13 0-21.4 0-.5 0-1.1-.1-1.6 0-.5-.1-1.3-.1-1.7-.1-.9-.1-2-.1-3.1-.1-2.2-.1-4.4-.2-6.8l-.4-14.7-.8-33.3-.5-18.4c0-.8-.1-1.6-.1-2.4s-.1-1.6-.1-2.5c-.1-1.4-.1-3.1-.2-4.7l-1-50.6-.4-21.3-.2-10.8c-.1-1.8-.1-3.6-.2-5.5l-.3-5.4c-.2-3.7-.4-7.3-.8-11.1l-.3-2.7-.1-.7v-.3h-1.7l-3.8.1-5.5.2-22 .7-43.8 1.2-21.5.4-10.6.1h-5.2c-1.7 0-3.3-.1-5.1-.2-3.5-.2-7-.2-10.6 0-3.5.2-6.9.7-10 .7h-5c-1.7 0-3.3.1-5 .1l-9.8.2-38.3 1.2c-1.6.1-2.9.1-3.8.1-6.4.6-10 1.4-15.3 2.9z" class="E"/><path d="M258.8 361.7l2 50.7 191.6 1.7c.3-16.3-.3-35.7-1.2-56.2l-192.4 3.8zm-14.4-22.4l-.2 14.3c69.3-6.3 137.6-8.3 206.7-6.9 0-2.7-.1-6.4-.4-12.9-69.3-1.2-138.1.6-206.1 5.5zm-2.6-38V314c69.3-6.3 139.6-7.9 208.7-6.6 0-2.7-.4-5.3-.7-11.8-69.4-1.2-139.9.8-208 5.7zm8.6-50.5l2.4 48.9c69.3-6.3 127.7-5.7 196.8-4.3 0-2.7-.7-43.4-.9-49.9-69.3-1.3-130.2.4-198.3 5.3z" class="F"/><g class="E"><path d="M235.8 238.2c5.4 1.2 9 1.8 15.4 1.6l183.9-5.7c6.4-.2 10-1.1 15.3-2.5-5.4-1.2-9-1.8-15.4-1.6l-89.7 2.8-94.2 2.9c-6.4.2-10 1-15.3 2.5zm4.4 63.9c5.4.8 9.1 1.2 15.4.7l13.6-1.1 34.3-2.3 31.2-1.4 9.9-.3c2.4-.1 3.7-.1 3.7-.1s21.3-.6 44.8-.6l17.7.1 16.6.2 9.4.2c6.4.1 10-.5 15.4-1.7-5.3-1.5-8.9-2.3-15.3-2.5-1.7 0-5.2-.1-9.4-.2l-16.6-.2c-5.8 0-11.9-.1-17.7-.1l-44.9.6s-1.3 0-3.7.1l-9.9.3-31.2 1.4-34.4 2.3-13.6 1.1c-6.5.6-10.1 1.7-15.3 3.5zm-1.4 11.6c5.4.8 9.1 1.2 15.4.7l13.6-1.1 34.3-2.3 31.2-1.4 9.9-.3c2.4-.1 3.7-.1 3.7-.1s21.3-.6 44.8-.6l17.7.1 16.6.2 9.4.2c6.4.1 10-.5 15.4-1.7-5.3-1.5-8.9-2.3-15.3-2.5-1.7 0-5.2-.1-9.4-.2l-16.6-.2c-5.8 0-11.9-.1-17.7-.1l-44.9.6s-1.3 0-3.7.1l-9.9.3-31.2 1.4-34.4 2.3-13.6 1.1c-6.6.6-10.2 1.7-15.3 3.5zm4.7 26.5c5.4.8 9.1 1.2 15.4.7l13.5-1.1 33.7-2.2 30.6-1.3 9.7-.3 3.6-.1s21-.6 44-.5l17.4.1 16.3.2 9.4.2c6.4.1 10-.5 15.4-1.7-5.3-1.5-8.9-2.3-15.3-2.5-1.7 0-5.2-.1-9.4-.2l-16.3-.2c-5.7 0-11.7-.1-17.4-.1l-44.2.5s-1.3 0-3.6.1l-9.8.3-30.7 1.3-33.8 2.2-13.5 1.1c-6.2.7-9.8 1.7-15 3.5z"/><path d="M243.5 353.6c5.4.8 9.1 1.2 15.4.7l13.5-1.1 34-2.3 30.8-1.4 9.8-.3c2.3-.1 3.7-.1 3.7-.1l44.3-.6 17.5.1 16.4.2 9.4.2c6.4.1 10-.5 15.4-1.7-5.3-1.5-8.9-2.3-15.3-2.5-1.7 0-5.2-.1-9.4-.2l-16.5-.2c-5.8 0-11.7-.1-17.6 0-23.3 0-44.5.7-44.5.7s-1.3 0-3.7.1l-9.8.3-30.9 1.4c-11.6.6-23.8 1.5-34.1 2.3l-13.6 1.1c-6 .4-9.6 1.5-14.8 3.3zm1.4 9.2c5.4 1.1 9 1.6 15.4 1.4l47.2-2.1 43.8-1.7 43.8-.9 17.3-.1h8.4l7.8.1 9.4.1c6.4.1 10-.5 15.4-1.7-5.3-1.4-8.9-2.3-15.3-2.4-1.7 0-5.2-.1-9.4-.1-2.5 0-5.1 0-7.9-.1h-8.4l-17.4.1-43.9 1-13.3.4-30.6 1.2-47.2 2.2c-6.2.1-9.8 1-15.1 2.6zm.7 50.3c5.4 1.1 9 1.6 15.4 1.3l13.5-.5 33.7-.7c5.7-.1 11.4 0 16.5 0l14 .1 13.3.2 13.3.3 30.6.9 43 1.4c6.4.2 10-.4 15.4-1.6-5.3-1.5-8.9-2.3-15.2-2.5l-43-1.4-30.6-.9-13.3-.3-13.3-.2c-4.1 0-8.8-.1-14-.1h-16.6l-33.8.7-13.5.5c-6.6.2-10.1 1.2-15.4 2.8zm204.8-166.6c-5.4-1.2-9-1.9-15.3-1.8h-15.3c-12.8-.3-27.9 0-42.4.3l-20.8.5-17.6.6-33.4 1.2-49.2 1.4c-2.3.1-4.7.1-7 .2h-1c-.1.1 0 .2 0 .3v4c0 .9 0 1.8.1 2.8.1 1.8.2 3.7.5 5.5l.2 1.3.1.7.1.6c.1.8.2 1.7.2 2.5l.3 5c.1 1.6.2 3.2.2 4.7l.2 5.6v3.8c.2 6.5 1.1 10 2.8 15.3 1-5.4 1.5-9 1.4-15.3v-3.8c0-1.6-.1-3.6-.2-5.7-.1-1.6-.2-3.2-.2-4.8l-.3-5.1c-.1-.9-.1-1.7-.3-2.7l-.1-.7-.1-.6-.2-1.3c-.2-1.7-.4-3.4-.5-5.1 0-.9-.1-1.8-.1-2.6v-.1h-.1 1.2l2.7-.1 10.9-.3 38.4-1.2 33.4-1.2 17.6-.6 20.7-.5 42.2-.3H431c1.6 0 2.9 0 3.8-.1 6.7-.2 10.3-1 15.6-2.4z"/><use xlink:href="#K"/><path d="M443 214.4c-5.3-1.3-8.9-2-15.3-2.1h-43.2l-27.5.1-12 .2-12 .3-12.6.4-7.3.4c-2.5.2-4.9.3-7.5.4l-15.6.2-7.6.2c-1.2 0-2.5.1-3.7.1-.6 0-1.2 0-1.8.1-.6 0-1.1.1-1.7.1l-9.4.5c-6.4.4-10 1.3-15.2 2.9 5.4 1 9.1 1.5 15.4 1.2l9.4-.5c.5 0 1.1-.1 1.6-.1.6 0 1.2 0 1.8-.1 1.2 0 2.4-.1 3.6-.1l7.5-.2 15.6-.2 7.7-.4c2.4-.2 4.9-.3 7.2-.4l12.6-.4 12-.3 12-.2c7.3-.2 17.1-.1 27.5-.1h43.1c6.4.1 10-.6 15.4-2zm-.8 9.6c-5.3-1.3-8.9-2-15.3-2.1h-43.2l-27.5.1-12 .2-12 .3-12.6.4-7.3.4c-2.5.2-4.9.3-7.5.4l-15.6.2-7.6.2c-1.2 0-2.5.1-3.7.1-.6 0-1.2 0-1.8.1-.6 0-1.1.1-1.7.1l-9.4.5c-6.4.4-10 1.3-15.2 2.9 5.4 1 9.1 1.5 15.4 1.2l9.4-.5c.5 0 1.1-.1 1.6-.1.6 0 1.2 0 1.8-.1 1.2 0 2.4-.1 3.6-.1l7.5-.2 15.6-.2 7.7-.4c2.4-.2 4.9-.3 7.2-.4l12.6-.4 12-.3 12-.2c7.3-.2 17.1-.1 27.5-.1h43.1c6.4 0 10.1-.7 15.4-2zm7.2 46.9c-5.4-1.2-9-1.9-15.4-1.8l-86 1.4-12.5.3-13.2.4c-2.5.1-5 .4-7.6.6l-7.9.7a457.99 457.99 0 0 1-16.2 1.2c-2.7.2-5.3.3-7.9.4l-16.8.9c-6.4.3-10 1.2-15.2 2.8 5.4 1.1 9 1.6 15.4 1.3 1.7-.1 5.2-.2 9.4-.4l7.4-.3 7.9-.4c5.4-.3 10.9-.8 16.3-1.2l7.9-.7c2.6-.2 5.1-.5 7.5-.6l13.1-.5 12.5-.3 12.5-.2c3.8 0 8.3-.1 13.1-.2l15.6-.3 44.7-.8c6.5-.1 10.1-.9 15.4-2.3z"/><use xlink:href="#K" x="1.1" y="23.3"/><path d="M453.5 371.4c-5.3-1.4-8.9-2.1-15.3-2.2l-83.1-.8H343c-3.7 0-8 0-12.8.2l-15 1-15.6.8-7.6.2-7.1.2-9.4.2c-6.4.2-10 1-15.3 2.4 5.4 1.2 9 1.8 15.4 1.7 1.7 0 5.2-.1 9.4-.2l14.8-.4 15.7-.8 14.9-1c4.6-.2 8.9-.2 12.6-.2h12.1l83.1.8c6.3 0 9.9-.6 15.3-1.9zm.7 13.4c-5.3-1.5-8.9-2.3-15.3-2.5l-43.9-1.2-15.2-.4h-12.9l-24.4.2-12.9.3c-1.2.1-2.4.1-3.6.2-1.2 0-2.5.1-3.7.1h-7.8c-5.3 0-10.7-.1-15.9-.1l-7.7.1-7.2.2-9.4.2c-6.4.2-10 1-15.3 2.4 5.4 1.2 9 1.8 15.4 1.7 1.7 0 5.2-.1 9.4-.2l7.2-.2 7.7-.1 15.9.1h7.8c1.3 0 2.6 0 3.8-.1s2.5-.1 3.7-.2c4.7-.2 9.1-.2 12.8-.3l24.4-.2h12.8l15.2.4 43.8 1.1c6.3.3 10-.3 15.3-1.5z"/><path d="M454.7 399.2c-5.2-1.7-8.8-2.6-15.2-3-2.4-.1-7.1-.4-12.9-.8l-30.7-1.8-15.2-.7h-12.8l-24.4.2-12.8.3c-4.7.3-9.7.3-15 .2-5.2 0-10.6-.1-15.8-.1l-7.7.1-7.2.2-9.4.2c-6.4.2-10 1-15.3 2.4 5.4 1.2 9 1.8 15.4 1.7 1.7 0 5.2-.1 9.4-.2l7.2-.2 7.6-.1h15.8c5.2 0 10.4 0 15.2-.3 4.7-.2 9-.2 12.7-.3l24.2-.2h12.8c4.6 0 9.8.4 15 .7l43.5 2.6c6.5.6 10.2.1 15.6-.9zM295.1 263.3c-1.2 1.2-1.9 2-1.8 3.3 0 .7.2 2.8.3 4.8l.2 3.7.1 3.7-.1 4.7c0 1.3.6 1.9 1.7 3.3 1.5-.8 2.3-1.7 2.4-3 .1-.8.1-3 .1-5l-.2-7.6-.3-4.9c-.2-1.3-.9-2-2.4-3zm116.5-3.9c-1.2 1.2-1.9 2-1.8 3.3 0 .7.2 2.8.3 4.8l.2 3.7.1 3.7-.1 4.7c0 1.3.6 1.9 1.7 3.3 1.5-.8 2.3-1.7 2.4-3 .1-.8.1-3 .1-5l-.2-7.6-.3-4.9c-.3-1.3-1-2-2.4-3zM338 284.1c-1.3.6-2 1-2.1 1.6v8.2c0 .6.8 1 2.1 1.6 1.3-.5 2-.9 2.1-1.5l-.2-8.4c.2-.7-.5-1-1.9-1.5z"/><use xlink:href="#L"/><use xlink:href="#M"/><use xlink:href="#N"/><path d="M389.2 294.6c-1.3.6-2 1-2.1 1.6v8.2c0 .6.8 1 2.1 1.6 1.3-.5 2-.9 2.1-1.5l-.2-8.4c.2-.6-.6-1-1.9-1.5z"/><use xlink:href="#L" x="-86.7" y="55.7"/><use xlink:href="#N" x="5.4" y="38.6"/><use xlink:href="#O"/><use xlink:href="#M" x="22.5" y="61.6"/><use xlink:href="#P"/><use xlink:href="#Q"/><use xlink:href="#Q" x="39.8"/><use xlink:href="#P" x="115.4" y="1.9"/><path d="M320.1 360c-1.3.6-2 1-2.1 1.6v8.2c0 .6.8 1 2.1 1.6 1.3-.5 2-.9 2.1-1.5l-.2-8.4c.2-.6-.5-1-1.9-1.5z"/><use xlink:href="#O" x="28.6" y="25.8"/><use xlink:href="#L" x="-17.3" y="88.5"/><path d="M259.1 362c-1.1 5.4-1.7 9-1.5 15.4 0 1.1.1 2.8.2 6.5 0 .5.1 1.5.1 1.5v.8c.1 4.1.3 8.6.4 10.1.2 6.4 1.1 9.9 2.4 15.3 1.3-5.3 1.9-9 1.7-15.4 0-1.5-.2-6-.3-10.1v-2.3l-.2-6.5c-.4-6.4-1.2-10-2.8-15.3z"/></g><path d="M302.3 110.2a6.83 6.83 0 0 1 7.7-6.1l85.8 11.3c17.2 1.5 73.6 8.7 91.1 11.8l72.9 11.8c-3 25.6-19.1 115.9-25 155.6l-22.9 154.7L391 429l-64.4-11.3c-21-4-51.7-6.9-56.5-8.1 6.4-41.6 19.2-165 22.9-194.9 3.3-26.1 7.1-79.9 9.3-104.5z" class="F"/><path d="M302.3 110.2c.7-2 2.1-3.2 3.4-3.7 1.4-.6 2.7-.5 3.9-.1 3.4 1 7.1 1.8 11.8 2.5a185.8 185.8 0 0 0 5.9.8l6.6.9 46.8 6.2 12.2 1.4 6.2.6c2 .2 4.1.4 6.1.7l24.7 2.9 49.2 6.7c4 .6 8 1.3 12 2l11.9 2 23.2 3.8 22.2 3.5c1.8.3 3.6.5 5.4.8.8.1 1.6.2 2.4.4h0l-.3 2c-.2 1.7-.5 3.4-.7 5.1l-10.7 66.1-9.9 59.5-7.8 52.3-6.3 44.3-9.2 61.8-2.1 13.1c.3 0-.7-.1-1.1-.2-.9-.2-1.4-.2-1.4-.2l-116.4-19.5-11.1-2-47.6-8.4c-16.7-3.2-34.3-5.3-52.1-7.6-1.1-.1-2.2-.3-3.3-.4l-2.7-.4.2-1.4c.7-4.5 1.3-9.1 1.9-13.7l3.5-27.7 18.8-166.4 2.4-26.2 2-24.3 1.1-14.1c.8-9.4.2-14.9-1.1-23.1-2.7 7.8-4.2 13.1-5 22.6l-1.2 14-2 24.2-2.4 26.2-1.4 13.3-1.6 13.5-3.1 27.5-12.7 112-3.5 27.6-1.9 13.6-.3 2c-.2 1.1-.3 2.3-.5 3.4l-.2 1.7c0 .2 0 .3.2.3l1.2.3 3.3.6 1.2.3h.2l.9.1 1.7.2c1.1.1 2.3.3 3.4.4 17.9 2.2 35.3 4.3 51.7 7.5l58.7 10.4 10.7 1.8 105.8 17.7 8.6 1.4c.1 0 .1-.1.1-.1v-.2l.1-.4c0-.2.1-.5.1-.7.1-.5.2-1 .2-1.5.2-1 .3-2.1.5-3.2l.6-3.8 1.5-9.4 9.3-61.9 6.4-44.3 7.8-52.2 9.9-59.4 5.4-32.3 5.3-33.9c.2-1.7.5-3.4.7-5.1.1-1.1.3-2.1.4-3.2l.3-2.6.2-1.3.1-.7v-.3c0-.1 0-.1-.1-.1h-.2c-1.7-.2-3.6-.4-5.3-.7-1-.1-1.9-.3-2.9-.4-1.8-.3-3.5-.5-5.3-.8l-22.1-3.5-23.2-3.8-11.9-2-12.1-2c-16.3-2.5-32.8-4.6-49.4-6.7l-24.8-3c-2.1-.2-4.1-.4-6.2-.7l-6.1-.6c-4-.4-8.1-.9-12.1-1.4l-46.7-6.2-12.5-1.7c-4.7-.6-8.5-.9-12.1-.8-2.4-.1-4.6.9-6.1 2.5-1.2 1.6-1.9 3.8-1.6 5.8z" class="E"/><path d="M319.4 120.9v9.1c33.6 3.8 68.2 8.7 103.6 14.6 1.6.3 3.2-.9 3.3-2.6l.6-9.3c-34.5-5.2-69.6-9.8-105.4-13.7a1.95 1.95 0 0 0-2.1 1.9z" class="G"/><path d="M319.4 120.9l-1.1 4.6-.4 2.2v.6c0 .3-.1.7-.1 1l-.1 2.2 4.4.7 3.3.5 14.6 1.8 39.3 5.3 35.5 5.5 6.4 1.1c.5.1.9.2 1.4.2h1.1c.4 0 .7 0 1.1-.1 1.4-.3 2.5-1.2 3.1-2.3.3-.5.5-1.1.6-1.6 0-.1 0-.3.1-.4v-.7c0-.5.1-1 .1-1.3 0-.7.1-1.1.1-1.1s0-.2.1-1.7l.3-3.9c0-.8.1-1.6.2-2.5v-.3h-.1l-.3-.1c-.2 0-.5-.1-.7-.1-.5-.1-.9-.1-1.4-.2a122.18 122.18 0 0 0-4-.6l-48.9-6.8-17.6-2.2-14.1-1.7-8.1-.9-8.1-.4c-1.2 0-2.4.1-3.6.3-.3 0-.6 0-1 .1s-.8.3-1.1.6c-1 .7-1.2 1.6-1 2.2.2-.7.7-1.1 1.1-1.2.2-.1.5-.1.7 0l.8.3 3.4 1c2.3.6 4.8 1.1 7.9 1.4l8.1 1 14.1 1.7 17.6 2.2 48.8 6.8c1 .2 2 .3 2.8.4h0l-.2 2.8-.1 1.7s0 .4-.1 1.1c0 .4-.1.8-.1 1.3v.6c0 .1 0 .2-.1.2-.1.1-.3.3-.5.3h-.6c-.4-.1-.9-.1-1.4-.2l-6.4-1.1-35.6-5.5c-13.4-2-27.4-3.9-39.3-5.3l-10.9-1.3c-1.6-.2-2.9-.3-3.7-.4l-3.3-.3h-1.1c-.1 0-.1.1-.3.1l-.2-.2v-.4c-.1-.7-.2-1.5-.4-2.2-.2-1.6-.6-3.1-1-4.8z" class="E"/><path d="M317.3 143.1l-.3 23.5 171.8 22.7 3.6-24.6c-63.8-10.6-105.5-14.1-171.7-23.1-2-.3-3.6.3-3.4 1.5z" class="G"/><path d="M317.3 143.1c-1.9 7.2-2.9 12.1-3.1 20.8 0 1.1 0 2.5-.1 4.2v1h.3c.5.1.9.1 1.4.2 1 .1 2 .3 3.1.4l18.1 2.5 69.2 9.6 62.9 8.4 11.4 1.3 4.8.5c.5 0 1.1.1 1.6.1h2c.6-.1 1.1-.3 1.5-.6l.3-.3.2-.3c.1-.2.2-.4.3-.7l.3-.6c0-.3 0-.6.1-.9l.3-1.5c.1-.5.1-1 .2-1.5.1-.9.2-1.7.3-2.3l.3-1.9s.1-.6.6-4.1c.3-1.7.6-4.1 1.1-7.5.2-1 .3-2.1.5-3.3.1-1 .3-2 .4-3 0-.3.1-.5.1-.8 0-.2.2-.6-.2-.6l-1.6-.3-9.3-1.5-30.2-4.6-54.6-7.2-62.2-7.7c-4.3-.5-7.7-.7-10.9-.7-1.6 0-3.2.1-4.9.2-.8.1-1.8.1-2.7.4-.5.2-.9.4-1.3.8-.3.5-.4 1.1-.2 1.5 0-.5.3-.8.7-.9s.7-.1 1.1-.1c.8.1 1.4.4 2.2.7 1.6.6 3.1 1.1 4.6 1.5 3.1.9 6.5 1.6 10.8 2.2 2 .3 5.9.8 10.6 1.4l21.9 2.8 29.7 3.6 54.5 7.2 30.1 4.6a177.47 177.47 0 0 1 5.7.9h0a52.78 52.78 0 0 1-.3 2.1l-1.7 11.6-.9 5.8h-.5l-4.6-.4-11.3-1.3-62.8-8.5-87.3-12.1v-.2c.2-8.7-.8-13.6-2.5-20.9z" class="E"/><path d="M314.8 178.1l75.2 11.1c6.5 1.4 9.8.4 22.7 3.5s112.9 17.2 115 17.5c-.4 7-1.1 11.4-1.8 17.8-.7 6.1-13.9 88.2-14.3 92.8S500 396.9 499.8 401s-5.2 29.4-5.3 30.8c-19.2-5.5-104.8-19.6-110.4-20.5L289 396.4c.7-7.3.7-14.6 2.8-22.8s8.8-57.3 9.4-70.1 4.3-37 4.9-43.3c.9-9.2 2.3-21.6 3.3-27.4s1.4-20 2.1-22.8c.8-3.2 3.3-31.9 3.3-31.9z" class="H"/><path d="M314.8 178.1c5.1 2.1 8.6 3.3 14.9 4.2l41.6 6 9.7 1.5c1.6.3 3.2.5 4.9.8.8.1 1.7.3 2.4.4l1.2.2 1.3.3c3.5.7 7 .7 10.2 1.1a85.83 85.83 0 0 1 9.9 1.8c1.6.4 3.5.7 5.2 1.1l5.2.9 10.5 1.7 21.3 3.3 43.4 6.4 21.8 3.1 5.4.8 1.4.2h.3c-.2 3.5-.7 7.1-1.1 10.7-.2 1.8-.4 3.6-.7 5.4-.2 1.7-.5 3.5-.8 5.3-.6 3.6-1.1 7.1-1.6 10.7l-3.3 21-7.8 50.1c-.2 1.6-.5 3.1-.7 4.9l-.6 4.6-2.7 18.1-7.2 47.5c-.3 2.3-.7 4.6-1 6.7-.1 1.1-.3 2.2-.4 3.3-.1.5-.1 1-.2 1.5s-.1 1-.2 1.5c-1.3 8.1-2.6 15.1-3.7 20.9-.3 1.4-.5 2.8-.7 4.1 0 .3-.1.5-.1.8h0c-.5-.1-1-.3-1.5-.4-1-.3-1.8-.4-2.6-.6-1.5-.4-2.7-.6-3.5-.8l-1.2-.3s-.1 0-7.2-1.5c-.6-.1-7.4-1.5-19.2-3.7l-48.4-8.6-15.7-2.6c-2.7-.4-5.5-.9-8.3-1.4l-8.6-1.3-36.7-5.5-39.7-6.2-5.1-.9c-1.3-.2-2.6-.5-4-.8h0s0 .1 0-.1l.2-2.6c.1-1.7.3-3.5.4-5.2.3-3.5.7-6.9 1.4-10.2l.6-2.5.6-2.7c.4-1.8.7-3.6 1-5.3 2.3-14.2 4.2-28.5 6-42.8l1.2-10.8c.2-1.8.3-3.6.5-5.4l.3-5.4c.5-7 1.3-14.1 2.2-21.1l2.7-21 2.3-20.4c.2-1.7.4-3.3.7-5l.2-1.2.2-1.3.3-2.6.8-10c.1-1.6.2-3.2.4-4.9.1-.8.1-1.6.2-2.4 0-.4.1-.7.2-1.1l.2-1.2c.3-1.8.5-3.3.6-4.9.1-.6.1-1.2.2-1.8l.9-9.2c.9-6.1.5-9.8-.4-15.2-1.8 5.2-2.8 8.7-3.5 15.1-.2 1.7-.5 5-.9 9.1-.1.6-.1 1.2-.2 1.8l-.6 4.6-.1.5-.2.7c-.1.5-.1.9-.2 1.3-.1.8-.2 1.7-.2 2.5-.1 1.6-.2 3.3-.4 4.9-.2 3.3-.4 6.6-.8 9.9l-.3 2.4-.2 1.2-.2 1.3c-.3 1.7-.5 3.4-.7 5.1-.9 6.8-1.6 13.6-2.3 20.6-.7 6.8-1.8 13.8-2.7 20.9s-1.7 14.1-2.2 21.4l-.3 5.3c-.1 1.8-.3 3.5-.5 5.3l-1.2 10.7c-1.7 14.3-3.6 28.6-5.9 42.6l-.9 5.2c-.2.9-.4 1.7-.5 2.5l-.6 2.7c-.8 3.6-1.2 7.2-1.5 10.8-.1 1.8-.3 3.5-.4 5.3l-.2 2.6-.2 2.5-.1.6v.3c-.1.1.1.1.2.2l2.6.6c.4.1.9.2 1.1.3l1.3.3c.9.2 1.7.3 2.6.5l5.1.9 39.7 6.2 45.2 6.8 8.3 1.4 15.7 2.6 48.3 8.5 19.1 3.7 7.2 1.5 1.2.3c.8.2 1.9.4 3.4.8.7.2 1.6.3 2.5.6 1.4.4 2.9.8 4.6 1.2.3.1.6.1.8.2l.4.1c.1-.1.1-.3.1-.4l.3-1.8.3-1.9c.1-.4.1-.8.2-1.1.2-1.3.5-2.6.7-4.1l3.7-21c.1-.5.1-1.1.2-1.6s.1-1.2.2-1.7c.1-.9.2-2 .4-3.1l1-6.7 7.2-47.4 2.7-18.2.6-4.8.6-4.6 11.1-71.1 1.6-10.7c.3-1.8.5-3.6.8-5.4.2-1.8.4-3.6.7-5.4.5-3.6.9-7.3 1.1-11.1l.2-2.7v-1h-.3l-1.4-.2-3.8-.5-5.4-.8-21.8-3.1-43.4-6.4-21.3-3.3-10.4-1.7-5.1-.9c-1.7-.3-3.3-.6-5-1.1-3.4-.8-6.9-1.4-10.4-1.9-3.5-.4-6.9-.5-10-1.1-.8-.2-1.6-.3-2.5-.5s-1.7-.3-2.5-.4l-4.9-.8-9.7-1.5L334 179l-3.7-.5c-6.3-1.2-10-1-15.5-.4z" class="E"/><path d="M312.9 334.8l-6.8 50.3 188.4 34.8c3.1-16 5.9-35.2 8.6-55.6l-190.2-29.5zm-10.3-24.6l-2.6 14.1c69.3 5.8 137 15.7 204.8 29 .5-2.7 1-6.3 1.8-12.7-68.1-13.3-136.1-23.5-204-30.4zm4.1-37.9l-2.2 12.5c69.3 5.8 138.8 16.4 206.6 29.7.5-2.7.5-5.3 1.3-11.7-68-13.3-137.8-23.5-205.7-30.5zm17.2-48.2l-6.1 48.6c69.3 5.8 126.8 16.5 194.5 29.8.5-2.7 6.9-42.9 7.7-49.3-68-13.2-128.2-22.1-196.1-29.1z" class="F"/><g class="E"><path d="M311.7 209.1c5.1 2.1 8.6 3.3 14.9 4.2l93.3 13.5 88.9 12.8c6.3.9 10 .7 15.5.1-5.1-2.1-8.6-3.3-14.9-4.2l-182.2-26.2c-6.4-.9-10.1-.7-15.5-.2zm-6.7 63.7c5.2 1.8 8.7 2.8 15.1 3.3 2.5.2 7.5.7 13.6 1.3l34.2 3.7 30.9 4 9.8 1.4c2.3.4 3.7.5 3.7.5a1699.15 1699.15 0 0 0 44.2 7.2l17.4 3.1 16.3 3.1 9.2 1.8c6.3 1.2 9.9 1.2 15.4 1-5-2.4-8.4-3.8-14.6-5.1-1.7-.3-5.1-1-9.2-1.8l-16.3-3.1-17.5-3.1-44.3-7.2-3.7-.6-9.8-1.4-31-4.1-34.3-3.7-13.6-1.3c-6.4-.3-10.1.1-15.5 1zm-3.5 11.2c5.2 1.8 8.7 2.8 15.1 3.3 2.5.2 7.5.7 13.6 1.3l34.2 3.7 30.9 4 9.8 1.4c2.3.4 3.7.5 3.7.5a1699.15 1699.15 0 0 0 44.2 7.2l17.4 3.1 16.3 3.1 9.2 1.8c6.3 1.2 9.9 1.2 15.4 1-5-2.4-8.4-3.8-14.6-5.1-1.7-.3-5.1-1-9.2-1.8l-16.3-3.1-17.5-3.1-44.3-7.2-3.7-.6-9.8-1.4-31-4.1-34.3-3.7L317 283c-6.4-.3-10.1.1-15.5 1zm.1 27c5.2 1.8 8.7 2.8 15.1 3.3 2.5.2 7.4.7 13.5 1.3l33.6 3.7 30.4 4 9.6 1.4 3.6.5 43.5 7.1 17.1 3.1 16 3.1 9.2 1.8c6.3 1.2 9.9 1.2 15.4 1-5-2.4-8.4-3.8-14.6-5.1-1.7-.3-5.1-1-9.2-1.8l-16.1-3.1-17.2-3.1c-22.8-4.1-43.6-7.1-43.6-7.1s-1.3-.2-3.6-.5l-9.7-1.4c-8.1-1.2-19-2.6-30.5-4l-33.7-3.7-13.5-1.2c-6.2-.7-9.8-.2-15.3.7z"/><path d="M299.3 324.1c5.2 1.8 8.7 2.7 15.1 3.3 2.5.2 7.5.7 13.5 1.3l33.8 3.6 30.6 3.9 9.7 1.4 3.6.5a1449.12 1449.12 0 0 0 43.8 7.1l17.2 3.1 16.1 3.1 9.2 1.8c6.3 1.2 9.9 1.2 15.4 1-5-2.3-8.4-3.8-14.6-5.1-1.7-.3-5.1-1-9.2-1.8l-16.2-3.1-17.3-3.1-43.9-7.1s-1.3-.2-3.6-.5l-9.7-1.4-30.7-4-33.9-3.7-13.6-1.2c-6.2-.4-9.9 0-15.3.9zm-.2 9.3c5.1 2 8.6 3.2 14.9 4l46.8 6.1 30.3 4.1 13.2 1.9 43.3 6.7 17.1 2.9 16 2.9 9.2 1.7c6.3 1.2 9.9 1.2 15.4 1-5-2.3-8.4-3.8-14.6-5-1.7-.3-5.1-1-9.2-1.8-2.5-.5-5.1-.9-7.7-1.4l-8.3-1.5-17.1-2.9-43.4-6.7-13.2-1.9-30.3-4.1-46.8-6c-6.5-.9-10.2-.6-15.6 0zm-8 49.7c5.1 2 8.6 3.1 14.9 3.9 2.5.3 7.4 1 13.4 1.8 10.1 1.4 21.9 3.2 33.3 5.2l16.3 2.8 13.8 2.5 13.1 2.5 13.1 2.6 29.9 6.2 42.1 8.8c6.3 1.3 9.9 1.3 15.4 1.1-4.9-2.4-8.3-3.8-14.6-5.1l-42.1-8.8-30-6.1-13.1-2.6-13.1-2.5-13.8-2.6-16.3-2.8-33.4-5.2-13.4-1.8c-6.4-.9-10.1-.6-15.5.1zm230.5-128.7c-5.1-2.1-8.5-3.4-14.8-4.4-.8-.1-2.1-.4-3.7-.6-.8-.1-1.7-.3-2.6-.4-1.3-.2-2.7-.5-4.2-.7-1.5-.3-3-.5-4.6-.8-12.6-2.5-27.5-4.8-41.8-7.1l-20.6-3.1-17.4-2.4-16.6-2.3-54.5-7.9-10.8-1.6-7.6-1.1h-.3c-.1 0-.1.2-.1.3l-.2 1.3-.4 2.5c-.1.9-.3 1.8-.4 2.7-.2 1.8-.4 3.7-.5 5.5v2.7c0 .8-.1 1.7-.2 2.5-.2 1.7-.3 3.4-.5 5l-.6 4.7c-.3 2.1-.5 4-.8 5.5-.3 1.6-.5 2.9-.6 3.7-.9 6.4-.6 10.1.1 15.5 1.9-5.1 3-8.7 4-14.9.1-.9.4-2.1.6-3.7.3-1.6.5-3.5.8-5.6l.6-4.7.6-5.1c.1-.9.2-1.7.2-2.7v-2.7c.1-1.7.2-3.4.4-5.1.1-.9.2-1.7.4-2.6v-.1h-.1l1.2.2 13.5 2 38 5.5 33.2 4.6 17.4 2.4 20.5 3.1 41.6 7c1.6.3 3.1.6 4.6.8 1.4.2 2.8.5 4.2.7.9.2 1.8.3 2.6.4 1.6.3 2.9.5 3.7.6 6.5 1.1 10.2.9 15.7.4z"/><path d="M519.6 266.3c-5.1-2.1-8.5-3.4-14.8-4.4l-84.9-13.5-12.4-1.9c-3.8-.6-8.2-1.2-13.1-1.8-2.5-.3-5-.5-7.6-.7l-7.9-.7-16.2-1.6c-2.7-.3-5.3-.6-7.8-1l-7.3-.9-9.3-1.2c-6.3-.8-10-.5-15.5.1 5.1 2 8.6 3.2 14.9 4l9.3 1.2 7.3.9 7.9 1 16.3 1.6 8 .7c2.6.2 5.1.4 7.5.7l13 1.8 12.4 1.9 25.3 4.1 15.4 2.4 44.2 7c6.1.9 9.8.7 15.3.3zm.2-44.7c-5-2.2-8.5-3.6-14.7-4.7l-42.5-7.5-27.1-4.6-11.9-1.9-11.9-1.8-12.5-1.8c-2.3-.3-4.7-.7-7.3-.9-2.5-.2-4.9-.5-7.5-.9L369 195l-7.5-1.1c-1.2-.2-2.4-.3-3.6-.5-.6-.1-1.2-.2-1.8-.2-.6-.1-1.1-.1-1.6-.2l-9.4-1.1c-6.4-.7-10-.4-15.5.2 5.2 2 8.7 3.1 15 3.9l9.3 1.1c.5.1 1.1.1 1.6.2.6.1 1.2.2 1.7.2 1.2.2 2.4.3 3.6.5 2.4.4 4.9.7 7.5 1.1l15.4 2.5c2.6.4 5.2.7 7.7 1 2.4.2 4.8.6 7.1.9l12.5 1.8 11.8 1.8 11.8 1.9c7.2 1.1 16.9 2.9 27.1 4.7l42.5 7.5c6.5.9 10.2.8 15.6.4zm-2.4 9.3c-5-2.2-8.5-3.6-14.7-4.7l-42.5-7.5-27.1-4.6-11.9-1.9-11.9-1.8-12.5-1.8c-2.3-.3-4.7-.7-7.3-.9-2.5-.2-4.9-.5-7.5-.9l-15.4-2.5-7.5-1.1c-1.2-.2-2.4-.3-3.6-.5-.6-.1-1.2-.2-1.8-.2-.6-.1-1.1-.1-1.6-.2l-9.4-1.1c-6.4-.7-10-.4-15.5.2 5.2 2 8.7 3.1 15 3.9l9.3 1.1c.5.1 1.1.1 1.6.2.6.1 1.2.2 1.7.2 1.2.2 2.4.3 3.6.5 2.4.4 4.9.7 7.5 1.1l15.4 2.5c2.6.4 5.2.7 7.7 1 2.4.2 4.8.6 7.1.9l12.5 1.8 11.8 1.8 11.8 1.9c7.2 1.1 16.9 2.9 27.1 4.7l42.5 7.5c6.5.8 10.1.8 15.6.4zm-1 47.5c-5.1-2.1-8.5-3.4-14.8-4.4l-84.9-13.5-12.4-1.9c-3.8-.6-8.2-1.2-13.1-1.8-2.5-.3-5-.5-7.6-.7l-7.9-.7-16.2-1.6c-2.7-.3-5.3-.6-7.8-1l-7.3-.9-9.3-1.2c-6.3-.8-10-.5-15.5.1 5.1 2 8.6 3.2 14.9 4l9.3 1.2 7.3.9 7.9 1 16.3 1.6 8 .7c2.6.2 5.1.4 7.5.7l13 1.8 12.4 1.9 25.3 4.1 15.4 2.4 44.2 7c6.2.9 9.8.7 15.3.3zm.2 11c-5.1-2.1-8.5-3.4-14.8-4.4l-84.9-13.5-12.4-1.9c-3.8-.6-8.2-1.2-13.1-1.8-2.5-.3-5-.5-7.6-.7l-7.9-.7-16.2-1.6c-2.7-.3-5.3-.6-7.8-1l-7.3-.9-9.3-1.2c-6.3-.8-10-.5-15.5.1 5.1 2 8.6 3.2 14.9 4l9.3 1.2 7.3.9 7.9 1 16.3 1.6 8 .7c2.6.2 5.1.4 7.5.7l13 1.8 12.4 1.9 25.3 4.1 15.4 2.4 44.2 7c6.1.9 9.8.8 15.3.3zM503 378c-5-2.3-8.4-3.6-14.7-4.8L406.6 358l-11.9-2.1c-3.6-.6-7.9-1.4-12.6-2l-14.9-1.7-15.5-2-7.5-1.1-7-1.1-9.3-1.4c-6.3-.9-10-.8-15.5-.3 5.1 2.1 8.5 3.4 14.8 4.4 1.7.3 5.1.8 9.3 1.4l14.6 2.2 15.6 2 14.9 1.6c4.5.6 8.8 1.4 12.4 2l11.9 2.1 81.7 15.2c6.2 1.2 9.9 1.1 15.4.8zm-1.6 13.3c-5-2.4-8.4-3.8-14.6-5.1l-57.9-11.7-24.8-4.3-12.1-2-12.8-1.9c-1.2-.2-2.4-.3-3.6-.5l-3.7-.6-7.6-1.3-15.7-2.8c-2.6-.4-5.2-.8-7.6-1.3l-7.1-1.1-9.3-1.4c-6.3-.9-10-.8-15.5-.3 5.1 2.1 8.5 3.4 14.8 4.4 1.7.3 5.1.8 9.3 1.4 2.3.3 4.7.7 7.1 1.1l7.6 1.2 15.6 2.8c2.6.5 5.2.9 7.7 1.3l3.8.6c1.2.2 2.4.3 3.6.5 4.7.6 9 1.3 12.6 1.9l12.1 2 24.6 4.3 57.9 11.7c6.5 1.4 10.1 1.4 15.6 1.1zm-2 14.3c-4.9-2.5-8.2-4.1-14.4-5.6-2.3-.6-6.9-1.7-12.5-3l-29.9-7.1-14.8-3.3-12.6-2.2-24-4-12.7-1.9c-4.7-.5-9.6-1.4-14.8-2.4l-15.6-2.8c-2.6-.4-5.1-.8-7.6-1.3l-7.1-1.1-9.3-1.4c-6.3-.9-10-.8-15.5-.3 5.1 2.1 8.5 3.4 14.8 4.4 1.7.3 5.1.8 9.3 1.4 2.3.3 4.6.7 7.1 1.1l7.5 1.2 15.5 2.8c5.1.9 10.3 1.8 15 2.4 4.6.6 8.9 1.3 12.6 1.9l24 4 12.6 2.2c4.6.8 9.5 2.1 14.6 3.2l42.4 10.1c6.2 1.6 9.9 1.8 15.4 1.7z"/><path d="M365.8 244.1c-1.4 1-2.2 1.6-2.4 2.9l-.6 4.8-.5 3.7-.6 3.7-.9 4.6c-.3 1.2.3 2 1.1 3.5 1.6-.5 2.6-1.2 2.9-2.5.2-.7.7-2.9 1-4.9l.6-3.8.5-3.8.6-4.8c.1-1.3-.5-2.2-1.7-3.4zm115.3 16.3c-1.4 1-2.2 1.6-2.4 2.9l-.6 4.8-.5 3.7-.6 3.7-.9 4.6c-.3 1.2.3 2 1.1 3.5 1.6-.5 2.6-1.2 2.9-2.5.2-.7.7-2.9 1-4.9l.6-3.8.5-3.8.6-4.8c.2-1.3-.5-2.1-1.7-3.4zm-76.7 11.7c-1.4.4-2.2.6-2.3 1.3l-1.4 8.2c-.1.6.6 1.1 1.8 1.9 1.4-.3 2.2-.5 2.3-1.2l1.4-8.4c.1-.7-.6-1.2-1.8-1.8zm35.1 4.7c-1.4.4-2.2.6-2.3 1.3l-1.4 8.2c-.1.6.6 1.1 1.8 1.9 1.4-.3 2.2-.5 2.3-1.2l1.4-8.4c0-.7-.6-1.1-1.8-1.8z"/><use xlink:href="#R"/><use xlink:href="#S"/><use xlink:href="#R" x="105.4" y="14.3"/><use xlink:href="#S" x="-48" y="33.4"/><use xlink:href="#T"/><use xlink:href="#R" x="98.1" y="52.8"/><use xlink:href="#R" x="11.5" y="64.6"/><path d="M347.9 376.1c-1.4.4-2.2.7-2.4 1.5l-2.2 10.6c-.1.8.5 1.4 1.6 2.3 1.4-.4 2.2-.8 2.4-1.5l2.2-10.4c.2-1-.4-1.6-1.6-2.5zm35.6 5.9c-1.4.4-2.2.7-2.4 1.5l-2.2 10.6c-.1.8.5 1.4 1.6 2.3 1.4-.4 2.2-.8 2.4-1.5l2.2-10.4c.1-.9-.5-1.5-1.6-2.5zm39.1 6.9c-1.4.4-2.2.7-2.4 1.5L418 401c-.1.8.5 1.4 1.6 2.3 1.4-.4 2.2-.8 2.4-1.5l2.2-10.4c.2-.9-.4-1.5-1.6-2.5zm38.6 9c-1.4.4-2.2.7-2.4 1.5l-2.2 10.6c-.1.8.5 1.4 1.6 2.3 1.4-.4 2.2-.8 2.4-1.5l2.2-10.4c.2-.9-.4-1.5-1.6-2.5zm-87.6-54.1c-1.4.4-2.2.6-2.3 1.3l-1.4 8.2c-.1.6.6 1.1 1.8 1.9 1.4-.3 2.2-.5 2.3-1.2l1.4-8.4c.1-.7-.5-1.2-1.8-1.8z"/><use xlink:href="#T" x="78.3" y="38"/><use xlink:href="#T" x="16" y="38.8"/><path d="M313.2 335.1c-2 5.1-3.2 8.6-4.1 14.9-.2 1.1-.4 2.8-.9 6.4-.1.4-.2 1.5-.2 1.5s-.1.4-.1.8l-1.4 10c-.9 6.3-.7 10-.2 15.4 2.2-5 3.4-8.5 4.4-14.9l1.4-10c.1-.4.1-.8.1-.8s.2-1.1.2-1.5l.9-6.4c.7-6.2.5-9.9-.1-15.4z"/></g><path d="M383.6 91.9c1-3.8 4.9-5.9 8.6-4.8l82.9 24.9c16.7 4.3 71.2 20.5 88 26.3 16.8 5.9 65.9 22.3 70.1 23.3-7.1 24.8-37.5 111.3-49.7 149.5l-47.5 149-116.1-39.4-61.7-21.5c-20-7.3-49.9-15.1-54.5-17.1 13-40 45.4-159.8 53.9-188.7 7.4-25 19.8-77.6 26-101.5z" class="F"/><path d="M383.6 91.9c1-1.8 2.6-2.8 4-3.1 1.5-.3 2.8-.1 3.8.5 3.2 1.5 6.7 2.9 11.3 4.4l5.7 1.8 6.4 2 45.2 13.7 11.9 3.4c2 .5 4 1.1 6 1.6s4 1.1 6 1.6l23.9 6.9 47.5 14.5c3.9 1.2 7.7 2.6 11.5 3.9l11.4 3.9 22.3 7.5 21.3 7.1c1.7.6 3.5 1.1 5.2 1.7.8.2 1.5.5 2.3.7h0c-.2.6-.4 1.3-.6 1.9l-1.5 4.9-21.2 63.5-19.3 57.1-16.1 50.4-13.4 42.7-19 59.5-4.2 12.6c.3.1-.7-.2-1-.4-.9-.3-1.3-.5-1.3-.5l-111.8-38-56.2-19.6c-16-5.9-33-10.8-50.2-15.8l-3.2-1-2.6-.8.4-1.3 4.1-13.2 7.9-26.7 38-135.2 3.8-13.1 3.6-13 6.6-25.5 9.3-37.3c1.8-9.5 2.1-15 2.2-23.3-3.9 7.2-6.3 12.3-8.6 21.5l-3.4 13.7-5.9 23.6-6.5 25.4c-1.1 4.3-2.3 8.6-3.5 12.9l-3.8 13.1-7.5 26.6-30.5 108.5-7.8 26.7-4 13.1-.6 1.9c-.3 1.1-.7 2.2-1 3.2l-.5 1.6c-.1.2-.1.3.1.3l.4.2.8.3c1 .4 2.1.8 3.2 1.2l.8.3.4.1.2.1.8.3 1.6.5c1.1.3 2.2.7 3.3 1 17.3 5.1 34.1 9.9 49.9 15.7l56.3 19.6 10.3 3.5 19.5 6.6 82.1 27.9s2.8 1 8.3 2.8c.1.1.1 0 .1-.1l.1-.2.1-.3c.1-.2.2-.5.2-.7.2-.5.3-.9.5-1.4.3-1 .7-2 1-3.1a75.8 75.8 0 0 0 1.2-3.6l3-9 19.1-59.6 13.4-42.7 16.1-50.3 29.8-88.1 10.7-32.6 1.5-4.9.9-3.1a24.13 24.13 0 0 1 .8-2.5l.4-1.3.3-.9v-.1h-.2l-5.1-1.5-2.8-.9c-1.7-.5-3.4-1.1-5.1-1.7l-21.3-7-22.3-7.5-11.4-3.9-11.6-3.9c-15.7-5.1-31.7-9.8-47.7-14.6l-24-6.9c-2-.6-4-1.1-6-1.7-2-.5-4-1.1-6-1.6l-11.7-3.3-45.1-13.6-6.4-2-5.7-1.7c-4.6-1.4-8.2-2.2-11.8-2.8-2.3-.4-4.7.2-6.4 1.5-2 1.3-3 3.4-3 5.4z" class="E"/><path d="M398.7 105.2l-1.5 9c32.5 9.1 65.9 19.5 99.9 31.1 1.6.5 3.3-.4 3.6-2l2.1-9.1c-33.2-10.7-67.1-20.8-101.9-30.4-.9-.4-2 .3-2.2 1.4z" class="G"/><path d="M398.7 105.2l-1.8 4.4c-.3.7-.5 1.4-.7 2.1l-.1.3v.1l-.1.2c-.1.3-.2.6-.2 1l-.5 2.1 4.2 1.4 3.2 1c2.6.8 7.8 2.3 14.2 4.1l37.9 11.6 34.2 11.1 6.1 2.1c.5.2.9.3 1.3.4l.2.1.3.1c.2.1.4.1.6.1.4.1.7.1 1.1.1 1.4-.1 2.7-.8 3.4-1.7.4-.5.7-1 .8-1.5 0-.1.1-.2.1-.4 0-.1.1-.2.1-.3s.1-.3.1-.4c.1-.5.2-1 .3-1.3.2-.7.2-1.1.2-1.1s0-.2.4-1.7l.9-3.8a41.92 41.92 0 0 0 .6-2.4v-.3h-.1l-.3-.1c-.2-.1-.4-.1-.7-.2-.4-.1-.9-.3-1.4-.4-1.1-.4-2.4-.8-3.8-1.2L452 116.1l-17-5-13.7-3.9-7.9-2.2c-3.1-.8-5.5-1.3-7.9-1.6-1.2-.1-2.4-.3-3.6-.3-.3 0-.6-.1-1 0-.4 0-.8.2-1.1.4-.8.3-1.2 1-1.1 1.7.3-.6.8-1 1.3-1 .2 0 .5 0 .7.1s.5.3.7.4c1.1.6 2.1 1.1 3.2 1.6 2.2 1 4.5 1.8 7.6 2.7l7.9 2.2 13.7 3.9 17 5 47.1 14.5c1 .3 1.9.6 2.7.9h0c-.3 1.2-.5 2.1-.6 2.7-.3 1.5-.4 1.7-.4 1.7s-.1.4-.2 1.1c-.1.4-.2.8-.3 1.3 0 .1-.1.3-.1.4v.2c0 .1-.1.1-.1.2-.1.1-.3.3-.5.3h-.4l-.2-.1c-.4-.1-.9-.3-1.3-.4l-6.1-2.1-34.2-11.2-38-11.6c-4-1.1-7.6-2.2-10.6-3.1l-3.6-1c-1.2-.3-2.2-.6-3.3-.8-.3-.1-.5-.1-.7-.2h-.3c-.1 0-.2 0-.3.1 0 0-.1-.1-.1-.2 0 0 0-.1-.1-.1h0v-2.6c-.3-1.6-.4-3.2-.5-4.9z" class="E"/><path d="M393.1 126.8l-4 23.1 165.9 50 7.5-23.7c-61.2-20.7-101.9-30.8-165.8-50.4-2-.6-3.7-.2-3.6 1z" class="G"/><path d="M393.1 126.8c-3 6.8-4.8 11.5-6.3 20l-.7 4.1c0 .2-.1.4-.1.6l-.1.3.3.1c.4.1.9.3 1.4.4a56.79 56.79 0 0 0 3 .9l84.3 26 60.7 18.4c4 1.2 7.7 2.2 11 3.1 1.6.4 3.2.9 4.6 1.2.5.1 1 .2 1.6.4.7.1 1.3.3 2 .3.6 0 1.1-.1 1.6-.3.1-.1.2-.1.3-.2l.2-.3c.2-.2.3-.4.4-.6s.3-.4.4-.6c.1-.3.1-.6.2-.9.2-.5.4-1 .5-1.5.2-.5.3-1 .5-1.4l.7-2.2c.4-1.2.6-1.9.6-1.9s.2-.6 1.2-3.9c.5-1.7 1.3-4 2.3-7.2l1-3.2c.3-.9.6-1.9.9-2.9.1-.2.2-.5.2-.8 0-.2.3-.6-.1-.6-.5-.2-1-.3-1.6-.5l-8.9-3c-3.5-1.2-14.3-4.8-29.1-9.4-14.8-4.7-33.5-10.3-52.7-15.9l-60.1-17.6c-4.2-1.2-7.5-2-10.7-2.4l-4.8-.6c-.8-.1-1.8-.2-2.7 0-.5.1-1 .2-1.4.6-.5.4-.8 1.1-.6 1.5.1-.5.5-.7.8-.7.4-.1.7 0 1.1.1.7.2 1.3.6 2.1 1 1.4.8 2.9 1.5 4.3 2.2 2.9 1.4 6.1 2.6 10.3 3.9l10.2 3.1 21.2 6.2 28.8 8.4 52.6 15.8 29 9.3c2 .7 3.9 1.3 5.5 1.8h0c-.2.7-.5 1.4-.7 2.1l-2.3 7.2-1.2 3.9s-.6 2-1.8 5.6h0c-.2 0-.3-.1-.5-.1-1.4-.3-2.9-.7-4.5-1.2l-10.9-3.1-60.6-18.4-66.8-20.6-17.4-5.3v-.2c1.4-8.6 1.3-13.6.8-21z" class="E"/><path d="M385 160.9l72.4 23c6.2 2.4 9.6 1.9 21.9 7.1 12.3 5.1 108.6 35.1 110.7 35.7-1.5 6.8-2.9 11.1-4.7 17.2-1.7 5.9-27.9 84.8-29 89.3s-23.7 73.3-24.6 77.3-9.9 28.2-10.2 29.6c-18-8.6-100.3-36.2-105.6-38l-91.4-30c1.9-7.1 3-14.3 6.4-22.1s17.9-55.2 20.5-67.7 10.1-35.8 11.8-42l7.6-26.5c1.9-5.6 4.6-19.5 5.8-22.2s8.4-30.7 8.4-30.7z" class="H"/><path d="M385 160.9c4.7 2.8 7.9 4.6 14 6.5l40.1 12.6 9.3 3 4.7 1.5c.8.3 1.6.5 2.3.8l1.1.4 1.2.5c3.4 1.2 6.8 1.8 9.9 2.8 3.2.9 6.4 2.1 9.5 3.3l4.9 1.9 5 1.8 10.1 3.4 20.5 6.7 41.8 13.3 21 6.6 5.3 1.6 1.3.4.3.1c-.8 3.4-1.8 6.9-2.8 10.4l-1.5 5.2c-.5 1.7-1.1 3.4-1.6 5.1l-3.3 10.3-6.6 20.2-15.7 48.2c-.5 1.6-1 3-1.4 4.7l-.6 2.2c-.2.8-.5 1.5-.7 2.2l-5.6 17.5-14.7 45.7-2 6.5a39.27 39.27 0 0 1-1 3.2c-.1.5-.3 1-.4 1.4-.1.5-.3 1-.4 1.4-2.5 7.8-5 14.5-7 20l-1.4 3.9c-.1.2-.2.5-.3.7h0c-.5-.2-1-.4-1.4-.6-.9-.4-1.7-.7-2.4-1-1.5-.6-2.6-1-3.3-1.4l-1.1-.4s-.1 0-6.9-2.7c-.6-.2-7.1-2.7-18.3-6.7l-46.4-16.2-15-5.1-8-2.7-8.3-2.7-35.3-11.3-38.2-12.5c-1.6-.6-3.2-1.1-4.9-1.7-1.3-.5-2.5-.9-3.8-1.4h0s0 .1 0-.1l.6-2.6 1.2-5.1a81 81 0 0 1 3-9.9c.3-.8.6-1.6 1-2.4.3-.9.7-1.7 1-2.6l1.8-5.1c4.6-13.6 8.7-27.4 12.8-41.3l2.9-10.4c.5-1.7.9-3.5 1.4-5.3l1.2-5.3c1.6-6.9 3.6-13.7 5.6-20.5l6-20.3 5.6-19.8 1.5-4.8.4-1.2.4-1.3c.2-.8.5-1.7.7-2.5.9-3.3 1.6-6.5 2.4-9.7l1.1-4.7.6-2.3a12.59 12.59 0 0 1 .3-1l.4-1.1c.6-1.7 1-3.2 1.4-4.7.2-.6.3-1.2.5-1.7l2.4-8.9c1.6-5.8 1.8-9.5 1.8-15-2.6 4.8-4.2 8.2-5.9 14.3-.4 1.6-1.3 4.9-2.4 8.9-.2.6-.3 1.1-.5 1.7-.4 1.5-.9 3.1-1.3 4.5l-.2.4-.3.7c-.1.4-.3.9-.4 1.3l-1.8 7.2-2.3 9.6c-.2.8-.4 1.6-.7 2.4l-.2 1.1-.4 1.2-1.5 4.9-5.6 19.9c-1.8 6.6-4 13.4-6 20.2s-4 13.7-5.6 20.8l-1.2 5.2-1.3 5.2c-.9 3.5-1.9 6.9-2.9 10.4-4 13.8-8.2 27.6-12.7 41.1l-1.8 5-.9 2.4c-.4.8-.7 1.7-1.1 2.5-1.3 3.4-2.3 6.9-3.2 10.4l-1.2 5.1-.6 2.5-.6 2.4-.3.9c-.1.1.1.2.2.2l2.4 1c.4.2.9.4 1 .4l1.2.5 2.5.9c1.6.6 3.3 1.1 4.9 1.7l38.2 12.5 43.6 13.9 7.9 2.7 15 5.1 46.3 16.2 18.3 6.7 6.8 2.6s.4.2 1.1.4c.7.3 1.8.7 3.3 1.3l2.4 1c1.3.6 2.8 1.2 4.4 1.9.3.1.5.2.8.3l.4.2c.1-.1.1-.3.1-.4.2-.6.4-1.1.6-1.7l.6-1.8c.1-.4.3-.7.4-1.1.4-1.2.9-2.5 1.4-3.9 2-5.5 4.4-12.2 7-20.2.2-.5.3-1 .5-1.5s.3-1.2.4-1.6c.2-.9.6-2 .9-3 .7-2.1 1.3-4.2 2-6.5l20.3-63.2c.2-.8.5-1.5.7-2.3s.5-1.6.7-2.4c.4-1.4.9-3 1.4-4.5l3-9.3 12.7-38.9 6.6-20.3 3.3-10.3c.6-1.7 1.1-3.4 1.7-5.2l1.5-5.2 2.9-10.7.6-2.7.2-.7.1-.3-.3-.1-1.3-.4-3.6-1.1-5.3-1.6-21-6.6-41.8-13.3-20.5-6.7c-3.4-1.1-6.7-2.3-10-3.4-1.6-.6-3.3-1.2-4.9-1.7a158.09 158.09 0 0 1-4.8-1.9c-3.3-1.3-6.6-2.5-10-3.5s-6.7-1.6-9.7-2.7l-2.4-.9c-.8-.3-1.6-.5-2.4-.8-1.6-.5-3.2-1-4.7-1.6l-9.3-3-36.6-11.5c-1.5-.5-2.8-.9-3.6-1.1-6-1.4-9.7-1.8-15.2-2.1z" class="E"/><path d="M358 315.3l-14.8 48.5 180.4 64.6c5.6-15.3 11.4-33.8 17.4-53.5l-183-59.6zm-6.3-26l-4.9 13.5c67.5 16.8 132.7 37.5 197.5 61.5.9-2.6 2-6.1 3.9-12.3-65.1-24-130.6-44.9-196.5-62.7zm10.2-36.7l-4.2 11.9c67.5 16.8 134.4 38.4 199.2 62.5.9-2.6 1.3-5.2 3.2-11.4-65.1-23.9-132.3-45.2-198.2-63zm24.7-44.8l-13.8 47c67.5 16.8 122.5 36.6 187.2 60.7.9-2.6 13.7-41.2 15.5-47.4-65-24.1-123-42.5-188.9-60.3z" class="F"/><g class="E"><path d="M376.9 191.1c4.7 2.9 7.9 4.6 14 6.6l175.5 55.2c6.1 1.9 9.8 2.3 15.2 2.6-4.7-2.9-7.9-4.6-14-6.6l-175.5-55.2c-6-1.9-9.7-2.3-15.2-2.6zm-16.8 61.7c4.9 2.6 8.2 4.1 14.4 5.7l13.2 3.4 33.1 9.2 29.9 8.9 9.4 2.9 3.5 1.1s20.3 6.4 42.5 14.2l16.7 5.9 24.4 8.9c6 2.2 9.6 2.8 15.1 3.5-4.5-3.1-7.6-5.1-13.6-7.3l-8.8-3.3-15.6-5.7-16.7-5.9-42.6-14.2-3.5-1.1-9.5-3-29.9-9-33.2-9.2-13.3-3.4c-6.3-1.4-10-1.6-15.5-1.6zm-5.2 10.5c4.9 2.6 8.2 4.1 14.4 5.7l13.2 3.4 33.1 9.2 29.9 8.9 9.4 2.9 3.5 1.1s20.3 6.4 42.5 14.2l16.7 5.9 24.4 8.9c6 2.2 9.6 2.8 15.1 3.5-4.5-3.1-7.6-5.1-13.6-7.3l-8.8-3.3-15.6-5.7-16.7-5.9-42.6-14.2-3.5-1.1-9.5-3-29.9-9-33.2-9.2-13.3-3.4c-6.4-1.4-10.1-1.6-15.5-1.6zm-4.2 26.7c4.9 2.6 8.2 4.1 14.4 5.7l13.1 3.4 32.6 9 29.4 8.8 9.3 2.9 3.5 1.1 41.8 14 16.4 5.8 15.3 5.6 8.8 3.3c6 2.2 9.6 2.8 15.1 3.5-4.5-3.1-7.6-5.1-13.6-7.3l-8.8-3.3-15.4-5.6-16.4-5.8c-21.8-7.7-41.9-14-41.9-14l-3.5-1.1-9.3-2.9-29.4-8.9-32.7-9.1-13.1-3.4c-6.5-1.6-10.2-1.7-15.6-1.7z"/><path d="M346.2 302.6c4.9 2.6 8.2 4.1 14.4 5.7l13.1 3.4 32.8 9 29.6 8.8 9.4 2.9 3.5 1.1 42.1 14 16.5 5.8 24.2 8.8c6 2.2 9.6 2.8 15.1 3.5-4.5-3.1-7.6-5.1-13.6-7.3l-8.8-3.3-15.5-5.6-16.6-5.8c-22-7.7-42.2-14-42.2-14l-3.5-1.1-9.4-2.9-29.7-8.8-32.9-9.1-13.2-3.4c-6.1-1.6-9.8-1.7-15.3-1.7zm-1.7 9.1c4.7 2.8 8 4.5 14.1 6.4l45.3 13.5 29.2 8.9 12.7 4 41.7 13.6 16.4 5.6 7.9 2.8 7.4 2.6 8.8 3.2c6 2.2 9.6 2.8 15.1 3.4-4.5-3.1-7.7-5.1-13.6-7.3l-8.8-3.2c-2.4-.8-4.8-1.7-7.4-2.6l-7.9-2.8-16.4-5.6-41.8-13.6-12.7-4-29.3-8.9-45.3-13.5c-6.2-1.9-9.9-2.3-15.4-2.5zm-15.9 47.7c4.7 2.8 8 4.4 14.1 6.3 2.4.7 7.1 2.2 12.9 4 9.7 3 21.1 6.7 32 10.5l15.6 5.4 13.2 4.7 12.5 4.6 12.5 4.7 28.6 10.9 40.1 15.4c6 2.3 9.6 2.9 15.1 3.5-4.5-3.1-7.6-5.1-13.6-7.4l-40.1-15.5-28.6-10.9-12.5-4.7-12.5-4.6-13.2-4.7-15.7-5.4-32.1-10.5-13-3.9c-6.1-1.9-9.8-2.2-15.3-2.4zm248.2-89.9c-4.7-2.9-7.9-4.7-13.9-6.8-.8-.3-2-.7-3.6-1.2-.8-.3-1.6-.5-2.5-.8-1.3-.4-2.6-.9-4-1.4s-2.9-1-4.4-1.6c-12-4.5-26.4-9.2-40.1-13.7l-19.8-6.3-16.8-5.2-16-4.9-16-5-54.5-17.2c-.1 0-.1.2-.1.3l-.4 1.3-.8 2.4c-.3.9-.6 1.8-.8 2.6-.5 1.8-1 3.6-1.3 5.4l-.3 1.3-.1.7-.1.6-.6 2.4c-.4 1.6-.9 3.3-1.3 4.8-.5 1.5-.9 3-1.3 4.5-.6 2-1.2 3.8-1.7 5.3l-1.2 3.6c-2 6.2-2.2 9.9-2.4 15.3 2.7-4.8 4.4-8.1 6.3-14 .3-.8.7-2 1.2-3.6a194.23 194.23 0 0 0 1.7-5.4c.4-1.5.9-3 1.4-4.6s.9-3.3 1.4-4.9c.2-.8.4-1.7.6-2.6l.1-.7.1-.6.2-1.3c.3-1.7.8-3.3 1.3-5a24.13 24.13 0 0 1 .8-2.5v-.1h-.1l1.2.4 2.6.8 10.4 3.3 36.7 11.5 32 10 16.8 5.2 19.8 6.3 40 13.6c1.5.5 3 1.1 4.4 1.6s2.7.9 4 1.4c.9.3 1.7.6 2.5.8l3.6 1.2c5.9 2 9.6 2.4 15 2.8z"/><path d="M572.9 280.8c-4.6-2.9-7.9-4.7-13.9-6.8l-93.5-30.9c-3.6-1.2-7.9-2.5-12.6-3.9-2.4-.7-4.9-1.3-7.4-1.9l-7.7-1.9c-5.2-1.3-10.5-2.7-15.7-4.2-2.6-.7-5.1-1.5-7.6-2.2l-7.1-2.1-9-2.7c-6.1-1.8-9.8-2.1-15.3-2.4 4.7 2.8 8 4.5 14.1 6.3l9 2.7 7.1 2.1 7.6 2.2a406.9 406.9 0 0 0 15.8 4.2c2.6.7 5.2 1.3 7.7 1.9s5 1.2 7.3 1.9l12.5 3.9 23.8 7.8 12.5 4.2 14.8 4.9 42.5 14c6 2.1 9.7 2.5 15.1 2.9zm7.5-44c-4.6-3-7.8-4.9-13.8-7l-40.7-14.2-26-8.9-22.8-7.4-12-3.8-7.1-2.1a97.69 97.69 0 0 1-7.2-2.1l-14.8-4.9-7.2-2.3c-1.2-.4-2.3-.7-3.5-1.1-.6-.2-1.1-.3-1.7-.5-.5-.2-1.1-.3-1.6-.5l-9.1-2.6c-6.2-1.7-9.8-2-15.3-2.2 4.8 2.8 8 4.4 14.2 6.2l9 2.6c.5.2 1 .3 1.6.5s1.1.3 1.7.5c1.1.4 2.3.7 3.5 1.1 2.3.8 4.7 1.5 7.2 2.3l14.8 4.9c2.5.8 5 1.5 7.4 2.2a138.88 138.88 0 0 1 6.9 2l12 3.8 22.8 7.4c6.9 2.2 16.2 5.5 26 8.9l40.7 14.2c5.8 2 9.5 2.5 15 3zm-3.9 8.8c-4.6-3-7.8-4.9-13.8-7L522 224.4l-26-8.9-22.8-7.4-12-3.8-7.1-2.1a97.69 97.69 0 0 1-7.2-2.1l-14.8-4.9-7.2-2.3c-1.2-.4-2.3-.7-3.5-1.1-.6-.2-1.1-.3-1.7-.5-.5-.2-1.1-.3-1.6-.5l-9.1-2.6c-6.2-1.7-9.8-2-15.3-2.2 4.8 2.8 8 4.4 14.2 6.2l9 2.6c.5.2 1 .3 1.6.5s1.1.3 1.7.5c1.1.4 2.3.7 3.5 1.1 2.3.8 4.7 1.5 7.2 2.3l14.8 4.9c2.5.8 5 1.5 7.4 2.2a138.88 138.88 0 0 1 6.9 2l12 3.8 22.8 7.4c6.9 2.2 16.2 5.5 26 8.9l40.7 14.2c5.9 1.9 9.5 2.5 15 3zm-8.6 46.7c-4.6-2.9-7.9-4.7-13.9-6.8l-93.5-30.9c-3.6-1.2-7.9-2.5-12.6-3.9-2.4-.7-4.9-1.3-7.4-1.9l-7.7-1.9c-5.2-1.3-10.5-2.7-15.7-4.2-2.6-.7-5.1-1.5-7.6-2.2l-7.1-2.1-9-2.7c-6.1-1.8-9.8-2.1-15.3-2.4 4.7 2.8 8 4.5 14.1 6.3l9 2.7 7.1 2.1 7.6 2.2a406.9 406.9 0 0 0 15.8 4.2c2.6.7 5.2 1.3 7.7 1.9s5 1.2 7.3 1.9l12.5 3.9 23.8 7.8 12.5 4.2 14.8 4.9 42.5 14c5.9 2 9.6 2.5 15.1 2.9zm-1.7 10.9c-4.6-2.9-7.9-4.7-13.9-6.8l-93.5-30.9c-3.6-1.2-7.9-2.5-12.6-3.9-2.4-.7-4.9-1.3-7.4-1.9l-7.7-1.9c-5.2-1.3-10.5-2.7-15.7-4.2-2.6-.7-5.1-1.5-7.6-2.2l-7.1-2.1-9-2.7c-6.1-1.8-9.8-2.1-15.3-2.4 4.7 2.8 8 4.5 14.1 6.3l9 2.7 7.1 2.1 7.6 2.2a406.9 406.9 0 0 0 15.8 4.2c2.6.7 5.2 1.3 7.7 1.9s5 1.2 7.3 1.9l12.5 3.9 23.8 7.8 12.5 4.2 14.8 4.9 42.5 14c6 2 9.7 2.5 15.1 2.9zm-27.6 85.3c-4.6-3-7.7-4.9-13.7-7.1l-78.2-28.1-11.4-4-12.1-4-14.5-4-15-4.4-7.2-2.3c-2.3-.8-4.6-1.5-6.8-2.2l-9-2.9c-6.1-1.9-9.7-2.4-15.2-2.7 4.7 2.9 7.9 4.7 13.9 6.7l8.9 2.9 14.1 4.5 15.1 4.5 14.4 4c4.4 1.3 8.5 2.8 11.9 4l11.4 4 78.2 28.1c6.1 1.9 9.8 2.4 15.2 3zm-3.7 12.9c-4.5-3.1-7.6-5.1-13.6-7.4l-55.2-20.9-12.2-4.3-11.6-4-11.6-3.9a370.27 370.27 0 0 0-12.3-4c-1.1-.3-2.3-.7-3.5-1-1.2-.4-2.3-.7-3.5-1.1l-7.3-2.5-15-5.3c-2.5-.8-5-1.7-7.3-2.5l-6.9-2.2-9-2.9c-6.1-1.9-9.7-2.4-15.2-2.7 4.7 2.9 7.9 4.7 13.9 6.7l8.9 2.9 6.8 2.2 7.3 2.5 15 5.3 7.4 2.6 3.6 1.2c1.2.4 2.4.7 3.5 1l12.2 3.9 11.6 3.9 11.6 4 12.1 4.2 14.2 5.4 41 15.5c6.1 2.1 9.7 2.7 15.1 3.4zm-4.3 13.8c-4.4-3.3-7.5-5.4-13.3-7.9l-11.9-5-28.4-11.8c-4.9-2-9.6-4-14.1-5.6l-12.1-4.2-23-7.8c-3.5-1.2-7.6-2.5-12.2-3.9-4.5-1.3-9.3-3-14.2-4.7l-14.9-5.3c-2.5-.8-4.9-1.7-7.3-2.5-2.3-.8-4.6-1.5-6.8-2.2l-9-2.9c-6.1-1.9-9.7-2.4-15.2-2.7 4.7 2.9 7.9 4.7 13.9 6.7l8.9 2.9 6.8 2.2 7.2 2.4 14.9 5.2c4.9 1.7 9.9 3.5 14.4 4.8s8.6 2.7 12.1 3.9l23 7.8 12 4.2c4.4 1.6 9.1 3.6 13.9 5.6l40.3 16.8c6 2.4 9.6 3.1 15 4z"/><use xlink:href="#U"/><use xlink:href="#U" x="111.2" y="34.6"/><use xlink:href="#V"/><use xlink:href="#V" x="33.9" y="10.3"/><path d="M401.5 263.8c-1.4.1-2.2.3-2.5.9s-1.3 3.9-1.3 3.9l-1.3 3.9c-.2.6.4 1.2 1.5 2.2 1.4-.1 2.2-.2 2.5-.8.3-.7 1.3-4 1.3-4l1.3-4c.1-.6-.4-1.2-1.5-2.1z"/><use xlink:href="#V" x="-13.6" y="9.1"/><use xlink:href="#V" x="44.9" y="26.8"/><use xlink:href="#W"/><use xlink:href="#X"/><use xlink:href="#X" x="52.7" y="16.3"/><path d="M402.4 329.4c-1.4.1-2.2.3-2.5.9s-1.3 3.9-1.3 3.9l-1.3 3.9c-.2.6.4 1.2 1.5 2.2 1.4-.1 2.2-.2 2.5-.8.3-.7 1.3-4 1.3-4l1.3-4c.2-.6-.4-1.2-1.5-2.1zm-16.5 32.3c-1.5.2-2.3.3-2.6 1.1l-3.8 10c-.3.8.2 1.5 1.3 2.6 1.5-.2 2.3-.4 2.6-1.1l3.8-10c.1-.8-.4-1.5-1.3-2.6z"/><use xlink:href="#Y"/><use xlink:href="#Y" x="37.5" y="13.1"/><use xlink:href="#Y" x="74.2" y="28.1"/><use xlink:href="#W" x="24.5" y="31.5"/><use xlink:href="#X" x="71.2" y="50.1"/><use xlink:href="#V" x="-11.6" y="88.2"/><path d="M358.2 315.7c-2.8 4.7-4.6 8-6.5 14l-1.9 6.2-.4 1.5-.2.8-3 9.6c-1.9 6.1-2.3 9.7-2.7 15.2 3-4.6 4.7-7.9 6.7-14 .4-1.4 1.8-5.7 3-9.6l.2-.8s.3-1 .5-1.5l1.9-6.2c1.7-6.1 2.1-9.7 2.4-15.2z"/></g><path d="M482 89c1.7-3.5 5.9-4.9 9.3-3l76.6 40.4c15.6 7.4 66 33.8 81.3 42.7l64.3 36.4c-11.7 23-58.2 102-77.5 137.2l-75.2 137.1-106.4-61-56.4-33c-18.2-11-46.1-24.4-50.2-27.3 20.5-36.7 75.3-148.1 89.2-174.8 12.1-23.3 34.4-72.5 45-94.7z" class="F"/><path d="M482 89c1.3-1.6 3.1-2.2 4.5-2.3 1.5 0 2.8.5 3.7 1.2 2.8 2.1 6 4.2 10.2 6.4 1.2.6 3 1.6 5.2 2.8l5.9 3.2 41.7 22.1c3.6 1.9 7.3 3.7 11 5.6 1.8.9 3.7 1.8 5.6 2.7l5.5 2.7 22.2 11.4 43.9 23.4 10.6 6 10.5 6 20.4 11.6 19.6 11 4.7 2.6 2.1 1.2c-.3.6-.6 1.2-.9 1.7l-2.4 4.5-33 58.2-29.9 52.3-25.5 46.3-21.3 39.3-30.1 54.7-6.5 11.5c.2.1-.6-.4-1-.5-.8-.5-1.2-.7-1.2-.7l-102.4-58.7-9.7-5.7-41.7-24.4c-14.5-8.8-30.3-16.9-46.2-25.2l-3-1.6-2.4-1.3.7-1.2 6.5-12.2 12.9-24.7 63.2-125.4 6.2-12.1c2.1-4 4-8.1 6-12.1l11.3-23.8 10.3-22.1 5.9-12.8c4-8.2 5.3-13.6 6.9-21.6-5.2 6.4-8.5 10.8-12.6 19.5l-16.3 34.8-11.3 23.7c-1.9 4-3.9 8-6 12l-6.2 12.1-12.4 24.7-50.8 100.6-12.8 24.7-6.5 12.1-1 1.8c-.5 1-1.1 2-1.6 3l-.8 1.5c-.1.1-.1.2.1.3l.4.2.7.5c.9.6 1.9 1.2 2.9 1.8l.7.4 1.4.7 4.5 2.4c16 8.3 31.6 16.3 45.9 25l41.8 24.4 9.7 5.7 9.5 5.4 17.9 10.3L562 484c.1.1.1 0 .1-.1l.1-.2.2-.3c.1-.2.2-.4.4-.6.2-.4.5-.9.7-1.3.5-.9 1.1-1.9 1.6-2.9.6-1 1.2-2.1 1.9-3.3 1.3-2.4 2.9-5.2 4.7-8.3l30.2-54.8 21.3-39.3 25.5-46.2 29.9-52.3 16.2-28.4 16.8-30c.8-1.5 1.6-3 2.5-4.5l1.5-2.9c.4-.8.8-1.6 1.2-2.3l.9-1.8.2-.3c0-.1.1-.1 0-.1l-.1-.1c-1.6-.8-3.2-1.6-4.7-2.5l-2.6-1.4-4.7-2.6-19.5-11-20.4-11.6-10.4-6-10.6-6.1c-14.4-8-29.2-15.8-44-23.5l-22.3-11.4c-1.9-.9-3.7-1.9-5.6-2.8l-5.5-2.7-10.9-5.5-41.7-22-5.9-3.2-5.3-2.8c-4.2-2.2-7.6-3.8-11.1-5a7.97 7.97 0 0 0-6.6.3c-2.1.9-3.6 2.7-4 4.8z" class="E"/><path d="M494.3 104.9l-3.1 8.5c30.2 15.2 60.9 31.8 92.1 49.7 1.4.8 3.3.2 4-1.3l3.8-8.5c-30.5-16.9-61.9-33.3-94.1-49.4-1.1-.5-2.3 0-2.7 1z" class="G"/><path d="M494.3 104.9l-2.6 4c-.4.6-.8 1.3-1.1 1.9l-.1.2-.1.1-.1.2c-.1.3-.3.6-.4.9l-.9 2 3.9 2.2 2.9 1.6 13.1 6.8 35 18.6 31.4 17.5 5.6 3.2c.4.2.8.5 1.2.7l.1.1.2.1c.2.1.3.2.5.2.3.1.7.2 1.1.3 1.4.2 2.8-.3 3.7-1 .5-.4.8-.8 1.1-1.3.1-.1.1-.2.2-.3l.1-.3c.1-.1.1-.3.2-.4l.5-1.2c.3-.7.5-1 .5-1s.1-.2.7-1.6l1.6-3.6 1-2.2.1-.2v-.1h-.1l-.3-.2-.6-.3c-.4-.2-.8-.5-1.3-.7l-3.5-1.9-43.5-23.4-15.7-8.2-12.7-6.5-7.3-3.7c-2.9-1.4-5.2-2.4-7.4-3.1-1.1-.4-2.3-.7-3.4-1-.3-.1-.6-.2-1-.2-.4-.1-.8 0-1.2.2-.8.2-1.3.9-1.4 1.6.4-.6 1-.8 1.5-.7.2 0 .5.1.6.2.2.2.4.3.6.5.9.8 1.9 1.5 2.9 2.2 2 1.4 4.1 2.7 6.9 4.1l7.3 3.7 12.7 6.5 15.7 8.2 43.4 23.3 2.5 1.4-1.1 2.5-.7 1.6-.5 1c-.1.3-.3.7-.5 1.2-.1.1-.1.2-.2.4 0 .1 0 .1-.1.1v.1c0 .1-.1.1-.2.2s-.3.2-.6.2h-.3l-.1-.1c-.4-.2-.8-.5-1.2-.7l-5.6-3.2-31.4-17.5-35-18.7-9.8-5-3.4-1.7-3-1.4c-.2-.1-.5-.2-.7-.3l-.2-.1h-.4s-.1-.1-.1-.2v-.2l.1-.3.4-2.2.5-5.1z" class="E"/><path d="M484.7 125l-8.4 21.9 153.2 80.9 11.9-21.8c-56.1-32-94.1-49.8-153-81.3-1.8-1-3.5-.9-3.7.3z" class="G"/><path d="M484.7 125c-4.3 6.1-6.9 10.4-10.1 18.4l-1.5 3.9c-.1.2-.2.4-.2.6l-.1.3.3.2c.4.2.8.4 1.3.7l2.7 1.5 16.1 8.6 61.6 33.1 56 29.7 10.2 5.2c1.5.8 3 1.5 4.3 2.1l1.5.6c.6.3 1.3.5 1.9.7.6.1 1.1.1 1.6 0 .1 0 .3-.1.4-.1l.3-.3c.2-.2.4-.3.6-.5s.4-.3.5-.5c.1-.3.2-.6.4-.8.3-.5.5-.9.8-1.3.3-.5.5-.9.7-1.3.4-.8.8-1.5 1.1-2.1l.9-1.7s.3-.6 2-3.6l3.6-6.7c.5-.9 1-1.9 1.6-2.9l1.5-2.7c.1-.2.3-.5.4-.7s.4-.5 0-.6c-.5-.3-.9-.5-1.4-.8-2.4-1.4-5.1-2.9-8.2-4.6l-26.7-14.8-48.7-25.7-55.6-28.8c-3.8-2-7-3.4-10-4.5l-4.6-1.5c-.7-.2-1.7-.5-2.7-.5-.5 0-1 .1-1.5.3-.7.1-1.1.6-1 1.1a1.1 1.1 0 0 1 1-.6c.4 0 .7.2 1.1.3.7.3 1.2.8 1.8 1.4 1.3 1.1 2.5 2.1 3.8 3 2.6 1.9 5.5 3.8 9.3 5.8 1.8 1 5.3 2.8 9.4 5l19.6 10.2 26.6 13.7 48.6 25.6 26.7 14.7a164.4 164.4 0 0 0 5 2.8h0c-.4.7-.7 1.3-1 1.9l-3.6 6.7-2 3.6-2.8 5.2c-.2-.1-.3-.1-.5-.2l-4.2-2-10.1-5.2-55.9-29.7-77.7-41.7c0-.1 0-.1.1-.2 3-8 3.9-12.9 4.8-20.3z" class="E"/><path d="M470.2 156.9l66.7 36.5c5.6 3.6 9.1 3.7 20.1 11.1 11.1 7.4 99.9 55.3 101.8 56.3-2.8 6.4-5 10.3-7.9 16-2.8 5.5-43.7 77.9-45.6 82s-37.3 67.4-38.9 71.1-15.1 25.8-15.6 27.1c-16.1-11.9-91.5-54.8-96.4-57.6l-84-47c3.2-6.6 5.7-13.4 10.6-20.4s28.2-50.7 33.1-62.5c5-11.8 16.8-33.2 19.6-38.9 4.1-8.3 9.7-19.5 12.6-24.6s8.3-18.3 9.9-20.7 14-28.4 14-28.4z" class="H"/><path d="M470.2 156.9c4.1 3.7 6.9 6 12.5 9.1l37 20.1c2.8 1.6 5.7 3.1 8.6 4.7l4.3 2.4c.7.4 1.5.8 2.1 1.2l1 .6 1.1.7c3.1 1.8 6.3 3.1 9.2 4.6 3 1.5 5.9 3.2 8.7 5.1l4.5 2.8 4.6 2.7c3.1 1.7 6.1 3.5 9.2 5.3l18.8 10.5 38.5 21.1 24.2 13.1 1.2.7.3.1c-1.4 3.2-3.1 6.5-4.8 9.7-.8 1.6-1.7 3.2-2.5 4.8-.8 1.5-1.7 3.1-2.6 4.7l-5.2 9.4-30.4 54.3-4.7 8.6c-.8 1.4-1.5 2.8-2.3 4.3-.4.7-.7 1.4-1.1 2-.4.7-.7 1.4-1.1 2.1l-8.8 16.1-16.1 29.2-7.1 12.9-3.2 6c-.5 1-1 1.9-1.6 3-.2.4-.4.9-.7 1.3-.2.4-.5.9-.7 1.3-4 7.1-7.7 13.3-10.7 18.3-.8 1.3-1.5 2.5-2.1 3.6-.1.2-.3.4-.4.7h0c-.4-.3-.9-.6-1.3-.9-.8-.6-1.5-1-2.2-1.5-1.3-.9-2.3-1.5-3-2-.7-.4-1-.7-1-.7s-.1 0-6.3-3.9l-16.7-10.1-42.4-24.8-13.8-7.9-7.3-4.2-7.6-4.2-32.5-17.9-35.1-19.6c-1.5-.9-3-1.7-4.5-2.6l-3.5-2.1s0 .1 0-.1l1.1-2.4c.7-1.6 1.4-3.2 2.2-4.8 1.5-3.2 3-6.2 4.9-9.1.5-.7.9-1.4 1.4-2.1.5-.8 1.1-1.6 1.5-2.3.9-1.5 1.9-3.1 2.7-4.7 7.1-12.5 13.8-25.2 20.4-38.1l4.9-9.7c.8-1.6 1.6-3.3 2.3-4.9.8-1.6 1.5-3.4 2.2-4.9 2.9-6.4 6.1-12.8 9.4-19.1l9.8-18.7 9.3-18.4 3-5.5.6-1.2c.4-.8.8-1.5 1.2-2.3 1.5-3.1 2.8-6.1 4.2-9.1l2-4.4c.3-.7.7-1.4 1-2.1a4.67 4.67 0 0 0 .5-1l.6-1c.9-1.5 1.6-2.9 2.3-4.4.3-.5.5-1.1.8-1.6l4.1-8.3c3.1-5.5 4-9.1 5.1-14.5-3.5 4.2-5.7 7.2-8.5 12.9-.7 1.5-2.2 4.5-4.1 8.2-.3.5-.5 1.1-.8 1.6-.7 1.4-1.5 2.9-2.2 4.1l-.2.4-.4.6-.6 1.2c-.4.8-.7 1.5-1.1 2.3l-2.1 4.5-4.1 9c-.4.7-.7 1.5-1.1 2.2l-.6 1-.6 1.1-2.4 4.5c-3.2 6-6.2 12.2-9.3 18.5l-9.7 18.6c-3.3 6.3-6.5 12.7-9.5 19.3-.7 1.7-1.4 3.3-2.2 4.9s-1.5 3.2-2.3 4.8l-4.8 9.6c-6.6 12.8-13.3 25.5-20.4 37.9l-2.7 4.6c-.4.8-.9 1.4-1.4 2.1-.5.8-1 1.5-1.5 2.3-2 3.1-3.6 6.3-5.1 9.6-.7 1.6-1.5 3.2-2.2 4.8l-1.1 2.4-1.1 2.3-.3.6-.1.3c-.1.1 0 .2.1.2l2.2 1.4c.3.2.8.6.9.6l1.1.7 2.3 1.4c1.5.9 3 1.7 4.5 2.6l35.1 19.6 32.5 17.9 7.6 4.2 7.3 4.2 13.8 7.9 42.3 24.8 16.6 10.1 6.2 3.9s.3.2 1 .7c.7.4 1.7 1.1 3 1.9.6.4 1.4.9 2.2 1.4 1.2.8 2.5 1.7 3.9 2.7.2.2.5.3.7.5l.4.3c.1-.1.1-.2.2-.3.3-.5.6-1 .9-1.6.3-.5.6-1.1.9-1.6.2-.3.4-.7.6-1a57.42 57.42 0 0 0 2.1-3.6l10.8-18.4c.3-.5.5-.9.8-1.4.2-.5.5-1.1.7-1.5l1.4-2.8 3.2-5.9 7.1-12.9 16.1-29.2 8.8-16.1c.4-.7.7-1.4 1.1-2.1a22.56 22.56 0 0 0 1.1-2.2c.6-1.3 1.5-2.7 2.2-4.1l4.7-8.5 30.4-54.3 5.3-9.5c.9-1.6 1.7-3.2 2.6-4.8.8-1.6 1.7-3.2 2.5-4.8 1.7-3.3 3.3-6.5 4.9-10l1.1-2.5.3-.6.1-.3-.3-.2-1.2-.7-3.4-1.8-24.2-13.1-38.5-21.1-18.8-10.5-9.2-5.2c-1.5-.9-3-1.8-4.5-2.6-1.5-.9-2.8-1.7-4.3-2.7-2.9-1.9-6-3.8-9.1-5.3-3.1-1.6-6.3-2.9-9-4.5l-2.1-1.3c-.8-.5-1.5-.8-2.2-1.3-1.5-.8-2.9-1.6-4.3-2.4l-8.6-4.7-33.7-18.3c-1.4-.8-2.6-1.4-3.3-1.8-5.6-3.2-9.1-4.3-14.4-5.7z" class="E"/><path d="M414 303.2L390.1 348l164.6 98.1c8.5-14 17.7-31 27.3-49.2l-168-93.7zm-1.2-26.6l-7.4 12.3c63 29.5 123 62.3 182 98.3 1.4-2.4 3.1-5.6 6.1-11.3-59.1-36.1-119.4-69.2-180.7-99.3zm17-34.1l-6.4 10.9c63 29.5 124.5 63.6 183.5 99.6 1.4-2.4 2.3-4.8 5.3-10.5-59.2-36.1-121.1-69.9-182.4-100zm32.9-39.2l-22.6 43.4c63 29.5 113.1 59.5 172.1 95.5 1.4-2.4 21.3-37.8 24.4-43.6-59.2-36-112.6-65.2-173.9-95.3z" class="F"/><g class="E"><path d="M456.5 185c4 3.7 6.9 6.1 12.5 9.1L630.7 282c5.6 3 9.1 4.1 14.5 5.5-4-3.7-6.9-6.1-12.5-9.1L471 190.5c-5.7-3.1-9.2-4.2-14.5-5.5zm-28.4 57.3c4.3 3.5 7.2 5.6 13 8.4l12.3 5.9 30.8 15.4 27.6 14.5 8.7 4.7c2.1 1.1 3.2 1.8 3.2 1.8s18.7 10.2 39 22.1c5.1 2.9 10.2 6 15.2 9l14.2 8.6 8 4.9c5.4 3.3 8.9 4.6 14.1 6.3-3.8-3.9-6.5-6.5-11.9-9.8l-8-4.9-14.2-8.6-15.3-9c-20.3-11.9-39.1-22.1-39.1-22.1s-1.2-.6-3.2-1.8l-8.7-4.7-27.7-14.6-30.8-15.4-12.3-5.9c-6-2.8-9.6-3.7-14.9-4.8zm-7.2 9.3c4.3 3.5 7.2 5.6 13 8.4l12.3 5.9 30.8 15.4 27.6 14.5 8.7 4.7c2.1 1.1 3.2 1.8 3.2 1.8s18.7 10.2 39 22.1c5.1 2.9 10.2 6 15.2 9l14.2 8.6 8 4.9c5.4 3.3 8.9 4.6 14.1 6.3-3.8-3.9-6.5-6.5-11.9-9.8l-8-4.9-14.2-8.6-15.3-9c-20.3-11.9-39.1-22.1-39.1-22.1s-1.2-.6-3.2-1.8l-8.7-4.7-27.7-14.6-30.8-15.4-12.3-5.9c-5.9-2.8-9.5-3.7-14.9-4.8zm-9.2 25.4c4.3 3.5 7.2 5.6 13 8.4l12.2 5.9 30.2 15.1 27.1 14.3 8.6 4.6 3.2 1.8s18.4 10.1 38.3 21.8l15 8.9 14 8.4 8 4.9c5.4 3.3 8.9 4.6 14.1 6.3-3.8-3.9-6.5-6.5-11.9-9.8l-8-4.9-14-8.4-15-8.9c-19.9-11.7-38.4-21.8-38.4-21.8l-3.2-1.8-8.6-4.7-27.2-14.4-30.3-15.2-12.2-5.9c-5.9-2.7-9.5-3.6-14.9-4.6z"/><path d="M404.9 288.5c4.3 3.5 7.2 5.6 13 8.4l12.2 5.9 30.5 15.2 27.4 14.3 8.6 4.7c2.1 1.1 3.2 1.8 3.2 1.8l38.6 21.8 15.1 8.9 14.1 8.5 8 4.9c5.4 3.3 8.9 4.6 14.1 6.3-3.8-3.9-6.5-6.5-11.9-9.8l-8-4.9-14.1-8.5-15.1-8.9-38.7-21.9s-1.2-.6-3.2-1.8c-2.1-1.1-5-2.7-8.6-4.7l-27.4-14.4-30.6-15.2-12.3-5.9c-5.9-2.8-9.5-3.7-14.9-4.7zm-3.4 8.6c4.1 3.7 7 6 12.6 9l41.8 22 27 14.3 11.7 6.3 38.3 21.3c5 2.8 10.1 5.8 15 8.7l13.9 8.3 8 4.8c5.5 3.3 8.9 4.6 14.1 6.3-3.8-3.9-6.5-6.4-12-9.8l-8.1-4.9-14.1-8.3-15-8.7-38.1-21.4-11.7-6.3-27-14.4-41.8-21.9c-5.7-2.9-9.3-4-14.6-5.3zm-24.8 43.8c4.1 3.6 7 5.9 12.6 8.9l11.9 6.4 29.4 16.4c5 2.8 9.8 5.7 14.3 8.3l12 7.2 11.4 6.9 11.4 7 25.9 16.2 36.4 22.9c5.4 3.4 8.9 4.7 14.1 6.4-3.8-4-6.5-6.5-11.9-9.9l-36.4-22.9-26-16.2-11.4-7-11.4-6.9-12.1-7.2-14.3-8.3c-10-5.8-20.5-11.6-29.5-16.5l-12-6.4c-5.5-3-9.1-4-14.4-5.3zm260.9-40.5c-4-3.7-6.8-6.1-12.3-9.3l-3.3-1.9c-.7-.4-1.5-.8-2.3-1.3l-3.7-2.1-4-2.4c-10.9-6.7-24.1-14.1-36.7-21.1l-18.2-10-15.5-8.3-14.7-7.9-57.9-31.5c-2.1-1.1-4.1-2.2-6.2-3.4l-.6-.3-.3-.2c-.1 0-.1.2-.2.3l-.7 1-1.3 2.2c-.5.8-.9 1.6-1.3 2.4-.9 1.6-1.7 3.3-2.3 5l-.5 1.3-.2.6-.2.5c-.3.7-.7 1.5-1.1 2.3-.7 1.5-1.5 3-2.2 4.5-.7 1.4-1.5 2.8-2.2 4.2l-2.7 4.9-1.9 3.3c-3.1 5.7-4.1 9.2-5.3 14.6 3.6-4.2 5.8-7.1 8.9-12.6l1.9-3.3c.8-1.4 1.7-3.1 2.7-5 .7-1.4 1.5-2.8 2.2-4.2.8-1.5 1.5-3 2.3-4.6.4-.8.8-1.6 1.1-2.4l.3-.7.2-.6.5-1.2c.6-1.6 1.4-3.1 2.2-4.7.4-.8.8-1.6 1.3-2.3l.1-.1 1.1.6 12 6.5 33.7 18.4 44.9 24.1 18.2 10 36.6 21.1 4.1 2.4a122.21 122.21 0 0 1 3.7 2.1c.8.5 1.6.9 2.3 1.3l3.3 1.9c5.4 3.3 8.9 4.4 14.2 5.9z"/><path d="M631.6 310.7c-4-3.8-6.8-6.2-12.3-9.3l-85.8-48.2-11.6-6.3c-2.2-1.2-4.5-2.2-6.9-3.3l-7.2-3.4-14.6-7.1-7-3.6-6.5-3.4-8.3-4.3c-5.7-2.9-9.2-4-14.5-5.3 4.1 3.6 7 6 12.6 8.9l8.3 4.4 6.5 3.4 7.1 3.6 14.7 7.2 14 6.6c4.3 2.2 8.2 4.4 11.5 6.2l21.8 12.2 11.4 6.5 13.6 7.6 39 21.9c5.4 3.1 8.9 4.3 14.2 5.7zm15.7-41.7c-3.9-3.8-6.7-6.3-12.2-9.5l-37.3-21.8-23.8-13.8-10.5-5.9-10.5-5.8-11.1-6.1c-2.1-1.1-4.2-2.3-6.5-3.4-2.2-1.1-4.4-2.2-6.7-3.5l-13.6-7.7c-2.3-1.2-4.5-2.5-6.7-3.7l-3.2-1.7a11.94 11.94 0 0 0-1.6-.8c-.5-.3-1-.5-1.5-.8l-8.4-4.3c-5.7-2.9-9.3-3.9-14.6-5.1 4.2 3.6 7 5.9 12.7 8.8l8.3 4.3c.5.2 1 .5 1.5.8s1 .6 1.6.8c1 .6 2.1 1.1 3.2 1.7l6.6 3.6 13.6 7.7a113.89 113.89 0 0 0 6.9 3.6l6.4 3.3 11.1 6 10.5 5.8 10.5 5.9c6.4 3.5 14.9 8.6 23.8 13.8L633 263c5.6 3.2 9.1 4.4 14.3 6zm-5.5 7.8c-3.9-3.8-6.7-6.3-12.2-9.5l-37.3-21.8-23.8-13.8-10.5-5.9-10.5-5.8-11.1-6.1c-2.1-1.1-4.2-2.3-6.5-3.4-2.2-1.1-4.4-2.2-6.7-3.5l-13.6-7.7c-2.3-1.2-4.5-2.5-6.7-3.7l-3.2-1.7a11.94 11.94 0 0 0-1.6-.8c-.5-.3-1-.5-1.5-.8l-8.4-4.3c-5.7-2.9-9.3-3.9-14.6-5.1 4.2 3.6 7 5.9 12.7 8.8l8.3 4.3c.5.2 1 .5 1.5.8s1 .6 1.6.8c1 .6 2.1 1.1 3.2 1.7l6.6 3.6 13.6 7.7a113.89 113.89 0 0 0 6.9 3.6l6.4 3.3 11.1 6 10.5 5.8 10.5 5.9c6.4 3.5 14.9 8.6 23.8 13.8l37.2 21.8c5.6 3.3 9.1 4.5 14.3 6z"/><use xlink:href="#Z"/><use xlink:href="#Z" x="-3.7" y="10.4"/><path d="M577.2 409.8c-3.9-3.9-6.6-6.3-12.1-9.6l-71.4-42.6-10.4-6.1-11.1-6.3-13.4-6.7-13.9-7.2-6.7-3.6c-2.1-1.2-4.2-2.3-6.2-3.4l-8.2-4.5c-5.6-3.1-9.1-4.2-14.4-5.6 4 3.7 6.8 6.1 12.4 9.2 1.5.8 4.5 2.5 8.2 4.6l12.9 7.1c4.6 2.5 9.3 4.9 14 7.3l13.4 6.7c4.1 2.1 7.8 4.4 11 6.2l10.4 6.1 71.4 42.6c5.4 2.9 8.8 4.2 14.1 5.8zm-6.1 11.9c-3.8-3.9-6.5-6.4-11.9-9.8L509 380.8l-11.1-6.5-21.2-12.2-11.3-6.3c-1-.6-2.1-1.1-3.2-1.7l-3.2-1.8c-2.2-1.2-4.4-2.6-6.7-3.9l-13.7-8.1-6.7-3.8-6.3-3.5-8.2-4.5c-5.6-3.1-9.1-4.2-14.4-5.6 4 3.7 6.8 6.1 12.4 9.2 1.5.8 4.5 2.5 8.2 4.6l6.3 3.5c2.2 1.2 4.4 2.5 6.7 3.8l13.7 8.1c2.3 1.3 4.5 2.7 6.8 3.9 1.1.6 2.2 1.3 3.3 1.8 1.1.6 2.2 1.1 3.2 1.7l11.2 6.2 10.6 6 10.6 6.1 11.1 6.5 50.2 31.1c5.1 3.4 8.6 4.6 13.8 6.3zm-6.9 12.7c-3.7-4.1-6.3-6.7-11.6-10.3-2-1.3-5.9-4-10.7-7.2l-25.6-17.1c-4.4-2.9-8.6-5.8-12.8-8.2l-11.1-6.5-10.5-6.1-10.6-6-11.2-6.2c-4.2-2.1-8.5-4.7-13.1-7.4l-13.6-8-6.7-3.8-6.3-3.5-8.2-4.5c-5.6-3.1-9.1-4.2-14.4-5.6 4 3.7 6.8 6.1 12.4 9.2 1.5.8 4.5 2.5 8.2 4.6l6.3 3.5c2.2 1.2 4.4 2.5 6.6 3.8l13.6 8c4.5 2.7 9 5.3 13.3 7.5l11.1 6.1 10.6 6 10.5 6.1 11 6.4c4 2.4 8.2 5.3 12.6 8.1l36.3 24.2c5.3 3.6 8.7 5 13.9 6.9zM495 236.6c-1.7.4-2.6.8-3.3 1.9l-2.2 4.3-1.7 3.3-1.8 3.2-2.4 4c-.7 1.1-.5 2-.2 3.7 1.7.1 2.9-.3 3.6-1.4.5-.6 1.6-2.5 2.6-4.2l3.6-6.6 2.2-4.3c.7-1.4.4-2.4-.4-3.9zm102.5 55.3c-1.7.4-2.6.8-3.3 1.9l-2.2 4.3-1.7 3.3-1.8 3.2-2.4 4c-.7 1.1-.5 2-.2 3.7 1.7.1 2.9-.3 3.6-1.4.5-.6 1.6-2.5 2.6-4.2l3.6-6.6 2.2-4.3c.6-1.3.3-2.3-.4-3.9zm-75.9-15.7c-1.4-.1-2.3-.2-2.6.4-.4.6-2.1 3.6-2.1 3.6l-2 3.6c-.3.6.2 1.2 1 2.4 1.4.2 2.2.3 2.6-.3s2.1-3.7 2.1-3.7l2.1-3.7c.2-.6-.2-1.3-1.1-2.3z"/><use xlink:href="#a"/><use xlink:href="#b"/><use xlink:href="#c"/><use xlink:href="#b" x="93.9" y="50"/><use xlink:href="#d"/><path d="M491.7 318.5c-1.4-.1-2.3-.2-2.6.4-.4.6-2.1 3.6-2.1 3.6l-2 3.6c-.3.6.2 1.2 1 2.4 1.4.2 2.2.3 2.6-.3s2.1-3.7 2.1-3.7l2.1-3.7c.2-.5-.2-1.2-1.1-2.3z"/><use xlink:href="#a" x="-12.6" y="51.9"/><use xlink:href="#d" x="5.1" y="28.5"/><path d="M432.4 354.1c-1.5-.1-2.3-.1-2.8.6s-2.8 4.6-2.8 4.6l-2.8 4.6c-.4.7 0 1.5.7 2.8 1.5.1 2.4.1 2.8-.6.5-.7 2.8-4.5 2.8-4.5l2.8-4.5c.5-.9.1-1.7-.7-3z"/><use xlink:href="#e"/><use xlink:href="#e" x="34.3" y="20.1"/><use xlink:href="#e" x="67.4" y="41.9"/><use xlink:href="#a" x="-85" y="39.9"/><use xlink:href="#a" x="-0.9" y="88.6"/><use xlink:href="#c" x="-13.3" y="78"/><path d="M414.1 303.7c-3.7 4.1-6 6.9-9 12.5-.5 1-1.3 2.5-3.1 5.7-.2.4-.7 1.3-.7 1.3s-.2.3-.4.7l-4.8 8.9c-3 5.6-4.1 9.1-5.6 14.4 3.8-4 6.2-6.8 9.2-12.4l4.8-8.9c.2-.4.4-.7.4-.7l.7-1.3 3.1-5.7c3-5.7 4.1-9.2 5.4-14.5z"/></g><defs ><path id="B" d="M359.3 267.8c-5.4.7-9.1 1.4-15 3.6l-91.8 35.8-12.2 5c-2.3 1-4.6 2.1-6.9 3.2l-7.2 3.4-14.8 6.8c-2.4 1.1-4.9 2.1-7.2 3.1l-6.8 2.9-8.6 3.7c-5.9 2.5-8.9 4.6-13.3 7.9 5.4-.9 9-1.6 14.9-4.1l8.6-3.7c2.2-.9 4.4-1.9 6.8-2.9l7.3-3.1 14.9-6.8c2.4-1.2 4.9-2.3 7.2-3.4l6.8-3.2c4.4-1.9 8.6-3.6 12.1-5l11.6-4.6 11.7-4.5c3.5-1.4 7.7-3 12.3-4.7l14.5-5.7 41.7-16.3c5.8-2.2 8.9-4.2 13.4-7.4z"/><path id="C" d="M215.3 326.3c-.7 1.6-1.1 2.5-.6 3.7l1.9 4.4 1.4 3.4 1.3 3.5 1.5 4.4c.4 1.2 1.2 1.6 2.7 2.5 1.1-1.3 1.6-2.4 1.2-3.7-.2-.7-.9-2.8-1.6-4.7l-2.8-7-2-4.5c-.3-1.1-1.3-1.5-3-2z"/><path id="D" d="M262.8 330.9c-1 1-1.6 1.6-1.4 2.3s1.5 3.9 1.5 3.9l1.5 3.9c.3.6 1.1.7 2.5.7 1.1-1 1.6-1.5 1.4-2.2s-1.5-4-1.5-4l-1.5-4c-.3-.5-1.1-.6-2.5-.6z"/><path id="E" d="M314.5 323.1c-1 1-1.6 1.6-1.4 2.3s1.5 3.9 1.5 3.9l1.5 3.9c.3.6 1.1.7 2.5.7 1.1-1 1.6-1.5 1.4-2.2s-1.5-4-1.5-4l-1.5-4c-.3-.6-1.1-.7-2.5-.6z"/><path id="F" d="M233.5 399.7c-1 1-1.6 1.6-1.4 2.3s1.5 3.9 1.5 3.9l1.5 3.9c.3.6 1.1.7 2.5.7 1.1-1 1.6-1.5 1.4-2.2s-1.5-4-1.5-4l-1.5-4c-.3-.6-1.1-.6-2.5-.6z"/><path id="G" d="M400.3 270.1c-5.5-.2-9.2-.1-15.4 1.2l-84.1 17.9-12.2 2.7c-3.7.8-8.1 1.8-12.9 3-2.5.6-4.9 1.4-7.4 2.1l-7.6 2.2-15.7 4.3c-2.6.7-5.1 1.3-7.6 1.9l-7.2 1.8-9.1 2.3c-6.2 1.6-9.5 3.1-14.4 5.7 5.5 0 9.2-.2 15.4-1.6l9.1-2.2 7.2-1.8 7.7-1.9 15.8-4.3c2.6-.8 5.2-1.5 7.7-2.2s4.9-1.5 7.2-2c4.7-1.2 9.1-2.1 12.8-3l12.2-2.7 12.2-2.6 12.9-2.7 15.2-3.3 43.8-9.4c6-1.5 9.4-3 14.4-5.4z"/><path id="H" d="M293.5 304.4c-1.2.8-1.8 1.4-1.7 2 .1.7.8 4.1.8 4.1l.8 4.1c.2.6.9.8 2.4 1.1 1.2-.8 1.8-1.3 1.7-1.9-.1-.7-.9-4.2-.9-4.2l-.9-4.2c-.1-.6-.8-.7-2.2-1z"/><path id="I" d="M327.9 296.3c-1.2.8-1.8 1.4-1.7 2 .1.7.8 4.1.8 4.1l.8 4.1c.2.6.9.8 2.4 1.1 1.2-.8 1.8-1.3 1.7-1.9-.1-.7-.9-4.2-.9-4.2l-.9-4.2c0-.6-.8-.8-2.2-1z"/><path id="J" d="M352.5 407c-1.2.9-1.8 1.4-1.7 2.3s.9 5.3.9 5.3l.9 5.3c.2.8 1 1.1 2.4 1.6 1.2-.9 1.8-1.5 1.7-2.3-.1-.9-.9-5.3-.9-5.3l-.9-5.3c-.2-.8-1-1.1-2.4-1.6z"/><path id="K" d="M450.4 258.4c-5.4-1.2-9-1.9-15.4-1.8l-86 1.4-12.5.3-13.2.4c-2.5.1-5 .4-7.6.6l-7.9.7a457.99 457.99 0 0 1-16.2 1.2c-2.7.2-5.3.3-7.9.4l-16.8.9c-6.4.3-10 1.2-15.2 2.8 5.4 1.1 9 1.6 15.4 1.3 1.7-.1 5.2-.2 9.4-.4l7.4-.3 7.9-.4c5.4-.3 10.9-.8 16.3-1.2l7.9-.7c2.6-.2 5.1-.5 7.5-.6l13.1-.5 12.5-.3 12.5-.2c3.8 0 8.3-.1 13.1-.2l15.6-.3 44.7-.8c6.5-.1 10.1-.8 15.4-2.3z"/><path id="L" d="M373.4 282.7c-1.3.6-2 1-2.1 1.6v8.2c0 .6.8 1 2.1 1.6 1.3-.5 2-.9 2.1-1.5l-.2-8.4c.1-.7-.6-1-1.9-1.5z"/><path id="M" d="M282.9 298.9c-1.3.6-2 1-2.1 1.6v8.2c0 .6.8 1 2.1 1.6 1.3-.5 2-.9 2.1-1.5l-.2-8.4c.2-.7-.5-1.1-1.9-1.5z"/><path id="N" d="M328.2 297.2c-1.3.6-2 1-2.1 1.6v8.2c0 .6.8 1 2.1 1.6 1.3-.5 2-.9 2.1-1.5l-.2-8.4c.1-.7-.6-1.1-1.9-1.5z"/><path id="O" d="M388.7 333.8c-1.3.6-2 1-2.1 1.6v8.2c0 .6.8 1 2.1 1.6 1.3-.5 2-.9 2.1-1.5l-.2-8.4c.2-.7-.6-1-1.9-1.5z"/><path id="P" d="M300.4 396.3c-1.3.6-2.1 1.1-2.1 1.9-.1.9-.1 5.4-.1 5.4l-.1 5.4c0 .8.7 1.3 2 2 1.3-.7 2.1-1.1 2.1-1.9.1-.9.1-5.3.1-5.3l.1-5.3c0-.9-.7-1.4-2-2.2z"/><path id="Q" d="M336.4 396.1c-1.3.6-2.1 1.1-2.1 1.9-.1.9-.1 5.4-.1 5.4l-.1 5.4c0 .8.7 1.3 2 2 1.3-.7 2.1-1.1 2.1-1.9.1-.9.1-5.3.1-5.3l.1-5.3c0-1-.7-1.5-2-2.2z"/><path id="R" d="M347.6 277c-1.4.4-2.2.6-2.3 1.3l-1.4 8.2c-.1.6.6 1.1 1.8 1.9 1.4-.3 2.2-.5 2.3-1.2l1.4-8.4c.1-.6-.6-1.1-1.8-1.8z"/><path id="S" d="M392.4 283.2c-1.4.4-2.2.6-2.3 1.3l-1.4 8.2c-.1.6.6 1.1 1.8 1.9 1.4-.3 2.2-.5 2.3-1.2l1.4-8.4c.1-.6-.5-1.1-1.8-1.8z"/><path id="T" d="M391.1 322.2c-1.4.4-2.2.6-2.3 1.3l-1.4 8.2c-.1.6.6 1.1 1.8 1.9 1.4-.3 2.2-.5 2.3-1.2l1.4-8.4c.1-.7-.6-1.1-1.8-1.8z"/><path id="U" d="M424.7 234.3c-1.6.7-2.5 1.3-2.8 2.5l-1.3 4.6-1.1 3.6-1.2 3.5-1.6 4.4c-.5 1.2-.1 2 .5 3.7 1.7-.3 2.8-.8 3.3-2l1.8-4.7 1.2-3.6 1.1-3.6 1.3-4.7c.3-1.4-.2-2.3-1.2-3.7z"/><path id="V" d="M458.3 268.1c-1.4.1-2.2.3-2.5.9s-1.3 3.9-1.3 3.9l-1.3 3.9c-.2.6.4 1.2 1.5 2.2 1.4-.1 2.2-.2 2.5-.8.3-.7 1.3-4 1.3-4l1.3-4c.2-.7-.4-1.3-1.5-2.1z"/><path id="W" d="M392 302.4c-1.4.1-2.2.3-2.5.9s-1.3 3.9-1.3 3.9l-1.3 3.9c-.2.6.4 1.2 1.5 2.2 1.4-.1 2.2-.2 2.5-.8.3-.7 1.3-4 1.3-4l1.3-4c.1-.7-.4-1.2-1.5-2.1z"/><path id="X" d="M437.1 315.4c-1.4.1-2.2.3-2.5.9s-1.3 3.9-1.3 3.9l-1.3 3.9c-.2.6.4 1.2 1.5 2.2 1.4-.1 2.2-.2 2.5-.8.3-.7 1.3-4 1.3-4l1.3-4c.2-.7-.4-1.2-1.5-2.1z"/><path id="Y" d="M420 373.3c-1.5.2-2.3.3-2.6 1.1l-3.8 10c-.3.8.2 1.5 1.3 2.6 1.5-.2 2.3-.4 2.6-1.1l3.8-10c.2-.8-.3-1.5-1.3-2.6z"/><path id="Z" d="M624.4 321c-4-3.8-6.8-6.2-12.3-9.3l-85.8-48.2-11.6-6.3c-2.2-1.2-4.5-2.2-6.9-3.3l-7.2-3.4-14.6-7.1-7-3.6-6.5-3.4-8.3-4.3c-5.7-2.9-9.2-4-14.5-5.3 4.1 3.6 7 6 12.6 8.9l8.3 4.4 6.5 3.4 7.1 3.6 14.7 7.2 14 6.6c4.3 2.2 8.2 4.4 11.5 6.2l21.8 12.2 11.4 6.5 13.6 7.6 39 21.9c5.4 3.1 8.9 4.2 14.2 5.7z"/><path id="a" d="M552.8 292.8c-1.4-.1-2.3-.2-2.6.4-.4.6-2.1 3.6-2.1 3.6l-2 3.6c-.3.6.2 1.2 1 2.4 1.4.2 2.2.3 2.6-.3s2.1-3.7 2.1-3.7l2.1-3.7c.3-.6-.2-1.2-1.1-2.3z"/><path id="b" d="M466.5 261.1c-1.4-.1-2.3-.2-2.6.4-.4.6-2.1 3.6-2.1 3.6l-2 3.6c-.3.6.2 1.2 1 2.4 1.4.2 2.2.3 2.6-.3s2.1-3.7 2.1-3.7l2.1-3.7c.3-.6-.1-1.2-1.1-2.3z"/><path id="c" d="M506.5 282.5c-1.4-.1-2.3-.2-2.6.4-.4.6-2.1 3.6-2.1 3.6l-2 3.6c-.3.6.2 1.2 1 2.4 1.4.2 2.2.3 2.6-.3s2.1-3.7 2.1-3.7l2.1-3.7c.2-.6-.2-1.2-1.1-2.3z"/><path id="d" d="M449.8 297.1c-1.4-.1-2.3-.2-2.6.4-.4.6-2.1 3.6-2.1 3.6l-2 3.6c-.3.6.2 1.2 1 2.4 1.4.2 2.2.3 2.6-.3s2.1-3.7 2.1-3.7l2.1-3.7c.3-.5-.2-1.2-1.1-2.3z"/><path id="e" d="M463.7 372c-1.5-.1-2.3-.1-2.8.6s-2.8 4.6-2.8 4.6l-2.8 4.6c-.4.7 0 1.5.7 2.8 1.5.1 2.4.1 2.8-.6.5-.7 2.8-4.5 2.8-4.5l2.8-4.5c.4-.9.1-1.7-.7-3z"/></defs></svg>