<svg xmlns="http://www.w3.org/2000/svg" viewBox="0 0 800 600"  xmlns:v="https://vecta.io/nano"><path d="M348.3 391.8l-29.8 65.4-42.3 36.2c-2.2 1.9-3.7 4.4-4.1 7.1l-1.2 7.7s-2.5 6.4 26.7 6.4l194.3.5c17.8-1.1 62.2 2.1 51.4-10.7-2-2.4-2.8-4.9-6.1-8.3-14.3-14.9-39-36.8-39-36.8l-39.4-68.2-110.5.7z" fill="#fff"/><path d="M348.3 391.8c-5.7 7.2-9.3 12.2-13.8 21.9l-10.4 22.7-7.4 16.3c-.3.7-.7 1.5-1 2.2h0l-.1.1-.3.2-1.2 1-39.9 34.2c-.9.7-1.8 1.7-2.6 2.7s-1.4 2.2-1.9 3.4c-.2.6-.5 1.2-.6 1.9-.2.6-.3 1.4-.4 1.8l-.9 5.8-.1.7c-.1.5-.2 1-.2 1.4 0 .9.2 1.9.7 2.7.2.4.5.8.8 1.2s.7.7 1 1c.4.3.7.5 1 .7s.6.4.9.5l1.5.7 1.4.5c1 .3 1.9.5 2.8.8.9.2 1.8.3 2.7.5s1.8.2 2.7.4c1.8.2 3.5.3 5.3.5 1.7.1 3.5.2 5.2.2 3.5.1 6.8.1 10.1.1l9.9.1 37.9.3 64.5.4 43.7.1 16.1-.1s2.1 0 5.9-.1l7-.1c.7 0 1.4-.1 2.2-.1s1.5-.1 2.3-.1c1.5-.1 3.1-.1 4.9-.2 6.9-.1 15.4 0 25.2-.4 2.4-.1 5-.3 7.6-.5 2.6-.3 5.3-.6 8.2-1.3 1.4-.4 2.9-.8 4.5-1.5.8-.4 1.6-.8 2.5-1.6 1-.9 1.9-2.1 2.2-3.4.4-1.3.3-2.8-.2-4.1s-1-2-1.6-2.8l-.7-.9c-.2-.2-.3-.5-.5-.7-.3-.5-.7-1.1-1.1-1.7-.8-1.2-1.7-2.7-2.8-4-.5-.7-1.1-1.3-1.7-1.9l-1.6-1.6c-2.1-2.2-4.3-4.4-6.6-6.6-4.5-4.4-9.2-8.8-14-13.3l-14.8-13.6-1.7-1.5c.2.3-.5-.8-.8-1.5-.9-1.5-1.7-3-2.6-4.5L471.1 405l-5.3-9.2-2.7-4.6-1-1.8c-.5-.7-.9-1.6-1.4-2.3H456l-21 .1-61.3.4c-10.5.7-16.5 1.9-25.4 4.2 8.9 2.2 15 3.3 25.7 3.3l83-.4.3.5 2.7 4.6 5.3 9.2 26.4 45.7c.9 1.5 1.7 3 2.6 4.5l.6 1.1.7 1.4.5.4 2.1 1.9 14.8 13.5a439.65 439.65 0 0 1 13.8 13.2l6.5 6.4c.5.5 1 1.1 1.6 1.6.5.5.9 1 1.3 1.5.8 1 1.5 2 2.3 3.3.4.6.8 1.3 1.3 2 .2.3.5.7.8 1l.6.8c.3.4.5.8.5.9-.1.1-.5.4-1 .6-.9.4-2 .8-3.2 1-2.3.5-4.8.9-7.3 1.1l-7.2.5c-9.5.4-17.9.3-25 .4-1.8 0-3.5.1-5.1.2-.8 0-1.6.1-2.3.1s-1.4.1-2.1.1c-2.7.1-5 .1-6.9.1-3.8 0-5.8.1-5.8.1l-16.1.1c-10.3 0-25.3-.1-43.7-.1l-102.4-.7c-3.3 0-6.6 0-9.9-.1-3.3 0-6.7 0-10-.1-1.7 0-3.3-.1-4.9-.2s-3.3-.2-4.9-.4l-2.4-.3c-.8-.1-1.6-.3-2.3-.4-.7-.2-1.5-.3-2.2-.6l-1-.3-.9-.4c-.2-.1-.6-.4-.5-.3h0l.1-.7.9-5.8c.1-.6.1-.8.2-1.1a12.59 12.59 0 0 0 .3-1c.3-.6.6-1.3 1.1-1.8.5-.6.9-1.1 1.6-1.6l2.3-2 40.1-34.3.3-.2.2-.3 4-8.8 4.9-10.8 10.3-22.8c4.3-10.6 5.7-16.6 7.4-25.6zM490 462.5c-8.9-2.3-14.9-3.6-25.6-3.7-1.8 0-4.8-.1-10.9-.1l-44.1-.4-40.4-.4-15.9-.1c-10.7-.1-16.8 1.1-25.7 3.2 8.9 2.3 14.9 3.6 25.6 3.7l15.9.2 95.4 1c10.7-.1 16.8-1.2 25.7-3.4zm-213.2 38.1c.3.5.6 1 1 1.4a7.55 7.55 0 0 0 1.4 1.1c1 .6 2 1 3 1.4 2 .7 3.9 1.3 5.9 1.7 4 .8 8.2 1.3 13.6 1.4l10.9.1 95.8.6 103.6.7c2.7 0 5.1-.1 7.3-.2l3.2-.3c1.1-.1 2.2-.3 3.2-.5 2.1-.5 4.1-1.1 6.1-2.4.5-.3 1-.7 1.4-1.2s.9-1.1.9-1.9c.1-.8-.2-1.4-.6-1.9s-.8-.8-1.3-1.2c.3.5.5 1 .6 1.5s0 .9-.2 1.2c-.4.5-1.2.7-2 .8-1.7.2-3.6.1-5.4 0l-2.8-.3-3.2-.3c-2.2-.2-4.6-.3-7.3-.3-2.6 0-7.7-.1-15.9-.1l-183.4-1.1c-6.1 0-9-.1-10.8-.1-5.3-.1-9.5.1-13.4.4-2 .1-3.9.4-5.8.5-1 0-2 .1-2.9 0-.5 0-1-.1-1.5-.3-.4-.1-.9-.4-1.4-.7z" fill="#202020"/><path d="M160.6 69L658 70.3l2.5 201.2c-1.6 36.8 1.5 133.3-7.4 133.3l-318.3.3c-67.2-.4-177.5 4-179.3-6.3-2.5-15 0-312.1 5.1-329.8z" fill="#fff"/><path d="M160.6 69c9.7 2.4 16.3 3.8 27.9 3.8L654.3 74l.4 17.6 1.4 78.5.9 72.3v16.8l-.1 8.2c0 1.3-.1 2.7-.1 4-.1 1.4-.1 2.7-.2 4.1l-.4 30.9-.6 53.4c-.2 7.9-.5 15.2-1 22-.2 3.4-.5 6.6-.9 9.6s-.8 5.9-1.5 8.2c-.1.3-.2.6-.3.8l-.2.5c0 .1 0 0 0 0h-34.6l-304.5.2-39.6.3-40.6.2c-13.6 0-27.4-.1-41.2-.6-6.9-.3-13.8-.7-20.5-1.4-3.3-.4-6.7-.9-9.6-1.7a11.32 11.32 0 0 1-1.8-.7c-.1 0 0 0 0 0h0v-.1l-.1-1.1-.1-2.5c-.5-13.8-.5-27.9-.6-41.8l.3-83.5 1-81.1.8-39 .5-19 .5-15.3.6-16.9c.2-5.8.1-10.3-.2-14.6-.2-2.2-.4-4.2-.7-6.4s-.7-4.4-.7-6.9c-1.1 2.2-1.8 4.5-2.5 6.6-.6 2.1-1.2 4.2-1.7 6.4-.9 4.3-1.5 8.8-1.8 14.7-.2 3.1-.4 9.4-.7 17l-.5 15.3-.5 19-.8 39-1 81.2-.3 83.6.6 42.2.1 2.7c0 .5.1 1 .1 1.5l.1 1.2.2.6c.1.2.2.4.2.6.6 1.6 2.1 2.8 3.6 3.5 1.1.6 2.1.9 3.1 1.2 3.8 1.1 7.4 1.6 10.9 2 7.1.8 14.1 1.2 21.1 1.5 14 .5 27.8.6 41.5.6l40.7-.2 39.6-.3h38.3l301.6-.2c.3 0 .6 0 1-.1.3-.1.6 0 .9-.2.6-.1 1.2-.4 1.7-.8 1-.8 1.8-1.9 2.4-3.1.3-.7.4-1 .6-1.4s.3-.8.4-1.2c.9-3.1 1.3-6.2 1.7-9.4s.7-6.5.9-10c.5-6.9.8-14.3 1-22.3l.6-53.6.4-30.7c0-1.3.1-2.6.1-4s.1-2.7.1-4.1c.1-2.8.1-5.5.1-8.3.1-5.6 0-11.2 0-16.9l-.9-72.4-1.9-103.6c-.1-.1-.4 0-.6-.1h-22.7c-13.8 0-27.7-.1-41.7-.1l-408.2-1c-11.5-.1-18.1 1.2-27.8 3.6z" fill="#202020"/><path d="M636.5 391.6c-.5 2.4-244.3-4.6-264.2-4.6s-199.1 3.1-200.7-2.3-1.5-293 .8-295.3c23.7-1.5 469.5-10.7 471-2.3s2.3 149.7 1.5 175c-.7 25.4-6.9 122.7-8.4 129.5z" fill="#f4e9c6"/><path d="M636.5 391.6c-.3.1-.6 0-.9 0s-.6-.1-.9-.1l-1.7-.3-3.3-.7-6.4-1.1c-4.3-.6-8.8-1-14.6-1.1-1.6 0-3.9-.1-6.8-.1-1.5 0-3 0-4.7-.1l-28.6-.5-33.1-.7-145.4-3.4-19.2-.3-57.9.6-77.2.2-38-.6c-6.3-.2-12.5-.4-18.6-1l-3.3-.3c-.3 0-.9-.1-.7-.1 0-1.3-.1-2.6-.1-3.9 0-1.5-.1-3.1-.1-4.6l-.6-71.8.1-124.9.4-49.2.3-20.4.2-9c.1-1.4.1-2.8.2-4.2 0-.3 0-.7.1-1 0-.1 0 0 0 0h0l20.5-.6 13.5-.3 119.4-2.4L454.6 88l72.3-.5 76 .5c6.4.1 12.9.3 19.3.6 3.2.1 6.4.3 9.6.5 1.6.1 3.2.2 4.7.4l2.3.3 1.1.2v.6l.2 4.6.3 9.7.4 19.5.6 77.5V240l-.2 18.7c-.1 6.1-.4 12.3-.7 18.4l-2 36.2-2.1 33.4-1.2 17.1c-.4 5.8-.4 10.3-.1 14.7.2 4.1.9 8.2 1.4 13.1 1.9-4.6 3.1-8.7 4.1-12.9 1-4.3 1.7-8.8 2.1-14.6l1.2-17.1 2.1-33.5 2-36.2.7-18.6.2-18.8v-38.1l-.6-77.6-.4-19.5-.3-9.8-.1-2.5-.1-1.2v-.6c0-.2 0-.3-.1-.7l-.8-4.1-.1-.5c0-.2-.1-.3-.2-.5-.2-.3-.5-.5-.8-.8-.6-.4-1.3-.8-2-1-.8-.2-1.6-.4-2.4-.5l-1.3-.2-2.5-.3c-1.7-.2-3.3-.3-5-.4l-9.8-.5c-6.5-.3-13-.4-19.4-.6l-76.1-.5-72.3.5L329 82.2l-124 2.5c-.2 0-3.3.1-8.9.2l-10.4.3c-2 .1-4.2.1-6.6.2-1.2 0-2.4.1-3.6.1-.6 0-1.2.1-1.8.1s-1.2.1-1.9.1l-.9.1c-.3 0-.7-.1-.8.3-.3.4-.5.9-.8 1.3l-.4.7c-.1.2-.2.5-.3.8l-.3 1.9c-.1.6-.1 1.4-.1 2 0 .3 0 .7-.1 1.1-.1 1.4-.1 2.8-.2 4.3l-.2 9.1-.3 20.4-.4 49.2-.2 125 .6 71.9c0 1.6.1 3.1.1 4.7l.1 2.4v1.2l.1 1.9c.1.8.1 1.6.4 2.2.2.7.6 1.2 1.1 1.7 1 .9 2.5 1.4 4 1.7.4.1.8.2 1 .2l1.8.3 2.4.3c6.4.6 12.7.8 19 1 12.7.4 25.4.5 38.2.6l77.3-.2 57.9-.6c6.3 0 12.7.2 19 .3l178.6 4.1 28.6.5c1.7 0 3.3 0 4.8.1 2.9 0 5.3 0 6.8.1 5.8 0 10.4-.3 14.7-.9 2.2-.3 4.3-.7 6.4-1.2 1.1-.2 2.2-.5 3.3-.8.6-.2 1.1-.3 1.7-.5l.9-.3c.4-.7.7-.7.9-1z" fill="#202020"/><path d="M471.5 169c-.4-17.9-5-37.2-22.9-37.6s-57.6-1.8-74.8-1.1-31.1 8.6-31.1 34.4v83.1l27.4.1v-74.1c0-17.4 9.4-18.4 21-18.8 11.6-.5 24.7.5 36.7.7 12.1.2 16.1 8.9 16.3 21 .2 7.9-.1 46.1-.3 71.5l27 .1.7-79.3z" fill="#483374"/><path d="M471.5 169c1.1-4.9 1.7-9.1 1.6-13.6-.1-2.3-.3-4.6-.9-7.1s-1.5-5.2-3.1-8.1c-.7-1.3-1.8-3.1-3.6-5.1-.9-1-1.9-2-3.2-2.9-.6-.5-1.3-.9-2-1.4l-.5-.3-.3-.2-.2-.1c-.1-.1-.2-.1-.3-.2l-.7-.3c-1.8-.8-3.7-1.4-5.6-1.7s-4-.4-5.5-.4c-1.7 0-3.4-.1-5.1-.1l-10.4-.3-21.7-.5-22.6-.3-11.5.1c-1.9 0-4 .2-6 .4l-3.1.4-3.1.6c-4.1 1-8.1 2.6-11.7 5.2-3.6 2.5-6.5 6-8.5 9.7-4 7.5-4.8 15.8-4.7 23.2v85.6h34.9v-72.4l.1-8.6c.2-2.8.8-5.6 2.2-7.5.3-.5.7-.9 1.1-1.3.5-.3.9-.8 1.5-1 1.1-.6 2.5-1.1 4.1-1.4a39.17 39.17 0 0 1 5.2-.6c1.9-.1 3.8-.2 5.8-.2 7.8-.2 16.3.2 25.2.5 2.2.1 4.5.1 6.8.2h1.7c.5 0 1 .1 1.5.1s.9.1 1.4.2l.7.1c.2 0 .4.1.6.2 1.7.5 3.2 1.3 4.3 2.4 1.2 1.2 2.1 2.7 2.8 4.5s1.1 3.9 1.3 6.1l.1 1.6.1 1.7v3.6l-.1 14.6-.1 29.6-.1 14.8v12.9h34.5v-.6l.2-10.5.4-26.7.2-17.1c.1-11.5-1.2-18.1-3.7-27.8-2.3 9.7-3.7 16.3-3.8 27.9l-.2 17.1-.4 26.7c0 1.2 0 2.3-.1 3.5v.1h-19.4V239l.1-14.9.1-29.7.1-14.7V176l-.1-1.9-.2-1.9c-.3-2.6-.8-5.2-1.7-7.9-.9-2.6-2.4-5.2-4.6-7.4-2.1-2.1-4.9-3.6-7.7-4.3-.7-.2-1.4-.3-2-.4l-2-.3c-.6 0-1.4-.1-2-.1h-1.7c-2.2-.1-4.5-.1-6.7-.2-8.8-.3-17.4-.7-25.6-.5-2.1.1-4.1.1-6.1.3-2 .1-4.1.3-6.2.7s-4.3 1.1-6.3 2.2c-1 .5-2 1.3-2.9 2-.8.8-1.7 1.7-2.3 2.6-.7.9-1.1 1.9-1.6 2.9-.4 1-.7 1.9-1 2.9l-.6 2.8-.3 2.7c-.1.9-.1 1.7-.1 2.5v64.2c0-5.3 0-4.2 0 1.2v6.1h-19.8v-78.1c0-.9 0-1.8.1-2.6 0-.8.1-1.7.1-2.6s.2-1.7.3-2.5.1-1.7.3-2.5.3-1.6.5-2.5c.2-.8.5-1.6.7-2.4.1-.4.2-.8.4-1.2l.5-1.1c.3-.8.6-1.5 1-2.2 1.5-2.8 3.6-5.3 6.2-7.1 2.6-1.9 5.7-3.2 9-4l2.5-.5 2.6-.3c1.8-.2 3.5-.3 5.4-.3 3.7-.1 7.5-.1 11.3-.1l22.4.3 21.7.5 10.4.3c1.7 0 3.4.1 5.1.1 1.8 0 3 .1 4.4.3 1.3.2 2.6.6 3.7 1.1l.4.2c.1 0 .1.1.2.1l.1.1.6.3c.5.3.9.6 1.3.9.8.6 1.5 1.3 2.2 2 1.2 1.4 2.1 2.7 2.6 3.7 2.5 4.4 3.8 8.6 5.1 12.5 1.4 3.7 2.7 7.6 4 12.4z" fill="#202020"/><path d="M487.2 349H326.4c-8.5 0-15.5-7-15.5-15.5V218.6c0-8.5 7-15.5 15.5-15.5h160.8c8.5 0 15.5 7 15.5 15.5v114.9c0 8.6-7 15.5-15.5 15.5z" fill="#483374"/><path d="M487.2 349c-9.7-2.4-16.3-3.7-27.9-3.8H326.5c-.5 0-1 0-1.4-.1-.5-.1-.9-.1-1.4-.3l-1.4-.4c-3.6-1.3-6.4-4.5-7.2-8.2-.1-.4-.2-.9-.3-1.4s-.1-.9-.1-1.4v-115c0-.6 0-1.2.2-1.7.2-1.1.5-2.2 1-3.1.9-1.9 2.3-3.5 3.8-4.5 1.5-1.1 3.1-1.7 4.6-1.9.4 0 .7-.1 1.1-.1s.7 0 1.1-.1h9.8l152.3.1c1.9.2 3.7.9 5.2 2s2.9 2.5 3.8 4.2 1.3 3.5 1.3 5.5V330c0 1.4 0 2.7.1 4v.7c0 .2 0 .5-.1.7 0 .5-.1.9-.2 1.4-.3 1.8-1 3.5-1.9 5s-2.1 3-3.7 4.2c-1.6 1.3-3.5 2.4-5.9 3 4.9 1.2 9.9-.1 13.8-3.5a16.19 16.19 0 0 0 4.5-6.7c.2-.7.5-1.4.6-2.2.1-.4.2-.8.2-1.2s.1-.8.1-1.2V218.8c0-3.1-.8-6.3-2.2-9.1-1.5-2.8-3.6-5.2-6.2-6.9-2.6-1.8-5.6-2.9-8.7-3.3-.8-.1-1.6-.1-2.3-.1H326.3c-.6 0-1.1.1-1.7.1s-1.2.2-1.8.2c-2.5.5-5.2 1.4-7.6 3.2-2.5 1.8-4.8 4.2-6.3 7.4-.8 1.6-1.3 3.3-1.6 5.2-.2.9-.2 1.9-.3 2.8v115.1c0 .7 0 1.5.1 2.3s.2 1.5.4 2.3c1.4 6.1 6 11.3 11.9 13.5l1.1.4 1.1.3c.8.2 1.5.3 2.3.4s1.6.1 2.3.1H459c11.9 0 18.5-1.3 28.2-3.7z" fill="#202020"/><path d="M397.5 231.4c-28.8 2.6-45.8 22.8-45.8 49.3 0 21.6 15.7 51 52.4 49.8 40.3-1.3 49.8-28.1 49-55.3-.5-19.8-19.4-47.1-55.6-43.8z" fill="#ff8e02"/><path d="M397.5 231.4l-5.2-.5-4.9.2c-1.7.1-3.3.6-5.1 1-.9.2-1.8.6-2.8.9l-3 1.2-2 1.1-2.7 1.5c-1 .6-2 1.3-3.1 2.1 0 0-.1 0-.1.1l-.3.2-.6.5-1.1.9c-.8.6-1.6 1.2-2.3 2l-2.2 2.2-1.1 1.2c-.3.4-.7.8-1 1.2-1.4 1.6-2.6 3.5-3.8 5.4-.6 1-1.1 2-1.6 3-.3.5-.5 1-.8 1.5-.2.5-.4 1.1-.7 1.6-1.9 4.2-3 8.8-3.7 13.5-.1 1.2-.3 2.4-.4 3.6 0 1.2-.1 2.4-.1 3.6-.1 2.4 0 4.9.3 7.3.6 4.8 1.8 9.6 3.5 14 3.5 8.9 9.3 16.8 16.2 22.1 6.9 5.5 14.7 8.3 21.3 9.6 6.7 1.3 12.2 1.2 16 1 1.9-.1 3.4-.3 4.4-.4s1.5-.2 1.5-.2.5-.1 1.5-.2 2.5-.4 4.4-.8c3.7-.8 9.2-2.3 15.2-5.7 3-1.7 6-4 8.8-6.8s5.4-6.3 7.4-10.2c4.1-7.8 6-17.2 6.4-26.5.1-2.3.1-4.7.1-7.1a45.35 45.35 0 0 0-.9-7.4c-1-4.8-2.9-9.4-5.2-13.6-2.4-4.2-5.3-7.9-8.6-11.2-.8-.8-1.7-1.6-2.5-2.3-.9-.7-1.7-1.5-2.6-2.1-.9-.7-1.8-1.3-2.7-1.9-.5-.3-.9-.6-1.4-.9-.4-.2-.8-.5-1.2-.7-5.2-3-9.9-4.4-12.3-5-4.4-1.1-7.9-1.3-11.2-1.1-3.2.2-6.3.9-9.8 2.1 3.6.6 6.6 1.3 9.6 1.9 3 .7 6.1 1.3 10 2.4 2.1.6 6.3 1.9 10.9 4.5.4.2.7.4 1.1.6s.8.5 1.2.8c.8.5 1.6 1.1 2.4 1.7s1.6 1.2 2.3 1.9 1.5 1.3 2.2 2.1c2.9 2.9 5.5 6.2 7.6 10 2.1 3.7 3.7 7.8 4.6 12 .4 2.1.7 4.2.8 6.3 0 2.2 0 4.5-.1 6.7-.4 8.8-2.1 17.3-5.8 24.2-3.5 6.9-8.8 11.8-14 14.8s-10.1 4.3-13.5 5.1c-1.7.3-3.1.6-4 .7s-1.4.2-1.4.2-.5.1-1.4.2-2.3.3-4.1.3c-3.6.2-8.6.3-14.6-.9s-12.8-3.7-18.9-8.5c-6.1-4.7-11.3-11.7-14.5-19.8a49.63 49.63 0 0 1-3.2-12.6c-.2-2.2-.4-4.3-.3-6.5 0-1.1.1-2.2.1-3.3.1-1.1.3-2.1.4-3.2.6-4.2 1.7-8.4 3.3-12.1.2-.5.4-.9.6-1.4s.5-.9.7-1.3c.5-.9.9-1.8 1.4-2.6 1.1-1.6 2.1-3.3 3.4-4.7.3-.4.6-.7.9-1.1s.6-.7.9-1l1.9-1.9c.6-.7 1.3-1.2 2-1.7.3-.3.7-.6 1-.8l.5-.4.2-.2s.1 0 .1-.1c1-.7 1.9-1.3 2.8-1.8.8-.6 1.7-1 2.4-1.4l1.8-1c.9-.5 1.8-.8 2.6-1.2s1.6-.8 2.4-1.1c1.6-.6 3-1.3 4.4-1.9 1.4-.5 2.8-1.2 4.3-1.8 1.7-.8 3.3-1.4 5-2.1z" fill="#202020"/><path d="M369.5 264.1c5.5-1.3 23.4-2.7 23.4-2.7 9.8 13.3 19.3 26.5 24.4 35.7-8.9 2.1-17.9 3.3-27.2 3.7-5.7-9.4-13.8-23.4-20.6-36.7z" fill="#fff"/><path d="M369.5 264.1l9.9.6c3.2.1 6.5.1 10.8-.3.4 0 .8-.1 1.3-.1h.2l.1.1c.1.2.3.4.4.5.5.8 1.2 1.6 1.9 2.6 3.4 4.6 9 12.4 13.6 19.2l3.2 4.8c.5.7.9 1.5 1.3 2.1.3.5.6.9.8 1.3l.1.2c-.8.1-1.7.3-2.7.5-1.1.2-2.4.4-3.7.6-2.7.4-5.9.8-9.2 1.1-1.7.2-3.4.3-5.1.4h-.6v-.1c-.2-.3-.4-.7-.6-1l-3-5.1-6.3-10.9c-4.4-7.2-7.6-11-12.4-16.5 1.7 7.2 3.2 11.9 7.3 19.4 1 1.9 3 5.4 6.3 11.1.5.8 1.8 3 3.1 5.2l2.1 3.4c.1.2.2.4.3.5h.6l1.3-.1 2-.1c1.8-.1 3.5-.2 5.2-.4 3.4-.3 6.7-.7 9.6-1.2 1.4-.2 2.7-.5 3.9-.7.6-.1 1.1-.2 1.6-.3.6-.1 1.1-.2 1.6-.3l5.2-1.1s.2 0 .6-.1c.2 0 .4-.1.7-.2.1 0 .3-.1.5-.1h.2v-.1c0-.1-.1-.2-.1-.2-.7-1.3-1.9-3.3-3.1-5.4-.2-.3-.3-.6-.5-.8l-.3-.6c-.2-.3-.4-.7-.6-1-.4-.7-.9-1.4-1.4-2.2l-3.2-4.9c-4.6-6.9-10.3-14.7-13.7-19.3-.7-1-1.4-1.8-1.9-2.6-.4-.5-.7-1-1-1.4-.5-.6-.9-1.3-1.3-1.8l-4.6.4c-4.3.4-7.6 1-10.7 1.8-3.4.6-6.4 1.5-9.7 3.1z" fill="#202020"/><path d="M434.9 222.8l23.9-1.5-41.5 75.8-12.1-18.6z" fill="#fff"/><path d="M434.9 222.8c3.6.7 6.7 1.2 9.8 1.4l5 .2h4.2s.1-.1-.1.2l-33.3 61.1s-.3.5-1.3 2.4l-2 3.6-3.7-5.7-3.7-5.6-1.1-1.7-.2-.4.3-.5 1.1-2.1 11.9-22.3 6-11.2c3.9-7.6 5.3-12.3 7.1-19.4-4.9 5.5-8.1 9.3-12.1 16.8l-6 11.2-11.9 22.3-2.9 5.5c.3.6.8 1.2 1.1 1.8.3.5.6.9.9 1.4l1.1 1.7 3.7 5.6 4.9 7.5c.9 1.3 1.7 2.6 2.5 3.8.4.6.8 1.2 1.1 1.8l.3.4c0 .1 0 0 .1 0l.1-.1.1-.2c.2-.3.3-.6.5-.9 1.2-2.3 2.3-4.3 3.3-6 1.1-2 1.9-3.4 2.4-4.5l1.3-2.4 33.4-61.1c1.1-2.1 2.1-3.8 3-5.4.4-.8.9-1.6 1.2-2.3.2-.4.4-.7.6-1l.1-.2.1-.1c0-.1-.1 0-.1 0h-.5l-6.1.4c-1.1.1-2.1.1-3.1.2-.5 0-1.1.1-1.6.1l-2.8.3c-1.8.2-3.4.5-4.9.8-3.3.6-6.3 1.4-9.8 2.6z" fill="#202020"/></svg>